<?xml version="1.0" encoding="UTF-8" standalone="no"?>
<svg width="79px" height="20px" viewBox="0 0 79 20" version="1.1" xmlns="http://www.w3.org/2000/svg" xmlns:xlink="http://www.w3.org/1999/xlink" xmlns:sketch="http://www.bohemiancoding.com/sketch/ns">
    <!-- Generator: Sketch 3.5.1 (25234) - http://www.bohemiancoding.com/sketch -->
    <title>0629.com.ua</title>
    <desc>Created with Sketch.</desc>
    <defs>
        <rect id="path-1" x="0" y="0" width="79" height="20"></rect>
    </defs>
    <g id="feed" stroke="none" stroke-width="1" fill="none" fill-rule="evenodd" sketch:type="MSPage">
        <g id="screen" sketch:type="MSArtboardGroup" transform="translate(-23.000000, -52.000000)">
            <g id="0629.com.ua" sketch:type="MSLayerGroup" transform="translate(23.000000, 52.000000)">
                <mask id="mask-2" sketch:name="Mask" fill="white">
                    <use xlink:href="#path-1"></use>
                </mask>
                <use id="Mask" opacity="0.7" sketch:type="MSShapeGroup" xlink:href="#path-1"></use>
                <g mask="url(#mask-2)" id="Слой_1">
                    <g transform="translate(0.000000, -9.000000)">
                        <g>
                            <g id="Group" fill="#000000" sketch:type="MSShapeGroup">
                                <path d="M31.9121774,40.6969706 C34.3726452,46.5563529 15.9044839,35.4231471 13.7154194,34.6934118 C9.81893548,33.4034118 7.45658065,31.5240588 5.13372581,28.4482941 C-2.37891935,18.5051765 4.65972581,3.1175 18.0591452,2.67864706 C26.8166774,2.39155882 32.9060484,7.57179412 35.1562742,15.4635588 C36.656,20.7209412 33.5941129,24.6997059 36.0099839,24.5782941 C37.1185323,24.5213824 37.0726613,23.2035588 37.3644516,22.2512353 C38.7940968,22.4624412 39.2935806,22.9493529 40.9576774,22.2904412 C41.9655645,21.8920588 42.7988871,20.9270882 42.1299355,19.8280588 C40.4849516,19.6168529 41.1934032,21.0219412 39.6783871,21.285 C37.1006935,21.7352353 37.0420806,17.4251176 38.8756452,17.0317941 C41.2023226,16.5322353 40.481129,19.2753824 42.3095968,18.0448235 C42.3758548,16.7902353 41.5361613,16.0908529 40.5244516,15.8138824 C38.6896129,15.3155882 38.5915,15.9441471 37.3198548,16.0175 C36.9159355,12.1234706 34.444,8.35338235 32.0395968,5.94032353 C23.6796129,-2.46364706 7.88725806,-1.01302941 1.86159677,11.1711471 C-4.029,23.0796176 4.80753226,36.9015882 17.9151613,37.4669118 C28.3992258,37.9196765 34.0082258,40.7526176 33.924129,39.7345294 C34.6453226,39.3917941 35.0683548,39.6561176 35.8354194,39.1287353 C36.0227258,38.0221176 35.5232419,37.8905882 34.9307419,37.4555294 L31.9007097,35.1221471 C29.1318871,32.8836176 29.4045645,36.2148529 29.3841774,38.0537353 C29.3586935,40.2593824 29.0974839,40.7450294 29.8403387,41.7315 C31.1846129,41.7555294 30.961629,41.0498235 31.9121774,40.6969706 L31.9121774,40.6969706 L31.9121774,40.6969706 Z" id="Shape"></path>
                                <path d="M50.6045968,16.7295294 L50.5969516,20.5072059 C50.5969516,21.5556471 50.4147419,21.9262059 51.1142742,22.5863824 C52.6942742,22.6458235 52.3871935,21.758 52.3884677,20.3680882 C52.3897419,18.8972353 52.2929032,18.3913529 52.8803065,17.2126471 C54.6973065,16.598 54.6973065,17.5452647 54.6973065,19.1097059 C54.6973065,20.3491176 54.4501129,22.2727353 55.2490323,22.5661471 C56.8430484,23.1479118 56.5117581,20.4237353 56.5117581,19.8090882 C56.5117581,18.6291176 56.4174677,17.6413824 57.2597097,17.1582647 C57.6789194,16.9167059 58.1707581,16.9521176 58.5109677,17.3075 C59.3009677,18.1396765 58.0968548,22.0488824 59.2678387,22.5598235 C60.8134355,22.6711176 60.5738871,21.7858235 60.5738871,20.5097353 C60.5738871,18.6986765 60.8924355,16.6574412 59.5978548,15.9605882 C57.9961935,15.1005882 56.7449355,16.3172353 56.2454516,16.5006176 C55.5446452,16.0668235 55.5803226,15.6735 54.3953226,15.6924706 C53.2867742,15.7089118 53.1453387,16.0415294 52.3986613,16.4462353 L51.8902581,15.7278824 L51.040371,15.695 C50.7689677,16.0744118 50.6045968,16.1528235 50.6045968,16.7295294 L50.6045968,16.7295294 L50.6045968,16.7295294 Z" id="Shape"></path>
                                <path d="M13.6236774,20.4844412 C13.1879032,17.5351471 16.6664516,17.2366765 16.9365806,19.694 C17.2716935,22.7533235 13.9740806,22.8481765 13.6236774,20.4844412 L13.6236774,20.4844412 L13.6236774,20.4844412 Z M13.4261774,17.6654118 C13.5357581,15.9049412 13.8530323,14.2102353 15.833129,14.491 C16.8078871,14.9652647 16.6103871,15.5811765 17.1328065,15.8872353 C19.2059194,17.0887059 18.9128548,12.2752353 14.5117903,13.1655882 C10.5184677,13.9762647 9.87627419,23.2250588 15.0214677,23.5108824 C20.2201774,23.8042941 19.914371,16.3222941 15.3744194,16.7244706 C14.3576129,16.813 14.0403387,17.3783235 13.4261774,17.6654118 L13.4261774,17.6654118 L13.4261774,17.6654118 Z" id="Shape"></path>
                                <path d="M30.2187742,14.6162059 C32.3606935,13.631 33.410629,17.5933235 31.435629,18.4014706 C29.7129194,19.1021176 28.6642581,17.1190588 29.3140968,15.5103529 C29.3905484,15.3206471 29.473371,15.1461176 29.6823387,14.9387059 C30.1002742,14.5226176 29.8874839,14.7692353 30.2187742,14.6162059 L30.2187742,14.6162059 L30.2187742,14.6162059 Z M28.0794032,20.6298824 C26.1413548,22.3815 31.2126452,25.1410882 33.4615968,22.2904412 C34.8530161,20.5249118 35.234,16.3147059 33.6565484,14.3771765 C31.8917903,12.2056765 27.8704355,12.8519412 27.3161613,15.7607647 C26.9925161,17.4516765 27.7315484,18.8441176 28.6999355,19.4043824 C30.527129,20.4717941 31.6165645,19.5662647 32.6563065,18.9655294 C32.5301613,20.4844412 32.2791452,21.8035294 31.0329839,22.1045294 C29.263129,22.5370588 29.7638871,20.4009706 28.0794032,20.6298824 L28.0794032,20.6298824 L28.0794032,20.6298824 Z" id="Shape"></path>
                                <path d="M5.44845161,19.3765588 C5.06746774,14.0002941 7.19537097,13.8788824 8.09622581,14.9387059 C9.00727419,16.0162353 9.15890323,20.7500294 7.94841935,21.7655882 C6.64491935,22.8557647 5.60262903,21.543 5.44845161,19.3765588 L5.44845161,19.3765588 L5.44845161,19.3765588 Z M6.31108065,13.1301765 C3.73848387,13.6752647 3.32309677,16.2211176 3.47090323,19.0667059 C3.60469355,21.6112941 4.91074194,24.0660882 7.87196774,23.4172941 C10.3540968,22.8734706 10.856129,20.2694412 10.6943065,17.4693824 C10.5452258,14.9323824 9.19840323,12.5155294 6.31108065,13.1301765 L6.31108065,13.1301765 L6.31108065,13.1301765 Z" id="Shape"></path>
                                <path d="M20.7986613,16.7864412 C21.6281613,16.1009706 21.5478871,14.1457353 23.4999516,14.5453824 C25.246871,14.9032941 24.6900484,16.9546471 23.8694677,17.7665882 L21.020371,20.1973529 C20.336129,20.8423529 18.7892581,22.1209706 20.1704839,23.2819706 C21.0050806,23.3692353 26.0266774,23.4843235 26.4943065,23.1947059 C26.7376774,23.0378824 27.5799194,21.7061471 25.3437097,21.6846471 C24.2848548,21.6745294 23.1941452,21.6821176 22.1340161,21.6897059 C22.4092419,20.8486765 24.5677258,19.3120588 25.3067581,18.7037353 C28.564871,16.0238235 25.3819355,11.5113529 21.2675645,13.4779706 C20.5259839,13.8308235 20.0188548,14.4087941 19.7538226,15.1524412 C19.3651935,16.2375588 19.6047419,16.8888824 20.7986613,16.7864412 L20.7986613,16.7864412 L20.7986613,16.7864412 Z" id="Shape"></path>
                                <path d="M76.2706774,19.2943529 C76.3038065,22.0514118 73.9745806,21.5177059 73.6483871,21.1863529 C72.2633387,19.7787353 75.6679839,19.2715882 76.2706774,19.2943529 L76.2706774,19.2943529 L76.2706774,19.2943529 Z M72.2161935,18.0979412 L72.9131774,18.1485294 C73.5732097,17.6464412 73.4432419,17.0520294 74.4944516,16.8838235 C75.7775645,16.6738824 76.156,16.9951176 76.2400968,18.1662353 C74.4358387,18.6367059 71.5243065,18.6202647 71.6224194,20.7879706 C71.6695645,21.8300882 72.5130806,22.4953235 73.4993065,22.5927059 C74.8104516,22.7179118 75.478129,22.2044412 76.3343871,21.7630588 C77.0606774,22.2095 77.1880968,23.2705882 78.2609677,22.1437353 C78.3234032,21.3735294 78.0647419,21.2862647 78.0023065,20.5147941 C77.8570484,18.7429412 78.4966935,16.6372059 76.7434032,15.9087353 C74.8244677,15.1081765 70.8770161,16.0832647 72.2161935,18.0979412 L72.2161935,18.0979412 L72.2161935,18.0979412 Z" id="Shape"></path>
                                <path d="M45.583,17.1494118 C46.7756452,16.3842647 47.8294032,17.4200588 48.0600323,18.3319118 C48.3339839,19.4195588 48.0727742,20.6754118 47.1974032,21.1319706 C44.8248548,22.3713824 43.8730323,18.2446471 45.583,17.1494118 L45.583,17.1494118 L45.583,17.1494118 Z M43.021871,19.9456765 C43.6666129,23.8561471 50.6109677,23.6196471 49.8439032,18.4065294 C49.2424839,14.3114118 42.1592419,14.7275 43.021871,19.9456765 L43.021871,19.9456765 L43.021871,19.9456765 Z" id="Shape"></path>
                                <path d="M67.0722742,21.1812941 C66.4466452,20.7297941 66.3956774,20.3807353 66.3689194,19.393 C66.3396129,18.2598235 66.8085161,14.7616471 65.0068065,15.8088235 C64.4767419,16.1186765 64.6245484,17.286 64.6258226,17.9891765 C64.6258226,19.5460294 64.3187419,21.3735294 65.4935484,22.2019118 C66.8607581,23.1668824 68.3604839,22.36 69.131371,21.5569118 C69.3046613,22.2272059 69.2320323,22.1867353 69.6729032,22.5560294 C71.3064194,22.7824118 70.8222258,20.8499412 70.829871,19.5270588 C70.8400645,17.9562941 71.0566774,16.5271765 70.4132097,15.695 L69.4703065,15.7481176 C68.2967742,17.3188824 70.3303871,21.7440882 67.0722742,21.1812941 L67.0722742,21.1812941 L67.0722742,21.1812941 Z" id="Shape"></path>
                                <path d="M63.2305806,22.575 C63.5249194,22.3309118 63.7631935,22.1867353 63.7899516,21.758 C63.8128871,21.3773235 63.6574355,21.0067647 63.2981129,20.8436176 C62.5705484,20.5160588 61.771629,20.7120882 61.9589355,22.188 C62.376871,22.4902647 62.5412419,22.6243235 63.2305806,22.575 L63.2305806,22.575 L63.2305806,22.575 Z" id="Shape"></path>
                            </g>
                        </g>
                    </g>
                </g>
            </g>
        </g>
    </g>
</svg>