<?xml version="1.0" encoding="utf-8"?>
<!-- Generator: Adobe Illustrator 16.0.0, SVG Export Plug-In . SVG Version: 6.00 Build 0)  -->
<!DOCTYPE svg PUBLIC "-//W3C//DTD SVG 1.1//EN" "http://www.w3.org/Graphics/SVG/1.1/DTD/svg11.dtd">
<svg version="1.1" id="Слой_1" xmlns="http://www.w3.org/2000/svg" xmlns:xlink="http://www.w3.org/1999/xlink" x="0px" y="0px"
	 width="84.571px" height="20px" viewBox="0 0 84.571 20" enable-background="new 0 0 84.571 20" xml:space="preserve">
<g>
	<rect x="25.522" y="3.136" fill-rule="evenodd" clip-rule="evenodd" width="4.429" height="13.25"/>
	<rect x="44.791" y="3.136" fill-rule="evenodd" clip-rule="evenodd" width="4.443" height="13.25"/>
	<path fill-rule="evenodd" clip-rule="evenodd" d="M36.563,2.668h1.695c2.774,0,5.034,2.236,5.034,4.98v3.888
		c0,2.745-2.26,4.98-5.034,4.98h-1.695c-2.773,0-5.047-2.235-5.047-4.98V7.648C31.516,4.905,33.79,2.668,36.563,2.668L36.563,2.668z
		"/>
	<path fill-rule="evenodd" clip-rule="evenodd" d="M6.293,14.131c0.296-0.01,0.245-0.152,0.245-0.152
		c-0.317-0.191-0.215-0.161-0.532-0.04C6.048,14.04,5.884,14.141,6.293,14.131L6.293,14.131z M3.228,6.53
		C3.504,6.712,4.219,6.206,4.28,6.135L4.004,5.954L3.617,6.297C3.279,6.459,3.402,6.115,3.228,6.53L3.228,6.53z M12.096,1.324
		c-0.246,0.101,0.061,0.122-0.45,0.01l-0.348,0.03c-0.337-0.182-0.041-0.01-0.664,0.04c-0.153,0.021-0.316,0.021-0.459,0.031
		c-0.327,0.02-0.357,0.02-0.552,0.313c-0.459,0.01-0.439,0.252-0.878,0.404C7.233,1.061,7.795,1.213,7.13,0.667
		c0.215,0.475,0.961,0.798,0.695,1.384c-0.95,0.223-2.472-1.344-2.962-1.566C4.842,0.475,4.812,0.465,4.792,0.455L4.352,0.192
		C4.199,0.111,4.056,0.091,3.862,0l0.664,0.586c0.807,0.788,0.572,0.172,2.176,1.486L7.56,2.79C7.448,3.053,7.509,2.921,7.366,3.083
		C7.202,3.265,6.926,3.457,6.641,3.507l-0.317,0.03c-0.01,0-0.041,0.011-0.061,0.011l-0.644,0.09
		c0.255,0.192,0.092,0.02,0.347,0.081l0.418,0.171c0.031,0.536-0.51,0.293-0.807,0.445c0.133,0.061,0.419,0.071,0.205,0.697
		c-0.194,0.557-0.48,0.375-0.368,0.81C5.547,6.277,5.772,6.51,6.12,6.833c0.715,0.646,0.408,0.142,1.083,0.435
		c0.92,0.404,0.511,0.667,1.808,0.606c0.532-0.031,1.492-0.243,1.849-0.586c0.389-0.375,0.164-0.455,0.869-0.748
		c1.583-0.657,1.114-0.546,1.553-1.365l0.205-0.232c0.122-0.202,0.214-0.364,0.347-0.596c0.184-0.313,0.123-0.182,0.123-0.597
		c0.583-0.01,0.654-0.121,0.5-0.636c-0.225-0.749-1.093-1.617-1.87-1.86c-0.143-0.04-0.163-0.061-0.306-0.03
		C11.994,1.264,12.188,1.001,12.096,1.324L12.096,1.324z M21.689,7.702c-0.143-0.232-0.123-0.131-0.235-0.394l-0.235-0.101
		c-0.062-0.091-0.112-0.708-0.225-0.981c-0.664-1.708-0.91-0.404-3.514-1.708c-0.664-0.333-2.002-0.435-2.667,0l-1.297,2.093
		c-0.256,0.272-0.654,0.515-0.552,1.112l0.214,0.364c0.123,0.151,0.031,0.03,0.133,0.162l0.286,0.525
		c-0.459,0.152,0.266-0.151-0.296-0.051c0.215,0.536,0.296,0.111,0.45,0.931c0.071,0.394-0.072-0.031,0.143,0.435
		c0.133,0.272,0.184,0.404,0.306,0.737c0.174,0.516,0.255,0.364,0.45,0.455c-0.041,0.778,0.092,0.535,0.174,0.92
		c0.071,0.344-0.133-0.081-0.021,0.132c1.103-0.183,0.766,0.242,1.205-0.405c0.276,0.143,0.164,0.091,0.491,0.011
		c0.041,0.091-0.112,0.051,0.112,0.344l0.307,0.516c1.563,0.081,1.001-0.819,2.758-0.132c0.531-0.485,1.583-1.517,1.696-2.274
		c0.562-0.343,0.214-0.435,0.276-1.061C21.719,8.582,21.883,8.571,21.689,7.702L21.689,7.702z M16.989,2.952l0.112,0.101
		c0.348,0.232,0.307,0.121,0.47,0.172c0.429,0.151,0.204-0.011,0.235,0.434l0.838-0.04c0.235-0.05,0.102,0,0.245-0.111
		c-0.153-0.667-1.032-0.919-1.594-1.243c-0.327-0.182-0.603-0.415-0.94-0.566c-0.368-0.172-0.378-0.05-0.735-0.182
		c-1.277-0.456-1.186,0.505-0.552,1.263c0.021,0.02,0.072,0.081,0.092,0.102c0.286,0.272,0.511,0.141,0.94,0.283
		c0.357,0.111-0.112,0.172,0.388,0.081l0.388-0.192C16.897,3.042,16.969,2.981,16.989,2.952L16.989,2.952z M18.828,17.517v0.021
		c-1.267,1.749-3.126,0.313-3.657,1.142c-0.123,0.011-0.225,0.03-0.306,0.04c0.01,0.011,0.02,0.021,0.041,0.031
		c-0.603,0.021-0.286,0.323-0.705,0.546c-0.378,0.202-0.562-0.071-0.97-0.081c-0.246,0.293-0.327,0.657-0.746,0.737
		c-1.052,0.192-1.43-2.314-1.41-2.679c0.102,0.516,0,0.213,0.235,0.294c0.102-0.182-0.174-0.506,0.583-1.425l0.45-0.516
		c0.756-0.638-0.287-0.344,0.612-0.991c0.307-0.212,0.011,0.031,0.297-0.272c0.194-0.202,0.419-0.374,0.705-0.546
		c0.439-0.272,0.184-0.021,0.715-0.455l0.633-0.495c0.01,0,0.03-0.02,0.041-0.04c0.766,0.485,0.5,0.121,1.113,0.191
		c0.398,0.051,1.175,0.232,1.604,0.324c0.174,0.151,0.398,0.151,0.603,0.242c-0.051-0.051-0.092-0.051-0.215-0.131
		c0.735,0.08,0.409,0.354,1.114,0.667l-0.031,2.486l-0.47,0.01c-0.031,0.142-0.072,0.313-0.164,0.465
		c-0.031,0.051-0.051,0.183-0.062,0.304c0,0.05-0.01,0.101-0.01,0.151C18.828,17.537,18.828,17.526,18.828,17.517L18.828,17.517z
		 M4.658,14.667c0.021,0.354,0.092,0.454,0.194,0.707c0.286-0.061,0.153-0.232,0.419-0.323c0.133,0.222,0.378,0.384,0.419,0.646
		l0.878,1.385c0.409,0.465,0.235,0.354,0.225,0.516v0.111c0.47,0.111,0.878,0.172,1.175,0.424c0.296,0.264,0.061,0.576,1.91,1.345
		l1.032,0.182c0.808-0.141,0.133-0.575,0.153-0.97c-0.266-0.253-0.337-0.495-0.592-0.769c-1.052-1.162-0.695-1.334-0.715-1.557
		c-0.061-1.031-1.298-0.708-2.207-1.354c-1.512-1.062-0.787-0.839-1.318-0.535l-0.336,0.121l0.03-0.364
		C5.333,14.656,5.241,14.524,4.658,14.667L4.658,14.667z M0.082,13.929L0,14.161c0.542,0.101,1.216-0.213,1.808-0.435
		c0.542-0.202,0.715-0.859,1.533-0.899c0.276,0.283,0.235,0.303,0.449,0.374c0.184,0.061,0.194,0.021,0.194,0.03
		c0.092,0.02,0.144-0.404,0.327,0.809c-0.562,0.01-0.245-0.324-0.449,0.101c0.173,0.303-0.01,0.151,0.378,0.263l0.582-0.223
		c0.715-0.151,1.145-0.515,1.328-1.303c0.062-0.294,0.051-0.476,0.113-0.719l0.204-0.687c0.184-0.637,0.307-0.516,0.409-1.436
		c0.266-0.081,0.092,0.101,0.5-0.07c0.031-0.132-0.01-0.071,0.041-0.263C7.499,9.39,7.519,9.532,7.519,9.421
		C7.162,9.138,6.814,9.269,6.354,9.32c0.01-0.192-0.021-0.637-0.051-0.769l-0.96-1.89L5.037,6.52
		C4.801,6.692,4.883,6.671,4.648,6.782c0.317,0.526-0.01,0.253,0.368,0.708c0.01,0.01,0.031,0.03,0.041,0.05
		C5.19,7.713,5.159,7.631,5.23,7.915C5.006,7.783,5.057,7.793,5.006,7.753c-0.225-0.172,0.143,0.05-0.174-0.131
		C4.73,7.743,4.812,7.692,4.75,7.813L4.567,8.045c-0.153,0.142-0.062,0.03-0.153,0.142C4.107,8.571,4.301,8.703,3.923,8.925
		c-0.531,0.252-1.165-0.91-1.267-1.001C2.431,7.945,2.431,7.945,2.289,8.025C1.625,8.43,2.901,8.41,2.871,8.925
		C2.758,9.138,2.636,9.229,2.329,9.259C1.011,9.421,1.992,8.562,0.491,9.29c0.49,0.04,1.308,0.202,1.685,0.465
		c0.705,0.505,0.787,0.04,1.175,0.859c-0.194,0.354-0.173,0.162-0.347,0.384c-0.419,0.526,0.041,0.576-0.48,0.585
		c-0.398,0-0.235-0.363-0.47-0.02c0.174,0.151-0.072,0.01,0.205,0.091l0.521,0.08c0.071,0.627-0.082,0.192-0.174,0.506
		c-0.072,0.253,0.082-0.182,0.082,0.445C2.074,13.646,1.165,13.564,0.082,13.929L0.082,13.929z M9.246,8.683
		c0,0.01,0.021,0.02,0.021,0.03l0.061,0.121c0,0,0,0.021,0,0.031c-0.143,0.344-0.756,0.182-0.95,0.131
		C8.326,9.279,8.367,9.198,8.214,9.35c-0.062-0.182,0.051,0.233,0-0.111c-0.041-0.232,0.02-0.091-0.071-0.242
		C8.05,9.057,7.969,9.107,7.876,9.198c-0.317,0.354-0.123,0.576-0.255,0.96c-0.031,0.091-0.531,0.89-0.583,1.536
		c-0.041,0.506-0.041,1.375,0.276,1.557c0.01,0,0.03,0.011,0.041,0.011l0.215,0.11c0.368,0.344,1.195,1.477,2.207,1.567
		c0.991,0.101,1.89-0.769,2.34-1.506c0.327-0.536,0.377-1.062,0.99-1.152c-0.327-0.223-0.327-0.444-0.388-0.617l-0.174-0.424
		c-0.102-0.293,0.143-0.273-0.286-0.87c-0.388-0.536-0.082-0.586-0.276-0.94c-0.01-0.01-0.031-0.031-0.041-0.051
		c-0.256-0.445-0.092-0.394-0.185-0.636c-0.173-0.445,0.041-0.071-0.306-0.293l-0.368-0.212c-0.133-0.02-0.316,0.01-0.46,0.05
		L9.246,8.683z"/>
	<path fill-rule="evenodd" clip-rule="evenodd" d="M62.758,10.275c-2.457,0.117-3.036,0.792-3.023,3.511
		c0.014,2.393,0.92,3.108,3.444,3.069c2.458-0.052,2.971-1.015,2.971-3.563C66.136,11.004,65.229,10.157,62.758,10.275
		L62.758,10.275z"/>
	<path fill-rule="evenodd" clip-rule="evenodd" d="M59.643,3.11l-0.039,3.043l-0.013,2.691c0.354,0.026,0.723,0.026,1.077,0.04
		c0.408,0.013,0.71,0.039,1.052-0.117l0.092-2.211c1.118,0,1.184-0.273,1.617,2.341l2.274,0.026
		c-0.092-0.585-0.276-1.262-0.447-1.847c-0.236-0.832-0.368-0.794-1.052-1.157c1.946-0.469,1.551-2.653,0.355-3.199
		c-0.749-0.338-4.114-0.48-4.889-0.208L59.643,3.11z"/>
	<path fill-rule="evenodd" clip-rule="evenodd" d="M72.813,6.062c-0.394,1.17-0.841,2.341-1.052,2.952L73.97,9.04l0.368-1.287
		c0.539-0.156,1.249-0.118,1.84-0.027l0.407,1.34l2.156,0.039c0.014-0.754-1.394-5.006-1.695-6.021
		c-0.434-0.546-0.789-0.403-1.63-0.429c-0.315,0.013-0.828-0.052-1.13,0C73.325,2.785,73.155,5.048,72.813,6.062L72.813,6.062z"/>
	<path fill-rule="evenodd" clip-rule="evenodd" d="M66.254,16.737l2.209,0.053l0.355-1.379l1.892,0.04l0.315,1.353l2.182,0.052
		c-0.197-1.118-0.697-2.484-1.025-3.589c-0.158-0.56-0.355-1.224-0.525-1.834c-0.276-0.975-0.395-0.963-1.551-0.963
		c-2.392,0-1.866,0.026-2.576,2.263C67.108,14.046,66.636,15.36,66.254,16.737L66.254,16.737z"/>
	<path fill-rule="evenodd" clip-rule="evenodd" d="M55.661,8.871c0.617-0.143,0.735-0.338,1.208-0.598l0.237,0.533l1.564,0.053
		l0.079-1.548l-0.014-2.093L56.633,5.19l-0.131,2.042c-1.459,0.364-1.827-0.754-1.459-2.601c0.211-1.079,2.13-0.546,3.26-0.598
		l0.145-1.378l-0.684-0.209c-3.667-0.441-5.521,0.118-5.021,4.317c0.039,0.352,0.184,0.911,0.355,1.235
		C53.584,8.897,54.74,9.092,55.661,8.871L55.661,8.871z"/>
	<path fill-rule="evenodd" clip-rule="evenodd" d="M57.198,16.14c0.25,0.441,0.04,0.481,0.591,0.533
		c0.381,0.027,0.802-0.013,1.223,0.027l0.079-3.617l-2.116-0.103c0.013,0.662,0.104,1.456-0.092,2.055
		c-0.815,0.013-1.328,0.142-1.473-0.716c-0.446-2.848,0.657-2.561,3.22-2.38l0.158-1.481c-3.076-0.6-5.429-0.651-5.679,2.562
		c-0.091,1.235,0.066,2.613,0.736,3.251c0.434,0.402,1.091,0.507,1.748,0.48C56.371,16.712,56.66,16.426,57.198,16.14L57.198,16.14z
		"/>
	<path fill-rule="evenodd" clip-rule="evenodd" d="M82.303,15.269c-0.775,0.364-2.103,0.026-3.036,0.052l-0.25,1.313
		c0.171,0.104,0.026,0.039,0.29,0.144c0.775,0.273,4.653,0.858,5.139-0.91c0.854-3.056-2.918-2.51-3.221-3.628
		c0.5-0.3,2.3-0.117,3.01-0.105c0.106-1.365,0.75-1.52-2.129-1.638c-1.104-0.038-2.392-0.052-2.865,0.794
		c-0.999,1.82,0.591,2.666,1.879,3.212C82.092,14.904,82.21,14.749,82.303,15.269L82.303,15.269z"/>
	<path fill-rule="evenodd" clip-rule="evenodd" d="M66.964,2.85c-0.736,0.455-0.579,1.43-0.591,2.458
		c-0.014,0.624-0.105,2.276,0.065,2.77c0.5,1.43,4.693,0.937,5.087,0.807l0.105-0.846l-0.237-0.559c-0.736,0-2.143,0.13-2.839-0.195
		l-0.013-0.924l2.576,0.053l0.053-1.328l-2.616-0.09l0.092-0.819c0.763-0.233,1.985-0.065,2.892-0.052l0.105-1.366
		C70.566,2.446,67.858,2.356,66.964,2.85L66.964,2.85z"/>
	<path fill-rule="evenodd" clip-rule="evenodd" d="M73.707,10.496c-0.053,0.807-0.157,4.967,0.039,5.488
		c0.513,1.366,3.247,0.885,4.864,0.859l-0.053-1.509c-0.88-0.092-1.801,0.09-2.681-0.157V10.6L73.707,10.496z"/>
	<polygon fill-rule="evenodd" clip-rule="evenodd" points="82.645,4.384 82.645,9.053 80.384,9.053 80.384,4.384 78.425,4.384 
		78.425,2.616 84.616,2.616 84.616,4.384 	"/>
</g>
<rect opacity="0" fill-rule="evenodd" clip-rule="evenodd" fill="#141515" width="84.571" height="20"/>
</svg>
