<?xml version="1.0" encoding="UTF-8" standalone="no"?>
<svg width="34px" height="17px" viewBox="0 0 34 17" version="1.1" xmlns="http://www.w3.org/2000/svg" xmlns:xlink="http://www.w3.org/1999/xlink" xmlns:sketch="http://www.bohemiancoding.com/sketch/ns">
    <!-- Generator: Sketch 3.5.1 (25234) - http://www.bohemiancoding.com/sketch -->
    <title>112.ua</title>
    <desc>Created with Sketch.</desc>
    <defs>
        <rect id="path-1" x="0" y="0" width="34" height="20"></rect>
    </defs>
    <g id="feed" stroke="none" stroke-width="1" fill="none" fill-rule="evenodd" sketch:type="MSPage">
        <g id="screen" sketch:type="MSArtboardGroup" transform="translate(-23.000000, -53.000000)">
            <g id="112.ua" sketch:type="MSLayerGroup" transform="translate(23.000000, 52.000000)">
                <mask id="mask-2" sketch:name="Mask" fill="white">
                    <use xlink:href="#path-1"></use>
                </mask>
                <use id="Mask" opacity="0.7" sketch:type="MSShapeGroup" xlink:href="#path-1"></use>
                <g mask="url(#mask-2)" id="Слой_1">
                    <g transform="translate(0.000000, 1.000000)">
                        <g>
                            <g id="Group" fill="#000000" sketch:type="MSShapeGroup">
                                <path d="M26.0026087,5.44504274 C25.769372,4.41547009 27.7748792,3.02213675 28.6749758,4.79384615 C29.1857971,5.79094017 28.7373913,6.76205128 28.0918841,7.51880342 L27.5827053,8.13752137 L25.1616425,11.067094 C24.4257971,12.0382051 22.6206763,14.1038462 21.8142029,15.0652137 L20.4771981,16.672906 C22.6305314,16.5819658 24.9990338,16.6647863 27.1737198,16.672906 C28.2774879,16.6810256 29.381256,16.6842735 30.4850242,16.6875214 C31.1995169,16.6891453 33.3052174,16.6095726 33.8538164,16.7313675 L33.8636715,12.7641026 L30.6,12.7998291 L29.4896618,12.7965812 C29.6489855,12.564359 30.9137198,11.1531624 31.1058937,11.0492308 C31.3144928,10.5701709 32.2490821,9.92059829 32.8748792,8.78547009 C33.9868599,6.77017094 33.9885024,4.36350427 32.6547826,2.48136752 C32.0601932,1.64504274 31.4968116,1.19358974 30.4275362,0.633333333 C28.4729469,-0.388119658 25.4507246,-0.0909401709 23.7228019,0.927264957 C21.6811594,2.12897436 21.2196135,4.18811966 21.2228986,6.46974359 L25.913913,6.4957265 L26.0026087,5.44504274 L26.0026087,5.44504274 Z" id="Shape"></path>
                                <path d="M0.780193237,1.51675214 L0.762125604,4.56811966 L3.20782609,4.56162393 L3.17661836,16.7021368 L8.10908213,16.6907692 L8.11565217,0.597606838 L0.780193237,1.51675214 Z" id="Shape"></path>
                                <path d="M10.7995169,1.52324786 L10.8028019,4.54863248 L13.2370048,4.56162393 L13.2304348,16.6696581 L18.1399034,16.6891453 L18.1448309,0.602478632 L10.7995169,1.52324786 Z" id="Shape"></path>
                            </g>
                        </g>
                    </g>
                </g>
            </g>
        </g>
    </g>
</svg>