<?xml version="1.0" encoding="utf-8"?>
<!-- Generator: Adobe Illustrator 16.0.0, SVG Export Plug-In . SVG Version: 6.00 Build 0)  -->
<!DOCTYPE svg PUBLIC "-//W3C//DTD SVG 1.1//EN" "http://www.w3.org/Graphics/SVG/1.1/DTD/svg11.dtd">
<svg version="1.1" id="Слой_1" xmlns="http://www.w3.org/2000/svg" xmlns:xlink="http://www.w3.org/1999/xlink" x="0px" y="0px"
	 width="63.73px" height="20px" viewBox="0 0 63.73 20" enable-background="new 0 0 63.73 20" xml:space="preserve">
<g>
	<path fill-rule="evenodd" clip-rule="evenodd" d="M6.704,4.901c0.351-0.105,1.145-0.499,1.456-0.68
		c1.638-0.929,0.684-0.781,2.311-0.781l0.018,11.81h1.493l-0.011,1.849H6.704v-1.849l1.506-0.003L8.207,6.193L6.704,6.439V4.901z
		 M1.13,4.901c0.384-0.126,1.108-0.481,1.456-0.68C4.22,3.288,3.281,3.439,4.896,3.439l0.019,11.81h1.491l-0.01,1.849L1.13,17.102
		v-1.853l1.507-0.003V6.193L1.13,6.435V4.901z M0,18.277l12.697,0.004V1.895L0.157,1.891L0,1.909V18.277z"/>
	<path fill-rule="evenodd" clip-rule="evenodd" d="M43.826,8.841c0.161,0.217,1.185,3.549,1.378,4.135l1.017,3.13
		c0.099,0.29,0.219,0.749,0.337,0.991h1.945l0.012-13.658l-2.026,0.015l-0.037,7.179l-2.289-7.193c-0.538,0-2.052-0.047-2.479,0.029
		l0.007,13.629h2.136V8.841z"/>
	<path fill-rule="evenodd" clip-rule="evenodd" d="M22.304,5.469c0.545-0.144,1.17,0.076,1.401,0.376
		c0.53,0.688,0.83,3.724-1.401,3.354V5.469z M25.142,10.629c0.358-0.148,0.739-0.626,0.94-0.999c0.226-0.427,0.38-0.923,0.46-1.466
		c0.344-2.29-0.413-4.309-2.955-4.667c-0.428-0.058-3.514-0.116-3.818-0.032l0.008,13.633l2.523-0.015l0.018-5.854
		c0.742,0,0.551-0.104,0.695,0.601c0.072,0.358,0.139,0.691,0.212,1.046c0.143,0.72,0.278,1.41,0.428,2.127
		c0.047,0.235,0.358,2.026,0.464,2.08c0.059,0.029,2.271,0.025,2.506,0.004L25.142,10.629z"/>
	<path fill-rule="evenodd" clip-rule="evenodd" d="M52.375,5.567c1.167-0.137,1.463,0.612,1.562,1.603
		c0.103,0.999,0.084,2.077,0.084,3.09c0,0.97,0.117,3.611-0.465,4.334c-0.197,0.247-0.728,0.453-1.192,0.366L52.375,5.567z
		 M49.837,17.083c0.472,0.085,2.823,0.033,3.347-0.025c2.103-0.238,2.958-1.509,3.284-3.43c0.168-0.987,0.204-2.131,0.204-3.162
		c-0.007-3.662-0.143-7.001-4.37-7.027c-0.588-0.004-1.974-0.04-2.468,0.025L49.837,17.083z"/>
	<path fill-rule="evenodd" clip-rule="evenodd" d="M33.988,3.454c0.003,2.854,0,5.706,0,8.56c0,2.276-0.3,5.353,3.24,5.353
		c3.563,0,3.219-3.051,3.219-5.395c0-2.845,0-5.688,0-8.532h-2.14v9.534c0,0.937,0.175,2.254-0.91,2.272
		c-1.09,0.018-0.875-1.43-0.875-2.313V3.439L33.988,3.454z"/>
	<path fill-rule="evenodd" clip-rule="evenodd" d="M27.464,16.942l0.011,0.155h5.821c0.041-0.354,0.015-1.667,0.015-2.119h-3.313
		c0-0.861-0.037-2.986,0.007-3.705h2.333l0.004-2.236h-2.333c-0.04-0.42-0.011-2.862-0.011-3.477h3.156l0.022-2.121h-5.713V16.942z"
		/>
	<path fill-rule="evenodd" clip-rule="evenodd" d="M60.432,5.56h3.164V3.439c-0.965,0-1.927,0-2.893,0
		c-0.469,0-2.516-0.055-2.805,0.029l0.003,13.629l5.83-0.006v-2.11l-3.313-0.011l0.007-3.697h2.348V9.037l-2.355-0.008L60.432,5.56z
		"/>
	<path fill-rule="evenodd" clip-rule="evenodd" d="M13.524,17.083l2.505,0.015l0.014-5.669l2.3-0.012l0.004-2.232l-2.304-0.011
		v-3.61l3.123-0.004V3.439c-0.666,0-5.405-0.04-5.642,0.029V17.083z"/>
</g>
<rect opacity="0" fill-rule="evenodd" clip-rule="evenodd" fill="#141515" width="63.73" height="20"/>
</svg>
