<?xml version="1.0" encoding="utf-8"?>
<!-- Generator: Adobe Illustrator 16.0.0, SVG Export Plug-In . SVG Version: 6.00 Build 0)  -->
<!DOCTYPE svg PUBLIC "-//W3C//DTD SVG 1.1//EN" "http://www.w3.org/Graphics/SVG/1.1/DTD/svg11.dtd">
<svg version="1.1" id="Слой_1" xmlns="http://www.w3.org/2000/svg" xmlns:xlink="http://www.w3.org/1999/xlink" x="0px" y="0px"
	 width="69.997px" height="20px" viewBox="0 0 69.997 20" enable-background="new 0 0 69.997 20" xml:space="preserve">
<g>
	<path fill-rule="evenodd" clip-rule="evenodd" d="M13.841,3.121c-0.661-0.329-1.517-0.51-2.414-0.51
		c-1.195,0-2.285,0.323-2.992,0.887C7.413,4.32,7.332,5.447,7.332,6.834c0,0.24-0.012,0.427-0.024,0.616
		c-0.011,0.174-0.023,0.35-0.023,0.575v1.237l0.047,4.212c-0.005,0.834,0.156,1.471,0.52,2.071c0.688,1.131,2.307,1.533,3.593,1.533
		c1.221,0,2.369-0.342,2.997-0.894c0.303-0.272,0.583-0.67,0.745-1.063c0.269-0.677,0.241-2.65,0.224-3.83
		c-0.003-0.265-0.007-0.501-0.007-0.692c0-1.417-0.4-2.136-1.475-2.652c-0.635-0.304-1.641-0.304-2.265-0.001
		c-0.194,0.094-0.417,0.271-0.529,0.422l-0.842,1.129l-0.004-3.677c-0.011-0.533-0.021-1.036,0.301-1.365
		c0.356-0.365,1.152-0.388,1.536,0.008c0.366,0.378,0.346,0.995,0.327,1.59c0,0.002,0,0.005,0,0.008h2.944
		C15.332,4.51,14.856,3.621,13.841,3.121z M10.292,10.6c0-0.911,0.363-1.316,1.177-1.316c0.293,0,0.974,0.148,0.974,1.518
		c0,0.143,0.003,0.352,0.008,0.599c0.032,1.881,0.015,3.054-0.17,3.482c-0.067,0.16-0.147,0.319-0.36,0.453
		c-0.008,0.005-0.345,0.204-0.553,0.204c-0.323,0-1.075-0.138-1.075-1.416V10.6z"/>
	<path fill-rule="evenodd" clip-rule="evenodd" d="M56.672,16.451c0.115-0.085,0.171-0.136,0.225-0.185
		c0.092-0.083,0.179-0.16,0.282-0.227l0.578-0.372v1.105h3.009V2.893h-3.025c0.001,0.047,0.005,0.096,0.008,0.131
		c0.004,0.069,0.009,0.134,0.009,0.187v3.325l-0.581-0.382c-0.145-0.095-0.271-0.189-0.392-0.278
		c-0.452-0.334-0.751-0.555-1.712-0.555c-0.645,0-1.146,0.214-1.626,0.695c-0.321,0.326-0.453,0.866-0.453,1.862v6.643
		c0,0.941,0.15,1.473,0.517,1.835l0.198,0.178c0.601,0.521,1.833,0.582,2.607,0.151C56.445,16.613,56.556,16.533,56.672,16.451z
		 M55.955,14.225V7.971c0-0.588,0.075-1.215,0.973-1.215c0.195,0,0.83,0.077,0.83,1.066v6.449c0,0.325,0,1.315-0.931,1.315
		C56.248,15.587,55.955,15.129,55.955,14.225z"/>
	<path fill-rule="evenodd" clip-rule="evenodd" d="M24.722,14.983c0.004-0.08,0.008-0.166,0.018-0.274
		c0.078-0.721,0.083-6.947,0.007-7.575l-0.016-0.138C24.68,6.54,24.646,6.239,24.25,5.843c-0.565-0.563-1.971-0.674-2.868-0.235
		c-0.154,0.073-0.241,0.136-0.394,0.252c-0.059,0.046-0.107,0.096-0.155,0.144c-0.077,0.078-0.164,0.165-0.288,0.248l-0.583,0.387
		V2.893h-2.955v13.88h2.817c0.024-0.101,0.052-0.201,0.079-0.296c0.026-0.093,0.051-0.181,0.068-0.257l0.119-0.534l0.455,0.305
		c0.15,0.101,0.27,0.217,0.39,0.338c0.126,0.127,0.235,0.236,0.396,0.321c0.575,0.307,0.721,0.319,1.187,0.319l0.374-0.001
		c0.69,0,1.584-0.602,1.764-1.465C24.708,15.253,24.715,15.128,24.722,14.983z M21.766,14.592c-0.055,0.822-0.507,0.995-0.877,0.995
		c-0.296,0-0.481-0.125-0.585-0.23c-0.261-0.265-0.291-0.676-0.286-1.043c0-0.15-0.013-0.244-0.025-0.338
		c-0.012-0.085-0.022-0.171-0.028-0.284c-0.008-0.149-0.006-0.32-0.003-0.487l0.002-4.487c0.003-0.163,0.017-0.26,0.031-0.356
		c0.011-0.078,0.023-0.155,0.023-0.288c0-0.707,0-1.316,0.925-1.316c0.222,0,0.745,0.092,0.816,0.941
		C21.877,8.86,21.85,13.335,21.766,14.592z"/>
	<path fill-rule="evenodd" clip-rule="evenodd" d="M28.106,16.969c0.842,0,1.227,0,1.772-0.585c0.04-0.042,0.077-0.097,0.115-0.149
		c0.083-0.114,0.176-0.244,0.303-0.334l0.591-0.417v0.724c0,0.178-0.009,0.335-0.016,0.469c-0.002,0.031-0.003,0.064-0.005,0.098
		h2.887l0.003-1.535c0.006-2.232,0.012-4.54-0.058-6.758c-0.005-0.305-0.063-0.766-0.114-1.068c-0.05-0.313-0.132-0.533-0.284-0.761
		c-0.72-1.105-1.934-1.331-3.536-1.331c-1.42,0-3.031,0.627-3.427,2.03c-0.161,0.565-0.16,1.004-0.16,1.56v0.104
		c0,0.173-0.005,0.31-0.01,0.418h2.728l0.04-1.765c0.028-0.841,0.496-0.911,0.931-0.911c0.214,0,0.404,0.08,0.55,0.23
		c0.378,0.391,0.353,1.154,0.33,1.828c-0.004,0.126-0.008,0.244-0.008,0.346c0,0.806-0.755,1.099-1.255,1.293l-0.195,0.078
		c-0.15,0.062-0.323,0.129-0.511,0.201c-0.771,0.298-1.935,0.748-2.32,1.214c-0.104,0.124-0.183,0.343-0.236,0.653
		c-0.083,0.506-0.072,2.34,0.019,2.884C26.38,16.373,27.13,16.969,28.106,16.969z M29.64,11.613l1.098-0.82v3.875
		c-0.044,0.652-0.463,0.934-0.86,0.934c-0.438,0-0.822-0.327-0.912-0.778c-0.077-0.354-0.079-0.979-0.079-1.05
		C28.886,12.974,28.978,12.158,29.64,11.613z"/>
	<path fill-rule="evenodd" clip-rule="evenodd" d="M69.995,12.749c-0.001-0.077-0.003-0.156-0.004-0.235h-2.752
		c0,0.007,0,0.014,0,0.021c0.042,1.631-0.014,2.52-0.432,2.849c-0.375,0.295-0.988,0.271-1.282-0.107
		c-0.163-0.211-0.246-0.516-0.246-0.904v-3.354h4.712c0.001-0.138,0.004-0.276,0.007-0.416c0.029-1.585,0.059-3.225-0.963-4.235
		c-0.76-0.753-1.666-1.046-3.231-1.046c-1.091,0-2.178,0.442-2.768,1.126c-0.534,0.619-0.771,1.61-0.771,3.212l-0.003,0.673
		c-0.008,1.277-0.02,3.207,0.129,4.046c0.28,1.574,1.619,2.592,3.413,2.592c1.671,0,2.748-0.092,3.61-1.363
		C70.029,14.701,70.014,13.84,69.995,12.749z M65.278,7.971c0-0.806,0.143-1.215,0.926-1.215c0.823,0,0.823,1.026,0.823,1.464v1.565
		h-1.749V7.971z"/>
	<path fill-rule="evenodd" clip-rule="evenodd" d="M48.529,12.331c-0.16-0.48-0.436-0.756-0.83-1.044
		c-0.421-0.31-0.82-0.527-1.327-0.777l-0.228-0.114c-0.432-0.215-0.839-0.418-1.241-0.668c-0.199-0.124-0.478-0.333-0.683-0.624
		c-0.239-0.335-0.382-1.336-0.099-1.888c0.153-0.297,0.412-0.461,0.729-0.461c0.978,0,1.027,0.556,1.027,1.464v0.419l2.557-0.021
		c0.013-1.113,0.023-1.992-0.896-2.603c-0.654-0.439-1.689-0.701-2.769-0.701c-1.266,0-2.764,0.383-3.172,1.458
		c-0.15,0.397-0.232,0.859-0.232,1.3c0,1.822,0.184,2.388,1.868,3.338l0.312,0.174c1.157,0.645,1.915,1.08,2.116,1.256
		c0.254,0.225,0.367,0.651,0.367,1.385c0,0.407,0,1.362-1.075,1.362c-0.247,0-0.46-0.087-0.619-0.253
		c-0.362-0.378-0.332-1.046-0.306-1.635c0.006-0.135,0.014-0.316,0.01-0.445h-2.591c0.001,0.067,0.004,0.145,0.008,0.215
		c0.006,0.133,0.012,0.285,0.012,0.453c0,1.068,0.271,1.812,0.828,2.273c0.567,0.476,1.742,0.795,2.927,0.795
		c1.493,0,2.655-0.476,3.109-1.271C48.743,15.005,48.844,13.264,48.529,12.331z"/>
	<path fill-rule="evenodd" clip-rule="evenodd" d="M1.795,6.436c0.79,0.337,0.782,1.167,0.774,1.898L2.568,8.569v8.204h2.96V2.893
		H3.907C3.896,2.91,3.882,2.927,3.867,2.944L3.225,3.588C2.299,4.472,0.89,4.935,0.326,5.093C0.266,5.11,0.194,5.124,0.12,5.138
		C0.09,5.143,0.05,5.151,0.013,5.159c-0.001,0.28-0.005,0.508-0.008,0.693C0.002,6.006-0.001,6.154,0,6.265l0.034-0.001
		c0.2-0.006,0.401-0.006,0.609-0.006C0.815,6.258,1.405,6.271,1.795,6.436z"/>
	<path fill-rule="evenodd" clip-rule="evenodd" d="M40.466,5.366c-0.452,0.11-0.891,0.412-1.222,0.853
		c-0.085,0.11-0.139,0.176-0.183,0.254c-0.089,0.192-0.142,0.292-0.294,0.41l-0.806,0.623l0.209-0.997
		c0.026-0.122,0.031-0.237,0.038-0.356c0.007-0.123,0.015-0.25,0.036-0.386l0.024-0.245h-2.917v11.252h2.958l-0.003-0.629
		c-0.017-2.96-0.018-4.86,0.033-5.188c0.017-0.109,0.026-0.22,0.036-0.33c0.076-0.883,0.299-1.681,2.09-1.777V5.366z"/>
	<rect x="49.685" y="14.498" fill-rule="evenodd" clip-rule="evenodd" width="2.057" height="2.275"/>
</g>
<rect y="0" opacity="0" fill-rule="evenodd" clip-rule="evenodd" fill="#141515" width="69.99" height="20"/>
</svg>
