<?xml version="1.0" encoding="utf-8"?>
<!-- Generator: Adobe Illustrator 16.0.0, SVG Export Plug-In . SVG Version: 6.00 Build 0)  -->
<!DOCTYPE svg PUBLIC "-//W3C//DTD SVG 1.1//EN" "http://www.w3.org/Graphics/SVG/1.1/DTD/svg11.dtd">
<svg version="1.1" id="Слой_1" xmlns="http://www.w3.org/2000/svg" xmlns:xlink="http://www.w3.org/1999/xlink" x="0px" y="0px"
	 width="118.899px" height="20px" viewBox="0 0 118.899 20" enable-background="new 0 0 118.899 20" xml:space="preserve">
<g>
	<path fill-rule="evenodd" clip-rule="evenodd" d="M11.192,16.399c1.16-1.559,1.471-1.27,2.794-1.268
		c1.395,0.004,1.826-0.347,2.963,1.268l-0.466,0.606c-0.991,0.015-1.998,0.004-3,0.01C12.126,17.024,11.686,17.263,11.192,16.399
		L11.192,16.399z M8.45,16.63c-1.227,0.608-0.881,0.391-2.914,0.386c-1.707,0-2.042,0.236-2.89-0.412
		c0.69-1.838,1.97-1.472,2.89-1.472C6.653,15.132,7.904,14.871,8.45,16.63L8.45,16.63z M16.167,11.485
		c0.527-0.387,0.834-0.796,1.203-1.056c0.529,0.477,0.466,0.112,0.552,0.933l0.009,3.377c-0.024,0.867-0.067,0.759-0.469,1.252
		C15.678,15.46,16.1,12.937,16.167,11.485L16.167,11.485z M10.685,15.986c-0.673-0.658-0.463-2.761-0.441-4.287
		c0.008-0.915-0.102-0.729,0.431-1.256c0.369,0.099,0.901,0.726,1.313,1.035c0.049,1.146,0.397,3.061-0.437,3.859
		C11.225,15.65,11.005,15.906,10.685,15.986L10.685,15.986z M2.358,16.043c-0.934-0.606-0.636-1.357-0.636-2.824
		c0-1.428-0.308-2.278,0.636-2.824c1.027,1.019,1.132,0.84,1.132,2.824C3.495,15.146,3.347,15.052,2.358,16.043L2.358,16.043z
		 M2.647,9.837c0.551-0.448,0.378-0.689,1.198-0.768l3.658,0.056c0.435,0.132,0.771,0.611,0.939,0.929l-0.666,0.868
		C4.991,10.94,3.268,11.391,2.647,9.837L2.647,9.837z M16.144,5.863c0-0.826,0.69-1.728,1.39-1.846
		c0.589,0.951,0.383,1.461,0.383,2.845c0,1.333,0.187,1.779-0.364,2.695C15.812,9.257,16.144,6.991,16.144,5.863L16.144,5.863z
		 M10.608,9.557c-0.57-0.978-0.561-4.524,0.005-5.533c1.855,0.292,1.644,3.978,1.069,4.74C11.326,9.229,11.057,9.476,10.608,9.557
		L10.608,9.557z M8.916,9.545c-1.591-0.8-1.29-1.719-1.295-2.849c-0.005-1.58,0.105-2.091,1.295-2.68
		C9.544,4.795,9.39,4.454,9.39,5.69C9.39,7.702,9.673,8.604,8.916,9.545L8.916,9.545z M12.468,2.979
		c1.677-0.01,2.745-0.144,4.284,0.137c0.35,0.778,0.173,0.469-0.843,1.755l-3.662-0.005C11.705,4.188,10.128,2.974,12.468,2.979
		L12.468,2.979z M6.528,4.875C4.439,4.898,4.127,5.098,3.327,4.364C2.808,3.88,2.851,4.059,2.675,3.521
		c0.672-0.779,1.424-0.547,3.197-0.542c1.64,0,1.754-0.194,2.516,0.388c-0.085,0.607-0.69,1.001-0.992,1.49L6.528,4.875z
		 M1.328,0.119c-1.63,0.395-1.256,2.077-1.256,3.733c0,1.672,0,3.348,0,5.021c0,1.672-0.211,8.931,0.086,9.991
		c0.412,1.456,2.32,1.098,3.854,1.098c2.41,0,14.461,0.126,15.146-0.116c1.358-0.479,1.031-2.309,1.031-3.779
		c-0.005-2.486,0.149-14.089-0.106-14.91c-0.444-1.422-2.036-1.1-3.723-1.095C13.728,0.062,2.272-0.11,1.328,0.119L1.328,0.119z"/>
	<path fill-rule="evenodd" clip-rule="evenodd" d="M29.574,14.643c-2.204,0.467-2.119-0.366-1.912-2.311
		c0.165-1.538-0.795-1.306,1.071-3.84c1.49,0.492,1.366,1.211,1.127,2.706L29.574,14.643z M27.331,7.983
		c-1.563-1.3-1.021-1.317-2.802-0.144c-1.31-0.408-2.211-1.621-2.973-0.029c0.8,1.008,0.821,0.435,1.403,0.886
		c0.616,0.466,0.212,0.759,0.218,1.616c0,1.048,0.087,2.7-0.198,3.784c-0.319,0.54-0.013,0.134-0.55,0.416
		c-1.37,0.725-1.138-0.19-1.145,1.162c0.814,0.568,2.867,0.593,3.694,0c0.165-1.889-0.338-0.127-0.662-1.863
		c-0.18-0.942-0.57-5.672,1.742-4.998c1.013,0.302,0.667,0.838,0.615,1.56l-0.186,4.003c-0.569,1.113-0.879-0.139-0.999,1.298
		c0.694,0.438,6.098,0.396,6.748,0.082c0.05-1.761-0.022-0.543-1.12-1.212c-0.08-0.901-0.192-2.313-0.218-3.072
		c-0.04-0.917,0.391-1.623,0.231-2.744C30.765,6.173,28.529,7.785,27.331,7.983L27.331,7.983z"/>
	<path fill-rule="evenodd" clip-rule="evenodd" d="M46.52,9.428c-0.137,1.875,0.494,3.506-0.206,4.894
		c-1.2,0.649-1.548,0.019-1.78,1.606c0.755,0.261,2.07,0.185,3.138,0.19c1.847,0.018,1.33-0.013,2.081-1.144l-0.711-0.206
		c-0.19-0.032-0.589-0.061-0.84-0.091c-0.092-0.38-0.134-1.824-0.092-2.234l0.303-1.109c0.021-0.053,0.054-0.112,0.078-0.158
		c0.703-1.36,1.325-2.495,2.966-2.461c1.089,1.318,0.835,3.493,0.915,6.022c-2.59,0.098-1.765,0.084-2.053,0.699
		c0.482,0.732,1.031,0.643,1.908,0.564c0.635-0.059,1.729,0.04,2.061,0c0.243-1.25-0.578-0.617-0.829-1.946
		c-0.426-2.222,1.194-7.083-2.072-7.207c-2.093-0.084-1.444,1.6-3.458,0.451c-0.865-0.496-0.104-0.319-1.092-0.293
		c-0.955,0.02-2.125-0.367-1.967,0.749C44.965,8.401,46.002,9.018,46.52,9.428L46.52,9.428z"/>
	<path fill-rule="evenodd" clip-rule="evenodd" d="M103.656,8.703c2.061-0.643,1.837-0.67,2.521-0.335
		c0.961,0.461,1.288,0.833,1.484,1.98c-1.78,0.654-2.447,0.247-4.563,0.152C103.095,9.786,103.398,9.18,103.656,8.703L103.656,8.703
		z M109.452,12.532l-1.69-0.058c-0.629,0.904-0.985,1.852-2.629,1.75c-1.058-0.07-1.772-1.486-1.78-2.377
		c3.276-0.099,3.604,0.606,6.184-0.713c0.101-1.659-0.164-2.137-1.005-3.23c-1.989-2.568-6.488-1.6-6.987,3.122
		c-0.192,1.856-0.444,2.064,0.61,3.18c0.535,0.567,1.398,1.669,2.527,1.847c1.352,0.215,2.525,0.054,3.371-0.709
		C108.773,14.691,109.552,13.72,109.452,12.532L109.452,12.532z"/>
	<path fill-rule="evenodd" clip-rule="evenodd" d="M61.98,12.522c-0.537,1.203-1.243,2.567-3.118,1.474
		c-0.623-1.566,0.106-4.83-0.106-6.302c-2.567-1.684-3.643-0.328-2.873,0.477c0.502,0.533,0.258,0.066,1.231,0.448
		c0.534,2.176,0.152,4.455,0.425,6.792c0.38,0.176,1.786,0.813,2.019,0.825c0.761,0.054,1.563-0.585,2.219-0.673
		c1.298-0.185,2.23,1.302,4.523,0.351c0.223-2.133-0.869-0.979-1.95-2.325c-0.646-1.42,0.837-5.625-1.071-6.178
		c-1.166-0.331-1.879-0.287-2.343,0.4c0.324,0.769-0.399,0.291,0.94,0.586C62.343,8.499,62.51,8.407,63,8.563
		C63.021,9.731,62.43,11.513,61.98,12.522L61.98,12.522z"/>
	<path fill-rule="evenodd" clip-rule="evenodd" d="M70.544,6.672c-0.379-1.187,0.557-2.463-0.425-3.073
		c-1.78-1.111-1.271,1.809-1.317,2.968c-0.962,0.268-2.902-0.499-2.748,1.009C66.172,8.729,67.828,8.2,69,8.125
		c0.014,2.031-0.673,5.542-0.074,6.597c0.589,1.034,0.406-0.189,0.854,1.462c0.604-0.155,1.437-0.105,1.843-0.216
		c0.072-0.021,0.643-0.33,0.701-0.36c0.755-0.493,0.941-0.787,1.489-2.021c0.775-1.74-0.318-3.071-1.668-0.924
		c-0.861-0.34-0.258,0.375-0.545-0.805l-0.356,1.666c-1.033-0.429-0.172-0.192-0.464-1.22c-0.139-0.466-0.026,0.051-0.171-0.348
		l-0.292-2.273c0.021-0.915-0.145-0.182,0.25-0.891c0.327-0.589,0.293-0.393,0.444-0.57l2.558-0.183
		C74.425,6.133,72.126,6.926,70.544,6.672L70.544,6.672z"/>
	<path fill-rule="evenodd" clip-rule="evenodd" d="M80.482,8.618c0.621-0.151,1.474,0.301,1.839,0.741
		c2.945,3.562-3.118,8.456-3.995,2.252C77.983,9.24,78.542,9.088,80.482,8.618L80.482,8.618z M84.685,12.896
		c0.373-1.43,0.158-2.721-0.49-3.801c-2.594-4.33-6.883-1.624-7.416,1.348c-0.264,1.496-0.51,2.996,0.419,3.957
		c0.669,0.703,1.536,1.751,2.495,1.927C82.641,16.872,83.997,15.542,84.685,12.896L84.685,12.896z"/>
	<path fill-rule="evenodd" clip-rule="evenodd" d="M112.808,8.265c1.748-0.971,3.058-1.186,4.412,0.773
		c0.09,0.136,0.13,0.379,0.514,0.595l0.516,0.028c0.166-0.677,0.214-2.078-0.283-2.771c-1.299,0.156-0.496,0.713-1.518,0.366
		c-0.815-0.276-0.793-0.492-1.758-0.589c-1.507-0.146-2.929,0.469-3.192,1.696c-0.156,0.68,0.023,1.557,0.414,1.965
		c1.3,1.383,3.095,0.472,5.325,1.873c-0.032,0.641-0.192,1.153-0.688,1.525l-0.305,0.171c-1.338,0.708-1.386,0.151-1.504,0.1
		l-1.512-1.009c-0.393-0.347-1.222-1.062-1.574-1.184c-0.604,0.563-0.722,2.825-0.257,3.633c1.014,0.643,0.964-0.104,2.285,0.08
		c1.069,0.151,1.083,0.603,2.289,0.308c1.355-0.334,2.848-1.418,2.92-2.713c0.048-0.773-0.139-1.304-0.833-1.913
		c-0.613-0.53-1.128-0.569-2.113-0.735C112.073,9.842,112.752,10.419,112.808,8.265L112.808,8.265z"/>
	<path fill-rule="evenodd" clip-rule="evenodd" d="M93.874,12.356c-0.097,0.298-0.257,0.721-0.44,1.017
		c-0.356,0.545-0.905,0.865-1.595,0.806c-1.113-0.097,0.145,0.078-0.86-0.367l-0.737-0.332c-0.046-0.034-0.166-0.172-0.21-0.216
		c-0.563-0.525-1.114-1.32-1.971-1.469c-0.453,0.779-0.561,3.032-0.05,3.682c0.364,0.316,1.43-0.013,1.906-0.007
		c0.2,0.007,3.782,1.48,5.265-1.565c0.688-1.41-0.265-2.83-1.39-3.218c-1.056-0.359-3.563-0.243-4.252-0.85
		c-0.332-0.354-0.198,0.484-0.276-0.733c-0.01-0.125,0.072-0.612,0.219-0.839c0.845-1.339,3.238-0.504,3.845,0.117
		c0.683,0.692,0.265,0.99,1.277,1.487c0.391-0.655,0.261-2.128,0.032-2.979L93.1,7.432c-1.567-1.455-5.637-1.01-5.076,1.985
		c0.218,1.188,1.494,1.768,2.609,1.865C92.746,11.459,92.263,11.074,93.874,12.356L93.874,12.356z"/>
	<path fill-rule="evenodd" clip-rule="evenodd" d="M42.222,14.088l-2.689,0.133c-0.913-3.194,0.463-6.016-0.851-7.051
		c-0.011-0.007-3.901-1.088-3.777,0.334c0.141,1.514,2.363,0.892,2.972,0.741c-0.046,2.992,0.12,2.503-0.349,5.109l-0.113,0.635
		c-0.009-0.032-0.021,0.124-0.038,0.178c-1.313,0.021-2.188-0.228-3.16,0.457c-0.12,1.045-0.12,1.155,0.947,1.363
		c2.489,0.497,2.728,0.034,4.541,0.028C40.726,16.015,43.804,16.693,42.222,14.088L42.222,14.088z"/>
	<path fill-rule="evenodd" clip-rule="evenodd" d="M98.027,16.413c3.467,1.362,2.417-3.681-0.139-1.384L98.027,16.413z"/>
	<path fill-rule="evenodd" clip-rule="evenodd" d="M37.32,4.005l-0.021,1.677C40.935,6.376,39.845,2.682,37.32,4.005L37.32,4.005z"
		/>
</g>
<rect x="0" opacity="0" fill-rule="evenodd" clip-rule="evenodd" width="118.899" height="20"/>
</svg>
