<?xml version="1.0" encoding="utf-8"?>
<!-- Generator: Adobe Illustrator 16.0.0, SVG Export Plug-In . SVG Version: 6.00 Build 0)  -->
<!DOCTYPE svg PUBLIC "-//W3C//DTD SVG 1.1//EN" "http://www.w3.org/Graphics/SVG/1.1/DTD/svg11.dtd">
<svg version="1.1" id="Слой_1" xmlns="http://www.w3.org/2000/svg" xmlns:xlink="http://www.w3.org/1999/xlink" x="0px" y="0px"
	 width="86.024px" height="20px" viewBox="0 0 86.024 20" enable-background="new 0 0 86.024 20" xml:space="preserve">
<g>
	<path fill-rule="evenodd" clip-rule="evenodd" d="M40.17,4.891c0.09-0.141,0.844-0.842,1.061-0.916
		c0.209-0.26,1.33-0.777,1.755-0.924c1.516-0.525,3.145-0.592,4.691-0.148c0.411,0.125,1.591,0.569,1.815,0.82
		c0.142,0.045,0.254,0.126,0.351,0.199c0.508,0.281,1.188,0.983,1.531,1.391c3.751,4.472,0.919,11.367-4.855,12.025
		c-3.287,0.369-6.043-1.184-7.567-3.873c-1.143-2.018-1.165-4.775-0.015-6.911c0.388-0.718,0.567-0.909,1.038-1.479
		C40.073,4.972,40.059,4.958,40.17,4.891L40.17,4.891z M40.133,5.542c0.089,0.074,0.104,0.097,0.187,0.177
		c0.075,0.067,0.104,0.075,0.179,0.156l-0.209,0.28c-0.119-0.051-0.358-0.199-0.44-0.287c-0.089,0.059-0.075,0.007-0.06,0.117
		c0.112,0.053,0.291,0.199,0.396,0.281l-0.194,0.311c-0.164-0.074-0.306-0.163-0.456-0.244c-0.082,0.029-0.052-0.052-0.06,0.104
		c0.112,0.044,0.336,0.199,0.426,0.259L39.729,7.02l-0.426-0.215l-0.104,0.008l-0.007,0.104c0.097,0.045,0.411,0.199,0.456,0.236
		l-0.157,0.333l-0.478-0.179c-0.06,0.053-0.038-0.072-0.06,0.119l0.478,0.186l-0.06,0.221l-0.045,0.141l-0.515-0.141
		c-0.022,0.074-0.037,0.021,0.007,0.104l0.471,0.163l-0.134,0.362l-0.478-0.098l-0.038,0.09l0.479,0.119
		c0.044,0.103,0,0.221-0.03,0.361c-0.179,0.029-0.351-0.016-0.538-0.045c-0.022,0.156-0.037,0.066,0.082,0.119l0.433,0.066
		L39.02,9.452c-0.157,0.045-0.358,0-0.538-0.008l0.008,0.104l0.523,0.037l-0.008,0.391h-0.545l0.008,0.104l0.53,0.015l0.03,0.393
		l-0.478,0.037c-0.105,0.066-0.052-0.016-0.067,0.088l0.545-0.015l0.045,0.384l-0.531,0.103c0.023,0.111-0.029,0.045,0.06,0.082
		l0.485-0.053l0.06,0.326l-0.493,0.184c0.03,0.104-0.022,0.037,0.067,0.082l0.478-0.088l0.104,0.354l-0.493,0.178l0.022,0.082
		l0.515-0.141l0.127,0.363l-0.478,0.197c0.015,0.164-0.008,0.053,0.06,0.09l0.485-0.17l0.142,0.34l-0.463,0.244
		c0.038,0.125,0.008,0.051,0.06,0.074l0.456-0.201c0.089,0.074,0.149,0.23,0.202,0.334c-0.142,0.08-0.276,0.178-0.426,0.266
		c0.015,0.09-0.015,0.059,0.067,0.074l0.456-0.236c0.044,0.162,0.127,0.178,0.187,0.348c-0.172,0.074-0.269,0.199-0.411,0.266
		c0.037,0.148,0,0.053,0.06,0.082c0.142-0.068,0.292-0.193,0.411-0.281c0.075,0.08,0.202,0.207,0.239,0.309
		c-0.142,0.172-0.209,0.156-0.351,0.334c0,0.088-0.015,0.029,0.044,0.066c0.143-0.082,0.27-0.223,0.404-0.311
		c0.06,0.088,0.112,0.082,0.261,0.281l-0.344,0.355c0.015,0.133-0.007,0.035,0.068,0.072c0.126-0.104,0.253-0.266,0.403-0.34
		c0.082,0.111,0.165,0.127,0.24,0.297c-0.12,0.117-0.187,0.221-0.307,0.355c0.037,0.043,0.015,0.035,0.074,0.051
		c0.105-0.082,0.239-0.26,0.292-0.355c0.164,0.037,0.202,0.111,0.336,0.229c-0.06,0.148-0.194,0.281-0.261,0.416
		c0.029,0.051,0.007,0.029,0.082,0.051c0.06-0.104,0.217-0.295,0.284-0.385c0.112,0.037,0.217,0.125,0.336,0.215l-0.246,0.428
		L41.903,16c0.104-0.111,0.165-0.268,0.292-0.422l0.314,0.186c-0.015,0.176-0.127,0.266-0.187,0.449
		c0.038,0.061-0.045,0.037,0.09,0.053c0.03-0.096,0.06-0.141,0.12-0.236l0.126-0.199l0.336,0.141l-0.179,0.473l0.097,0.051
		l0.179-0.457c0.134,0.029,0.313,0.08,0.381,0.154l-0.135,0.473l0.083,0.016l0.157-0.473l0.396,0.096l-0.09,0.496l0.075,0.035
		l0.134-0.465c0.097-0.029,0.247,0.021,0.389,0.037l-0.053,0.51l0.083,0.016l0.09-0.504l0.388,0.053l-0.022,0.518l0.097-0.037
		l0.044-0.473l0.381,0.014l0.03,0.502l0.097,0.008v-0.51c0.075,0,0.149-0.008,0.217-0.014l0.187,0.029l0.052,0.457
		c0.097-0.014,0.082,0.127,0.09-0.08l-0.015-0.414l0.404-0.045l0.082,0.504l0.09-0.018l-0.06-0.508l0.358-0.066
		c0.083,0.141,0.112,0.324,0.15,0.494c0.142-0.037,0.052,0.037,0.082-0.08l-0.09-0.443l0.381-0.111l0.165,0.488
		c0.119-0.037,0.045,0.029,0.089-0.074l-0.127-0.459l0.366-0.125l0.187,0.443l0.112-0.008l-0.187-0.488l0.366-0.148l0.231,0.43
		l0.074-0.037l-0.202-0.465L48.94,15.6c0.075,0.068,0.239,0.334,0.277,0.416l0.089-0.039L49.06,15.52l0.306-0.215
		c0.142,0.125,0.194,0.266,0.329,0.385l0.068-0.037c-0.068-0.154-0.202-0.281-0.277-0.43c0.09-0.059,0.194-0.133,0.284-0.213
		c0.135,0.066,0.276,0.25,0.358,0.361c0.105-0.029,0.053,0,0.075-0.066c-0.097-0.133-0.217-0.273-0.314-0.391
		c0.097-0.098,0.172-0.127,0.261-0.252c0.105,0.037,0.299,0.221,0.381,0.318c0.112,0.014,0.045,0.014,0.075-0.053
		c-0.149-0.236-0.261-0.162-0.344-0.398c0.127-0.09,0.172-0.156,0.262-0.23c0.142,0.066,0.276,0.223,0.396,0.303l0.045-0.088
		c-0.15-0.148-0.217-0.162-0.351-0.303c0.059-0.119,0.142-0.215,0.239-0.311c0.127,0.059,0.292,0.186,0.418,0.266
		c0.075-0.035,0.045,0.061,0.067-0.088c-0.149-0.088-0.276-0.199-0.411-0.281c0.038-0.074,0.149-0.244,0.209-0.318
		c0.134,0.037,0.351,0.178,0.463,0.252c0.038-0.051,0.03-0.029,0.03-0.104c-0.112-0.074-0.314-0.207-0.418-0.252
		c0.038-0.117,0.135-0.258,0.202-0.348l0.448,0.207c0.022-0.021,0.03-0.006,0.067-0.066c-0.164-0.096-0.344-0.146-0.471-0.266
		l0.149-0.332l0.508,0.186c0.03-0.053,0.015-0.016,0.03-0.105l-0.486-0.176l0.142-0.385l0.508,0.141l0.037-0.09l-0.508-0.154
		l0.135-0.377l0.463,0.096c0.067-0.037,0.045,0.082,0.06-0.088l-0.515-0.141l0.097-0.369l0.508,0.066l0.022-0.098l-0.523-0.087
		l0.038-0.377l0.53,0.022l0.015-0.097l-0.531-0.059l0.015-0.393l0.538-0.007l-0.008-0.097l-0.53-0.008l-0.015-0.391l0.508-0.037
		l0.03-0.111L52.13,9.458l-0.045-0.376l0.531-0.097l-0.03-0.081l-0.508,0.059l-0.082-0.391l0.516-0.119l-0.03-0.09l-0.508,0.104
		l-0.104-0.384l0.5-0.17l-0.03-0.082l-0.515,0.141l-0.03-0.104l-0.089-0.273c0.165-0.051,0.344-0.148,0.486-0.177l-0.038-0.134
		c-0.164,0.052-0.344,0.134-0.508,0.193l-0.142-0.348l0.463-0.222c-0.038-0.118,0.015-0.082-0.097-0.097l-0.441,0.191l-0.172-0.317
		c0.053-0.044,0.321-0.214,0.396-0.251c0.052-0.096,0.044-0.029-0.015-0.118c-0.149,0.074-0.328,0.199-0.471,0.251l-0.194-0.303
		c0.134-0.096,0.239-0.207,0.396-0.296c-0.015-0.14,0.007-0.073-0.06-0.096c-0.15,0.081-0.27,0.198-0.441,0.273l-0.217-0.28
		l0.381-0.348c-0.03-0.097,0-0.052-0.083-0.082c-0.097,0.104-0.291,0.252-0.396,0.311c-0.007-0.016,0-0.008-0.03-0.059L50.33,5.475
		l0.343-0.34c0-0.215,0.022-0.066-0.097-0.125c-0.172,0.096-0.254,0.28-0.374,0.34c-0.082-0.082-0.202-0.155-0.254-0.244
		c0.067-0.037,0.217-0.289,0.322-0.363c-0.038-0.125,0.044-0.08-0.112-0.11c-0.179,0.208-0.292,0.28-0.321,0.37
		c-0.12-0.03-0.202-0.126-0.299-0.207c0.082-0.141,0.224-0.281,0.276-0.437l-0.089-0.044c-0.149,0.133-0.187,0.251-0.321,0.392
		l-0.292-0.2c0.045-0.154,0.18-0.281,0.224-0.465l-0.067-0.045L49.03,4.359c-0.008,0.008-0.015,0.022-0.022,0.022L48.649,4.27
		c0.082-0.258,0.224-0.413,0.179-0.523c-0.127,0.059-0.142,0.198-0.321,0.442C48.425,4.1,48.32,4.086,48.186,4.034l0.172-0.555
		c-0.127,0.038-0.075,0-0.157,0.098l-0.164,0.383l-0.329-0.11c0.015-0.236,0.104-0.185,0.082-0.517c0-0.016,0-0.023-0.007-0.03
		c-0.112,0.065-0.03-0.022-0.097,0.11c-0.022,0.045-0.03,0.097-0.045,0.141c-0.045,0.126-0.06,0.17-0.12,0.236l-0.313-0.104
		c-0.037-0.221,0.217-0.523-0.037-0.531l-0.112,0.502L46.692,3.59l0.03-0.311l0.015-0.229c-0.149,0.088-0.149,0.199-0.187,0.518
		l-0.411-0.037l0.015-0.444c-0.015-0.073-0.007-0.06-0.03-0.095c-0.082,0.117-0.052,0.139-0.075,0.272
		c-0.015,0.103-0.03,0.155-0.03,0.252l-0.381-0.008c-0.007-0.17,0.008-0.406-0.06-0.54c-0.097,0.074-0.06,0.398-0.075,0.533
		l-0.389,0.021c-0.015-0.111-0.015-0.185-0.037-0.303c-0.045-0.318-0.03-0.236-0.112-0.207v0.51l-0.358,0.029
		c-0.045-0.17-0.09-0.324-0.09-0.502l-0.127,0.036l0.074,0.503l-0.38,0.074l-0.12-0.474l-0.12-0.021l0.075,0.538L43.599,3.79
		c-0.06-0.133-0.134-0.369-0.216-0.487c-0.007,0.007-0.015,0.022-0.022,0.037c0,0.008-0.007,0.015-0.007,0.028
		C43.3,3.561,43.427,3.553,43.42,3.857l-0.314,0.103c-0.097-0.074-0.089-0.117-0.134-0.221c-0.015-0.037-0.037-0.09-0.06-0.119
		l-0.075-0.103c-0.06,0.11,0.082,0.347,0.134,0.495c-0.007,0.007-0.022,0.015-0.03,0.021l-0.321,0.148
		c-0.187-0.266-0.165-0.363-0.292-0.443c-0.044,0.096-0.044-0.008-0.007,0.139l0.179,0.4c-0.165,0.052-0.202,0.133-0.351,0.148
		c-0.105-0.148-0.18-0.348-0.329-0.422l-0.044,0.037c0.052,0.17,0.209,0.325,0.254,0.48l-0.284,0.191l-0.321-0.398
		c-0.112,0.021-0.075-0.022-0.082,0.074c0.06,0.133,0.179,0.303,0.262,0.406c-0.068,0.073-0.202,0.191-0.284,0.221
		c-0.149-0.14-0.172-0.221-0.307-0.361c-0.187,0.015-0.052-0.016-0.126,0.104c0.044,0.066,0.104,0.118,0.164,0.199
		c0.075,0.089,0.083,0.074,0.142,0.163c-0.075,0.088-0.165,0.178-0.224,0.259c-0.157-0.134-0.254-0.23-0.404-0.355
		c-0.111,0.022-0.067-0.052-0.097,0.104c0.075,0.08,0.104,0.11,0.179,0.19c0.09,0.098,0.127,0.098,0.179,0.201
		c-0.082,0.059-0.217,0.139-0.231,0.221c-0.12-0.037-0.112-0.043-0.209-0.125c-0.082-0.067-0.112-0.082-0.179-0.141
		C40.081,5.475,40.133,5.409,40.133,5.542L40.133,5.542z M39.632,7.921c0.134-0.17,0.18-0.458,0.284-0.657
		c0.127-0.237,0.208-0.393,0.351-0.614c0.247-0.384,0.538-0.775,0.836-1.049c0.104-0.045,0.366-0.325,0.486-0.429
		c0.59-0.474,1.053-0.71,1.771-1.013c0.919-0.155,1.113-0.474,2.651-0.377c1.128,0.074,1.509,0.312,2.436,0.672
		c0.247,0.082,0.658,0.378,0.852,0.524c0.134,0.097,0.254,0.186,0.373,0.305c0.127,0.117,0.254,0.25,0.412,0.324
		c0.06,0.104,0.261,0.303,0.373,0.443c0.307,0.377,0.441,0.606,0.68,1.035c0.097,0.178,0.172,0.428,0.284,0.569
		c0.344,1.159,0.59,1.921,0.373,3.288c-0.299,1.966-1.449,3.505-3.078,4.451c-0.807,0.471-1.867,0.797-2.958,0.826
		c-4.273,0.111-7.209-3.828-6.328-7.575C39.483,8.431,39.61,8.091,39.632,7.921L39.632,7.921z M49.202,9.311
		c0.254,1.086-0.149,2.179-0.649,2.853c-0.478,0.643-1.181,1.197-2.219,1.412c-2.218,0.465-3.951-1.057-4.355-2.75
		c-0.762-3.143,2.794-5.735,5.633-3.889c0.62,0.399,1.441,1.375,1.509,2.07L46.094,9.68c-0.418-0.532-0.852-0.155-0.986-0.104
		c-0.089-0.096-0.089-0.199-0.149-0.295c-0.336,0.154-0.232,0.066-0.486-0.066l-1.636-0.621l-0.09,0.215
		c0.269,0.096,0.732,0.361,1.001,0.51c0.172,0.096,0.336,0.191,0.501,0.266c0.104,0.044,0.231,0.044,0.298,0.096
		c0.112,0.074,0.038,0.111,0.127,0.223c0.12-0.038,0.202-0.118,0.314-0.066c-0.03,0.154-0.276,0.146-0.627,0.221
		c-0.254,0.053-0.493,0.053-0.74,0.104l-0.089,0.355c0.052,0.059,0.253,0.221,0.313,0.251c0.336-0.147,0.897-0.354,1.277-0.405
		c0.104,0.154,0.247,0.242,0.53,0.221c0.254-0.022,0.344-0.155,0.456-0.266c0.561,0.273,0.277,0.235,0.516,0.45
		c0.187,0.177,0.276-0.045,0.65-0.141c-0.038-0.11-0.104-0.437-0.18-0.51c-0.126-0.06-0.508,0-0.769-0.066l0.187-0.081
		C46.998,9.836,49.052,9.274,49.202,9.311L49.202,9.311z M49.441,9.215c0.007,0.008,0.015,0.021,0.015,0.029l0.052,0.17
		c0.307,1.958-0.986,3.96-3.063,4.412c-3.586,0.791-6.125-3.171-4.153-6.031c1.86-2.712,6.096-2.18,7.104,1.139l-0.179,0.037
		c-0.366-1.05-0.837-1.627-1.622-2.129c-0.776-0.502-1.942-0.746-3.033-0.443c-2.024,0.555-3.174,2.632-2.644,4.561
		c0.478,1.722,2.293,3.228,4.602,2.66c1.442-0.354,2.451-1.492,2.757-2.845C49.545,9.555,49.067,9.289,49.441,9.215L49.441,9.215z
		 M51.473,8.69l-0.052-0.214l-1.838,0.405c-0.09-0.51-0.441-1.049-0.695-1.389c-1.532-2.084-5.08-2.284-6.791,0.223
		c-1.979,2.889,0.538,7.154,4.4,6.312c1.995-0.445,3.63-2.389,3.16-4.872L51.473,8.69z M39.819,4.817
		c-0.06,0.141-0.344,0.437-0.471,0.606c-0.149,0.207-0.276,0.385-0.418,0.614c-0.284,0.457-0.493,0.893-0.687,1.426
		c-0.187,0.51-0.336,1.123-0.389,1.729c-0.097,1.071,0.053,1.611,0.03,1.995l0.052,0.141c0,0.008,0.022,0.125,0.03,0.148
		c0.194,0.99,0.59,1.959,1.158,2.777l0.605,0.793l0.56,0.553c1.285,1.258,3.78,2.24,5.633,2.041c0.799-0.09,1.098-0.066,1.912-0.326
		c1.539-0.48,2.629-1.211,3.66-2.371c0.09-0.104,0.157-0.207,0.262-0.297c0.06-0.117,0.195-0.273,0.276-0.393
		c0.09-0.139,0.165-0.279,0.254-0.391c0.209-0.436,0.418-0.783,0.598-1.271c0.568-1.5,0.583-3.199,0.157-4.708
		c-0.821-2.868-2.943-4.035-3.085-4.235c-0.389-0.109-2.316-1.721-5.573-1.219c-1.569,0.251-3.272,1.057-4.325,2.194
		C39.976,4.713,39.969,4.766,39.819,4.817L39.819,4.817z"/>
	<polygon fill-rule="evenodd" clip-rule="evenodd" points="25.603,15.645 26.791,4.965 30.548,4.965 29.413,15.645 	"/>
	<polygon fill-rule="evenodd" clip-rule="evenodd" points="32.551,15.645 33.731,4.965 37.489,4.965 36.353,15.645 	"/>
	<polygon fill-rule="evenodd" clip-rule="evenodd" points="53.699,15.645 54.887,4.965 58.637,4.965 57.501,15.645 	"/>
	<polygon fill-rule="evenodd" clip-rule="evenodd" points="76.23,15.645 73.159,4.411 69.955,4.965 72.427,15.645 	"/>
	<polygon fill-rule="evenodd" clip-rule="evenodd" points="15.698,16.109 16.811,6.606 18.984,4.107 20.86,4.107 19.5,16.109 	"/>
	<rect x="24.677" y="15.498" fill-rule="evenodd" clip-rule="evenodd" width="5.647" height="0.391"/>
	<rect x="31.549" y="15.498" fill-rule="evenodd" clip-rule="evenodd" width="5.641" height="0.391"/>
	<rect x="28.509" y="9.975" fill-rule="evenodd" clip-rule="evenodd" width="5.647" height="0.393"/>
	<rect x="32.73" y="4.684" fill-rule="evenodd" clip-rule="evenodd" width="5.647" height="0.392"/>
	<rect x="25.917" y="4.684" fill-rule="evenodd" clip-rule="evenodd" width="5.64" height="0.392"/>
	<rect x="14.45" y="15.977" fill-rule="evenodd" clip-rule="evenodd" width="6.365" height="0.393"/>
	<rect x="10.618" y="13.021" fill-rule="evenodd" clip-rule="evenodd" width="10.66" height="0.383"/>
	<polygon fill-rule="evenodd" clip-rule="evenodd" points="10.618,13.021 18.328,4.107 19.41,4.107 16.811,6.606 11.081,13.266 	"/>
	<rect x="52.661" y="15.498" fill-rule="evenodd" clip-rule="evenodd" width="5.64" height="0.391"/>
	<rect x="63.179" y="15.498" fill-rule="evenodd" clip-rule="evenodd" width="5.646" height="0.391"/>
	<rect x="70.619" y="15.498" fill-rule="evenodd" clip-rule="evenodd" width="5.648" height="0.391"/>
	<rect x="67.257" y="11.543" fill-rule="evenodd" clip-rule="evenodd" width="5.648" height="0.391"/>
	<rect x="54.147" y="4.684" fill-rule="evenodd" clip-rule="evenodd" width="5.647" height="0.392"/>
	<path fill-rule="evenodd" clip-rule="evenodd" d="M2.176,14.699c-1.031,0.791-2.144,1.67-2.151,1.662h9.487l0.77-3.939
		c-1.479,1.02-3.892,1.738-6.477,1.59c1.18-0.629,3.175-1.871,4.848-3.267c1.196-0.99,2.63-3.673,1.128-5.477
		C8.37,3.561,2.632,3.731,1.654,5.26v2.764c0.381-0.717,2.39-5.129,4.736-3.325C7.331,5.43,7.249,7.072,6.711,8.528
		C5.747,11.137,3.252,13.871,2.176,14.699L2.176,14.699z"/>
	<path fill-rule="evenodd" clip-rule="evenodd" d="M59.392,5.076l0.403-0.392c2.286-0.096,5.782,1.227,3.57,4.271
		c-0.769,1.059-2.958,1.988-4.37,1.988c0.007,0,1.613,0.312,1.957,0.347c0.314,0.021,1.696,0.563,1.905,1.057
		c0.06,0.135,0.186,0.252,0.231,0.385l1.554,3.156h-4.497l-1.801-4.892c-0.216,0-0.373-0.053-0.493-0.053l0.083-0.361
		c0.269,0.015,0.979-0.266,1.248-0.422C60.691,9.252,60.781,5.135,59.392,5.076L59.392,5.076z"/>
	<polygon fill-rule="evenodd" clip-rule="evenodd" points="70.38,5.305 69.955,4.965 65.338,15.889 66.01,15.711 	"/>
	<path fill-rule="evenodd" clip-rule="evenodd" d="M83.468,5.128l1.838,2.719l0.719-3.474l-1.473,0.65
		c-2.907-1.641-6.544,0.274-6.828,2.795c-0.067,0.598-0.06,1.314,0.336,1.936c1.196,1.884,3.982,1.914,4.049,4.419
		c0.037,1.691-2.136,2.15-3.152,0.813l-1.815-2.371l-0.224,3.592l1.315-0.738c3.652,2.557,9.98-2.027,6.603-5.478
		c-0.979-0.998-4.355-2.483-3.824-4.293C81.287,4.736,82.878,4.581,83.468,5.128L83.468,5.128z"/>
</g>
<rect opacity="0" fill-rule="evenodd" clip-rule="evenodd" fill="#141515" width="86.024" height="20"/>
</svg>
