<?xml version="1.0" encoding="utf-8"?>
<!-- Generator: Adobe Illustrator 16.0.0, SVG Export Plug-In . SVG Version: 6.00 Build 0)  -->
<!DOCTYPE svg PUBLIC "-//W3C//DTD SVG 1.1//EN" "http://www.w3.org/Graphics/SVG/1.1/DTD/svg11.dtd">
<svg version="1.1" id="Слой_1" xmlns="http://www.w3.org/2000/svg" xmlns:xlink="http://www.w3.org/1999/xlink" x="0px" y="0px"
	 width="37.3px" height="20px" viewBox="0 0 37.3 20" enable-background="new 0 0 37.3 20" xml:space="preserve">
<g>
	<path fill-rule="evenodd" clip-rule="evenodd" d="M8.74,3.92c3.891-0.843,6.851,1.666,7.583,4.639
		c0.935,3.806-1.772,6.878-4.732,7.541c-3.885,0.871-6.847-1.714-7.588-4.6C3.022,7.667,5.706,4.583,8.74,3.92L8.74,3.92z
		 M21.715,16.712h-0.566c0.018-0.316,0.123-0.576,0.313-0.758c0.183-0.189,0.428-0.277,0.723-0.277c0.183,0,0.348,0.034,0.487,0.112
		c0.139,0.079,0.252,0.19,0.34,0.328c0.077,0.146,0.121,0.295,0.121,0.441c0,0.181-0.051,0.37-0.147,0.577
		c-0.104,0.204-0.295,0.447-0.566,0.722l-0.34,0.354h1.081v0.524h-2.089v-0.268l0.931-0.947c0.228-0.225,0.376-0.404,0.452-0.542
		c0.071-0.138,0.115-0.257,0.115-0.37c0-0.122-0.043-0.214-0.122-0.292c-0.079-0.069-0.175-0.115-0.296-0.115
		c-0.123,0-0.227,0.054-0.305,0.141C21.759,16.437,21.715,16.559,21.715,16.712L21.715,16.712z M31.005,16.635l0.069-0.611h0.471
		l-0.262,0.826c0.052,0.062,0.104,0.13,0.148,0.209c0.105,0.171,0.157,0.369,0.157,0.575c0,0.207-0.052,0.396-0.157,0.578
		c-0.104,0.181-0.253,0.327-0.427,0.431c-0.183,0.094-0.384,0.146-0.601,0.146c-0.322,0-0.591-0.112-0.818-0.336
		c-0.228-0.223-0.341-0.501-0.341-0.818c0-0.346,0.123-0.627,0.385-0.86c0.217-0.198,0.478-0.303,0.774-0.303
		c0.209,0,0.41,0.052,0.593,0.155L31.005,16.635z M29.751,15.661l0.331-0.242l0.722,0.612l-0.269,0.25L29.751,15.661z
		 M24.187,15.677h0.566V17.6h0.271v0.525h-0.271v0.611h-0.566v-0.611h-1.314V17.6L24.187,15.677z M24.187,17.6v-0.998L23.501,17.6
		H24.187z M28.427,16.238l-0.4,0.396c-0.262-0.267-0.558-0.404-0.897-0.404c-0.296,0-0.548,0.104-0.749,0.292
		c-0.199,0.2-0.294,0.432-0.294,0.715c0,0.284,0.104,0.525,0.313,0.733c0.199,0.197,0.461,0.3,0.765,0.3
		c0.202,0,0.366-0.041,0.505-0.129c0.13-0.077,0.243-0.207,0.323-0.389h-1.142v-0.534h1.786l0.008,0.131
		c0.009,0.258-0.07,0.508-0.208,0.741c-0.13,0.232-0.313,0.413-0.532,0.534c-0.216,0.13-0.469,0.189-0.765,0.189
		c-0.313,0-0.592-0.069-0.835-0.207c-0.245-0.128-0.445-0.327-0.584-0.568c-0.148-0.251-0.217-0.525-0.217-0.81
		c0-0.397,0.13-0.742,0.4-1.034c0.313-0.344,0.723-0.519,1.218-0.519c0.262,0,0.515,0.045,0.741,0.138
		C28.053,15.903,28.244,16.041,28.427,16.238L28.427,16.238z M29.036,15.618c0.105,0,0.183,0.033,0.253,0.109
		c0.069,0.069,0.113,0.158,0.113,0.252c0,0.102-0.035,0.181-0.104,0.251c-0.071,0.068-0.157,0.104-0.253,0.104
		c-0.104,0-0.183-0.035-0.252-0.104c-0.079-0.07-0.114-0.156-0.114-0.259c0-0.097,0.035-0.183,0.106-0.25
		C28.855,15.651,28.941,15.618,29.036,15.618L29.036,15.618z M28.759,16.532h0.558v2.204h-0.558V16.532z M30.413,16.996
		c-0.175,0-0.323,0.063-0.435,0.174c-0.123,0.118-0.175,0.274-0.175,0.464c0,0.19,0.053,0.345,0.166,0.465
		c0.121,0.12,0.261,0.172,0.435,0.172c0.183,0,0.323-0.059,0.445-0.172c0.113-0.12,0.174-0.274,0.174-0.465
		c0-0.189-0.061-0.346-0.174-0.464C30.734,17.059,30.587,16.996,30.413,16.996L30.413,16.996z M10.018,4.506h0.011
		c0.177,0,0.321,0.143,0.321,0.318V8.63c0.553,0.083,1.001,0.488,1.14,1.019h2.126c0.177,0,0.321,0.143,0.321,0.317v0.011
		c0,0.175-0.144,0.317-0.321,0.317h-2.12c-0.138,0.615-0.691,1.068-1.356,1.068c-0.764,0-1.389-0.613-1.389-1.375
		c0-0.607,0.398-1.122,0.946-1.303V8.669V4.824C9.697,4.649,9.841,4.506,10.018,4.506L10.018,4.506z M10.156,9.238
		c0.421,0,0.764,0.345,0.764,0.762c0,0.421-0.343,0.76-0.764,0.76c-0.426,0-0.77-0.339-0.77-0.76
		C9.387,9.583,9.731,9.238,10.156,9.238L10.156,9.238z M32.216,6.297l-0.053,6.676h-2.377L32.216,6.297z M23.317,5.385
		c0.052-0.009,0.009-0.198,0.245-0.947c0.609-1.956,2.376-1.853,2.498,0.103c0.123,1.956-0.853,3.29-1.924,4.814
		c-1.236,1.766-2.254,2.593-2.646,3.584c0,0.008,0,1.79,0.008,1.861l10.518,0.077l0.025,3.608l1.881,0.018
		c0.052-1.757,0.026-3.548,0.018-5.313c-0.009-1.811,1.308-1.967,1.378-0.21c0.087,2.067-0.011,4.008,0.025,5.487l1.881-0.017
		c0.061-2.153,0.095-4.066,0.068-5.454c-0.044-1.652-0.462-2.677-1.218-3.091c-0.498-0.268-1.027-0.276-2.108,0.009l-0.079-8.459
		h-1.714l-4.379,11.541l-4.013-0.017c0.426-0.965,2.141-2.92,2.81-3.928c5.486-8.233-5.048-10.861-5.074-3.703
		C21.864,5.351,23.16,5.402,23.317,5.385L23.317,5.385z M1.743,9.298L0,9.32c0.448,5.476,4.146,8.5,9.404,9.282l0.044,1.402
		c5.13-0.147,8.584-4.228,9.116-9.184l1.666,0.186c0.177-2.118-1.932-5.36-2.834-6.395c-1.268-1.468-3.553-2.672-6.471-2.918
		L10.898,0C7.909,0.333,4.566,2.283,2.906,4.912C1.887,6.517,1.909,7.551,1.743,9.298L1.743,9.298z"/>
</g>
<rect x="0" opacity="0" fill-rule="evenodd" clip-rule="evenodd" width="37.223" height="20"/>
</svg>
