<?xml version="1.0" encoding="UTF-8" standalone="no"?>
<svg width="34px" height="18px" viewBox="0 0 34 18" version="1.1" xmlns="http://www.w3.org/2000/svg" xmlns:xlink="http://www.w3.org/1999/xlink" xmlns:sketch="http://www.bohemiancoding.com/sketch/ns">
    <!-- Generator: Sketch 3.5.1 (25234) - http://www.bohemiancoding.com/sketch -->
    <title>24tv.ua</title>
    <desc>Created with Sketch.</desc>
    <defs>
        <rect id="path-1" x="0" y="0" width="34" height="20"></rect>
    </defs>
    <g id="feed" stroke="none" stroke-width="1" fill="none" fill-rule="evenodd" sketch:type="MSPage">
        <g id="screen" sketch:type="MSArtboardGroup" transform="translate(-23.000000, -53.000000)">
            <g id="24tv.ua" sketch:type="MSLayerGroup" transform="translate(23.000000, 52.000000)">
                <mask id="mask-2" sketch:name="Mask" fill="white">
                    <use xlink:href="#path-1"></use>
                </mask>
                <use id="Mask" opacity="0.7" sketch:type="MSShapeGroup" xlink:href="#path-1"></use>
                <g id="Слой_1" mask="url(#mask-2)" fill="#000000" sketch:type="MSShapeGroup">
                    <g id="Group">
                        <path d="M6.395,11.124 C6.896,11.153 9.581,11.195 9.859,11.097 C10.025,10.756 10.086,10.335 10.297,9.955 C10.505,9.581 10.713,9.291 11.047,9.061 C11.721,8.597 12.876,8.428 13.451,9.049 C14.156,9.809 13.161,11.033 12.438,11.585 L11.982,11.949 C11.014,12.609 9.948,13.172 8.948,13.799 C8.264,14.229 7.568,14.634 6.949,15.092 C6.502,15.422 6.45,15.505 6.113,15.844 C5.7,16.26 5.771,16.116 5.327,16.699 C4.893,17.267 4.474,18.071 4.286,18.953 L15.369,18.956 L16.101,15.817 L10.054,15.818 C10.205,15.619 11.106,15.227 11.438,15.061 C12.593,14.479 14.657,13.425 15.557,12.759 C16.397,12.137 17.071,11.377 17.419,10.35 C17.689,9.549 17.802,8.447 17.402,7.647 C17.054,6.949 16.464,6.453 15.666,6.15 C13.678,5.396 10.443,5.734 8.78,7.09 C8.296,7.485 8.1,7.642 7.709,8.156 C7.206,8.819 6.449,10.331 6.395,11.124 L6.395,11.124 L6.395,11.124 Z" id="Shape"></path>
                        <path d="M20.451,13.388 C20.518,13.252 20.464,13.322 20.577,13.2 C21.203,12.532 23.016,10.989 23.476,10.403 C23.578,10.273 24.309,9.559 24.489,9.465 L23.568,13.386 L20.451,13.388 L20.451,13.388 Z M16.824,16.229 L22.877,16.243 L22.242,18.946 L25.949,18.957 C25.986,18.675 26.497,16.298 26.649,16.244 L28.211,16.242 L28.9,13.399 L27.267,13.384 L29.022,5.951 L25.438,5.948 L22.354,8.746 C22.155,8.986 21.938,9.106 21.712,9.311 L20.787,10.194 C20.688,10.31 20.595,10.374 20.47,10.479 L19.253,11.618 C19.074,11.806 18.827,11.957 18.626,12.143 L17.734,13.003 C17.373,13.406 17.466,13.504 17.266,14.333 C17.159,14.765 16.838,15.883 16.824,16.229 L16.824,16.229 L16.824,16.229 Z" id="Shape"></path>
                        <path d="M0.371,19.006 L0.78,19.001 C0.564,17.736 0.429,17.108 0.728,15.795 C1.087,14.218 1.895,12.755 2.853,11.527 C3.336,10.909 4.04,10.101 4.589,9.594 L6.046,8.311 C9.119,6.104 10.447,5.253 14.414,3.833 C18.676,2.308 25.89,1.54 29.774,4.563 L30.51,5.196 C31.481,6.228 32.102,7.518 32.136,9.072 C32.172,10.725 31.767,11.113 31.554,12.129 C32.007,11.535 32.557,10.245 32.782,9.37 C33.075,8.228 33.154,7.006 32.799,5.873 C32.19,3.929 30.688,2.651 28.778,1.895 C24.631,0.254 19.105,1.118 15.09,2.488 C12.07,3.519 8.44,5.373 5.994,7.388 L4.894,8.315 C4.681,8.482 4.593,8.628 4.399,8.805 C4.213,8.974 4.071,9.112 3.9,9.294 C3.492,9.728 3.042,10.122 2.7,10.614 C2.626,10.719 2.566,10.782 2.482,10.888 C2.034,11.452 1.658,12.044 1.268,12.684 C0.804,13.444 0.359,14.552 0.142,15.55 C-0.06,16.476 -0.095,18.23 0.371,19.006 L0.371,19.006 L0.371,19.006 Z" id="Shape"></path>
                    </g>
                </g>
            </g>
        </g>
    </g>
</svg>