<?xml version="1.0" encoding="utf-8"?>
<!-- Generator: Adobe Illustrator 16.0.0, SVG Export Plug-In . SVG Version: 6.00 Build 0)  -->
<!DOCTYPE svg PUBLIC "-//W3C//DTD SVG 1.1//EN" "http://www.w3.org/Graphics/SVG/1.1/DTD/svg11.dtd">
<svg version="1.1" id="Слой_1" xmlns="http://www.w3.org/2000/svg" xmlns:xlink="http://www.w3.org/1999/xlink" x="0px" y="0px"
	 width="42.991px" height="20px" viewBox="0 0 42.991 20" enable-background="new 0 0 42.991 20" xml:space="preserve">
<g>
	<path fill-rule="evenodd" clip-rule="evenodd" d="M1.132,4.243L12.9,4.177c0.628,0,1.132,0.509,1.132,1.12v5.432l1.855-0.669
		l-1.855,3.003v4.009c0,0.61-0.513,1.205-1.132,1.119L1.132,16.509C0.514,16.423,0,16.009,0,15.388V5.364
		C0,4.751,0.514,4.243,1.132,4.243L1.132,4.243z M39.138,10.286c2.122,0,3.853,1.826,3.853,4.066c0,2.249-1.731,4.075-3.853,4.075
		c-1.075,0-2.045-0.461-2.74-1.205c-0.523,0.451-1.456,1.392-1.932,1.392c-1.436-0.009-0.941-1.392-0.979-2.258
		c0-0.095-1.493,1.921-2.702,1.977c-2.178,0.104-2.387-1.864-1.332-3.078c0.723-0.837,2.055-1.628,2.845-1.956
		c0.571-0.235,0.552-0.227,1.113-0.528c-0.019-0.603,0.19-1.383-0.485-1.892c-0.742-0.564-1.77,0.273-2.226,0.951
		c-0.495,0.754-0.381,1.404-0.495,1.798h-0.609l0.029-2.07c0.048-0.01,1.636-1.346,3.111-1.393c0.666-0.019,1.731,0.085,1.884,0.951
		v5.309c0,1.168,0.59,1.326,1.36,0.253c-0.438-0.658-0.695-1.458-0.695-2.323C35.285,12.112,37.006,10.286,39.138,10.286
		L39.138,10.286z M37.149,11.519c1.132-1.044,2.93-0.63,4.024,0.933c1.094,1.553,1.075,3.652-0.048,4.696
		c-1.123,1.044-2.92,0.621-4.024-0.932C36.008,14.663,36.027,12.555,37.149,11.519L37.149,11.519z M33.43,13.411
		c-0.171,0.121-2.845,1.073-3.302,2.278c-0.162,0.423-0.304,1.102,0.342,1.504c1.019,0.642,2.864-1.006,2.864-1.9L33.43,13.411z
		 M21.329,19.989c-0.855,0-2.882,0.037-3.767-0.093l-1.579-5.573l1.674-0.273c0.153,1.959,1.703,3.268,2.074,3.587
		c1.874,1.562,5.404,1.395,6.441-0.754c0.837-1.723,0.305-3.132-0.6-4.046c-2.017-2.015-6.716-2.373-8.495-3.859
		c-1.313-1.102-2.065-1.722-2.246-2.711c-0.371-2.127,1.446-4.282,3.844-5.402c1.969-0.922,4.357-1.054,5.993-0.64l1.389,5.121
		l-1.541,0.489c0-1.383-1.417-3.115-2.844-3.802c-0.704-0.348-1.731-0.565-2.692-0.179c-1.903,0.743-1.912,2.334-1.713,3.105
		C18.342,9.072,30.7,6.644,28.587,15.011C27.846,17.956,24.725,19.989,21.329,19.989L21.329,19.989z M37.435,11.557l0.751,0.312
		l0.771-0.547l0.076,0.97l0.656,0.404l-0.799,0.293l-0.362,0.8l-0.466-0.688l-0.828-0.028l0.485-0.725L37.435,11.557z
		 M18.808,13.881l2.073-0.311l0.98-2.239l1.475,2.061l2.017,0.037l-1.389,1.705l0.286,2.24l-1.95-0.905l-1.884,1.056l0.095-2.27
		L18.808,13.881z M10.16,15.896l-7.411-1.064c0.096-0.762,0.362-1.478,0.819-2.146c0.447-0.669,1.208-0.961,2.455-1.873
		c0.76-0.556,1.246-0.979,1.456-1.271C7.696,9.25,7.801,8.978,7.801,8.723c0-0.282-0.104-0.527-0.313-0.725
		c-0.21-0.197-0.476-0.3-0.799-0.3c-0.324,0-0.6,0.104-0.809,0.311C5.67,8.215,5.546,8.855,5.47,9.383L3.083,9.392
		c0.294-2.08,0.542-3.746,3.539-3.746c2.645,0,4.509,2.429,2.911,4.895c-0.324,0.507-0.59,0.781-1.466,1.392
		c-0.523,0.358-0.875,0.613-1.046,0.754c-0.18,0.141-0.39,0.328-0.627,0.556l3.767,0.169V15.896z M1.646,4.854l9.799-0.046
		c0.57,0,1.027,0.46,1.027,1.025l0.067,10.514c0,0.564-0.466,1.102-1.037,1.026l-9.856-1.328c-0.561-0.074-1.027-0.46-1.027-1.026
		V5.871C0.619,5.308,1.075,4.854,1.646,4.854L1.646,4.854z"/>
</g>
<rect y="0" opacity="0" width="42.991" height="20"/>
</svg>
