<?xml version="1.0" encoding="utf-8"?>
<!-- Generator: Adobe Illustrator 16.0.0, SVG Export Plug-In . SVG Version: 6.00 Build 0)  -->
<!DOCTYPE svg PUBLIC "-//W3C//DTD SVG 1.1//EN" "http://www.w3.org/Graphics/SVG/1.1/DTD/svg11.dtd">
<svg version="1.1" id="Слой_1" xmlns="http://www.w3.org/2000/svg" xmlns:xlink="http://www.w3.org/1999/xlink" x="0px" y="0px"
	 width="104.669px" height="20px" viewBox="0 0 104.669 20" enable-background="new 0 0 104.669 20" xml:space="preserve">
<g>
	<path fill-rule="evenodd" clip-rule="evenodd" d="M39.563,9.659c0.137,2.317,0.528,3.844-2.117,3.995
		c-1.791,0.106-4.346,0.083-6.149-0.006l-0.053-3.479l-0.012-1.643c1.471-0.112,3.089-0.041,4.578-0.048
		c1.625,0,3.125-0.304,3.742,1.039 M27.55,10.111c-0.972,0.814-3.374,0.481-4.921,0.486c-0.658,0-1.951,0.124-2.455-0.217
		c-1.352-0.915,1.156-1.057-3.119-0.903c-0.083,4.775,2.863,3.526,11.272,3.603l-0.024,3.108c2.503,0.294,6.517,0.071,9.179,0.065
		c3.084,0,4.667-0.382,4.94-3.109v-0.012v-0.012v-0.013v-0.012h0.006l0.006-0.076c0.106-1.372,0.018-2.634-0.012-4.047
		c-0.201-1.003-0.308-1.931-1.37-2.417c-0.919-0.428-2.218-0.518-3.356-0.518c-2.426-0.011-4.856,0-7.282,0
		c-0.296-3.959-0.332-3.467-6.736-3.467c-4.246,0-6.73-0.563-6.617,3.439c6.095,0.129-0.712-0.97,5.781-0.953
		c1.512,0,3.267-0.187,4.631,0.195l0.036,1.271c-1.423,0.388-4.465,0.218-6.149,0.218l-0.041,2.065
		C25.314,8.815,27.705,8.176,27.55,10.111L27.55,10.111z M10.502,4.42c-0.68-0.921-2.156-1.484-4.917-0.921
		c0.991,0.117,1.969,0.505,2.526,1.021c0.399,0.368-0.078,1.268-1.136,2.228C5.506,8.084,2.915,9.537,0,9.841l0.024,2.43
		c1.596,0.037,5.87-0.842,8.414-2.958C10.29,7.771,10.89,4.946,10.502,4.42z M5.533,13.596l-4.27,0.998l0.018,4.294
		C2.57,18.83,8.48,17.34,12.375,14.583c2.468-1.747,3.692-4.929,3.807-5.616c0.213-2.547,0.297-7.203-2.407-7.732
		c-0.978-0.188-9.767-0.158-10.33,0.088L3.427,1.945c1.64,0.17,4.018-0.018,6.026-0.039c2.327-0.024,4.199,0.239,4.529,2.566
		c0.092,0.649-0.305,3.292-1.649,4.902C10.204,11.928,6.587,13.596,5.533,13.596z"/>
	<g>
		<path d="M83.363,6.043c0.032-0.48-0.094-0.879-0.375-1.184c-0.652-0.708-2.041-0.799-3.178-0.799
			c-0.473,0-0.948,0.018-1.406,0.035c-0.411,0.015-0.799,0.029-1.146,0.029H77.19c-3.656,0-3.67,0.939-3.712,3.732
			c-0.004,0.253-0.008,0.521-0.014,0.82l0.174,2.331c-0.43,0.005-0.987,0.026-1.622,0.051c-0.981,0.038-2.094,0.081-3.188,0.081
			c-2.299,0-3.67-0.197-4.185-0.603c-0.408-2.491-0.356-3.821,0.17-4.442c0.511-0.602,1.488-0.551,2.809-0.5
			c0.417,0.016,0.889,0.035,1.388,0.035l0.578-0.002c0.875,0,1.57,0.031,1.892,0.42c0.234,0.283,0.284,0.76,0.155,1.494
			c-0.458-0.006-0.916-0.008-1.374-0.008l-2.026,0.004c-0.593-0.001-1.082-0.03-1.475-0.054c-0.276-0.017-0.507-0.03-0.697-0.03
			c-0.277,0-0.556,0.025-0.71,0.205c-0.125,0.145-0.155,0.361-0.101,0.721l0.012,0.037c0.058,0.115,0.094,0.197,0.12,0.257
			c0.081,0.185,0.116,0.225,0.305,0.237c0.079,0.006,0.197,0.014,0.407,0.06l0.001-0.003c0.092,0.018,0.333,0.018,1.087,0.018
			l6.007-0.012V8.85c-0.004-4.165-0.416-4.74-3.387-4.74c-0.303,0-0.634,0.004-0.995,0.01c-0.431,0.006-0.904,0.012-1.424,0.012
			h-0.281c-1.934,0-3.002,0.256-3.57,0.854c-0.349,0.368-0.508,0.858-0.568,1.49c-0.027-0.666-0.069-1.401-0.123-2.211L62.837,4.15
			l-1.41-0.034l-0.012,0.115c-0.062,0.613-0.027,1.46,0.008,2.358c0.063,1.568,0.134,3.344-0.325,4.031
			c-0.511,0.366-1.338,0.416-2.081,0.416c-0.25,0-0.501-0.006-0.749-0.013c-0.24-0.006-0.477-0.012-0.702-0.012
			c-2.236-0.002-3.186-0.044-3.582-0.463c-0.338-0.356-0.302-1.038-0.237-2.275c0.05-0.948,0.119-2.245,0.036-3.96l-0.006-0.121
			l-1.431,0.028l-0.011,0.11c-0.101,1.002-0.141,5.5,0.05,6.393c0.324,1.513,1.776,1.721,3.298,1.721
			c0.311,0,0.628-0.008,0.946-0.016c0.591-0.018,1.184-0.018,1.709-0.014c0.248,0.002,0.484,0.004,0.708,0.004
			c1.429,0,2.491-0.054,3.142-0.748c0.518-0.553,0.749-1.5,0.801-2.996c0.003,0.057,0.006,0.113,0.009,0.17
			c0.024,0.463,0.051,0.969,0.072,1.535c0.355,1.943,1.422,2.038,3.278,2.038c1.009,0,2.384,0.014,3.904,0.029
			c1.868,0.019,3.985,0.04,5.896,0.04c2.597,0,4.308-0.04,5.231-0.123l0.121-0.01l-0.079-1.313l-0.111-0.006
			c-0.296-0.017-0.624-0.024-1.03-0.024c-0.348,0-0.708,0.006-1.071,0.012c-0.37,0.006-0.743,0.012-1.112,0.012
			c-0.963,0-2.056-0.036-2.892-0.294c-0.218-0.498-0.264-0.941-0.281-1.719c-0.006-0.302-0.015-0.578-0.023-0.829
			c-0.038-1.182-0.058-1.832,0.248-2.147c0.322-0.332,1.076-0.368,2.602-0.368l1.177,0.001c0.257,0,0.529,0,0.819-0.002l0.222-0.002
			c1.071-0.011,1.618-0.002,1.884,0.269c0.336,0.343,0.32,1.219,0.288,2.965l-0.012,0.684c-0.006,0.401,0.025,0.851,0.054,1.286
			c0.091,1.334,0.184,2.715-0.687,3.059c-0.336,0.132-0.766,0.193-1.351,0.193c-0.487,0-1.011-0.042-1.565-0.087
			c-0.567-0.046-1.153-0.093-1.712-0.093c-1.483,0-3.214,0.307-3.431,2.695l-0.012,0.135l0.135,0.002
			c0.221,0.004,0.404,0.006,0.556,0.006c0.68,0,0.844-0.035,0.889-0.381c0.021-0.164,0.053-0.412,0.452-0.82
			c0.363-0.073,0.849-0.107,1.522-0.107c0.404,0,0.834,0.012,1.273,0.023c0.459,0.012,0.929,0.025,1.389,0.025
			c1.568,0,3.236-0.141,3.717-1.176c0.304-0.654,0.341-7.162,0.127-8.035L83.363,6.043z"/>
		<path d="M52.023,4.11l-1.432,0.028l-0.01,0.111c-0.051,0.572-0.021,1.362,0.01,2.199c0.064,1.703,0.136,3.629-0.427,4.335
			c-0.451,0.204-1.599,0.308-3.414,0.308c-0.98,0-2.017-0.029-2.849-0.053c-0.583-0.016-1.085-0.03-1.438-0.031H42.34l-0.001,0.123
			c-0.001,0.116-0.138,0.279-0.258,0.422c-0.169,0.201-0.328,0.391-0.25,0.582c0.062,0.151,0.253,0.235,0.633,0.272
			c0.266,0.002,0.65,0.011,1.112,0.021c0.837,0.018,1.984,0.042,3.103,0.042c0,0,0,0,0.001,0c2.489,0,3.917-0.122,4.368-0.372
			c1.472-0.836,1.181-5.783,0.988-7.871L52.023,4.11z"/>
		<path d="M104.276,8.854c-0.146-1.12-1.641-1.271-3.089-1.271c-0.531,0-1.096,0.022-1.642,0.046
			c-0.543,0.021-1.056,0.043-1.537,0.043c-0.867,0-1.896-0.061-2.151-0.531c-0.228-0.416-0.274-0.744-0.138-0.975
			c0.29-0.489,1.376-0.547,2.167-0.547c0.23,0,0.456,0.006,0.662,0.01c0.158,0.004,0.306,0.008,0.438,0.008h5.164l-0.057-1.498
			l-0.118-0.002c-0.738-0.014-1.523-0.02-2.47-0.02c-0.747,0-1.494,0.004-2.24,0.008l-1.328,0.006c-1.806,0-3.674,0-3.725,2.363
			c-0.018,0.781,0.168,1.359,0.566,1.768c0.484,0.495,1.247,0.716,2.475,0.716c0.541,0,1.126-0.042,1.692-0.083
			c0.563-0.04,1.146-0.082,1.682-0.082c1.224,0,1.967,0.223,2.398,0.723c0.038,1.105,0.031,1.339-1.093,1.432h-7.55
			c-0.208,0.002-0.355,0.006-0.457,0.009c0.022-0.089,0.016-0.208-0.074-0.362c0.15-0.857,0.162-3.499,0.074-4.346
			c-0.171-1.731-1.07-2.084-2.669-2.131c-0.285-0.01-0.616-0.029-0.976-0.051c-0.674-0.039-1.437-0.083-2.198-0.083
			c-1.909,0-3.064,0.286-3.635,0.901c-0.28,0.301-0.409,0.681-0.385,1.129c-0.265,0.451-0.25,0.975-0.231,1.578
			c0.003,0.109,0.006,0.222,0.008,0.336l0.007,0.586c0.034,3.523,0.173,3.91,4.207,3.91c0.507,0,1.077-0.006,1.719-0.013
			c0.825-0.009,1.768-0.019,2.845-0.019h0.095c0.295,0,0.783,0.011,1.394,0.023c1.012,0.022,2.396,0.053,3.787,0.053
			c3.426,0,5.358-0.184,5.908-0.562c0.443-0.306,0.74-0.803,0.836-1.399C104.734,9.92,104.6,9.297,104.276,8.854z M92.203,10.758
			c-0.377,0.209-0.952,0.307-1.806,0.307c-0.44,0-0.896-0.025-1.335-0.05c-0.396-0.022-0.771-0.043-1.099-0.043l-0.066,0.001
			c-0.244,0.002-0.468,0.007-0.671,0.012c-0.203,0.006-0.387,0.01-0.552,0.01c-1.003,0-1.322-0.081-1.368-1.783l-0.004-0.234
			c-0.018-1.022-0.036-2.178,0.174-3.057c0.682-0.264,1.46-0.301,2.202-0.301c0.239,0,0.481,0.005,0.725,0.01
			c0.512,0.009,1.034,0.008,1.542-0.012c0.249-0.01,0.493-0.02,0.729-0.02c0.661,0,1.33,0.066,1.757,0.539
			c0.009,0.154,0.021,0.328,0.035,0.518C92.554,7.885,92.7,9.937,92.203,10.758z"/>
	</g>
</g>
<rect opacity="0" fill-rule="evenodd" clip-rule="evenodd" fill="#141515" width="104.669" height="20"/>
</svg>
