<?xml version="1.0" encoding="utf-8"?>
<!-- Generator: Adobe Illustrator 16.0.0, SVG Export Plug-In . SVG Version: 6.00 Build 0)  -->
<!DOCTYPE svg PUBLIC "-//W3C//DTD SVG 1.1//EN" "http://www.w3.org/Graphics/SVG/1.1/DTD/svg11.dtd">
<svg version="1.1" id="Слой_1" xmlns="http://www.w3.org/2000/svg" xmlns:xlink="http://www.w3.org/1999/xlink" x="0px" y="0px"
	 width="113.695px" height="20px" viewBox="0 0 113.695 20" enable-background="new 0 0 113.695 20" xml:space="preserve">
<g>
	<path fill-rule="evenodd" clip-rule="evenodd" d="M40.479,15.483c0.467-0.004,0.929-0.008,1.366-0.008h0.004l1.306-10.94
		c-1.245-0.01-3.983-0.031-6.341-0.031c-2.223,0-3.207,0.02-3.64,0.038l-1.26,10.925l3.97,0.006l0.556-4.508l1.933-0.035
		l-0.492,4.549C38.685,15.499,39.593,15.491,40.479,15.483z M37.566,9.073l-0.888-0.008l0.275-2.628l1.879-0.034l0.004,0.479
		c0.001,0.209-0.034,1.366-0.243,1.825L38.534,8.84l-0.125,0.076C38.18,9.054,37.869,9.073,37.566,9.073z"/>
	<path fill-rule="evenodd" clip-rule="evenodd" d="M71.096,4.532c-1.551,0.014-3.104,0.026-4.607,0.01
		c-0.069,0.615-0.202,1.726-0.357,3.022c-0.304,2.544-0.783,6.56-0.905,7.914c0.528,0.01,1.41,0.02,2.243,0.02
		c1.04,0,1.542-0.018,1.783-0.033c0.09-0.463,0.188-1.516,0.256-2.25c0.076-0.818,0.141-1.525,0.213-1.881l0.077-0.375l1.907-0.021
		l-0.49,4.545c0.477,0.01,1.225,0.018,1.984,0.018c1.168,0,1.734-0.018,2.003-0.033c0.117-0.652,0.294-2.369,0.395-3.355
		c0.031-0.293,0.059-0.563,0.083-0.785l-1.444-0.023l0.181-1.969c0.061-0.617,0.477-0.67,0.899-0.67l0.329,0.004
		c0.101,0.002,0.216,0.004,0.348,0.006l0.464-4.138C74.721,4.502,72.909,4.518,71.096,4.532z M71.895,9.016l-1.916,0.062
		l0.324-2.679l1.942,0.048L71.895,9.016z"/>
	<path fill-rule="evenodd" clip-rule="evenodd" d="M102.477,6.813l-1.483-0.02l0.247-2.24l-8.482-0.015l-1.263,10.916l8.455,0.02
		l0.29-2.248l1.486-0.018L102.477,6.813z M98.004,10.756c-0.083,0.67-0.155,1.249-0.187,1.549L97.8,12.474
		c-0.06,0.576-0.116,1.121-0.831,1.121c-0.065,0-0.145-0.004-0.239-0.01c-0.119-0.006-0.269-0.016-0.456-0.016h-0.531l0.811-7.155
		l1.816,0.02l0.041,0.424C98.438,7.155,98.308,8.301,98.004,10.756z"/>
	<path fill-rule="evenodd" clip-rule="evenodd" d="M107.85,6.444l5.639-0.049l0.207-1.877c-0.344-0.016-1.066-0.005-1.604,0.008
		c-0.256,0.006-0.479,0.012-0.633,0.012l-0.717-0.006c-0.908-0.01-2.494-0.024-3.969-0.024c-1.859,0-2.68,0.024-3.043,0.048
		c-0.238,1.675-1.076,8.975-1.254,10.92h9.951l0.213-1.906l-5.939-0.002l0.311-2.624l5.949-0.021l0.209-1.849l-5.846-0.032
		l-0.023-0.447c-0.008-0.16-0.066-1.581,0.414-2.026L107.85,6.444z"/>
	<path fill-rule="evenodd" clip-rule="evenodd" d="M81.233,9.068l0.272-2.576l0.385-0.037c0.483-0.048,1.521-0.032,2.622-0.012
		c0.598,0.011,1.211,0.021,1.753,0.021c0.639,0,1.008-0.017,1.22-0.034L87.7,4.537L77.75,4.543l-0.756,6.402l5.95,0.024
		l-0.276,2.359l-0.249,0.109c-0.271,0.119-0.482,0.123-0.707,0.127l-0.151,0.002c-0.489,0.016-1.313,0.006-2.178-0.008
		c-0.592-0.008-1.201-0.016-1.73-0.016c-0.464,0-0.773,0.008-0.979,0.016l-0.216,1.898l9.958,0.016l0.762-6.4L81.233,9.068z"/>
	<polygon fill-rule="evenodd" clip-rule="evenodd" points="65.015,6.379 65.227,4.536 55.267,4.54 53.987,15.454 63.937,15.474 
		64.167,13.589 58.252,13.567 58.531,10.958 64.494,10.944 64.708,9.067 58.766,9.032 59.048,6.438 	"/>
	<path fill-rule="evenodd" clip-rule="evenodd" d="M15.388,10.977l0.014-0.003c0.038-0.013,0.138-0.039,2.151-0.039l2.897,0.007
		c0.168,0,0.319-0.001,0.447-0.002l0.739-6.406l-9.989,0.004l-1.253,10.93l4.002,0.004c0.019-0.172,0.042-0.387,0.067-0.627
		C14.873,11.015,14.877,10.977,15.388,10.977z M15.46,6.415l1.909,0.021l-0.241,2.618l-1.965,0.021L15.46,6.415z"/>
	<path fill-rule="evenodd" clip-rule="evenodd" d="M50.749,11.024c0.193-0.083,0.474-0.118,0.938-0.118
		c0.249,0,0.529,0.01,0.81,0.02c0.348,0.012,0.701,0.025,0.985,0.018l0.742-6.406l-3.999,0.004l-0.545,4.477l-1.933,0.053
		l0.52-4.533h-4.007l-0.731,6.405l2.952,0.001L46,15.462h3.985l0.511-4.33L50.749,11.024z"/>
	<path fill-rule="evenodd" clip-rule="evenodd" d="M6.726,4.551L6.17,9.03L4.233,9.046l0.509-4.5L1.222,4.538
		c-0.2,0-0.477,0-0.569,0.791L0,10.941l5.968,0.019l-0.494,4.502h3.989L10.731,4.54L6.726,4.551z"/>
	<polygon fill-rule="evenodd" clip-rule="evenodd" points="31.146,15.466 31.362,13.571 25.428,13.554 26.459,4.541 22.465,4.56 
		21.201,15.472 	"/>
	<path fill-rule="evenodd" clip-rule="evenodd" d="M88.187,11.331c-0.046,0.547-0.145,1.305-0.246,2.096
		c-0.087,0.676-0.198,1.531-0.24,2.049h2.506c0.14-0.85,0.386-3.035,0.493-4.143L88.187,11.331z"/>
</g>
<rect opacity="0" fill-rule="evenodd" clip-rule="evenodd" fill="#141515" width="113.695" height="20"/>
</svg>
