<?xml version="1.0" encoding="utf-8"?>
<!-- Generator: Adobe Illustrator 16.0.0, SVG Export Plug-In . SVG Version: 6.00 Build 0)  -->
<!DOCTYPE svg PUBLIC "-//W3C//DTD SVG 1.1//EN" "http://www.w3.org/Graphics/SVG/1.1/DTD/svg11.dtd">
<svg version="1.1" id="Слой_1" xmlns="http://www.w3.org/2000/svg" xmlns:xlink="http://www.w3.org/1999/xlink" x="0px" y="0px"
	 width="33.812px" height="20px" viewBox="0 0 33.812 20" enable-background="new 0 0 33.812 20" xml:space="preserve">
<g>
	<path fill-rule="evenodd" clip-rule="evenodd" d="M3.382,0.02h9.402c1.858,0,3.381,1.521,3.381,3.377v8.071
		c0,1.855-1.523,3.376-3.381,3.376h-0.585v3.832c0,0.418,0.055,1.3-0.474,1.3c-0.799,0-1.598-1.32-2.109-1.894L6.81,14.845H3.382
		C1.523,14.845,0,13.324,0,11.469V3.397C0,1.542,1.523,0.02,3.382,0.02L3.382,0.02z M3.465,7.034
		C3.763,6.709,4.079,6.468,4.422,6.32c0.344-0.158,0.734-0.241,1.161-0.241c0.409,0,0.79,0.074,1.134,0.213
		c0.344,0.139,0.65,0.342,0.91,0.612c0.26,0.26,0.465,0.566,0.604,0.927c0.14,0.353,0.214,0.724,0.214,1.114
		c0,0.566-0.14,1.075-0.418,1.539s-0.66,0.817-1.161,1.076c-0.501,0.262-1.059,0.39-1.691,0.39c-0.725,0-1.347-0.167-1.877-0.489
		c-0.52-0.326-0.928-0.819-1.208-1.458C1.812,9.362,1.672,8.575,1.672,7.646c0-0.76,0.083-1.438,0.26-2.031
		C2.1,5.021,2.341,4.52,2.648,4.13C2.964,3.742,3.354,3.443,3.8,3.24c0.445-0.195,0.956-0.296,1.533-0.296
		c0.547,0,1.031,0.102,1.458,0.296c0.417,0.204,0.733,0.455,0.947,0.742c0.213,0.296,0.315,0.585,0.315,0.855
		c0,0.166-0.064,0.314-0.194,0.444c-0.13,0.14-0.307,0.204-0.511,0.204c-0.186,0-0.353-0.055-0.501-0.157
		c-0.158-0.102-0.27-0.25-0.344-0.445C6.401,4.641,6.243,4.455,6.03,4.307C5.816,4.159,5.565,4.084,5.277,4.084
		c-0.223,0-0.455,0.065-0.678,0.186c-0.223,0.12-0.417,0.287-0.576,0.5C3.707,5.188,3.521,5.949,3.465,7.034L3.465,7.034z
		 M5.212,10.773c0.437,0,0.799-0.167,1.087-0.501c0.279-0.325,0.428-0.76,0.428-1.299c0-0.361-0.065-0.677-0.205-0.937
		c-0.13-0.268-0.315-0.464-0.548-0.603C5.742,7.294,5.481,7.23,5.203,7.23c-0.27,0-0.521,0.064-0.771,0.194
		C4.19,7.553,3.995,7.749,3.847,8C3.698,8.249,3.623,8.538,3.623,8.879c0,0.54,0.149,0.994,0.456,1.345
		C4.376,10.587,4.756,10.773,5.212,10.773L5.212,10.773z M10.712,10.393h3.047c0.306,0,0.529,0.056,0.697,0.186
		c0.158,0.129,0.232,0.306,0.232,0.518c0,0.195-0.056,0.364-0.185,0.501c-0.13,0.141-0.316,0.203-0.577,0.203H9.635
		c-0.288,0-0.521-0.082-0.679-0.249c-0.167-0.168-0.25-0.361-0.25-0.584c0-0.139,0.056-0.333,0.158-0.575
		c0.111-0.231,0.223-0.427,0.344-0.558c0.521-0.556,0.985-1.028,1.403-1.418c0.417-0.399,0.715-0.659,0.892-0.779
		c0.315-0.232,0.585-0.474,0.79-0.706c0.213-0.231,0.38-0.472,0.492-0.715c0.111-0.25,0.157-0.49,0.157-0.723
		c0-0.26-0.055-0.492-0.176-0.695c-0.111-0.206-0.279-0.354-0.483-0.474c-0.204-0.111-0.427-0.167-0.669-0.167
		c-0.501,0-0.901,0.231-1.199,0.695c-0.036,0.055-0.102,0.223-0.195,0.491c-0.093,0.271-0.195,0.474-0.306,0.622
		c-0.112,0.14-0.288,0.215-0.502,0.215c-0.195,0-0.362-0.066-0.483-0.197c-0.13-0.138-0.195-0.314-0.195-0.547
		c0-0.269,0.056-0.565,0.176-0.861C9.03,4.278,9.216,4,9.449,3.76c0.242-0.241,0.548-0.446,0.91-0.594
		c0.372-0.149,0.799-0.222,1.292-0.222c0.595,0,1.106,0.093,1.524,0.288c0.27,0.129,0.511,0.306,0.716,0.529
		c0.204,0.222,0.371,0.482,0.483,0.779c0.111,0.298,0.177,0.604,0.177,0.919c0,0.491-0.122,0.945-0.362,1.354
		c-0.242,0.398-0.483,0.724-0.734,0.957c-0.241,0.221-0.66,0.593-1.245,1.084C11.623,9.345,11.224,9.725,11,9.994
		C10.907,10.105,10.815,10.235,10.712,10.393L10.712,10.393z"/>
	<path d="M23.214,10.688v-0.275c-0.228,0.31-0.466,0.585-0.718,0.789c-0.251,0.215-0.527,0.383-0.825,0.479
		c-0.287,0.107-0.634,0.154-1.017,0.154c-0.455,0-0.873-0.097-1.231-0.31c-0.372-0.203-0.647-0.491-0.85-0.862
		c-0.24-0.442-0.36-1.074-0.36-1.898v-4.12c0-0.419,0.085-0.73,0.263-0.932c0.168-0.203,0.395-0.311,0.682-0.311
		c0.288,0,0.515,0.107,0.693,0.311c0.18,0.202,0.264,0.513,0.264,0.932v3.332c0,0.478,0.035,0.884,0.12,1.205
		c0.071,0.335,0.203,0.585,0.395,0.776c0.191,0.18,0.455,0.276,0.789,0.276c0.323,0,0.622-0.109,0.909-0.312
		c0.275-0.214,0.49-0.488,0.623-0.823c0.106-0.287,0.155-0.932,0.155-1.934V4.646c0-0.419,0.083-0.73,0.263-0.932
		c0.179-0.203,0.406-0.311,0.694-0.311c0.287,0,0.514,0.107,0.682,0.311c0.18,0.202,0.263,0.513,0.263,0.932v6.018
		c0,0.394-0.083,0.692-0.251,0.895c-0.167,0.192-0.383,0.298-0.634,0.298c-0.263,0-0.478-0.105-0.646-0.309
		C23.298,11.345,23.214,11.047,23.214,10.688L23.214,10.688z M31.718,10.688c-0.455,0.395-0.908,0.68-1.327,0.871
		c-0.443,0.205-0.921,0.298-1.459,0.298c-0.478,0-0.909-0.105-1.28-0.32c-0.371-0.214-0.657-0.49-0.861-0.849
		c-0.204-0.37-0.299-0.751-0.299-1.181c0-0.563,0.168-1.052,0.503-1.446c0.323-0.405,0.777-0.67,1.362-0.813
		c0.121-0.035,0.42-0.094,0.898-0.203c0.479-0.108,0.885-0.204,1.233-0.299c0.334-0.084,0.705-0.191,1.111-0.321
		c-0.023-0.549-0.131-0.943-0.31-1.208c-0.18-0.25-0.551-0.38-1.113-0.38c-0.478,0-0.848,0.07-1.088,0.225
		c-0.25,0.144-0.454,0.36-0.633,0.657c-0.168,0.301-0.287,0.492-0.36,0.585C28.01,6.4,27.855,6.449,27.628,6.449
		c-0.216,0-0.407-0.082-0.562-0.226c-0.156-0.157-0.227-0.346-0.227-0.575c0-0.368,0.119-0.728,0.347-1.074
		c0.238-0.346,0.61-0.632,1.112-0.848C28.8,3.5,29.434,3.393,30.175,3.393c0.838,0,1.496,0.107,1.974,0.322
		c0.49,0.215,0.825,0.548,1.017,1.027c0.203,0.465,0.298,1.087,0.298,1.85c0,0.491,0,0.908,0,1.243c0,0.346-0.012,0.715-0.012,1.134
		c0,0.395,0.06,0.8,0.179,1.231c0.12,0.417,0.18,0.692,0.18,0.811c0,0.213-0.096,0.406-0.275,0.586
		c-0.191,0.168-0.395,0.261-0.634,0.261c-0.191,0-0.382-0.105-0.574-0.298C32.137,11.356,31.933,11.07,31.718,10.688L31.718,10.688z
		 M31.598,7.679c-0.287,0.107-0.681,0.228-1.219,0.347c-0.526,0.131-0.898,0.228-1.101,0.275c-0.215,0.06-0.406,0.178-0.586,0.347
		c-0.191,0.167-0.287,0.406-0.287,0.716s0.108,0.585,0.335,0.801c0.215,0.227,0.502,0.335,0.849,0.335
		c0.383,0,0.729-0.097,1.041-0.276c0.323-0.178,0.563-0.406,0.706-0.693c0.18-0.31,0.263-0.834,0.263-1.552V7.679z"/>
</g>
<rect opacity="0" fill-rule="evenodd" clip-rule="evenodd" fill="#141515" width="33.812" height="20"/>
</svg>
