<?xml version="1.0" encoding="UTF-8" standalone="no"?>
<svg width="200px" height="18px" viewBox="0 0 200 18" version="1.1" xmlns="http://www.w3.org/2000/svg" xmlns:xlink="http://www.w3.org/1999/xlink" xmlns:sketch="http://www.bohemiancoding.com/sketch/ns">
    <!-- Generator: Sketch 3.3 (11970) - http://www.bohemiancoding.com/sketch -->
    <title>7days.ru</title>
    <desc>Created with Sketch.</desc>
    <defs></defs>
    <g id="Page-1" stroke="none" stroke-width="1" fill="none" fill-rule="evenodd" sketch:type="MSPage">
        <g id="7days.ru" sketch:type="MSArtboardGroup" fill="#000000">
            <g id="Imported-Layers" sketch:type="MSLayerGroup">
                <path d="M10.0025753,12.2248767 L10.0025753,6.83408219 C10.0025753,4.93865753 12.5467397,4.93865753 12.5467397,6.83408219 L12.5467397,13.6618356 C11.5424384,13.6618356 10.0025753,13.8553973 10.0025753,12.2248767 L10.0025753,12.2248767 Z M7.82416438,6.65071233 L7.82416438,12.2248767 C7.82416438,13.8145479 9.30739726,15.2821644 10.9141644,15.2821644 L12.5467397,15.2821644 L12.5467397,17.9775616 L14.7303288,17.9775616 L14.7303288,6.47235616 C14.7303288,5.37172603 13.4428767,3.59860274 11.6403288,3.59860274 C9.534,3.59860274 7.82416438,4.50049315 7.82416438,6.65071233 L7.82416438,6.65071233 Z" id="Fill-1" sketch:type="MSShapeGroup"></path>
                <path d="M32.7140548,15.2821644 L34.8924658,15.2821644 C34.8924658,13.050411 34.722411,13.3509041 36.2005479,11.1803014 C36.519863,10.7167397 36.6589315,10.4722192 36.9679726,9.96263014 L37.8022192,8.8110411 L37.8022192,15.2821644 L39.9807123,15.2821644 L39.9807123,3.7769589 L37.8022192,3.7769589 C37.8022192,5.52468493 37.9773699,5.44315068 37.2615616,6.47745205 L35.6958082,8.88238356 C35.5311781,9.1219726 35.4899178,9.19323288 35.3353973,9.42756164 C35.2170411,9.61109589 35.2376712,9.59063014 35.1243288,9.75879452 C34.8666575,10.1358904 35.0727945,9.86071233 34.8924658,10.069726 L34.8924658,3.7769589 L32.7140548,3.7769589 L32.7140548,15.2821644" id="Fill-2" sketch:type="MSShapeGroup"></path>
                <path d="M0.0117534247,2.88016438 L4.55391781,2.88016438 L2.046,12.082274 C1.8089589,12.9383014 1.35065753,14.461726 1.28375342,15.2821644 L3.64750685,15.2821644 C3.78147945,13.6413699 6.70668493,2.35027397 6.73241096,1.08164384 L0.0117534247,1.08164384 L0.0117534247,2.88016438" id="Fill-3" sketch:type="MSShapeGroup"></path>
                <path d="M46.1605479,7.19079452 L46.1605479,15.2821644 L48.3390411,15.2821644 L48.3390411,7.01243836 C48.3390411,5.79978082 49.2660822,5.39219178 50.5175342,5.39219178 L50.5175342,3.7769589 C48.2875068,3.7769589 46.1605479,4.23041096 46.1605479,7.19079452" id="Fill-4" sketch:type="MSShapeGroup"></path>
                <path d="M36.3343562,2.89545205 C37.1429589,2.90063014 37.9516438,2.59487671 38.4923014,1.94268493 C38.991863,1.32616438 39.0587671,0.724931507 38.8939726,0.00139726027 L37.2563014,0.00139726027 C37.4056438,0.836958904 37.0606849,1.39750685 36.5043288,1.45356164 C36.4530411,1.45865753 36.4015068,1.45865753 36.3549863,1.45865753 L36.3343562,1.45865753 C36.2881644,1.45865753 36.2416438,1.45865753 36.1903562,1.45356164 C35.634,1.39750685 35.283863,0.836958904 35.4383836,0.00139726027 L33.8007123,0.00139726027 C33.6306575,0.724931507 33.697726,1.32616438 34.2023836,1.94268493 C34.7329315,2.58978082 35.5361918,2.89545205 36.3343562,2.89545205" id="Fill-5" sketch:type="MSShapeGroup"></path>
                <path d="M55.7807671,3.7769589 L57.2535616,3.7769589 L57.9696164,3.7769589 L57.9696164,12.7651233 C57.9696164,16.2553151 51.0633699,16.7647397 51.0633699,12.2248767 L51.0633699,3.7769589 L53.241863,3.7769589 L53.241863,11.8631507 C53.241863,12.9383014 53.6126301,13.6618356 54.6992877,13.6618356 C56.280411,13.6618356 55.7861096,10.5790685 55.7861096,8.98947945 C55.7861096,7.21117808 55.7807671,5.58073973 55.7807671,3.7769589" id="Fill-6" sketch:type="MSShapeGroup"></path>
                <path d="M20.9051507,3.76676712 L20.9051507,8.2710411 L18.3610685,8.2710411 L18.3610685,3.7769589 L16.1825753,3.7769589 L16.1825753,15.2821644 L18.3610685,15.2821644 L18.3610685,10.069726 L20.9051507,10.069726 L20.9051507,15.2566849 L23.0836438,15.2566849 L23.0836438,3.76676712 L20.9051507,3.76676712" id="Fill-7" sketch:type="MSShapeGroup"></path>
                <path d="M31.2823562,11.3333425 L30.8319452,11.3333425 C30.8109041,11.3309589 30.7901918,11.3282466 30.7673425,11.3282466 C30.4894521,11.3282466 30.2587397,11.3293151 30.0659178,11.3333425 L29.1040274,11.3333425 L29.1040274,11.6889863 C29.0848767,11.8894521 29.1263014,12.2007123 29.0009589,12.6835068 C28.5683014,14.3546301 26.7193973,13.6006849 26.7193973,12.5867671 L26.7193973,10.9664384 C30.3913973,10.9664384 31.4420548,10.1307945 31.4420548,6.65071233 C31.4420548,2.58978082 24.5410685,2.58978082 24.5410685,6.65071233 L24.5410685,12.4032329 C24.5410685,13.9115342 25.8646027,15.4605205 27.2653151,15.4605205 L28.5373973,15.4605205 C29.5107123,15.4605205 30.2935068,14.7369863 30.7725205,13.9011781 C30.8693425,13.7296438 31.0721096,13.1489589 31.1710685,12.6874521 C31.2841644,12.2495342 31.3044658,11.8269041 31.2823562,11.3333425 L31.2823562,11.3333425 Z M27.9915616,5.39219178 C29.8144932,5.39219178 29.5776986,9.16775342 28.171726,9.16775342 L26.7193973,9.16775342 C26.7193973,7.76654795 26.3589863,5.39219178 27.9915616,5.39219178 L27.9915616,5.39219178 Z" id="Fill-8" sketch:type="MSShapeGroup"></path>
                <path d="M43.1634247,12.8108219 C43.9255068,12.8108219 44.5487671,13.422411 44.5487671,14.1814521 C44.5487671,14.9407397 43.9255068,15.5521644 43.1634247,15.5521644 C42.3959178,15.5521644 41.7728219,14.9407397 41.7728219,14.1814521 C41.7728219,13.422411 42.3959178,12.8108219 43.1634247,12.8108219" id="Fill-9" sketch:type="MSShapeGroup"></path>
            </g>
        </g>
    </g>
</svg>