<?xml version="1.0" encoding="utf-8"?>
<!-- Generator: Adobe Illustrator 16.0.0, SVG Export Plug-In . SVG Version: 6.00 Build 0)  -->
<!DOCTYPE svg PUBLIC "-//W3C//DTD SVG 1.1//EN" "http://www.w3.org/Graphics/SVG/1.1/DTD/svg11.dtd">
<svg version="1.1" id="Слой_1" xmlns="http://www.w3.org/2000/svg" xmlns:xlink="http://www.w3.org/1999/xlink" x="0px" y="0px"
	 width="59.455px" height="20px" viewBox="0 0 59.455 20" enable-background="new 0 0 59.455 20" xml:space="preserve">
<path d="M16.5,2.964c-2.164,0-4.104,0.945-5.424,2.437c0.375,0.802,0.584,1.694,0.584,2.635c0,1.767-0.739,3.364-1.928,4.505
	c1.01,2.73,3.659,4.678,6.768,4.678c3.979,0,7.205-3.191,7.205-7.127C23.705,6.155,20.479,2.964,16.5,2.964z M16.501,14.389
	c-2.399,0-4.343-1.924-4.343-4.298c0-2.373,1.945-4.296,4.343-4.296s4.343,1.923,4.343,4.296
	C20.844,12.465,18.9,14.389,16.501,14.389z"/>
<path d="M5.313,2.78C2.379,2.78,0,5.133,0,8.037c0,2.826,2.255,5.132,5.082,5.252l-1.983,3.834h3.408l3.32-6.313
	c0.144-0.229,0.271-0.469,0.378-0.719v-0.001c0.271-0.631,0.421-1.325,0.421-2.054C10.626,5.134,8.248,2.78,5.313,2.78z
	 M5.313,10.57C3.925,10.57,2.8,9.458,2.8,8.085c0-1.374,1.125-2.487,2.513-2.487S7.826,6.71,7.826,8.084
	C7.826,9.458,6.701,10.57,5.313,10.57z"/>
<path d="M35.862,5.846l4.492,0.023l-2.117,11.252h-3.26l1.369-7.535l-5.102,7.535h-2.439L26.392,9.34l-1.444,7.756H20.76
	c2.398-1.431,4.002-4.031,4.002-7.005c0-1.565-0.446-3.028-1.217-4.272h4.863l2.376,7.042L35.862,5.846z"/>
<polygon points="40.819,8.289 41.354,5.827 44.703,5.827 44.118,8.289 "/>
<polygon points="39.097,17.159 40.651,9.181 43.976,9.181 42.481,17.159 "/>
<polygon points="56.12,5.833 59.455,5.838 57.339,17.134 53.457,17.134 48.28,9.526 46.737,17.134 43.328,17.134 45.418,5.857 
	49.476,5.857 54.626,13.366 "/>
<rect fill-opacity="0" width="59.456" height="20"/>
</svg>
