<?xml version="1.0" encoding="utf-8"?>
<!-- Generator: Adobe Illustrator 16.0.0, SVG Export Plug-In . SVG Version: 6.00 Build 0)  -->
<!DOCTYPE svg PUBLIC "-//W3C//DTD SVG 1.1//EN" "http://www.w3.org/Graphics/SVG/1.1/DTD/svg11.dtd">
<svg version="1.1" id="Слой_1" xmlns="http://www.w3.org/2000/svg" xmlns:xlink="http://www.w3.org/1999/xlink" x="0px" y="0px"
	 width="73.333px" height="20px" viewBox="0 0 73.333 20" enable-background="new 0 0 73.333 20" xml:space="preserve">
<g>
	<path fill-rule="evenodd" clip-rule="evenodd" d="M15.196,0h9.277c0.718,0,1.313,0.6,1.313,1.34v4.759v0.037v4.759
		c0,0.74-0.595,1.34-1.313,1.34h-3.81h-1.722h-3.831c-0.718,0-1.299-0.601-1.299-1.326v-0.19c0-0.731,0.582-1.325,1.299-1.325h1.305
		v0.008h6.594V7.468h-5.375h-1.219h-1.22c-0.725,0-1.313-0.601-1.313-1.333V1.34C13.883,0.6,14.471,0,15.196,0L15.196,0z
		 M16.416,2.855h6.594v1.933h-6.594V2.855z"/>
	<path fill-rule="evenodd" clip-rule="evenodd" d="M1.65,0.021c0.911,0,1.643,0.754,1.643,1.685c0,0.93-0.732,1.676-1.643,1.676
		S0,2.636,0,1.706C0,0.775,0.739,0.021,1.65,0.021L1.65,0.021z"/>
	<path fill-rule="evenodd" clip-rule="evenodd" d="M6.242,0.021c0.912,0,1.65,0.754,1.65,1.685c0,0.93-0.739,1.676-1.65,1.676
		c-0.911,0-1.651-0.746-1.651-1.676C4.591,0.775,5.332,0.021,6.242,0.021L6.242,0.021z"/>
	<path fill-rule="evenodd" clip-rule="evenodd" d="M10.862,0.021c0.912,0,1.651,0.754,1.651,1.685c0,0.93-0.739,1.676-1.651,1.676
		c-0.903,0-1.642-0.746-1.642-1.676C9.22,0.775,9.959,0.021,10.862,0.021L10.862,0.021z"/>
	<path fill-rule="evenodd" clip-rule="evenodd" d="M1.65,4.444c0.911,0,1.643,0.754,1.643,1.677c0,0.929-0.732,1.684-1.643,1.684
		S0,7.05,0,6.121C0,5.198,0.739,4.444,1.65,4.444L1.65,4.444z"/>
	<path fill-rule="evenodd" clip-rule="evenodd" d="M6.242,4.444c0.912,0,1.65,0.754,1.65,1.677c0,0.929-0.739,1.684-1.65,1.684
		c-0.911,0-1.651-0.754-1.651-1.684C4.591,5.198,5.332,4.444,6.242,4.444L6.242,4.444z"/>
	<path fill-rule="evenodd" clip-rule="evenodd" d="M10.862,4.444c0.912,0,1.651,0.754,1.651,1.677c0,0.929-0.739,1.684-1.651,1.684
		c-0.903,0-1.642-0.754-1.642-1.684C9.22,5.198,9.959,4.444,10.862,4.444L10.862,4.444z"/>
	<path fill-rule="evenodd" clip-rule="evenodd" d="M1.65,8.829c0.911,0,1.643,0.754,1.643,1.685c0,0.93-0.732,1.684-1.643,1.684
		S0,11.443,0,10.514C0,9.583,0.739,8.829,1.65,8.829L1.65,8.829z"/>
	<path fill-rule="evenodd" clip-rule="evenodd" d="M6.242,8.829c0.912,0,1.65,0.754,1.65,1.685c0,0.93-0.739,1.684-1.65,1.684
		c-0.911,0-1.651-0.754-1.651-1.684C4.591,9.583,5.332,8.829,6.242,8.829L6.242,8.829z"/>
	<path fill-rule="evenodd" clip-rule="evenodd" d="M10.862,8.829c0.912,0,1.651,0.754,1.651,1.685c0,0.93-0.739,1.684-1.651,1.684
		c-0.903,0-1.642-0.754-1.642-1.684C9.22,9.583,9.959,8.829,10.862,8.829L10.862,8.829z"/>
	<path d="M27.221,0.468h3.056l3.975,6.333V0.468h3.1v11.474h-3.1l-3.945-6.298v6.298h-3.085V0.468z M39.231,0.468h8.445v2.453
		h-5.274v1.823h4.886v2.343h-4.886v2.255h5.432v2.601h-8.603V0.468z M48.437,0.468h3.185l1.141,6.399l1.679-6.399h3.157l1.693,6.414
		l1.148-6.414h3.171l-2.389,11.474h-3.294l-1.901-7.228l-1.894,7.228h-3.286L48.437,0.468z M63.819,8.141l3-0.205
		c0.064,0.541,0.193,0.959,0.395,1.244c0.323,0.46,0.79,0.688,1.392,0.688c0.452,0,0.797-0.117,1.04-0.352
		c0.245-0.242,0.366-0.513,0.366-0.828c0-0.293-0.114-0.563-0.344-0.797c-0.23-0.234-0.769-0.455-1.615-0.667
		c-1.384-0.344-2.36-0.813-2.956-1.391c-0.588-0.579-0.89-1.311-0.89-2.204c0-0.593,0.151-1.143,0.459-1.668
		c0.301-0.528,0.761-0.938,1.37-1.238c0.61-0.301,1.442-0.447,2.511-0.447c1.298,0,2.296,0.271,2.978,0.82
		c0.688,0.542,1.09,1.413,1.226,2.599l-2.97,0.198c-0.079-0.52-0.244-0.894-0.495-1.136c-0.258-0.233-0.603-0.351-1.048-0.351
		c-0.366,0-0.646,0.088-0.832,0.264c-0.187,0.168-0.28,0.388-0.28,0.637c0,0.184,0.079,0.344,0.23,0.49
		c0.144,0.146,0.496,0.286,1.055,0.425c1.377,0.33,2.36,0.666,2.956,1.011c0.596,0.343,1.033,0.761,1.306,1.274
		c0.265,0.505,0.402,1.068,0.402,1.691c0,0.739-0.18,1.421-0.539,2.034c-0.366,0.624-0.868,1.092-1.521,1.414
		c-0.646,0.323-1.463,0.483-2.454,0.483c-1.737,0-2.942-0.381-3.609-1.128C64.286,10.257,63.905,9.299,63.819,8.141L63.819,8.141z"
		/>
	<path d="M46.307,15.375l-0.999,0.646c-0.186-0.229-0.373-0.388-0.559-0.478c-0.18-0.088-0.395-0.132-0.639-0.132
		c-0.451,0-0.811,0.155-1.09,0.469c-0.272,0.307-0.416,0.71-0.416,1.201c0,0.476,0.137,0.863,0.402,1.165
		c0.266,0.3,0.617,0.453,1.048,0.453c0.538,0,0.954-0.219,1.255-0.643l0.94,0.752c-0.509,0.784-1.234,1.18-2.167,1.18
		c-0.847,0-1.5-0.294-1.98-0.88c-0.474-0.578-0.71-1.266-0.71-2.041c0-0.55,0.115-1.047,0.345-1.501
		c0.236-0.455,0.559-0.813,0.968-1.078c0.417-0.256,0.883-0.388,1.393-0.388c0.473,0,0.903,0.111,1.284,0.329
		C45.753,14.65,46.062,14.973,46.307,15.375L46.307,15.375z M49.104,14.101c0.474,0,0.919,0.132,1.335,0.396
		c0.417,0.263,0.739,0.622,0.976,1.076c0.229,0.453,0.351,0.938,0.351,1.465c0,0.526-0.122,1.024-0.351,1.479
		c-0.237,0.461-0.56,0.819-0.962,1.083c-0.409,0.257-0.854,0.389-1.342,0.389c-0.724,0-1.334-0.286-1.843-0.857
		c-0.51-0.571-0.761-1.267-0.761-2.086c0-0.871,0.288-1.604,0.861-2.183C47.87,14.35,48.451,14.101,49.104,14.101L49.104,14.101z
		 M49.125,15.418c-0.395,0-0.718,0.155-0.975,0.456c-0.266,0.307-0.395,0.694-0.395,1.164c0,0.49,0.129,0.886,0.387,1.186
		c0.259,0.3,0.582,0.454,0.976,0.454c0.395,0,0.717-0.154,0.983-0.462c0.259-0.301,0.388-0.695,0.388-1.178
		c0-0.477-0.129-0.864-0.38-1.173C49.85,15.573,49.52,15.418,49.125,15.418L49.125,15.418z M52.426,14.232h1.227v0.659
		c0.215-0.263,0.453-0.462,0.71-0.593c0.258-0.133,0.539-0.198,0.847-0.198c0.308,0,0.588,0.09,0.832,0.256
		c0.251,0.177,0.452,0.426,0.602,0.755c0.194-0.329,0.438-0.578,0.718-0.755c0.287-0.175,0.603-0.256,0.94-0.256
		c0.351,0,0.659,0.09,0.925,0.279c0.265,0.184,0.459,0.424,0.574,0.725s0.172,0.783,0.172,1.457v3.289h-1.227v-2.836
		c0-0.637-0.072-1.068-0.215-1.288C58.395,15.5,58.18,15.39,57.9,15.39c-0.215,0-0.401,0.065-0.573,0.205
		c-0.165,0.14-0.294,0.322-0.381,0.564c-0.079,0.241-0.122,0.629-0.122,1.164v2.527h-1.234v-2.712c0-0.496-0.028-0.862-0.093-1.083
		c-0.064-0.228-0.164-0.396-0.294-0.505c-0.129-0.109-0.293-0.161-0.48-0.161c-0.201,0-0.394,0.065-0.559,0.205
		c-0.173,0.14-0.294,0.337-0.381,0.586c-0.086,0.249-0.129,0.644-0.129,1.179v2.491h-1.227V14.232z"/>
	<path d="M66.409,14.152h1.271v5.471h-1.271v-0.578c-0.25,0.256-0.502,0.431-0.752,0.548c-0.245,0.109-0.518,0.168-0.812,0.168
		c-0.652,0-1.219-0.278-1.7-0.82c-0.481-0.549-0.718-1.229-0.718-2.042c0-0.843,0.23-1.53,0.696-2.072
		c0.46-0.536,1.027-0.805,1.687-0.805c0.301,0,0.588,0.058,0.854,0.182c0.273,0.125,0.517,0.309,0.746,0.55V14.152z M65.067,15.272
		c-0.395,0-0.717,0.154-0.982,0.454c-0.258,0.3-0.388,0.682-0.388,1.15c0,0.476,0.129,0.863,0.395,1.17
		c0.265,0.301,0.595,0.454,0.982,0.454c0.402,0,0.731-0.153,0.99-0.444c0.265-0.302,0.402-0.697,0.402-1.18
		c0-0.477-0.137-0.865-0.402-1.157C65.806,15.427,65.47,15.272,65.067,15.272L65.067,15.272z M72.056,19.623v-0.821
		c-0.193,0.294-0.445,0.526-0.753,0.697c-0.316,0.175-0.639,0.262-0.983,0.262c-0.352,0-0.667-0.081-0.947-0.25
		c-0.28-0.16-0.488-0.387-0.61-0.679c-0.122-0.294-0.187-0.697-0.187-1.217v-3.478h1.377v2.525c0,0.77,0.029,1.246,0.08,1.422
		c0.05,0.168,0.144,0.307,0.28,0.409c0.136,0.104,0.309,0.153,0.516,0.153c0.237,0,0.445-0.066,0.632-0.204
		c0.194-0.131,0.315-0.301,0.387-0.505s0.108-0.696,0.108-1.486v-2.314h1.377v5.485H72.056z"/>
	<path fill-rule="evenodd" clip-rule="evenodd" d="M40.365,18.057c0.474,0,0.854,0.387,0.854,0.863c0,0.482-0.38,0.871-0.854,0.871
		c-0.466,0-0.846-0.389-0.846-0.871C39.519,18.443,39.898,18.057,40.365,18.057L40.365,18.057z"/>
	<path fill-rule="evenodd" clip-rule="evenodd" d="M61.431,18.057c0.466,0,0.846,0.387,0.846,0.863c0,0.482-0.38,0.871-0.846,0.871
		c-0.467,0-0.847-0.389-0.847-0.871C60.583,18.443,60.964,18.057,61.431,18.057L61.431,18.057z"/>
</g>
<rect opacity="0" fill-rule="evenodd" clip-rule="evenodd" fill="#141515" width="73.333" height="20"/>
</svg>
