<?xml version="1.0" encoding="utf-8"?>
<!-- Generator: Adobe Illustrator 16.0.0, SVG Export Plug-In . SVG Version: 6.00 Build 0)  -->
<!DOCTYPE svg PUBLIC "-//W3C//DTD SVG 1.1//EN" "http://www.w3.org/Graphics/SVG/1.1/DTD/svg11.dtd">
<svg version="1.1" id="Слой_1" xmlns="http://www.w3.org/2000/svg" xmlns:xlink="http://www.w3.org/1999/xlink" x="0px" y="0px"
	 width="27.927px" height="20px" viewBox="0 0 27.927 20" enable-background="new 0 0 27.927 20" xml:space="preserve">
<g>
	<path d="M17.265,16.738c-0.135-1.025,0.666-1.836,1.519-1.944c1.037-0.134,1.861,0.628,1.968,1.504
		C21.041,18.646,17.548,18.93,17.265,16.738L17.265,16.738z M2.161,10.771c-0.446-0.636-0.419-0.89-0.613-1.706L0.013,9.07
		c-0.093,0.722,0.352,1.786,0.658,2.298c2.236,3.745,7.787,3.082,9.202-0.75c0.313-0.842,0.414-1.71,0.263-2.66
		C9.938,6.703,9.375,6.15,9.308,5.861l1.73,0.022l0.012,3.846l1.488,0.001l0.026-6.662l0.803-0.003
		c0.075,0.239,0.088,7.205,0.004,7.565l-2.326,0.013c0,0.439-0.085,1.084,0.05,1.455l2.297,0.024l-0.006,1.409
		c-0.99,0.104-2.147-0.165-3.191,0.037c-0.865,0.168-1.503,0.656-1.719,1.425c-0.291,1.038,0.007,1.817,0.326,2.669
		c0.272,0.732,0.529,1.559,0.84,2.309l1.567-0.019c-0.12-0.489-0.463-1.281-0.651-1.784c-0.197-0.527-0.544-1.314-0.647-1.859
		c-0.357-1.924,1.709-1.404,3.43-1.375c0.156,0.705,0.02,4.092-0.009,5.033l1.486-0.005l0.008-7.843l6.027,0.016v1.773
		c-0.369-0.086-0.706-0.48-1.691-0.52c-3.409-0.138-4.563,4.313-1.698,5.901c0.501,0.276,1.076,0.427,1.756,0.39
		c0.337-0.021,0.6-0.08,0.896-0.186c0.168-0.063,0.223-0.082,0.39-0.176c0.196-0.114,0.148-0.121,0.352-0.153l0.012,0.821
		l1.449-0.004c0.101-1.014-0.142-2.973,0.071-3.807c0.258-1.02,1.264-1.521,2.578-1.3c1.68,0.284,2.143,2.513,0.625,3.401
		c-0.605,0.354-0.958,0.211-1.688,0.271l0.023,1.418c1.462,0.01,2.429-0.244,3.129-1.055c0.663-0.77,1.121-1.83,0.72-3.191
		c-0.291-0.998-1.096-1.777-2.031-2.117c-1.306-0.472-2.406-0.117-3.411,0.344l0.022-1.818l4.335-0.016l-0.012-1.444l-11.863-0.032
		l0.009-7.568l5.832-0.002l-0.004,1.364l-2.09,0.011c-0.249,1.755,0.512,3.976-0.733,3.986c-0.869,0.006-0.689-0.946-0.689-1.646
		c0-0.777,0.013-1.563-0.002-2.348l-1.48-0.002c-0.006,0.978-0.09,2.559,0.017,3.474c0.232,2.032,2.802,2.728,3.947,1.027
		c0.642-0.95,0.248-1.898,0.387-3.075l0.646,0.012l0.017,3.857l1.487-0.036l0.008-6.624l0.885-0.015l-0.008-1.368L10.304,1.63
		l0.024,1.439l0.707,0.002L11.03,4.434L9.28,4.423C9.511,3.544,9.825,2.7,9.225,1.592C8.866,0.93,8.243,0.315,7.322,0.09
		c-2-0.48-3.804,1.025-3.77,2.873l1.435-0.012C5.133,2.642,5.065,2.427,5.31,2.098c0.605-0.813,1.775-0.792,2.341-0.204
		c0.391,0.401,0.641,1,0.336,1.726C7.63,4.477,7.085,4.414,6.509,4.432V5.85c1.315,0.128,1.995,1.399,2.092,2.624
		C8.72,9.979,8.04,11.135,7.17,11.697c-1.079,0.699-2.533,0.768-3.757,0.154C2.897,11.596,2.46,11.197,2.161,10.771L2.161,10.771z"
		/>
</g>
</svg>
