<?xml version="1.0" encoding="utf-8"?>
<!-- Generator: Adobe Illustrator 16.0.0, SVG Export Plug-In . SVG Version: 6.00 Build 0)  -->
<!DOCTYPE svg PUBLIC "-//W3C//DTD SVG 1.1//EN" "http://www.w3.org/Graphics/SVG/1.1/DTD/svg11.dtd">
<svg version="1.1" id="Слой_1" xmlns="http://www.w3.org/2000/svg" xmlns:xlink="http://www.w3.org/1999/xlink" x="0px" y="0px"
	 width="72.661px" height="20px" viewBox="0 0 72.661 20" enable-background="new 0 0 72.661 20" xml:space="preserve">
<g>
	<path fill-rule="evenodd" clip-rule="evenodd" d="M15.591,4.803c-0.834-2.324-2.263-3.752-4.962-3.416
		C8.63,1.639,6.996,3.553,7.211,4.116l1.804,4.519l1.04-2.814c0.445-1.157,1.734-0.958,2.179,0.129l2.114,5.597
		c0.4,1.182,1.609,4.628,2.344,5.369c1.589,1.603,4.253,1.005,5.172-0.696c0.59-1.094,0.43-2.082,0.435-3.437
		c0-1.281,0-2.561,0-3.841c0-1.162,0.115-4.687-0.18-5.637c-0.18-0.568-0.39-0.791-0.74-1.161c-1.064-1.117-3.833-1.286-5.147,1.039
		c-0.595,1.047-0.24,1.207,0.35,2.867c0.32,0.9,0.754,1.948,1.015,2.842c0.175-0.172,0.904-2.442,1.015-2.744
		c0.1-0.287,0.185-0.682,0.365-0.899l-0.02,8.81L15.591,4.803z"/>
	<path fill-rule="evenodd" clip-rule="evenodd" d="M3.333,5.179c0.15,0.173,0.535,1.35,0.61,1.562
		c0.909,2.552,1.889,5.103,2.778,7.674c0.425,1.221,0.875,1.952,1.639,2.556c1.874,1.479,4.847,0.92,6.072-0.578
		c0.174-0.213,0.289-0.355,0.454-0.607c0.15-0.234,0.33-0.396,0.22-0.693l-1.744-4.519l-1.074,2.808
		c-0.46,1.162-1.725,0.96-2.164-0.107c-0.75-1.835-1.395-3.729-2.129-5.583C7.625,6.747,6.711,4.2,6.346,3.468
		c-0.11-0.222-0.2-0.415-0.32-0.627c-1.024-1.83-4.217-2.186-5.582,0.158C-0.14,3.998,0.02,5.244,0.02,6.489l-0.005,7.688
		c0,1.295,0.22,2.323,0.949,2.921c1.645,1.341,4.073,0.871,5.152-1.132c0.354-0.657,0.37-0.731,0.12-1.408
		c-0.45-1.241-1.189-3.141-1.529-4.237l-0.125,0.227c-0.24,0.629-1.025,3.012-1.194,3.343c-0.005,0.011-0.02,0.049-0.025,0.039
		c-0.005-0.004-0.016,0.03-0.035,0.04L3.333,5.179z"/>
	<g>
		<path d="M31.886,1.268l-7.018,17.483l1.779-0.019l2.192-5.371h5.914l1.879,4.537l0.036,0.092c0.231,0.602,0.414,0.776,1.178,0.776
			c0.148,0,0.329-0.005,0.552-0.011c0.3-0.008,0.679-0.018,1.16-0.021l0.548-0.003L33.205,1.25L31.886,1.268z M34.159,11.745
			l-4.688-0.008l2.394-5.872C32.472,7.286,33.695,10.435,34.159,11.745z"/>
		<path d="M71.386,12.959l-0.102,0.07c-0.241,0.168-0.416,0.577-0.73,1.405c-0.102,0.267-0.191,0.509-0.258,0.63
			c-0.718,1.307-2.409,2.255-4.021,2.256c-2.844,0-4.561-2.668-4.591-7.136c-0.017-2.299,0.37-6.291,3.155-7.194
			c1.388-0.456,2.995-0.248,4.125,0.517c1.068,0.727,1.376,1.508,2.001,3.09l0.094,0.237h1.452l-0.012-0.387
			c-0.028-0.883-0.637-2.084-1.04-2.676c-1.182-1.739-3.153-2.737-5.409-2.737c-2.061,0-4.08,0.854-5.538,2.342
			c-1.154,1.178-2.514,3.316-2.441,6.818c0.119,5.804,4.093,8.841,7.958,8.842c0,0,0,0,0.001,0c3.356,0,5.927-2.203,6.551-5.613
			l0.079-0.43L71.386,12.959z"/>
		<path d="M51.963,9.543c1.024-0.451,2.134-1.068,2.661-2.32c0.752-1.784,0.022-3.811-1.084-4.665
			c-1.36-1.055-2.905-1.271-4.857-1.271c-0.951,0-1.902,0.006-2.854,0.013c-0.95,0.006-1.899,0.013-2.848,0.013h-0.293l-0.07,0.285
			c-0.139,0.559-0.133,5.851-0.08,14.209c0.008,1.188,0.014,2.099,0.014,2.518V18.7h0.375c0.71,0,1.44,0.021,2.175,0.04
			c0.752,0.021,1.51,0.042,2.257,0.042c2.447,0,5.201-0.212,7.082-1.782c1.316-1.1,1.96-3.488,0.82-5.293
			C54.363,10.294,52.98,9.858,51.963,9.543z M45.646,15.195c0.01-0.377,0.022-0.811,0.022-1.31v-3.323
			c0.724-0.038,1.547-0.024,2.317-0.012c0.314,0.005,0.621,0.01,0.909,0.011c1.618,0.007,2.728,0.653,3.21,1.87
			c0.543,1.372,0.146,3.159-0.572,3.841c-0.551,0.52-1.303,0.773-2.452,0.822c-2.039,0.086-3.011,0.097-3.271-0.17
			C45.604,16.714,45.621,16.109,45.646,15.195z M50.803,8.175c-0.537,0.55-1.623,0.817-3.321,0.817c-0.62,0-1.242-0.033-1.813-0.066
			c-0.093-1.306-0.079-5.361,0.081-5.783c0.097-0.081,0.696-0.258,1.841-0.258c1.491,0,2.767,0.293,3.248,0.747
			c0.425,0.402,0.689,1.178,0.708,2.075C51.566,6.722,51.274,7.691,50.803,8.175z"/>
	</g>
</g>
<rect opacity="0" fill-rule="evenodd" clip-rule="evenodd" fill="#141515" width="72.661" height="20"/>
</svg>
