<?xml version="1.0" encoding="utf-8"?>
<!-- Generator: Adobe Illustrator 16.0.0, SVG Export Plug-In . SVG Version: 6.00 Build 0)  -->
<!DOCTYPE svg PUBLIC "-//W3C//DTD SVG 1.1//EN" "http://www.w3.org/Graphics/SVG/1.1/DTD/svg11.dtd">
<svg version="1.1" id="Слой_1" xmlns="http://www.w3.org/2000/svg" xmlns:xlink="http://www.w3.org/1999/xlink" x="0px" y="0px"
	 width="48.335px" height="20px" viewBox="0 0 48.335 20" enable-background="new 0 0 48.335 20" xml:space="preserve">
<g>
	<path d="M29.897,9.494c0.005-0.006,0.011-0.012,0.017-0.018c0.5-0.559,1.256-1.404,1.256-2.819c0-1.602-0.762-2.859-2.264-3.738
		c-1.477-0.864-4.237-0.975-6.477-0.975c-0.748,0-1.484,0.014-2.168,0.026c-0.59,0.011-1.142,0.021-1.628,0.021
		c-0.472,0-0.631,0.261-0.677,0.374c-0.047,0.113-0.119,0.413,0.229,0.758c0.089,0.083,0.202,0.136,0.332,0.198
		c0.365,0.174,0.819,0.39,0.819,1.189v10.967c0,0.73-0.291,0.884-0.658,1.078c-0.296,0.157-0.702,0.373-0.752,0.92l-0.022,0.244
		l0.214,0.118c0.17,0.094,0.526,0.194,2.61,0.194c0.76,0,1.55-0.014,2.135-0.023C23.201,18.004,23.47,18,23.623,18
		c2.52,0,8.419,0,8.419-4.895c0-0.939-0.307-1.906-0.777-2.458C30.962,10.274,30.515,9.79,29.897,9.494z M25.367,16.171l-2.78-0.09
		v-5.282c0.964,0.391,1.812,0.423,2.986,0.423c0.686,0,1.18-0.14,1.658-0.273c0.125-0.035,0.25-0.07,0.379-0.103
		c0.04,0.045,0.083,0.093,0.129,0.143c0.395,0.428,0.936,1.013,0.936,2.118C28.675,15.772,26.595,16.171,25.367,16.171z
		 M27.246,8.793c-0.291,0.355-0.994,0.714-1.775,0.714c-1.269,0-2.778-0.312-2.884-0.59V3.912c0.203-0.01,0.419-0.027,0.643-0.045
		c0.4-0.031,0.828-0.065,1.26-0.065c1.19,0,1.974,0.267,2.543,0.867C27.967,5.646,28.075,7.768,27.246,8.793z"/>
	<path d="M15.007,14.48c-0.083-0.229-0.164-0.453-0.251-0.668L10.297,3.071c-0.031-0.081-0.048-0.134-0.064-0.186
		c-0.026-0.082-0.051-0.159-0.115-0.313c-0.021-0.043-0.034-0.081-0.046-0.114C9.985,2.216,9.842,1.992,9.395,1.992H5.863
		L5.859,2.566C5.844,3,5.948,3.12,6.339,3.336c0.104,0.058,0.246,0.136,0.438,0.255C6.417,4.556,5.032,7.799,3.99,10.24
		c-0.771,1.807-1.438,3.368-1.627,3.854L2.181,14.55c-0.436,1.114-0.812,2.076-1.839,2.168L0,16.748V18h0.375
		c0.48,0,0.863,0.006,1.171,0.012l0.535,0.006c0,0,0,0,0,0c0.888,0,1.066-0.161,1.301-0.803l0.973-2.308
		c0.03-0.077,0.059-0.161,0.087-0.247c0.044-0.133,0.126-0.379,0.167-0.418l6.727-0.004c0.055,0.04,0.127,0.262,0.166,0.381
		c0.022,0.07,0.045,0.139,0.074,0.216l0.925,2.257c0.291,0.752,0.483,0.943,1.57,0.943c0.213,0,0.471-0.006,0.786-0.012
		C15.345,18.013,15.972,18,16.785,18h0.375v-1.273l-0.365-0.01C15.877,16.692,15.492,15.815,15.007,14.48z M6.851,9.034
		C7.256,8.04,7.653,7.068,7.968,6.351l0.089-0.197c0.206,0.459,0.522,1.229,1.007,2.497L9.2,9.004
		c0.098,0.246,0.25,0.606,0.421,1.01c0.295,0.698,0.673,1.591,0.888,2.183H5.528C5.91,11.341,6.387,10.172,6.851,9.034z"/>
	<path d="M39.143,4.417c2.149-1.25,5.038-0.579,7.22,1.567c0.165,0.163,0.29,0.3,0.395,0.414c0.355,0.388,0.57,0.621,1.195,0.634
		l0.382,0.007V6.657c0-0.465-0.137-1.2-0.247-1.79l-0.078-0.426c-0.03-0.188-0.069-0.403-0.111-0.629
		c-0.098-0.537-0.21-1.145-0.218-1.567l-0.007-0.368H46.41l-0.029,0.344c-0.045,0.536-0.195,0.536-0.327,0.536
		c-0.264,0-0.667-0.142-1.134-0.307c-0.725-0.255-1.626-0.573-2.618-0.573c-2.622,0-3.995,0.177-6.138,1.874
		c-0.158,0.128-0.261,0.208-0.334,0.265c-0.217,0.168-0.239,0.193-0.462,0.475l-0.333,0.411c-0.07,0.083-0.136,0.161-0.239,0.295
		c-0.774,1-1.555,2.702-1.555,4.253c0,2.082,0.256,4.46,2.151,6.322c0.762,0.752,1.491,1.286,2.17,1.588
		c1.168,0.5,2.506,0.764,3.87,0.764c1.537,0,3.014-0.328,4.272-0.951c0.504-0.257,1.009-0.609,1.44-0.922
		c1-0.743,1.138-0.973,0.963-1.717l-0.083-0.364l-0.364,0.081c-0.231,0.051-0.548,0.208-0.951,0.406
		c-0.418,0.207-0.893,0.441-1.35,0.596c-0.896,0.311-1.794,0.469-2.67,0.469c-3.316,0-5.72-2.186-5.981-5.439
		C36.469,7.4,37.243,5.536,39.143,4.417z"/>
</g>
<rect opacity="0" fill-rule="evenodd" clip-rule="evenodd" fill="#141515" width="48.335" height="20"/>
</svg>
