<?xml version="1.0" encoding="utf-8"?>
<!-- Generator: Adobe Illustrator 16.0.0, SVG Export Plug-In . SVG Version: 6.00 Build 0)  -->
<!DOCTYPE svg PUBLIC "-//W3C//DTD SVG 1.1//EN" "http://www.w3.org/Graphics/SVG/1.1/DTD/svg11.dtd">
<svg version="1.1" id="Слой_1" xmlns="http://www.w3.org/2000/svg" xmlns:xlink="http://www.w3.org/1999/xlink" x="0px" y="0px"
	 width="70.074px" height="20px" viewBox="0 0 70.074 20" enable-background="new 0 0 70.074 20" xml:space="preserve">
<g>
	<path fill-rule="evenodd" clip-rule="evenodd" d="M10.11,0c5.584,0,10.111,4.479,10.111,10.002c0,5.526-4.527,10.002-10.111,10.002
		C4.526,20.005,0,15.528,0,10.002C0,4.479,4.526,0,10.11,0L10.11,0z M2.575,11.239c-0.738-0.707-0.664-1.806,0.104-2.378
		c0.437-0.327,0.778-0.348,1.394-0.229c0.408,0.11,0.746,0.424,0.912,0.725C5.871,10.963,3.741,12.354,2.575,11.239L2.575,11.239z
		 M9.83,8.593c0.922-0.221,1.699,0.421,1.88,1.129c0.245,0.953-0.425,1.687-1.128,1.87c-0.947,0.245-1.722-0.407-1.906-1.115
		C8.432,9.529,9.089,8.769,9.83,8.593L9.83,8.593z M7.167,4.9C7.125,5.929,7.17,7.033,7.17,8.071c0,1.87-0.277,3.65,1.634,4.671
		c0.765,0.407,1.806,0.39,2.616,0.057c2.34-0.953,2.117-4.288,0.215-5.282c-0.768-0.401-1.735-0.47-3.032,0.229L8.581,4.896
		L7.167,4.9z M14.787,12.379c0.455,0.368,1.075,0.673,1.861,0.694c0.781,0.021,1.479-0.247,1.943-0.615
		c0.516-0.404,0.761-0.788,1.042-1.481l0.03-0.176l-1.539,0.011c-0.139,0.319-0.421,0.562-0.797,0.716
		c-1.951,0.803-3.124-2.168-1.068-2.904c0.911-0.157,1.339,0.01,1.869,0.76l1.546-0.005c-0.046-0.306-0.255-0.723-0.403-0.938
		c-0.517-0.755-1.428-1.279-2.35-1.313c-0.744-0.028-1.355,0.163-1.833,0.484c-0.447,0.3-0.824,0.694-1.075,1.238
		C13.472,10.024,13.767,11.549,14.787,12.379L14.787,12.379z M0.687,9.355c-0.602,2.52,1.983,4.713,4.109,3.255
		c0.145-0.1,0.231-0.223,0.392-0.264l0.018,0.723c0.425,0.052,1.022-0.064,1.418,0.028c0.044-0.786,0.076-3.243-0.118-3.866
		C5.646,6.467,1.384,6.432,0.687,9.355L0.687,9.355z"/>
	<path fill-rule="evenodd" clip-rule="evenodd" d="M47.246,4.157c-0.165-0.005-0.325-0.017-0.489-0.024
		c-0.165-0.008-0.344-0.018-0.467,0.064c0,0.344-0.027,0.2,0.253,0.315c0.646,0.262,0.947,1.367,1.175,1.995l1.892,4.994
		c0.167,0.42,1.587,4.364,1.756,4.571l0.543,0.004c0.049-0.313,0.43-1.217,0.569-1.567l1.751-4.583
		c0.087,0.094,1.03,2.682,1.16,3.054c0.143,0.408,1.04,2.9,1.169,3.096l0.533-0.021c0.142-0.267,0.892-2.54,1.047-3.002
		c0.334-1.007,0.681-2.001,1.031-3.012c0.447-1.289,1.076-3.326,1.556-4.507c0.325-0.798,0.389-0.793,0.927-1.095l0.006-0.314
		c-1.089,0.065-1.945,0.042-3.029,0.001l-0.001,0.335c1.365-0.109,1.43,0.553,1.106,1.688c-0.493,1.736-1.493,4.458-2.125,6.341
		c-0.065,0.193-0.118,0.436-0.238,0.553l-0.862-2.405c-0.522-1.321-1.227-3.337-1.723-4.732c-0.108-0.305-0.434-0.972-0.143-1.249
		c0.279-0.265,0.976-0.179,1.187-0.21c0.342-0.05-0.279,0.071,0.086-0.021l0.084-0.227l-0.314-0.071
		c-0.104-0.001-0.235,0.004-0.341,0.007l-1.844,0.06c-0.445,0.002-2.239-0.139-2.462,0.004l0.001,0.193
		c0.179,0.124,0.337,0.045,0.698,0.165c0.225,0.075,0.404,0.191,0.507,0.309c0.226,0.255,0.408,0.638,0.555,1.031
		c0.293,0.792,0.57,1.577,0.86,2.363c0.266,0.725,0.227,0.526-0.036,1.247c-0.147,0.401-0.298,0.771-0.437,1.158
		c-0.145,0.4-0.297,0.789-0.443,1.189c-0.077,0.213-0.146,0.384-0.223,0.599c-0.065,0.175-0.13,0.416-0.248,0.538
		c-0.128-0.481-1.382-3.749-1.661-4.484c-0.284-0.751-0.562-1.507-0.845-2.244c-0.204-0.531-0.647-1.419-0.157-1.684
		c0.186-0.101,0.537-0.112,0.559-0.166c0.007-0.017,0.025-0.012,0.036-0.021l0.002-0.249c-0.633-0.047-1.35,0.051-1.995,0.051
		C47.893,4.191,47.563,4.169,47.246,4.157L47.246,4.157z"/>
	<path fill-rule="evenodd" clip-rule="evenodd" d="M25.748,4.142c-0.598-0.046-1.258,0.066-1.893,0.041
		c-0.582-0.021-1.32-0.08-1.891-0.043l0.007,0.299c0.77,0.057,0.831,0.066,1.377,0.454c0.71,0.502,0.523,0.642,0.523,1.321v7.296
		c0,1.563,0.068,1.97-1.643,2.049c0.001,0.425-0.065,0.373,0.512,0.347c0.18-0.008,0.353-0.013,0.532-0.017
		c0.391-0.008,0.77-0.052,1.165-0.045c0.265,0.003,2.011,0.134,2.255,0.02l0.004-0.305c-0.98,0.049-1.69-0.009-1.939-0.92
		c-0.177-0.646-0.102-2.027-0.102-2.763c0-1.026-0.052-4.982,0.014-5.662l0.905,0.935c0.096,0.114,0.157,0.207,0.262,0.319
		c0.096,0.102,0.232,0.214,0.314,0.311l2.549,2.758c0.218,0.195,0.312,0.374,0.56,0.6l0.849,0.937
		c0.102,0.12,0.19,0.164,0.295,0.282c0.11,0.123,0.173,0.226,0.279,0.348c0.104,0.12,0.191,0.157,0.297,0.284l2.269,2.46
		c0.182,0.229,0.397,0.374,0.542,0.605l0.39-0.006V6.309c0-0.483-0.08-1.063,0.202-1.443c0.326-0.44,0.907-0.305,1.148-0.476
		l-0.01-0.193c-0.077-0.055-0.004-0.023-0.122-0.053c-0.047-0.012-0.093-0.015-0.14-0.016c-0.063-0.003-0.177,0.008-0.246,0.012
		c-0.175,0.01-0.351,0.02-0.527,0.024l-2.045-0.008c-0.23-0.007-0.815-0.082-1.002,0.041V4.39c0.014,0.007,0.032,0.014,0.043,0.018
		c0.012,0.003,0.028,0.012,0.044,0.016c0.336,0.095-0.215-0.03,0.09,0.021l0.438,0.018c0.481,0.021,1.014,0.172,1.211,0.644
		c0.243,0.581,0.146,1.613,0.146,2.307c0,1.646,0.009,3.294,0,4.941c-0.237-0.082-0.317-0.353-0.496-0.514L29.562,8.25
		c-0.095-0.1-0.155-0.172-0.248-0.284c-0.099-0.123-0.124-0.123-0.245-0.239l-1.396-1.547c-0.092-0.108-0.176-0.15-0.276-0.255
		l-1.401-1.542C25.856,4.254,25.861,4.279,25.748,4.142L25.748,4.142z"/>
	<path fill-rule="evenodd" clip-rule="evenodd" d="M36.235,4.176c-0.011-0.014-0.031,0.012-0.045,0.021l0.004,0.193
		c0.139,0.078,0.288,0.063,0.472,0.069c1.311,0.041,1.083,0.803,1.083,1.994v7.104c0,1.518,0.174,2.088-1.581,2.005l0.014,0.353
		c1.498-0.062,3.049-0.049,4.557-0.07c1.519-0.022,3.051,0.09,4.564,0.063l0.838-2.522c-0.5,0.006-0.333,0-0.552,0.363
		c-0.104,0.175-0.235,0.337-0.343,0.479c-0.157,0.213-0.608,0.538-0.947,0.688c-0.823,0.363-2.079,0.252-3.026,0.255
		c-1.506,0.002-1.33-0.578-1.33-1.9c0-1.013-0.063-2.241,0.007-3.228c0.418-0.081,2.302-0.027,2.735,0.058
		c1.241,0.243,1.153,1.14,1.353,1.495l0.316-0.026l-0.005-3.562l-0.375-0.035c-0.126,1.862-2.331,1.373-4.021,1.385l0.014-4.517
		c0.931-0.008,2.477-0.087,3.341,0.021c1.569,0.198,1.402,1.449,1.557,1.843l0.29-0.004l-0.027-2.574
		c-1.47,0.048-3.013,0.059-4.485,0.066L36.235,4.176z"/>
	<path fill-rule="evenodd" clip-rule="evenodd" d="M61.968,15.893c0.594,0.091,0.336-0.23,0.898-0.208
		c0.286,0.011,0.655,0.11,0.935,0.164c1.589,0.303,3.115,0.346,4.553-0.458c1.222-0.681,1.987-2.195,1.633-3.635
		c-0.505-2.052-3.102-2.929-4.845-3.812c-0.472-0.24-0.998-0.578-1.25-0.921c-0.334-0.455-0.363-1.164-0.035-1.656
		c0.776-1.169,3.558-1.218,4.663,0.053c0.301,0.347,0.421,0.571,0.558,1.024c0.09,0.298,0.03,0.227,0.38,0.227l-0.051-2.515
		c-0.917-0.027,0.264,0.393-1.822-0.031c-5.484-1.111-6.44,2.636-5.227,4.364c1.334,1.903,3.948,2.222,5.603,3.724
		c0.104,0.096,0.136,0.161,0.224,0.305c0.154,0.256,0.216,0.612,0.182,0.944c-0.2,1.986-2.793,2.306-4.37,1.803
		c-0.989-0.316-1.921-1.062-2.225-2.098l-0.319,0.081L61.968,15.893z"/>
</g>
<rect opacity="0" fill-rule="evenodd" clip-rule="evenodd" width="70.074" height="20"/>
</svg>
