<?xml version="1.0" encoding="utf-8"?>
<!-- Generator: Adobe Illustrator 16.0.0, SVG Export Plug-In . SVG Version: 6.00 Build 0)  -->
<!DOCTYPE svg PUBLIC "-//W3C//DTD SVG 1.1//EN" "http://www.w3.org/Graphics/SVG/1.1/DTD/svg11.dtd">
<svg version="1.1" id="Слой_1" xmlns="http://www.w3.org/2000/svg" xmlns:xlink="http://www.w3.org/1999/xlink" x="0px" y="0px"
	 width="59.086px" height="20px" viewBox="0 0 59.086 20" enable-background="new 0 0 59.086 20" xml:space="preserve">
<g>
	<g>
		<path d="M0.42,13.803L7.439,9.72l7.066,4.12c-0.341-0.931-4.464-8.901-5.232-10.382C8.928,2.799,7.799,0.288,7.443,0L0.42,13.803z
			"/>
		<path d="M5.42,20.094H3.382v-0.25c0.176-0.031,0.3-0.066,0.368-0.097c0.139-0.065,0.205-0.17,0.205-0.312
			c0-0.078-0.03-0.19-0.082-0.34L3.51,18.057H1.64c-0.248,0.732-0.372,1.162-0.372,1.287c0,0.073,0.016,0.143,0.048,0.209
			c0.052,0.109,0.143,0.184,0.262,0.225c0.045,0.019,0.153,0.041,0.333,0.066v0.252H0v-0.252c0.143-0.025,0.266-0.07,0.363-0.127
			c0.195-0.125,0.458-0.645,0.775-1.556l1.249-3.56H3.06l1.54,4.324c0.094,0.256,0.153,0.42,0.191,0.49
			c0.093,0.188,0.208,0.307,0.347,0.354c0.068,0.024,0.162,0.053,0.282,0.074V20.094L5.42,20.094L5.42,20.094z M3.385,17.708
			l-0.83-2.429L1.75,17.708H3.385z M10.274,18.473c0,0.242-0.046,0.467-0.143,0.678c-0.292,0.627-0.971,0.943-2.042,0.943H5.404
			v-0.25l0.183-0.025C5.802,19.792,5.936,19.691,6,19.512c0.037-0.101,0.059-0.295,0.059-0.58v-3.17
			c0-0.455-0.082-0.728-0.241-0.814c-0.075-0.037-0.212-0.07-0.415-0.096v-0.254h2.592c0.981,0,1.603,0.248,1.864,0.735
			c0.094,0.179,0.139,0.366,0.139,0.573c0,0.568-0.353,0.945-1.052,1.129c0.194,0.055,0.345,0.102,0.456,0.146
			C9.984,17.428,10.274,17.861,10.274,18.473L10.274,18.473z M9.267,15.934c0-0.68-0.499-1.018-1.495-1.018
			c-0.271,0-0.45,0.007-0.536,0.023c-0.225,0.039-0.36,0.146-0.408,0.308C6.805,15.33,6.79,15.452,6.79,15.602v1.321h0.843
			c0.468,0,0.82-0.046,1.053-0.138C9.071,16.639,9.267,16.352,9.267,15.934L9.267,15.934z M9.453,18.43
			c0-0.505-0.18-0.846-0.543-1.021c-0.187-0.095-0.587-0.14-1.207-0.14H6.79v1.584c0,0.332,0.029,0.553,0.09,0.651
			c0.105,0.171,0.39,0.259,0.854,0.259c0.861,0,1.401-0.255,1.611-0.768C9.42,18.822,9.453,18.637,9.453,18.43L9.453,18.43z
			 M14.993,16.143c0,0.268-0.057,0.51-0.168,0.739c-0.278,0.576-0.828,0.864-1.648,0.864h-1.023v1.188
			c0,0.285,0.02,0.483,0.061,0.594c0.067,0.179,0.202,0.277,0.408,0.299l0.266,0.018v0.252h-2.12v-0.252l0.182-0.025
			c0.21-0.024,0.349-0.125,0.413-0.305c0.037-0.102,0.06-0.295,0.06-0.58v-3.172c0-0.281-0.023-0.477-0.06-0.576
			c-0.064-0.18-0.202-0.279-0.413-0.311l-0.182-0.021V14.6h2.411c0.509,0,0.93,0.111,1.248,0.336
			C14.805,15.202,14.993,15.604,14.993,16.143L14.993,16.143z M14.258,16.174c0-0.599-0.221-0.98-0.666-1.141
			c-0.162-0.059-0.363-0.083-0.611-0.083c-0.217,0-0.363,0.007-0.441,0.021c-0.196,0.033-0.312,0.109-0.349,0.227
			c-0.023,0.066-0.038,0.152-0.038,0.267v1.938h0.911c0.217,0,0.396-0.03,0.542-0.088c0.203-0.084,0.364-0.227,0.479-0.442
			C14.203,16.656,14.258,16.419,14.258,16.174L14.258,16.174z"/>
	</g>
	<g>
		<path d="M27.768,14.082c-2.113-1.938-0.861-3.91-1.422-5.67c-0.784-2.45-3.216-2.291-3.699-3.496l5.038,0.063L27.768,14.082z
			 M25.765,2.825c-1.283-0.037-8.67,0.052-9.129-0.16c-1.7-0.5-1.089-1.535-1.907-2.242c-0.254,0.542-0.284,1.026-0.124,1.623
			c0.335,1.605,0.827,2.601,2.561,2.827c1.318,0.176,4.215-0.362,5.152,0.176c-0.246,1.009-1.558,0.322-2.26,1.832
			c-1.077,2.305,1.094,4.962,2.791,3.364c1.128-1.065,0.482-1.989,0.762-3.112c0.156-0.069,0.03-0.098,0.331-0.063l0.59,0.43
			c0.336,0.367,0.361,0.402,0.628,0.895c0.447,0.844,0.573,1.346,0.134,2.312c-0.521,1.155-1.726,2.581-3.426,2.146
			c-2.833-0.719-5.187-5.217-5.261-6.315c-0.723-0.716-0.134-0.92-0.869-0.8c-0.25,0.367-0.156,0.379-0.142,0.668
			c0.504,0.737,1.185,2.589,1.688,3.471c0.692,1.218,1.317,2.268,2.122,3.299c0.379,0.485,0.809,0.875,1.234,1.33
			c0.942,0.998,2.604,1.437,3.89,0.568c0.835-0.563,0.732-0.964,1.417-1.419c1.403,0.6,2.054,2.959,2.48,4.419
			c0.248,0.852,0.215,1.326,0.934,1.562l0.003-14.66c1.183-0.215,2.248,0.656,2.686,1.256c0.986,1.363-0.181,11.121,0.443,12.194
			c0.297,0.24,0.645,0.419,0.926,0.715c0.503,0.532,0.206,0.604,0.771,0.91c-0.251-0.892-0.203-13.57-0.07-15.162l7.348,0.008
			l0.035,6.005c-1.034-0.939-1.377-2.832-2.673-3.445c-3.333-1.569-5.27,4.524-2.153,6.507c0.767,0.487,1.731,0.41,2.334-0.2
			c0.619-0.626,0.663-1.635,0.623-2.704c-0.209-0.801-0.016-0.261,0.193-0.456c0.354,0.552,0.659,0.583,1.227,1.732
			c1.692,3.402,1.416,6.953,2.049,7.287c0.552-0.78-0.099-12.544,0.122-14.719l6.5,0.002l0.021,4.171
			c-0.804-0.883-0.991-2.178-2.366-2.693c-3.129-1.179-4.159,5.076-1.085,5.338c2.291,0.194,1.809-2.489,2.126-3.109
			c1.025,0.28,1.439,3.26,1.197,4.241c-0.185,0.749-0.713,1.475-0.215,2.192c0.232,0.336,1.271,0.919,1.771,1.121
			c0.151-0.554,0.585-1.426,0.874-1.977c0.354-0.684,0.672-1.451,1.335-1.728c0.172-0.4,0.187-0.55,0.75-0.59
			c-0.004,1.603-0.685,2.677-0.143,4.805c0.341,1.334,1.021,2.888,2.054,3.146c-0.909-2.468-1.588-4.262-0.462-7.081
			c0.323-0.805,1.498-2.637,1.521-2.9c0.061-0.754-1.202-2.267-1.846-2.446c-1.378,0.271-2.609,2.812-3.807,3.047l0.03-5.521
			c1.558-0.068,3.271-0.033,4.849-0.026c2.275,0.014,1.958,1.714,2.567,2.215c0.444-0.52,0.01-2.094-0.335-2.631
			c-1.523-2.377-4.864-1.313-8.166-1.537l-5.317-0.026L34.3,2.854c-0.365-0.294-0.774-0.868-0.874-1.471
			C33.241,0.259,33.783,0.046,32.418,0l-0.022,5.435C30.265,2.003,30.437,2.905,25.765,2.825L25.765,2.825z"/>
	</g>
</g>
<rect y="0.12" fill-opacity="0" width="59.086" height="20"/>
</svg>
