<?xml version="1.0" encoding="utf-8"?>
<!-- Generator: Adobe Illustrator 16.0.0, SVG Export Plug-In . SVG Version: 6.00 Build 0)  -->
<!DOCTYPE svg PUBLIC "-//W3C//DTD SVG 1.1//EN" "http://www.w3.org/Graphics/SVG/1.1/DTD/svg11.dtd">
<svg version="1.1" id="Слой_1" xmlns="http://www.w3.org/2000/svg" xmlns:xlink="http://www.w3.org/1999/xlink" x="0px" y="0px"
	 width="66.395px" height="20px" viewBox="0 0 66.395 20" enable-background="new 0 0 66.395 20" xml:space="preserve">
<g>
	<path d="M0.418,13.721l6.977-4.059l7.024,4.096c-0.338-0.926-4.438-8.849-5.2-10.32C8.875,2.782,7.752,0.286,7.398,0L0.418,13.721z
		"/>
	<path d="M32.153,7.779c2.96-0.57,4.788-2.044,3.588-5.348l3.944-0.049L39.59,7.66c-1.415,0.723-4.424,2.786-6.782,0.855
		C32.193,8.016,32.538,8.342,32.153,7.779L32.153,7.779z M57.24,14.406c0.989,0,1.792,0.8,1.792,1.789
		c0,0.984-0.805,1.783-1.792,1.783c-0.993,0-1.797-0.801-1.797-1.783C55.443,15.206,56.247,14.406,57.24,14.406L57.24,14.406z
		 M23.063,8.335l5.305-0.003c-1.102-3.255-1.956-2.377-9.249-2.377c-3.916,0-0.375,3.107,0.311,3.815
		C23.121,13.557,23.063,8.342,23.063,8.335L23.063,8.335z M17.204,2.543h11.441l0.538,1.092c1.525-1.01,3.225-1.784,4.008-0.813
		c1.248,2.425-2.207,3.335-3.73,4.223c2.462,6.771,8.797,4.3,10.226,4.147v1.629c-1.285,0.453-4.743,1.313-2.936,4.781
		c1.167,2.231,3.449,2.362,6.064,1.769l-1.224-2.89c-1.142,0.896-0.933,0.988-2.739,0.988c0.228-2.91,3.361-1.84,4.553-1.09
		c1.655,1.055,2.43,2.872,4.138,3.57c0.577-0.838,1.602-0.657-1.421-3.414c-4.406-4.01-3.407,0.593-3.392-13.989h15.975V4.61
		l-8.052-0.001c0.533,0.943,1.6,1.616,2.438,2.453c1.085,1.078,1.514,2.227,0.21,3.124c-4.178,1.847-3.774-4.096-6.217-5.141
		l-0.787,0.418c-0.058,1.289,2.576,6.99,5.434,7.744c2.382,0.628,4.165-0.081,4.714-1.848c0.812-2.612-0.695-3.441-1.567-4.847
		l3.944-0.093l0.004,6.209l2.897,1.796l0.07-11.878h4.602L66.344,0L15.77,0.002C15.861,1.028,16.245,1.936,17.204,2.543
		L17.204,2.543z"/>
	<path d="M5.388,19.975H3.362v-0.25c0.175-0.031,0.298-0.063,0.365-0.096c0.138-0.064,0.204-0.169,0.204-0.311
		c0-0.076-0.03-0.189-0.082-0.338l-0.361-1.031H1.63c-0.246,0.727-0.369,1.154-0.369,1.279c0,0.07,0.016,0.141,0.048,0.205
		c0.052,0.109,0.142,0.184,0.261,0.226c0.044,0.019,0.152,0.04,0.331,0.065v0.25H0v-0.25c0.142-0.025,0.264-0.07,0.361-0.127
		c0.193-0.125,0.456-0.641,0.771-1.548l1.241-3.536h0.669l1.531,4.299c0.094,0.254,0.152,0.418,0.19,0.486
		c0.093,0.186,0.207,0.307,0.345,0.354c0.067,0.022,0.161,0.052,0.28,0.074V19.975L5.388,19.975z M3.365,17.602L2.54,15.188
		l-0.8,2.414H3.365z M10.213,18.361c0,0.24-0.046,0.464-0.142,0.674c-0.29,0.624-0.965,0.938-2.029,0.938h-2.67v-0.25L5.554,19.7
		c0.212-0.025,0.345-0.124,0.41-0.306c0.037-0.101,0.059-0.293,0.059-0.578v-3.148c0-0.452-0.082-0.725-0.239-0.811
		c-0.074-0.037-0.21-0.068-0.413-0.096v-0.25h2.577c0.975,0,1.593,0.244,1.853,0.729c0.094,0.176,0.139,0.362,0.139,0.569
		c0,0.564-0.351,0.938-1.046,1.121c0.193,0.055,0.343,0.102,0.453,0.146C9.925,17.322,10.213,17.754,10.213,18.361L10.213,18.361z
		 M9.211,15.838c0-0.675-0.496-1.011-1.485-1.011c-0.269,0-0.447,0.007-0.532,0.024c-0.223,0.037-0.358,0.144-0.406,0.305
		c-0.023,0.08-0.038,0.203-0.038,0.352v1.313h0.838c0.465,0,0.815-0.045,1.047-0.137C9.017,16.538,9.211,16.253,9.211,15.838
		L9.211,15.838z M9.397,18.318c0-0.502-0.179-0.84-0.541-1.014c-0.186-0.096-0.584-0.141-1.199-0.141H6.749v1.574
		c0,0.33,0.029,0.551,0.089,0.646c0.104,0.17,0.387,0.258,0.85,0.258c0.856,0,1.393-0.252,1.602-0.763
		C9.363,18.71,9.397,18.525,9.397,18.318L9.397,18.318z M14.903,16.045c0,0.266-0.056,0.508-0.167,0.734
		c-0.276,0.574-0.823,0.859-1.638,0.859H12.08v1.182c0,0.283,0.02,0.479,0.06,0.591c0.067,0.175,0.201,0.274,0.406,0.295
		l0.264,0.019v0.25h-2.107v-0.25l0.181-0.023c0.209-0.025,0.347-0.124,0.41-0.307c0.037-0.1,0.06-0.293,0.06-0.576v-3.149
		c0-0.28-0.022-0.476-0.06-0.573c-0.063-0.18-0.2-0.275-0.41-0.31l-0.181-0.021v-0.25H13.1c0.506,0,0.923,0.107,1.24,0.332
		C14.716,15.111,14.903,15.51,14.903,16.045L14.903,16.045z M14.172,16.077c0-0.597-0.22-0.976-0.662-1.136
		c-0.161-0.058-0.362-0.08-0.607-0.08c-0.216,0-0.361,0.007-0.439,0.021c-0.194,0.032-0.31,0.109-0.347,0.226
		c-0.023,0.065-0.038,0.151-0.038,0.266v1.926h0.905c0.215,0,0.394-0.029,0.54-0.086c0.201-0.084,0.361-0.227,0.476-0.439
		C14.117,16.559,14.172,16.32,14.172,16.077L14.172,16.077z"/>
</g>
<rect fill-opacity="0" width="66.393" height="20"/>
</svg>
