<?xml version="1.0" encoding="utf-8"?>
<!-- Generator: Adobe Illustrator 16.0.0, SVG Export Plug-In . SVG Version: 6.00 Build 0)  -->
<!DOCTYPE svg PUBLIC "-//W3C//DTD SVG 1.1//EN" "http://www.w3.org/Graphics/SVG/1.1/DTD/svg11.dtd">
<svg version="1.1" id="Слой_1" xmlns="http://www.w3.org/2000/svg" xmlns:xlink="http://www.w3.org/1999/xlink" x="0px" y="0px"
	 width="74.673px" height="20px" viewBox="0 0 74.673 20" enable-background="new 0 0 74.673 20" xml:space="preserve">
<g>
	<path fill-rule="evenodd" clip-rule="evenodd" d="M16.965,8.486c-2.427,0-1.976,0.497-1.976-2.67c1.134,0,4.043-0.179,4.043,1.419
		C19.032,8.168,17.918,8.486,16.965,8.486L16.965,8.486z M23.266,19.87v-6.897h1.363l2.871,4.615v-4.615h1.304v6.897h-1.405
		l-2.829-4.535v4.535H23.266z M30.639,19.87v-6.897h5.166v1.161h-3.751v1.529h3.48v1.171h-3.48V18.7h3.882v1.17H30.639z
		 M38.434,19.87L36.8,12.973h1.454l1.034,4.734l1.272-4.734h1.677l1.214,4.813l1.063-4.813h1.414l-1.674,6.897h-1.507l-1.374-5.16
		l-1.384,5.16H38.434z M46.641,17.627l1.374-0.127c0.08,0.455,0.25,0.783,0.503,1.003c0.249,0.207,0.59,0.316,1.013,0.316
		c0.45,0,0.792-0.101,1.023-0.288c0.23-0.188,0.341-0.407,0.341-0.665c0-0.159-0.039-0.297-0.141-0.417
		c-0.101-0.108-0.261-0.208-0.502-0.298c-0.172-0.061-0.541-0.159-1.124-0.298c-0.752-0.188-1.283-0.416-1.585-0.685
		c-0.421-0.388-0.641-0.845-0.641-1.399c0-0.347,0.1-0.675,0.299-0.981c0.202-0.309,0.492-0.548,0.874-0.706
		c0.382-0.159,0.833-0.238,1.364-0.238c0.873,0,1.534,0.188,1.978,0.576c0.441,0.387,0.661,0.893,0.691,1.529l-1.415,0.048
		c-0.061-0.356-0.19-0.604-0.381-0.764c-0.202-0.159-0.491-0.238-0.894-0.238c-0.401,0-0.722,0.089-0.942,0.259
		c-0.151,0.098-0.231,0.248-0.231,0.426c0,0.158,0.07,0.307,0.212,0.418c0.18,0.148,0.61,0.308,1.294,0.467
		c0.682,0.158,1.183,0.327,1.515,0.496c0.321,0.169,0.582,0.406,0.762,0.704c0.191,0.298,0.281,0.654,0.281,1.092
		c0,0.396-0.109,0.764-0.332,1.112c-0.22,0.348-0.531,0.604-0.942,0.773c-0.401,0.169-0.913,0.248-1.514,0.248
		c-0.884,0-1.555-0.198-2.038-0.605C47.012,18.988,46.731,18.401,46.641,17.627L46.641,17.627z M37.19,10.879h0.742l0.03-5.619
		H37.16L37.19,10.879z M36.848,7.285c0.142-1.677-0.42-0.953-0.511-1.915c-0.14-1.668,2.468-1.787,2.458-0.08
		c-0.011,1.082-0.663,0.258-0.521,1.995c2.277-0.665,1.806-4.159-0.682-4.188C35.124,3.067,34.502,6.531,36.848,7.285L36.848,7.285z
		 M36.869,8.903V7.96c-0.722-0.308-1.043-0.457-1.504-0.993c-0.392-0.457-0.663-1.24-0.573-2.035
		c0.383-3.157,5.027-3.226,5.509-0.089c0.121,0.793-0.13,1.568-0.512,2.074c-0.37,0.516-0.853,0.765-1.535,1.042v0.943
		c0.934-0.08,1.826-0.804,2.198-1.251c0.552-0.685,0.942-1.549,0.843-2.72c-0.352-4.397-6.974-4.506-7.455-0.089
		C33.61,6.898,35.194,8.765,36.869,8.903L36.869,8.903z M36.848,9.549c-0.501-0.259-0.922-0.239-1.514-0.596
		c-3.812-2.303-2.087-8.03,2.267-7.99c2.288,0.02,4.134,1.807,4.295,3.98c0.141,1.747-0.783,3.226-2.157,4.049
		c-0.552,0.317-1.004,0.317-1.475,0.557l-0.011,0.902c1.455,0.021,2.729-1.072,3.381-1.796C44.384,5.608,42.338-0.04,37.512,0
		c-2.869,0.03-5.077,2.253-5.247,4.954c-0.202,2.987,2.388,5.528,4.604,5.498L36.848,9.549z M43.711,5.022
		c0,0.982-0.019,1.569,0.612,2.412c0.372,0.496,0.693,0.765,1.264,1.052c1.896,0.923,4.787,0.913,6.994,0.695
		c0.501-0.05,1.224-0.239,1.716-0.259V6.978c-0.312,0.208-0.483,0.486-0.803,0.705c-1.094,0.784-2.299,0.913-3.672,0.793
		c-4.124-0.367-4.225-6.293,0.712-6.293c0.823,0,1.605,0.129,2.178,0.407c1.223,0.585,0.982,0.695,1.585,1.102
		c0-0.486,0.1-1.767-0.131-1.916c-0.332-0.208-6.239-0.953-8.899,0.616C44.504,2.849,43.711,3.861,43.711,5.022L43.711,5.022z
		 M4.846,3.156c0.18,0.129,0.732,1.161,0.873,1.45l0.833,1.568H3.23c0.081-0.338,0.623-1.142,0.813-1.509
		C4.174,4.407,4.304,4.208,4.466,3.93C4.625,3.642,4.765,3.494,4.846,3.156L4.846,3.156z M0,9.28h1.435
		c0.13-0.556,0.833-1.36,0.993-2.044h4.666c0.06,0.248,0.36,0.744,0.512,1.013c0.21,0.366,0.37,0.664,0.561,1.032h3.501l-3.801-6.72
		C7.725,2.292,7.413,1.806,7.365,1.558H4.484l-3.902,6.7C0.402,8.545,0.08,8.992,0,9.28L0,9.28z M22.352,3.692
		c0,0.229,0.181,0.814,0.271,0.973c0.05,0.099,0.19,0.268,0.271,0.347c1.334,1.38,5.738,1.43,5.738,2.492
		c0,1.359-1.996,1.241-3.13,0.963c-0.602-0.148-1.063-0.347-1.595-0.635c-0.623-0.328-0.973-0.675-1.375-0.943v2.214
		c0.853,0.02,2.126,0.268,3.582,0.268c6.991,0,6.06-3.385,4.003-4.229c-0.863-0.347-1.585-0.526-2.549-0.764
		c-0.611-0.149-2.117-0.457-2.417-0.903c-0.252-0.377,0.069-0.804,0.371-0.992c0.982-0.616,3.451-0.308,4.685,0.615
		c0.28,0.218,0.392,0.407,0.663,0.595c0-2.263,0.3-1.886-1.044-2.074c-1.957-0.278-5.377-0.576-6.872,0.893
		C22.643,2.809,22.352,3.266,22.352,3.692L22.352,3.692z M65.602,9.28h1.175V4.486c0.552,0.367,0.842,0.705,1.323,1.181
		c0.271,0.269,0.361,0.348,0.662,0.586c0.241,0.188,0.451,0.427,0.682,0.655c0.453,0.447,0.843,0.744,1.306,1.201
		c1.545,1.529,1.054,1.171,3.923,1.171V1.558h-1.164V6.62l-2.138-1.886c-0.281-0.288-0.401-0.367-0.712-0.625l-1.395-1.29
		c-0.201-0.199-1.304-1.261-1.505-1.261h-2.157V9.28z M59.954,8.486c-2.427,0-1.976,0.497-1.976-2.67
		c1.112,0,4.044-0.189,4.044,1.419C62.022,8.168,60.908,8.486,59.954,8.486L59.954,8.486z M58.791,4.844h-0.813
		c0-2.521-0.512-2.74,2.057-2.481C61.901,2.551,62.452,4.844,58.791,4.844L58.791,4.844z M54.927,9.28h4.666
		c2.066,0,5.478-0.049,5.478-1.956c0-1.042-0.342-1.558-1.345-1.955l-0.813-0.259c0.712-0.168,1.205-0.298,1.595-0.824
		c0.372-0.506,0.312-1.3-0.091-1.737c-0.762-0.834-2.356-0.993-3.923-0.993h-5.567V9.28z M15.62,4.844h-0.631
		c0-2.512-0.241-2.481,0.843-2.542C19.283,2.134,19.654,4.844,15.62,4.844L15.62,4.844z M11.849,5.548l0.089,3.732
		c2.309,0,7.746,0.308,9.391-0.744c1.204-0.765,1.124-2.71-1.013-3.286l-0.201-0.06c-0.19-0.069-0.08-0.01-0.19-0.08
		c0.481-0.119,0.822-0.198,1.174-0.447c0.882-0.616,1.114-2.233-0.944-2.809c-1.695-0.466-6.229-0.298-8.217-0.298
		C11.938,2.987,11.849,4.109,11.849,5.548L11.849,5.548z"/>
</g>
<rect x="0.038" opacity="0" fill-rule="evenodd" clip-rule="evenodd" width="74.634" height="20"/>
</svg>
