<?xml version="1.0" encoding="utf-8"?>
<!-- Generator: Adobe Illustrator 16.0.0, SVG Export Plug-In . SVG Version: 6.00 Build 0)  -->
<!DOCTYPE svg PUBLIC "-//W3C//DTD SVG 1.1//EN" "http://www.w3.org/Graphics/SVG/1.1/DTD/svg11.dtd">
<svg version="1.1" id="Слой_1" xmlns="http://www.w3.org/2000/svg" xmlns:xlink="http://www.w3.org/1999/xlink" x="0px" y="0px"
	 width="118.661px" height="20px" viewBox="0 0 118.661 20" enable-background="new 0 0 118.661 20" xml:space="preserve">
<g>
	<path d="M4.615,12.087c-0.758,0-1.313,0.087-1.646,0.261c-0.335,0.184-0.503,0.463-0.503,0.846c0,0.278,0.098,0.506,0.272,0.67
		c0.178,0.176,0.415,0.262,0.715,0.262c0.476,0,0.854-0.165,1.153-0.505c0.3-0.331,0.449-0.766,0.449-1.308v-0.226H4.615z
		 M7.496,11.547v4.182H5.25l-0.053-1.246c-0.309,0.462-0.679,0.803-1.11,1.021c-0.44,0.218-0.96,0.321-1.576,0.321
		c-0.767,0-1.374-0.227-1.823-0.688C0.229,14.674,0,14.055,0,13.289c0-0.889,0.334-1.551,0.996-1.978
		c0.65-0.427,1.672-0.637,3.047-0.637h1.013v-0.112c0-0.437-0.159-0.768-0.476-1.003S3.805,9.211,3.207,9.211
		c-0.301,0-0.635,0.052-1.014,0.166C1.814,9.481,1.408,9.646,0.97,9.864L0.925,8.053c0.423-0.192,0.881-0.331,1.366-0.419
		C2.783,7.538,3.32,7.494,3.91,7.494c1.242,0,2.141,0.332,2.723,0.976C7.205,9.125,7.496,10.143,7.496,11.547L7.496,11.547z
		 M15.36,7.93l-0.186,2.004c-0.255-0.148-0.501-0.253-0.757-0.322c-0.246-0.07-0.494-0.105-0.74-0.105
		c-0.643,0-1.153,0.193-1.532,0.602c-0.378,0.401-0.563,0.94-0.563,1.62c0,0.681,0.193,1.211,0.599,1.612s0.942,0.603,1.62,0.603
		c0.283,0,0.555-0.044,0.811-0.114c0.264-0.079,0.52-0.19,0.758-0.349l0.062,2.102c-0.335,0.121-0.696,0.209-1.101,0.27
		c-0.396,0.07-0.828,0.096-1.295,0.096c-1.232,0-2.22-0.385-2.986-1.16c-0.766-0.775-1.145-1.793-1.145-3.041
		c0-1.315,0.388-2.344,1.154-3.101c0.775-0.759,1.832-1.132,3.18-1.132c0.324,0,0.66,0.034,1.021,0.104
		C14.604,7.677,14.973,7.783,15.36,7.93L15.36,7.93z M20.275,5.002v2.727h1.849v1.978h-1.849v2.754c0,0.594,0.096,1.011,0.272,1.254
		c0.185,0.245,0.493,0.367,0.934,0.367c0.062,0,0.142-0.009,0.237-0.027c0.098-0.016,0.229-0.051,0.405-0.095l0.044,1.786
		c-0.273,0.07-0.545,0.113-0.801,0.148c-0.266,0.036-0.52,0.053-0.766,0.053c-1.031,0-1.771-0.262-2.229-0.803
		c-0.459-0.531-0.679-1.402-0.679-2.604V9.707h-1.462V7.729h1.604V5.874L20.275,5.002z M23.401,7.729h2.589v4.035
		c0,0.627,0.105,1.091,0.318,1.403c0.211,0.305,0.527,0.462,0.959,0.462c0.484,0,0.854-0.209,1.109-0.628
		c0.247-0.426,0.371-1.036,0.371-1.847V7.729h2.589v8h-2.352V14.23c-0.29,0.539-0.679,0.941-1.146,1.221
		c-0.467,0.277-0.995,0.416-1.585,0.416c-0.925,0-1.638-0.295-2.122-0.896s-0.731-1.481-0.731-2.633V7.729z M37.484,12.087
		c-0.767,0-1.313,0.087-1.646,0.261c-0.336,0.184-0.503,0.463-0.503,0.846c0,0.278,0.089,0.506,0.265,0.67
		c0.186,0.176,0.423,0.262,0.722,0.262c0.467,0,0.846-0.165,1.154-0.505c0.29-0.331,0.44-0.766,0.44-1.308v-0.226H37.484z
		 M40.355,11.547v4.182h-2.246l-0.053-1.246c-0.309,0.462-0.679,0.803-1.109,1.021c-0.432,0.218-0.96,0.321-1.568,0.321
		c-0.766,0-1.373-0.227-1.832-0.688c-0.457-0.463-0.678-1.082-0.678-1.848c0-0.889,0.326-1.551,0.986-1.978
		c0.66-0.427,1.682-0.637,3.048-0.637h1.013v-0.112c0-0.437-0.15-0.768-0.467-1.003s-0.775-0.349-1.383-0.349
		c-0.3,0-0.635,0.052-1.013,0.166c-0.378,0.104-0.784,0.27-1.216,0.488l-0.044-1.812c0.423-0.192,0.872-0.331,1.366-0.419
		c0.492-0.096,1.029-0.139,1.619-0.139c1.232,0,2.141,0.332,2.713,0.976C40.074,9.125,40.355,10.143,40.355,11.547L40.355,11.547z
		 M42.215,4.053h2.579v11.676h-2.579V4.053z M46.794,7.729h2.589v8h-2.589V7.729z M46.794,4.053h2.589v2.23h-2.589V4.053z
		 M57.389,7.93l-0.176,2.004c-0.256-0.148-0.512-0.253-0.758-0.322c-0.246-0.07-0.502-0.105-0.748-0.105
		c-0.643,0-1.154,0.193-1.523,0.602c-0.389,0.401-0.572,0.94-0.572,1.62c0,0.681,0.201,1.211,0.599,1.612
		c0.404,0.401,0.95,0.603,1.62,0.603c0.281,0,0.555-0.044,0.819-0.114c0.255-0.079,0.511-0.19,0.757-0.349l0.053,2.102
		c-0.326,0.121-0.695,0.209-1.092,0.27c-0.396,0.07-0.837,0.096-1.303,0.096c-1.225,0-2.221-0.385-2.986-1.16
		c-0.758-0.775-1.145-1.793-1.145-3.041c0-1.315,0.387-2.344,1.162-3.101c0.767-0.759,1.822-1.132,3.18-1.132
		c0.325,0,0.66,0.034,1.012,0.104C56.641,7.677,57.002,7.783,57.389,7.93L57.389,7.93z M66.381,11.869v0.671h-5.302
		c0.044,0.522,0.265,0.923,0.634,1.21c0.371,0.279,0.873,0.428,1.506,0.428c0.379,0,0.775-0.061,1.198-0.174
		s0.854-0.279,1.304-0.498v1.961c-0.423,0.157-0.863,0.279-1.321,0.357c-0.458,0.088-0.934,0.123-1.428,0.123
		c-1.382,0-2.456-0.385-3.231-1.15c-0.775-0.776-1.162-1.84-1.162-3.215c0-1.248,0.361-2.232,1.074-2.972
		c0.713-0.733,1.682-1.098,2.897-1.098c1.224,0,2.167,0.374,2.837,1.132C66.047,9.402,66.381,10.474,66.381,11.869L66.381,11.869z
		 M64.092,10.918c-0.053-0.531-0.221-0.958-0.494-1.264c-0.272-0.313-0.617-0.46-1.039-0.46c-0.414,0-0.758,0.146-1.021,0.46
		c-0.273,0.306-0.432,0.733-0.493,1.264H64.092z M73.287,7.93L73.03,9.864c-0.343-0.209-0.687-0.365-1.039-0.479
		c-0.353-0.104-0.687-0.166-1.004-0.166c-0.316,0-0.563,0.061-0.731,0.183c-0.176,0.122-0.264,0.289-0.264,0.507
		c0,0.278,0.353,0.522,1.057,0.731c0.221,0.062,0.396,0.113,0.519,0.157c0.802,0.252,1.366,0.557,1.684,0.925
		c0.317,0.365,0.476,0.87,0.476,1.497c0,0.846-0.307,1.517-0.934,2.005c-0.616,0.479-1.471,0.724-2.563,0.724
		c-0.467,0-0.926-0.035-1.375-0.113c-0.449-0.07-0.897-0.183-1.33-0.34l0.168-2.049c0.361,0.193,0.739,0.349,1.137,0.445
		c0.387,0.104,0.783,0.156,1.188,0.156c0.369,0,0.661-0.053,0.854-0.156c0.186-0.113,0.282-0.279,0.282-0.496
		c0-0.324-0.387-0.603-1.162-0.847c-0.186-0.061-0.344-0.112-0.449-0.147c-0.793-0.271-1.34-0.575-1.646-0.915
		c-0.317-0.341-0.475-0.784-0.475-1.325c0-0.845,0.316-1.49,0.932-1.952c0.625-0.47,1.498-0.696,2.625-0.696
		c0.371,0,0.749,0.034,1.136,0.104C72.503,7.687,72.891,7.791,73.287,7.93L73.287,7.93z M82.48,11.869v0.671h-5.302
		c0.052,0.522,0.264,0.923,0.644,1.21c0.37,0.279,0.871,0.428,1.506,0.428c0.379,0,0.773-0.061,1.197-0.174
		c0.413-0.113,0.854-0.279,1.295-0.498v1.961c-0.423,0.157-0.854,0.279-1.313,0.357c-0.459,0.088-0.933,0.123-1.436,0.123
		c-1.375,0-2.457-0.385-3.223-1.15c-0.783-0.776-1.163-1.84-1.163-3.215c0-1.248,0.354-2.232,1.065-2.972
		c0.723-0.733,1.682-1.098,2.897-1.098c1.224,0,2.176,0.374,2.836,1.132C82.154,9.402,82.48,10.474,82.48,11.869L82.48,11.869z
		 M80.191,10.918c-0.054-0.531-0.213-0.958-0.484-1.264c-0.273-0.313-0.625-0.46-1.039-0.46c-0.424,0-0.759,0.146-1.031,0.46
		c-0.265,0.306-0.432,0.733-0.484,1.264H80.191z M83.951,13.254h2.396v2.475h-2.396V13.254z M94.432,7.93l-0.176,2.004
		c-0.255-0.148-0.501-0.253-0.758-0.322c-0.246-0.07-0.493-0.105-0.748-0.105c-0.635,0-1.145,0.193-1.522,0.602
		c-0.379,0.401-0.573,0.94-0.573,1.62c0,0.681,0.202,1.211,0.607,1.612c0.404,0.401,0.942,0.603,1.611,0.603
		c0.29,0,0.556-0.044,0.819-0.114c0.266-0.079,0.512-0.19,0.759-0.349l0.061,2.102c-0.335,0.121-0.696,0.209-1.101,0.27
		c-0.397,0.07-0.829,0.096-1.303,0.096c-1.226,0-2.221-0.385-2.978-1.16c-0.768-0.775-1.146-1.793-1.146-3.041
		c0-1.315,0.378-2.344,1.155-3.101c0.765-0.759,1.831-1.132,3.178-1.132c0.326,0,0.661,0.034,1.014,0.104
		C93.684,7.677,94.054,7.783,94.432,7.93L94.432,7.93z M99.956,9.429c-0.486,0-0.882,0.209-1.19,0.626
		c-0.298,0.418-0.449,0.968-0.449,1.657c0,0.678,0.151,1.227,0.449,1.646c0.309,0.418,0.704,0.626,1.19,0.626
		c0.501,0,0.896-0.208,1.197-0.618c0.298-0.41,0.449-0.958,0.449-1.654c0-0.698-0.151-1.248-0.449-1.667
		C100.853,9.629,100.457,9.429,99.956,9.429L99.956,9.429z M99.956,7.513c1.363,0,2.431,0.374,3.204,1.115
		c0.768,0.749,1.146,1.777,1.146,3.101c0,1.316-0.378,2.345-1.146,3.085c-0.773,0.749-1.841,1.124-3.204,1.124
		c-1.356,0-2.424-0.375-3.181-1.124c-0.767-0.74-1.153-1.769-1.153-3.085c0-1.324,0.387-2.352,1.153-3.101
		C97.532,7.886,98.6,7.513,99.956,7.513L99.956,7.513z M113.271,9.211c0.291-0.549,0.67-0.959,1.128-1.254
		c0.46-0.289,0.959-0.428,1.515-0.428c0.89,0,1.568,0.297,2.044,0.897c0.467,0.602,0.704,1.473,0.704,2.623v4.68h-2.554v-4.112
		c0-0.619-0.096-1.081-0.29-1.377s-0.494-0.445-0.898-0.445c-0.415,0-0.75,0.191-0.994,0.566c-0.248,0.375-0.38,0.881-0.38,1.526
		v3.842h-2.563v-4.112c0-0.619-0.098-1.081-0.29-1.377c-0.196-0.296-0.494-0.445-0.909-0.445c-0.413,0-0.748,0.191-1.003,0.566
		c-0.248,0.383-0.371,0.889-0.371,1.526v3.842h-2.563v-8h2.326v1.43c0.281-0.523,0.65-0.933,1.108-1.212s0.96-0.418,1.507-0.418
		c0.572,0,1.073,0.139,1.506,0.428C112.726,8.252,113.052,8.662,113.271,9.211L113.271,9.211z"/>
</g>
<rect y="0" opacity="0" fill-rule="evenodd" clip-rule="evenodd" width="118.661" height="20"/>
</svg>
