<?xml version="1.0" encoding="UTF-8" standalone="no"?>
<svg width="19px" height="18px" viewBox="0 0 19 18" version="1.1" xmlns="http://www.w3.org/2000/svg" xmlns:xlink="http://www.w3.org/1999/xlink" xmlns:sketch="http://www.bohemiancoding.com/sketch/ns">
    <!-- Generator: Sketch 3.4.4 (17249) - http://www.bohemiancoding.com/sketch -->
    <title>actualidad.rt.com</title>
    <desc>Created with Sketch.</desc>
    <defs></defs>
    <g id="Page-1" stroke="none" stroke-width="1" fill="none" fill-rule="evenodd" sketch:type="MSPage">
        <g id="actualidad.rt.com" sketch:type="MSLayerGroup" fill="#000000">
            <g id="Group" sketch:type="MSShapeGroup">
                <path d="M18.193,6.33500062 L18.193,0 L0,0 L0,18 L18.193,18 L18.193,6.99 L15.768,6.99 L15.768,11.664 L12.72,11.664 L12.72,6.99 L10.1915421,6.99 C10.3673127,7.24089621 10.4698519,7.54634378 10.469,7.875 C10.4693016,8.54390606 10.0373545,9.13697318 9.4,9.34 L11.148,11.662 L7.938,11.662 L6.38,9.416 L5.488,9.416 L5.488,11.664 L2.438,11.664 L2.438,6.334 C8.9860002,6.33400003 8.986,6.336 8.986,6.334 C9.46980986,6.35188451 9.89449243,6.59113371 10.164,6.95193318 L10.164,6.34 L18.193,6.33500062 Z" id="Shape"></path>
                <path d="M6.577,8.765 C6.79660614,8.75382323 7.00414074,8.66111018 7.159,8.505 C7.32632615,8.33885388 7.42042883,8.11280198 7.42042883,7.877 C7.42042883,7.64119802 7.32632615,7.41514612 7.159,7.249 C7.00366729,7.09298529 6.79586559,7.00031214 6.576,6.989 L5.486,6.989 L5.486,8.764 L6.576,8.764 L6.577,8.765 Z" id="Path"></path>
            </g>
        </g>
    </g>
</svg>