<?xml version="1.0" encoding="UTF-8" standalone="no"?>
<svg width="74px" height="20px" viewBox="0 0 74 20" version="1.1" xmlns="http://www.w3.org/2000/svg" xmlns:xlink="http://www.w3.org/1999/xlink" xmlns:sketch="http://www.bohemiancoding.com/sketch/ns">
    <!-- Generator: Sketch 3.5.1 (25234) - http://www.bohemiancoding.com/sketch -->
    <title>acunn.com</title>
    <desc>Created with Sketch.</desc>
    <defs></defs>
    <g id="logotypes" stroke="none" stroke-width="1" fill="none" fill-rule="evenodd" sketch:type="MSPage">
        <g id="ukraine" sketch:type="MSArtboardGroup" transform="translate(-42.000000, -1885.000000)" fill="#000000">
            <g id="acunn.com" sketch:type="MSLayerGroup" transform="translate(42.000000, 1887.000000)">
                <g id="Слой_1" sketch:type="MSShapeGroup">
                    <g id="Group">
                        <path d="M9.55771429,10.8742857 L7.296,15.8537143 L11.2788571,15.8537143 L17.2674286,1.89142857 L8.47428571,1.89142857 L7.77371429,1.89142857 C6.81142857,2.04 4.78971429,3.19428571 4.43657143,4.24 C4.392,4.37028571 4.13028571,4.86742857 4.04685714,4.98057143 L0,14.2148571 L3.88685714,14.2148571 L5.73485714,10.2742857 L9.55771429,10.2742857 L9.55771429,10.8742857 L9.55771429,10.8742857 Z M9.27085714,4.96457143 C8.19085714,4.98057143 7.768,5.54742857 7.248,6.496 C7.17142857,6.63657143 7.04114286,7.04114286 7.04114286,7.21828571 L11.0548571,7.21828571 L11.9314286,4.96457143 L9.27085714,4.96457143 L9.27085714,4.96457143 Z" id="Shape"></path>
                        <path d="M57.0971429,1.90628571 C59.2285714,2.04457143 59.1622857,3.79314286 58.8491429,4.55428571 L53.944,15.9017143 L49.9931429,15.9017143 L53.7062857,7.47314286 C53.9097143,7.00914286 54.0605714,6.65257143 54.2171429,6.17485714 C54.4857143,5.35428571 53.952,5.16571429 53.3382857,4.98057143 L50.6297143,4.98057143 L46.5531429,14.184 L42.6971429,14.184 L47.9211429,1.90628571 L57.0971429,1.90628571 L57.0971429,1.90628571 Z" id="Shape"></path>
                        <path d="M71.1771429,1.90628571 C73.3085714,2.04457143 73.2422857,3.79314286 72.9302857,4.55428571 L68.024,15.9017143 L64.0742857,15.9017143 L67.7862857,7.47314286 C67.9908571,7.00914286 68.1417143,6.65257143 68.2982857,6.17485714 C68.5668571,5.35428571 68.0331429,5.16571429 67.4194286,4.98057143 L64.7108571,4.98057143 L60.6331429,14.184 L56.7782857,14.184 L62.0022857,1.90628571 L71.1771429,1.90628571 L71.1771429,1.90628571 Z" id="Shape"></path>
                        <path d="M31.3588571,14.136 C29.2274286,13.9988571 29.2937143,12.2502857 29.6068571,11.4891429 L33.7702857,1.82971429 L37.7211429,1.82971429 L34.752,8.57028571 C34.5474286,9.03314286 34.3977143,9.39085714 34.2411429,9.86857143 C33.9714286,10.6891429 34.5062857,10.8788571 35.12,11.064 L37.8274286,11.064 L42.7005714,0 L46.5554286,0 L40.5337143,14.136 L31.3588571,14.136 L31.3588571,14.136 Z" id="Shape"></path>
                        <path d="M30.416,4.99542857 L31.9451429,1.90742857 L21.9428571,1.90742857 C20.2571429,1.90742857 19.6537143,2.48457143 18.7645714,3.75428571 C17.5394286,5.504 15.2228571,9.63771429 15.9291429,12.0811429 C16.296,13.3462857 17.728,14.2102857 19.0114286,14.232 L26.4982857,14.232 L27.9314286,11.112 L21.6228571,11.112 C19.7348571,11.112 20.0068571,9.23542857 20.7771429,7.49828571 C21.3245714,6.26057143 21.904,4.99657143 23.3748571,4.99657143 C25.7222857,4.99542857 28.0697143,4.99542857 30.416,4.99542857 L30.416,4.99542857 L30.416,4.99542857 Z" id="Shape"></path>
                    </g>
                </g>
            </g>
        </g>
    </g>
</svg>