<?xml version="1.0" encoding="UTF-8" standalone="no"?>
<svg width="200px" height="18px" viewBox="0 0 200 18" version="1.1" xmlns="http://www.w3.org/2000/svg" xmlns:xlink="http://www.w3.org/1999/xlink" xmlns:sketch="http://www.bohemiancoding.com/sketch/ns">
    <!-- Generator: Sketch 3.3 (11970) - http://www.bohemiancoding.com/sketch -->
    <title>Adme</title>
    <desc>Created with Sketch.</desc>
    <defs></defs>
    <g id="Page-1" stroke="none" stroke-width="1" fill="none" fill-rule="evenodd" sketch:type="MSPage">
        <g id="Adme" sketch:type="MSArtboardGroup" fill="#000000">
            <g id="Group" sketch:type="MSLayerGroup">
                <path d="M12.0693642,18 L11.0289017,14.7745665 L4.68208092,14.7745665 L3.6416185,18 L0,18 L6.55491329,3.55271368e-15 L9.26011561,3.55271368e-15 L15.8150289,18 L12.0693642,18 L12.0693642,18 Z M7.90751445,5.30635838 L5.61849711,11.8612717 L10.0924855,11.8612717 L7.90751445,5.30635838 L7.90751445,5.30635838 Z" id="Shape" sketch:type="MSShapeGroup"></path>
                <path d="M29.132948,16.2312139 C27.9884393,17.3757225 26.2196532,18 24.4508671,18 L18,18 L18,3.55271368e-15 L24.4508671,3.55271368e-15 C26.3236994,3.55271368e-15 27.9884393,0.520231214 29.132948,1.76878613 C31.1098266,3.74566474 30.9017341,6.24277457 30.9017341,8.94797688 C30.9017341,11.6531792 31.1098266,14.2543353 29.132948,16.2312139 M26.7398844,4.16184971 C26.1156069,3.43352601 25.283237,3.01734104 24.1387283,3.01734104 L21.433526,3.01734104 L21.433526,14.8786127 L24.0346821,14.8786127 C25.283237,14.8786127 26.0115607,14.4624277 26.6358382,13.734104 C27.2601156,12.9017341 27.3641618,11.6531792 27.3641618,8.84393064 C27.4682081,6.13872832 27.3641618,4.99421965 26.7398844,4.16184971" id="Shape" sketch:type="MSShapeGroup"></path>
                <path d="M46.5128205,18 L46.5128205,7.49132948 L43.1282051,14.3583815 L40.7692308,14.3583815 L37.3846154,7.49132948 L37.3846154,18 L34,18 L34,3.55271368e-15 L37.3846154,3.55271368e-15 L42,9.67630058 L46.5128205,3.55271368e-15 L50,3.55271368e-15 L50,18 L46.5128205,18 Z" id="Shape" sketch:type="MSShapeGroup"></path>
                <path d="M53,18 L53,3.55271368e-15 L65,3.55271368e-15 L65,3.12138728 L56.5044248,3.12138728 L56.5044248,7.28323699 L63.7256637,7.28323699 L63.7256637,10.5086705 L56.5044248,10.5086705 L56.5044248,14.8786127 L65,14.8786127 L65,18 L53,18 Z" id="Shape" sketch:type="MSShapeGroup"></path>
            </g>
        </g>
    </g>
</svg>