<?xml version="1.0" encoding="utf-8"?>
<!-- Generator: Adobe Illustrator 16.0.0, SVG Export Plug-In . SVG Version: 6.00 Build 0)  -->
<!DOCTYPE svg PUBLIC "-//W3C//DTD SVG 1.1//EN" "http://www.w3.org/Graphics/SVG/1.1/DTD/svg11.dtd">
<svg version="1.1" id="Слой_1" xmlns="http://www.w3.org/2000/svg" xmlns:xlink="http://www.w3.org/1999/xlink" x="0px" y="0px"
	 width="72.661px" height="20px" viewBox="0 0 72.661 20" enable-background="new 0 0 72.661 20" xml:space="preserve">
<g>
	<path d="M26.583,17.705c-0.223,0-0.476,0.029-0.733,0.061c-0.236,0.028-0.478,0.059-0.697,0.059c-0.443,0-0.502-0.131-0.527-0.188
		L24.3,17.782l0.271-0.29l-0.02-0.135c-0.14-0.879-0.093-4.154-0.048-7.323c0.092-6.506,0.068-8.745-0.259-9.178
		c-0.34-0.452-0.938-0.514-1.533-0.514c-0.21,0-0.438,0.009-0.679,0.018c-0.262,0.01-0.539,0.021-0.827,0.021
		c-1.095,0-1.698,0.231-1.844,0.707c-0.1,0.324,0.065,0.691,0.42,0.933c0.274,0.188,0.63,0.21,0.875,0.21
		c0.196,0,0.409-0.016,0.628-0.033c0.426-0.033,0.885-0.053,1.155,0.025c0.123,0.333,0.266,1.321,0.187,4.208
		c-0.598-0.544-1.506-1.33-3.539-1.33l-0.169,0.001c-3.706,0.073-5.848,3.003-6.329,5.876c-0.231,1.392-0.039,2.636,0.131,3.735
		c0.207,1.342,0.373,2.415-0.259,3.321l-0.727,0.033c-0.7-1.184-0.596-3.053-0.486-5.025c0.136-2.441,0.277-4.966-1.138-6.521
		c-0.808-0.887-2.013-1.35-3.684-1.414c-1.915-0.081-3.82,0.618-4.808,1.764C1,7.591,0.746,8.466,0.885,9.404
		C1.04,10.429,1.943,11.23,2.94,11.23c0.45,0,0.878-0.166,1.236-0.479c0.539-0.471,0.732-1.188,0.493-1.826
		C4.427,8.281,3.803,7.9,3.15,8.013c0.526-0.728,1.809-1.146,3.039-1.146c1.085,0,2.422,0.341,2.922,1.301
		C9.43,8.78,9.487,9.33,9.281,9.801c-0.228,0.523-0.789,0.939-1.536,1.144c-0.659,0.179-1.386,0.232-2.156,0.29
		c-0.901,0.066-1.833,0.137-2.671,0.423c-2.356,0.807-3.125,2.889-2.842,4.595c0.302,1.813,1.87,3.643,4.693,3.643
		c0.503,0,1.034-0.059,1.579-0.176c1.621-0.35,2.354-1.059,2.944-1.629c0.081-0.078,0.16-0.154,0.24-0.229
		c0.039,0.101,0.074,0.201,0.108,0.301c0.258,0.746,0.55,1.59,2.128,1.693c1.665,0.116,2.093-0.696,2.524-1.476
		c0.055-0.099,0.111-0.201,0.171-0.304c1.576,1.27,2.946,1.864,4.289,1.864c1.267,0,2.522-0.516,3.911-1.615
		c0.138,0.984,0.408,1.241,1.914,1.241c0.284,0,0.622-0.008,1.035-0.02l1.889-0.105l0.07-0.244c0.145-0.505,0.119-0.877-0.079-1.139
		C27.224,17.705,26.742,17.705,26.583,17.705z M19.076,18.091c-3.056,0.173-4.398-2.437-4.617-4.661
		c-0.268-2.724,0.96-5.92,3.762-6.476c0.273-0.055,0.55-0.083,0.823-0.083c1.089,0,2.133,0.45,2.659,1.146
		c0.773,1.026,0.886,2.739,0.904,3.938C22.679,16.168,21.655,17.945,19.076,18.091z M9.404,12.142
		c-0.007,2.526-0.224,3.751-1.645,4.964c-0.726,0.621-1.811,1.006-2.831,1.006c-0.61,0-1.482-0.137-2.174-0.784
		c-0.646-0.608-0.904-1.413-0.708-2.208c0.211-0.853,0.891-1.533,1.775-1.778c0.672-0.188,1.335-0.239,2.036-0.294
		c0.408-0.033,0.815-0.064,1.223-0.123c0.953-0.143,1.512-0.403,2.104-0.68C9.257,12.21,9.33,12.176,9.404,12.142z"/>
	<path d="M38.14,0.988h-2.179v0.357c0,1.026-0.162,10.796-0.162,10.796C34.857,11.07,24.935,0.059,24.935,0.059l-0.01,17.223
		l2.209,0.04l0.023-11.637c1.645,1.822,6.38,7.504,8.583,10.147c0.686,0.822,1.213,1.455,1.479,1.771l0.078,0.069
		c0.105,0.068,0.246,0.146,0.404,0.146l0.221-0.027l0.105-0.111c0.182-0.192,0.167-0.471,0.138-1.025
		C38.153,16.389,38.14,0.988,38.14,0.988z"/>
	<path d="M68.624,7.842c-1.458-0.791-2.716-1.475-2.716-2.961c0-1.436,1.032-1.948,1.997-1.948c0.776,0,1.661,0.369,1.853,1.074
		l0.078,0.286l0.294-0.023c0.487-0.038,0.925-0.293,1.311-0.519c0.1-0.058,0.196-0.115,0.288-0.164l0.302-0.16L71.884,3.12
		c-0.736-1.551-2.327-2.515-4.151-2.515c-0.773,0-1.511,0.187-2.136,0.529h-2.494l-3.358,11.055
		c-0.048-0.136-0.098-0.267-0.146-0.388l-3.8-11.291l-4.563,12.039c-0.071-0.225-3.302-11.403-3.302-11.403l-3.288,0.025
		c-1.137,0.01-1.898,0.018-3.268,0.018l-2.512-0.005v16.79h8.677v-2.357h-6.342V9.773h7.006l0.264,0.839
		c0.087,0.288,0.296,0.903,0.556,1.673c0.646,1.91,2.179,5.467,2.194,6.113c0,0,4.185-11.563,4.351-12.155
		c0.485,1.284,1.258,3.777,1.764,5.56c0.128,0.445,0.384,1.229,0.672,2.112c0.543,1.664,1.288,3.943,1.337,4.505l4.542-11.607
		c0.751,1.568,2.333,2.456,3.753,3.252c0.476,0.267,0.925,0.519,1.318,0.782c0.701,0.472,1.189,1.224,1.338,2.063
		c0.143,0.808-0.032,1.604-0.493,2.238c-0.42,0.577-1.005,0.95-1.491,0.95c-2.345,0-2.405-0.124-3.418-2.208l-0.125-0.256
		l-0.277,0.064c-0.48,0.11-0.68,0.253-0.855,0.379c-0.145,0.103-0.259,0.185-0.603,0.263l-0.351,0.08l0.082,0.35
		c0.606,2.585,2.937,3.741,4.978,3.741c1.931,0,4.346-1.078,4.8-4.117C73.16,10.305,70.645,8.939,68.624,7.842z M45.883,7.418
		h-4.682V3.306c1.043-0.002,1.878-0.018,2.548-0.03c0.479-0.009,0.873-0.016,1.199-0.016c1.259,0,1.259,0,1.473,0.784
		c0.053,0.193,0.114,0.418,0.2,0.68l0.847,2.694H45.883z"/>
</g>
<rect x="0.021" opacity="0" fill-rule="evenodd" clip-rule="evenodd" fill="#141515" width="72.661" height="20"/>
</svg>
