<?xml version="1.0" encoding="UTF-8" standalone="no"?>
<svg width="110px" height="14px" viewBox="0 0 110 14" version="1.1" xmlns="http://www.w3.org/2000/svg" xmlns:xlink="http://www.w3.org/1999/xlink" xmlns:sketch="http://www.bohemiancoding.com/sketch/ns">
    <!-- Generator: Sketch 3.3.3 (12081) - http://www.bohemiancoding.com/sketch -->
    <title>adorocinema.com</title>
    <desc>Created with Sketch.</desc>
    <defs></defs>
    <g id="Page-1" stroke="none" stroke-width="1" fill="none" fill-rule="evenodd" sketch:type="MSPage">
        <g id="br-15" sketch:type="MSArtboardGroup" transform="translate(-27.000000, -111.000000)" fill="#000000">
            <g id="adorocinema.com" sketch:type="MSLayerGroup" transform="translate(27.000000, 111.000000)">
                <g id="Page-1" sketch:type="MSShapeGroup">
                    <g id="adorocinema.com">
                        <g id="Imported-Layers">
                            <path d="M6.87653202,0 C10.6712011,0 13.75,3.13464925 13.75,7.00143331 C13.75,10.868504 10.6712011,14 6.87653202,14 C3.07865963,14 0,10.868504 0,7.00143331 C0,3.13464925 3.07865963,0 6.87653202,0 L6.87653202,0 L6.87653202,0 Z M6.87653202,1.79034768 C9.70129447,1.79034768 11.991522,4.12520988 11.991522,7.00143331 C11.991522,9.8778001 9.70129447,12.2096523 6.87653202,12.2096523 C4.04856623,12.2096523 1.75833873,9.8778001 1.75833873,7.00143331 C1.75833873,4.12520988 4.04856623,1.79034768 6.87653202,1.79034768 L6.87653202,1.79034768 L6.87653202,1.79034768 Z" id="Fill-1"></path>
                            <path d="M9.41111126,7.01942628 L5.34722222,3.11111111 L5.34722222,10.8888889 L9.41111126,7.01942628" id="Fill-2"></path>
                            <path d="M22.2463897,0.948077892 L25.1009792,12.2741443 L22.7908743,12.2741443 L22.2239225,9.92916198 L19.2673138,9.92916198 L18.6879821,12.2741443 L16.8055556,12.2741443 L19.7423336,0.948077892 L22.2463897,0.948077892 L22.2463897,0.948077892 Z M19.7821096,7.84237277 L21.7216212,7.84237277 L20.7593163,3.87422837 L19.7821096,7.84237277 L19.7821096,7.84237277 Z M26.0882731,0.948077892 L28.885663,0.948077892 C30.0246102,0.948077892 30.872516,1.14359036 31.432017,1.53426513 C31.9915179,1.92505661 32.4912974,2.5389074 32.9339921,3.38573902 C33.3765722,4.22743477 33.5979194,5.29207312 33.5979194,6.58222196 C33.5979194,8.20071506 33.2124244,9.55599579 32.4391415,10.6432786 C31.6657442,11.7304446 30.6014201,12.2741443 29.2412402,12.2741443 L26.0882731,12.2741443 L26.0882731,0.948077892 L26.0882731,0.948077892 Z M28.1919324,3.03731829 L28.1919324,10.1521045 L29.0746852,10.1521045 C29.8579407,10.1521045 30.4373869,9.78885989 30.8153165,9.06750639 C31.1932462,8.34591948 31.3847901,7.49675341 31.3847901,6.52210917 C31.3847901,5.83822406 31.2753201,5.2019623 31.0590164,4.61810954 C30.8427127,4.03449023 30.5741385,3.62607345 30.2532938,3.39064141 C29.9325637,3.15520938 29.5446614,3.03731829 29.0970377,3.03731829 L28.1919324,3.03731829 L28.1919324,3.03731829 Z M38.4468129,12.4444444 C37.2134119,12.4444444 36.2585578,11.8707467 35.5822506,10.7283703 C34.9058288,9.58109141 34.5676752,8.1980304 34.5676752,6.57475163 C34.5676752,4.92135814 34.9108725,3.54343295 35.5971523,2.4361904 C36.281025,1.32883112 37.2558244,0.777777778 38.5239577,0.777777778 C39.8020637,0.777777778 40.7694122,1.36641621 41.4184379,2.54637773 C42.0698707,3.72633924 42.3956445,5.0791688 42.3956445,6.59984726 C42.3956445,8.24086799 42.0625346,9.62357892 41.3885199,10.750898 C40.7171417,11.8807849 39.7398205,12.4444444 38.4468129,12.4444444 L38.4468129,12.4444444 L38.4468129,12.4444444 Z M38.509056,2.93483474 C37.3875323,2.93483474 36.8256242,4.15716702 36.8256242,6.60486639 C36.8256242,9.05746816 37.3875323,10.2875042 38.509056,10.2875042 C39.595618,10.2875042 40.1402173,9.06248731 40.1402173,6.61233671 C40.1402173,4.15985166 39.595618,2.93483474 38.509056,2.93483474 L38.509056,2.93483474 L38.509056,2.93483474 Z M45.9615028,7.80735558 L45.9615028,12.2741443 L43.800644,12.2741443 L43.800644,0.948077892 L47.8338421,0.948077892 C48.5774362,0.948077892 49.1767131,1.05581401 49.6243368,1.26871834 C50.0768895,1.48162266 50.4498901,1.87253087 50.7457458,2.44377745 C51.0417162,3.01735851 51.1884405,3.65373699 51.1884405,4.35267948 C51.1884405,5.71554728 50.6562211,6.69497721 49.591897,7.28875149 L51.285416,12.2741443 L48.9155898,12.2741443 L47.503254,7.80735558 L45.9615028,7.80735558 L45.9615028,7.80735558 Z M45.9615028,2.98479255 L45.9615028,5.87079002 L47.2819067,5.87079002 C47.7121068,5.87079002 48.0277933,5.83577286 48.221859,5.75803477 C48.418332,5.68543253 48.5899307,5.51746689 48.7439912,5.26464301 C48.8981662,5.00644982 48.9729039,4.71090501 48.9729039,4.37765838 C48.9729039,4.06448827 48.8981662,3.7814329 48.7439912,3.53094349 C48.5899307,3.28535649 48.4257829,3.13011375 48.2467334,3.07245216 C48.0651621,3.0149073 47.7295304,2.98479255 47.237087,2.98479255 L45.9615028,2.98479255 L45.9615028,2.98479255 Z M56.7883787,12.4444444 C55.5549778,12.4444444 54.5976019,11.8707467 53.9212947,10.7283703 C53.2447583,9.58109141 52.9092411,8.1980304 52.9092411,6.57475163 C52.9092411,4.92135814 53.2498019,3.54343295 53.9361964,2.4361904 C54.6200691,1.32883112 55.5946392,0.777777778 56.8630018,0.777777778 C58.1409932,0.777777778 59.1084563,1.36641621 59.757482,2.54637773 C60.4088002,3.72633924 60.7346886,5.0791688 60.7346886,6.59984726 C60.7346886,8.24086799 60.401464,9.62357892 59.727564,10.750898 C59.0561858,11.8807849 58.0788646,12.4444444 56.7883787,12.4444444 L56.7883787,12.4444444 L56.7883787,12.4444444 Z M56.8479855,2.93483474 C55.7265764,2.93483474 55.1644391,4.15716702 55.1644391,6.60486639 C55.1644391,9.05746816 55.7265764,10.2875042 56.8479855,10.2875042 C57.9346621,10.2875042 58.4792613,9.06248731 58.4792613,6.61233671 C58.4792613,4.15985166 57.9346621,2.93483474 56.8479855,2.93483474 L56.8479855,2.93483474 L56.8479855,2.93483474 Z M67.4509922,4.73086479 C67.3018607,3.5333947 66.7797287,2.93483474 65.8771451,2.93483474 C65.220554,2.93483474 64.8873294,3.3029818 64.7182526,4.03939264 C64.5542194,4.75596042 64.3279431,9.15259808 64.5665993,9.52588101 C64.892373,10.0319957 65.3474475,10.2875042 65.9317082,10.2875042 C66.7672342,10.2875042 67.3167624,9.73131499 67.5804076,8.62407249 L69.5920203,9.78150623 C69.3633368,10.4328254 69.032634,10.9689381 68.5973902,11.3872764 C67.8664053,12.0912381 66.971158,12.4444444 65.9143993,12.4444444 C64.616348,12.4444444 63.5618819,11.9258403 62.7489377,10.893768 C61.9357643,9.85912768 62.0078655,8.43112791 62.0078655,6.60486639 C62.0078655,4.89883042 61.9232698,3.50082874 62.709047,2.41109477 C63.4948243,1.3213608 64.5690065,0.777777778 65.929301,0.777777778 C67.7842168,0.777777778 69.0027161,1.68705666 69.5796405,3.50584786 L67.4509922,4.73086479 L67.4509922,4.73086479 Z M70.6339919,0.948077892 L72.7800637,0.948077892 L72.7800637,12.2741443 L70.6339919,12.2741443 L70.6339919,0.948077892 L70.6339919,0.948077892 Z M81.9357733,0.948077892 L81.9357733,12.2741443 L80.0732915,12.2741443 L76.5297859,4.62324539 C76.5348299,4.81607321 76.5397585,4.94376911 76.5422801,5.00644982 C76.562226,5.19939437 76.5696769,5.36222416 76.5696769,5.49505591 L76.5696769,12.2741443 L74.8936956,12.2741443 L74.8936956,0.948077892 L77.216066,0.948077892 L80.311948,7.62701724 C80.2846665,7.29622182 80.2722869,7.04328121 80.2722869,6.87029645 L80.2722869,0.948077892 L81.9357733,0.948077892 L81.9357733,0.948077892 Z M90.196464,3.10513485 L85.8348562,3.10513485 L85.8348562,5.42992399 L89.2615556,5.42992399 L89.2615556,7.554415 L85.8348562,7.554415 L85.8348562,10.0319957 L90.196464,10.0319957 L90.196464,12.2741443 L83.6491226,12.2741443 L83.6491226,0.948077892 L90.196464,0.948077892 L90.196464,3.10513485 L90.196464,3.10513485 Z M95.8312499,10.7484467 L93.978626,5.8858474 L93.978626,12.2415784 L92.1384979,12.2741443 L92.1384979,0.948077892 L94.0830527,0.948077892 L96.4205535,7.72471511 L98.9021428,0.948077892 L100.787091,0.948077892 L100.787091,12.2741443 L98.9147515,12.2741443 L98.9147515,5.92098128 L97.1192139,10.7484467 L95.8312499,10.7484467 L95.8312499,10.7484467 Z M107.145411,0.948077892 L110,12.2741443 L107.692532,12.2741443 L107.125465,9.92916198 L104.168856,9.92916198 L103.587003,12.2741443 L101.704576,12.2741443 L104.641355,0.948077892 L107.145411,0.948077892 L107.145411,0.948077892 Z M104.68113,7.84237277 L106.620756,7.84237277 L105.660859,3.87422837 L104.68113,7.84237277 L104.68113,7.84237277 Z" id="Fill-3"></path>
                        </g>
                    </g>
                </g>
            </g>
        </g>
    </g>
</svg>