<?xml version="1.0" encoding="UTF-8" standalone="no"?>
<svg width="60px" height="20px" viewBox="0 0 60 20" version="1.1" xmlns="http://www.w3.org/2000/svg" xmlns:xlink="http://www.w3.org/1999/xlink" xmlns:sketch="http://www.bohemiancoding.com/sketch/ns">
    <!-- Generator: Sketch 3.3.3 (12081) - http://www.bohemiancoding.com/sketch -->
    <title>adrenaline.uol.com.br</title>
    <desc>Created with Sketch.</desc>
    <defs></defs>
    <g id="Page-1" stroke="none" stroke-width="1" fill="none" fill-rule="evenodd" sketch:type="MSPage">
        <g id="br" sketch:type="MSArtboardGroup" transform="translate(-27.000000, -108.000000)" fill="#000000">
            <g id="adrenaline.uol.com.br" sketch:type="MSLayerGroup" transform="translate(27.000000, 108.000000)">
                <g id="Page-1" sketch:type="MSShapeGroup">
                    <g id="adrenaline.uol.com.br">
                        <g id="Imported-Layers">
                            <path d="M0.0545454546,15.5142424 L0.0545454546,14.2745454 L3.28102117,14.2745454 L8.73848067,0.00196969697 L14.0858033,14.1840909 L15.9394521,14.1840909 L17.3555418,17.0218939 L20.5352428,11.2592424 L23.0101868,14.2277273 L29.7268244,14.2277273 L31.4501619,17.0218939 L37.9899377,0.132575757 L43.2035866,14.1840909 L59.9935741,14.1840909 L59.9935741,15.6014394 L42.361868,15.6014394 L37.9430884,3.63712121 L31.67066,19.9467424 L29.0187048,15.5142424 L22.3922541,15.5142424 L20.7122541,13.3431818 L17.3088418,19.6821213 L15.1445081,15.5142424 L13.24401,15.5142424 L8.6950685,3.36909091 L4.09920299,15.5142424 L0.0545454546,15.5142424" id="Fill-1"></path>
                            <path d="M17.4223412,9.95931817 C17.4223412,10.5120454 17.3322292,10.9945454 17.1552179,11.4033333 C16.9747696,11.8120454 16.7410461,12.1470454 16.4537484,12.4084091 C16.1665255,12.6697727 15.8391781,12.8640909 15.4817932,12.9913637 C15.1177584,13.1220454 14.7470735,13.1856818 14.362939,13.1856818 L12.0416937,13.1856818 L12.0416937,12.8540909 C12.1185056,12.8540909 12.2187048,12.8472728 12.3422914,12.8305303 C12.4625156,12.8138637 12.5460523,12.7937879 12.5861021,12.7702273 C12.6629141,12.7334091 12.7230635,12.6731061 12.7564632,12.5960606 C12.7931507,12.5190152 12.8098879,12.4218939 12.8098879,12.3146213 L12.8098879,7.60401515 C12.8098879,7.50007576 12.7965131,7.40636363 12.7631881,7.32590909 C12.733076,7.24219697 12.6729265,7.17507576 12.5827397,7.12825758 C12.4992777,7.07795454 12.4090909,7.04787879 12.3155417,7.02439394 C12.2187048,7.00424243 12.1352428,6.99090909 12.0650809,6.98416667 L12.0650809,6.65242424 L14.5165629,6.65242424 C14.8539227,6.65242424 15.1879203,6.71613637 15.5119053,6.83674243 C15.8391781,6.95742424 16.1264757,7.12159091 16.366924,7.32590909 C16.6976338,7.60068182 16.9547447,7.95568182 17.1418431,8.39803033 C17.3288667,8.840303 17.4223412,9.35954542 17.4223412,9.95931817 L17.4223412,9.95931817 L17.4223412,9.95931817 Z M16.4504607,9.95598483 C16.4504607,9.51712125 16.4003985,9.12166667 16.3001245,8.76659092 C16.2032877,8.41143942 16.0563138,8.10310606 15.8659277,7.83856061 C15.6855542,7.58719697 15.4617683,7.38962121 15.1979327,7.24886363 C14.9340972,7.10143939 14.6402242,7.03113637 14.3161644,7.03113637 C14.2093151,7.03113637 14.0890909,7.03113637 13.9521295,7.03780303 C13.8185305,7.04113637 13.718406,7.04787879 13.6515317,7.05113637 L13.6515317,12.0666667 C13.6515317,12.3448485 13.7216937,12.5390909 13.8620174,12.6463637 C13.9989041,12.7534848 14.2126775,12.8071213 14.5032627,12.8071213 C14.8372602,12.8071213 15.1277708,12.7401515 15.3750187,12.5993939 C15.6254794,12.4620454 15.8292403,12.2711363 15.9828642,12.0265152 C16.1465006,11.7684848 16.2633624,11.470303 16.3402491,11.1318939 C16.4136987,10.7935606 16.4504607,10.4015152 16.4504607,9.95598483 L16.4504607,9.95598483 L16.4504607,9.95598483 Z M23.4141967,13.1723485 L21.9045579,13.1723485 C21.5705604,12.5625 21.2700373,12.0365152 20.999477,11.5909848 C20.7289166,11.1453788 20.4383312,10.6863637 20.121071,10.2140152 L19.5499128,10.2140152 L19.5499128,12.2843939 C19.5499128,12.3916667 19.5632877,12.4854546 19.5900373,12.5658333 C19.6200747,12.6463637 19.6835118,12.7099243 19.777061,12.7501515 C19.8237609,12.7735606 19.9072977,12.7937879 20.0241594,12.8138637 C20.1444582,12.8305303 20.2445828,12.8406061 20.3248319,12.8439394 L20.3248319,13.1723485 L17.963462,13.1723485 L17.963462,12.8439394 C18.0268992,12.8372728 18.1170859,12.827197 18.2340224,12.8138637 C18.3542466,12.7971213 18.4377086,12.7735606 18.4844085,12.7501515 C18.5612952,12.7099243 18.6180822,12.6530303 18.6548443,12.5759091 C18.6881693,12.4988637 18.7081942,12.4017424 18.7081942,12.2843939 L18.7081942,7.56712121 C18.7081942,7.45659091 18.6948942,7.36280303 18.6681444,7.27893939 C18.6414695,7.19856061 18.5813201,7.13492424 18.4844085,7.09128788 C18.4176837,7.06454546 18.3341469,7.03780303 18.23066,7.01772728 C18.123736,6.99416667 18.0369116,6.97742424 17.963462,6.97416667 L17.963462,6.64242424 L20.5486177,6.64242424 C20.7823412,6.64242424 21.006127,6.67265152 21.2131756,6.72613637 C21.4236612,6.78310606 21.6106849,6.87704546 21.7776837,7.00090909 C21.9413201,7.12484848 22.0716314,7.28568182 22.1683935,7.48333333 C22.2653051,7.68106061 22.3153673,7.91893939 22.3153673,8.19704546 C22.3153673,8.45159092 22.2820423,8.67272725 22.2152428,8.86371208 C22.151731,9.05803033 22.0515317,9.22553033 21.9245828,9.369697 C21.8043587,9.50037875 21.6608219,9.61424242 21.4971856,9.71136367 C21.3301868,9.80856058 21.1464508,9.88893942 20.9459776,9.95598483 C21.2232627,10.3814394 21.4536987,10.7433333 21.6340722,11.0347728 C21.8177335,11.3262879 22.0448817,11.6780303 22.3087173,12.0968939 C22.4256538,12.2810606 22.5291407,12.4150757 22.6226899,12.502197 C22.7162391,12.5893939 22.8097883,12.6631061 22.9032627,12.7165909 C22.9700622,12.7569697 23.0568867,12.7870454 23.1604483,12.8071213 C23.2605728,12.8305303 23.347472,12.8406061 23.4141967,12.8439394 L23.4141967,13.1723485 L23.4141967,13.1723485 Z M21.3368368,8.30757576 C21.3368368,7.91227273 21.2399252,7.59719697 21.0428892,7.36606061 C20.8491407,7.13492424 20.5752927,7.02106061 20.2211955,7.02106061 L19.5499128,7.02106061 L19.5499128,9.81863633 L20.0642839,9.81863633 C20.4283188,9.81863633 20.7322789,9.68454542 20.9727272,9.41318183 C21.216538,9.14181817 21.3368368,8.77325758 21.3368368,8.30757576 L21.3368368,8.30757576 L21.3368368,8.30757576 Z M28.6613947,11.2625758 L28.5544707,13.1856818 L23.9052553,13.1856818 L23.9052553,12.8540909 C23.9853549,12.8472728 24.0889166,12.8372728 24.2225156,12.817197 C24.3528269,12.7971213 24.4395766,12.7735606 24.4797011,12.7534848 C24.5631632,12.7065909 24.6233126,12.6463637 24.6567123,12.5725758 C24.6901121,12.502197 24.7068493,12.4084091 24.7068493,12.2945454 L24.7068493,7.60401515 C24.7068493,7.50348485 24.6901121,7.4130303 24.6634371,7.33583333 C24.633325,7.2555303 24.5732503,7.19522728 24.4797011,7.145 C24.4095392,7.10484848 24.3127023,7.07128788 24.1924035,7.03780303 C24.0722541,7.00757576 23.9754172,6.99090909 23.9052553,6.98416667 L23.9052553,6.65242424 L28.2404982,6.65242424 L28.2404982,8.22719697 L27.9432627,8.22719697 C27.8898381,7.99590909 27.776264,7.74810606 27.6025405,7.48674243 C27.4288917,7.22545454 27.2618929,7.08128788 27.1049066,7.05787879 C27.0214446,7.04787879 26.924533,7.03780303 26.8110336,7.03113637 C26.7007472,7.02439394 26.5705853,7.02106061 26.4268992,7.02106061 L25.5484932,7.02106061 L25.5484932,9.61424242 L26.1764383,9.61424242 C26.3768368,9.61424242 26.5270984,9.59083333 26.6206476,9.547197 C26.7141221,9.50037875 26.7942964,9.42666667 26.8644582,9.32272725 C26.924533,9.23553033 26.9713076,9.11840908 27.0114322,8.96757575 C27.0514819,8.8201515 27.0782317,8.67946967 27.0915317,8.54878792 L27.3922042,8.54878792 L27.3922042,11.1018182 L27.0915317,11.1018182 C27.0815193,10.9543939 27.0547696,10.800303 27.0080697,10.6360606 C26.9612952,10.4718939 26.9145206,10.3512879 26.8644582,10.2776515 C26.7842839,10.1603788 26.6907347,10.0833333 26.5872478,10.0464394 C26.4836862,10.0096213 26.3467247,9.98946967 26.1764383,9.98946967 L25.5484932,9.98946967 L25.5484932,11.9494697 C25.5484932,12.1437121 25.5585056,12.297803 25.5818929,12.4117424 C25.6085678,12.5256818 25.6520548,12.612803 25.722142,12.6697727 C25.7890162,12.7267424 25.8824907,12.7668939 25.9993524,12.7837121 C26.1195766,12.8004546 26.2865753,12.8071212 26.5070735,12.8071212 L26.8477211,12.8071212 C26.9914072,12.8071212 27.1116314,12.8004546 27.2084682,12.790303 C27.3086675,12.7770454 27.4121544,12.7534848 27.5190784,12.7234091 C27.6226401,12.6898485 27.6994521,12.6463637 27.7428642,12.5927273 C27.8664508,12.445303 27.993325,12.2207576 28.1236363,11.9225758 C28.2572353,11.6243939 28.3440597,11.4033333 28.3807472,11.2625758 L28.6613947,11.2625758 L28.6613947,11.2625758 Z M35.0640597,6.98416667 C34.9906102,6.9875 34.8770361,7.01090909 34.7233375,7.05787879 C34.5730012,7.10143939 34.4627895,7.15166667 34.39599,7.2019697 C34.3025902,7.27893939 34.2390037,7.42310606 34.205604,7.64083333 C34.1722042,7.85856061 34.1588294,8.13666667 34.1588294,8.46840908 L34.1588294,13.2493939 L33.8149688,13.2493939 L30.418132,7.9055303 L30.418132,11.2726515 C30.418132,11.6512879 30.4381569,11.9393939 30.4816438,12.1403788 C30.5217683,12.3448485 30.5852055,12.4887879 30.6686675,12.5725758 C30.7287422,12.6430303 30.8557659,12.7033333 31.0461519,12.7636363 C31.236538,12.8205303 31.3633375,12.8507576 31.4234869,12.8540909 L31.4234869,13.1856818 L29.1255542,13.1856818 L29.1255542,12.8540909 C29.1957161,12.8472728 29.3159402,12.8205303 29.4830137,12.7668939 C29.6533001,12.7132576 29.7568617,12.6631061 29.8001992,12.6194697 C29.8904607,12.5357576 29.9538979,12.4050757 29.9872977,12.2274243 C30.0206974,12.0499243 30.040797,11.7517424 30.040797,11.3228788 L30.040797,8.10992424 C30.040797,7.96924243 30.017335,7.82848485 29.9772105,7.68765152 C29.933873,7.54704546 29.8770859,7.43643939 29.8068493,7.3594697 C29.7100872,7.25893939 29.5831382,7.17174243 29.4228642,7.10143939 C29.2592279,7.02772728 29.1289166,6.99090909 29.0287173,6.98416667 L29.0287173,6.65242424 L30.6252553,6.65242424 L33.7780572,11.627803 L33.7780572,8.52871208 C33.7780572,8.14681818 33.7548194,7.85522728 33.7146949,7.65098485 C33.6713574,7.44977273 33.611208,7.31242424 33.534396,7.2455303 C33.4575093,7.18856061 33.3373599,7.13159091 33.1702864,7.07462121 C33.0032129,7.02106061 32.8764134,6.99090909 32.7895143,6.98416667 L32.7895143,6.65242424 L35.0640597,6.65242424 L35.0640597,6.98416667 L35.0640597,6.98416667 Z" id="Fill-2"></path>
                            <path d="M45.4079701,11.1118182 L45.2911083,13.0516667 L40.9190287,13.0516667 L40.9190287,12.7234091 C40.9824658,12.7165909 41.0725778,12.7033333 41.1928768,12.6898485 C41.3097385,12.6764394 41.3932005,12.6530303 41.4400498,12.6295454 C41.5202242,12.5893939 41.5768618,12.5324242 41.6103363,12.4553787 C41.6471731,12.3783333 41.6638356,12.2810606 41.6638356,12.1605303 L41.6638356,7.49007576 C41.6638356,7.38621213 41.6471731,7.2925 41.6203487,7.2119697 C41.5870237,7.13492424 41.5268742,7.07128788 41.4400498,7.02106061 C41.3799003,6.98416667 41.2964383,6.94734848 41.1862267,6.91378788 C41.0793026,6.87704546 40.9891158,6.85681818 40.9190287,6.85015152 L40.9190287,6.52174243 L43.2803238,6.52174243 L43.2803238,6.85015152 C43.2068742,6.85348485 43.1100373,6.87022728 42.9931756,6.8969697 C42.8761644,6.92386363 42.7927023,6.94734848 42.739203,6.97075758 C42.6490909,7.00757576 42.5856538,7.07128788 42.5555418,7.15833333 C42.522142,7.24886363 42.5054794,7.34265152 42.5054794,7.44310606 L42.5054794,11.8287879 C42.5054794,12.0298485 42.5122043,12.1872727 42.5288667,12.3012121 C42.5488169,12.4117424 42.5856538,12.4988637 42.6490909,12.5591667 C42.712528,12.6161363 42.8027895,12.6530303 42.9196513,12.6697727 C43.0399502,12.6865152 43.2068742,12.6931818 43.4239352,12.6931818 C43.5207721,12.6931818 43.6210461,12.6898485 43.7279701,12.6832576 C43.831457,12.6798485 43.9316563,12.6664394 44.0252055,12.649697 C44.1186799,12.6295454 44.202142,12.6027272 44.2791033,12.5725757 C44.3558406,12.5390909 44.41599,12.4988637 44.4526775,12.4519697 C44.5596015,12.3079546 44.6865504,12.0968939 44.8267248,11.8086363 C44.970411,11.5206061 45.0705355,11.2893939 45.1273973,11.1118182 L45.4079701,11.1118182 L45.4079701,11.1118182 Z M48.3236862,13.0516667 L45.7986053,13.0516667 L45.7986053,12.7234091 C45.8722043,12.7165909 45.9756912,12.7065909 46.1093649,12.6931818 C46.2429639,12.6832576 46.3364383,12.6631061 46.3932254,12.6395454 C46.4801245,12.5993939 46.5434869,12.5457576 46.5836114,12.4754546 C46.6203736,12.4050757 46.6403238,12.3112879 46.6403238,12.1872727 L46.6403238,7.46333333 C46.6403238,7.35613637 46.6269489,7.26560606 46.5969863,7.19189394 C46.5703113,7.12159091 46.5,7.06121212 46.3932254,7.01090909 C46.3130511,6.97416667 46.2127771,6.94068182 46.0925529,6.91045454 C45.9756912,6.87704546 45.8755667,6.85681818 45.7986053,6.85015152 L45.7986053,6.52174243 L48.3236862,6.52174243 L48.3236862,6.85015152 C48.2435866,6.85348485 48.1467497,6.86348485 48.0331756,6.88371213 C47.9195268,6.90712121 47.8194023,6.9305303 47.7358655,6.96075758 C47.6355915,6.99757576 47.5689415,7.05787879 47.5355418,7.13825758 C47.5020673,7.2219697 47.4820423,7.31590909 47.4820423,7.41636363 L47.4820423,12.1370454 C47.4820423,12.2409091 47.5020673,12.3280303 47.5387547,12.4050757 C47.5788792,12.4854546 47.6423163,12.5491667 47.7358655,12.5927272 C47.7927273,12.6194697 47.879477,12.6463637 48.0064259,12.6731061 C48.1333748,12.7033333 48.2368618,12.7200757 48.3236862,12.7234091 L48.3236862,13.0516667 L48.3236862,13.0516667 Z M54.5426899,6.85015152 C54.4691657,6.85348485 54.3590287,6.88022728 54.2054047,6.92386363 C54.0550685,6.97075758 53.9448567,7.01439394 53.8779826,7.06787879 C53.7811457,7.14159091 53.721071,7.28901515 53.6877459,7.51015152 C53.6543462,7.72787879 53.637609,8.00265152 53.637609,8.33772725 L53.637609,13.1187121 L53.2968867,13.1187121 L49.9001245,7.77151515 L49.9001245,11.1420454 C49.9001245,11.5172728 49.9201494,11.8053787 49.9636363,12.0097727 C50.0037609,12.2108333 50.0671232,12.3547728 50.15066,12.4419697 C50.2107347,12.5055303 50.3377584,12.5693182 50.5280697,12.6295454 C50.7184557,12.6898485 50.8419676,12.7200757 50.9021917,12.7234091 L50.9021917,13.0516667 L48.6075467,13.0516667 L48.6075467,12.7234091 C48.6777833,12.7165909 48.7946451,12.6865152 48.9650062,12.6328787 C49.1320797,12.5792424 49.2387796,12.5290152 49.2789788,12.4887879 C49.372528,12.4017424 49.4358904,12.2711363 49.4693649,12.0934848 C49.5027647,11.9193182 49.5193524,11.6177273 49.5193524,11.192197 L49.5193524,7.97590909 C49.5193524,7.83515152 49.499477,7.69431818 49.45599,7.55371213 C49.4158655,7.4130303 49.3591532,7.30575758 49.2856289,7.22871213 C49.1920797,7.12825758 49.0652055,7.04113637 48.9015691,6.96742424 C48.737858,6.8969697 48.6075467,6.85681818 48.5074222,6.85015152 L48.5074222,6.52174243 L50.1072478,6.52174243 L53.2568368,11.4937121 L53.2568368,8.394697 C53.2568368,8.01613637 53.2367372,7.72121213 53.1933997,7.51681818 C53.1532752,7.31590909 53.0931257,7.17856061 53.0129514,7.11151515 C52.942939,7.05454546 52.8192777,6.99757576 52.6522789,6.94068182 C52.4853549,6.88704546 52.3583312,6.85681818 52.2715068,6.85015152 L52.2715068,6.52174243 L54.5426899,6.52174243 L54.5426899,6.85015152 L54.5426899,6.85015152 Z M59.6997011,11.1286363 L59.5927771,13.0516667 L54.9434869,13.0516667 L54.9434869,12.7234091 C55.0236613,12.7165909 55.1271482,12.7033333 55.2608219,12.6832576 C55.3910585,12.6631061 55.4778829,12.6430303 55.5180822,12.622803 C55.6014695,12.5759091 55.6616189,12.5156818 55.6950934,12.4419697 C55.725056,12.3682576 55.7451557,12.2744697 55.7451557,12.1605303 L55.7451557,7.47 C55.7451557,7.36939394 55.7284184,7.28234848 55.7017435,7.2019697 C55.6715567,7.12484848 55.6114819,7.06121212 55.5180822,7.01090909 C55.4444832,6.97075758 55.350934,6.93719697 55.2307098,6.90712121 C55.1105604,6.87356061 55.0137235,6.85681818 54.9434869,6.85015152 L54.9434869,6.52174243 L59.2788045,6.52174243 L59.2788045,8.09318182 L58.9782068,8.09318182 C58.9280698,7.8619697 58.8144957,7.61393939 58.6374844,7.35265152 C58.4638356,7.09128787 58.3001993,6.94734848 58.1397758,6.92386363 C58.0597509,6.91378788 57.9627647,6.90363637 57.84934,6.8969697 C57.7356912,6.89037879 57.6088169,6.88704546 57.4618431,6.88704546 L56.5833624,6.88704546 L56.5833624,9.4801515 L57.21467,9.4801515 C57.4151432,9.4801515 57.5654048,9.4601515 57.6555915,9.41318183 C57.7491408,9.369697 57.832528,9.29590908 57.9026899,9.19204542 C57.9627647,9.10166667 58.0095393,8.98431817 58.0496638,8.83356058 C58.0897883,8.68621208 58.116538,8.54545458 58.1299128,8.41477275 L58.4304358,8.41477275 L58.4304358,10.967803 L58.1299128,10.967803 C58.1197509,10.8203787 58.0897883,10.6662879 58.0463761,10.5020454 C57.9996763,10.3378787 57.9528269,10.2206818 57.9026899,10.1468939 C57.8225903,10.0263637 57.7290411,9.94924242 57.6255542,9.9123485 C57.5219178,9.87560608 57.3850312,9.85886367 57.21467,9.85886367 L56.5833624,9.85886367 L56.5833624,11.8154546 C56.5833624,12.0131061 56.5967373,12.167197 56.6201993,12.2777272 C56.6435118,12.3916667 56.6902864,12.4787879 56.7604483,12.5357576 C56.8272478,12.5960606 56.920797,12.6328787 57.0376588,12.649697 C57.1579577,12.6664394 57.324807,12.6764394 57.5453051,12.6764394 L57.8860274,12.6764394 C58.0263512,12.6764394 58.1465006,12.6697727 58.2434122,12.6562879 C58.3435368,12.6430303 58.4470984,12.622803 58.5539477,12.5893939 C58.6608718,12.5591667 58.7376837,12.5123485 58.7811706,12.4587121 C58.9013201,12.3112879 59.028269,12.0901515 59.1619428,11.7885606 C59.295467,11.4903787 59.378929,11.2693182 59.4157659,11.1286363 L59.6997011,11.1286363 L59.6997011,11.1286363 Z" id="Fill-3"></path>
                            <path d="M10.9161146,9.724697 L10.3763387,9.724697 C10.2947447,8.90681817 9.64490658,8.25719697 8.82859275,8.17840909 L8.82859275,7.45992424 L8.46792033,7.45992424 L8.46792033,8.18136363 C7.66423412,8.27159091 7.02762142,8.91575758 6.94692403,9.724697 L6.47402242,9.724697 L6.47402242,10.0866667 L6.94849315,10.0866667 C7.03486924,10.8893182 7.66864259,11.5269697 8.46792033,11.6166667 L8.46792033,12.2141667 L8.82859275,12.2141667 L8.82859275,11.6196212 C9.64042342,11.5412879 10.2874969,10.8982576 10.3747696,10.0866667 L10.9161146,10.0866667 L10.9161146,9.724697 L10.9161146,9.724697 Z M9.907472,9.724697 L9.162665,9.724697 C9.10924033,9.56727275 8.98557908,9.44674242 8.82859275,9.39310608 L8.82859275,8.64825758 C9.389589,8.7226515 9.83043583,9.165 9.907472,9.724697 L9.907472,9.724697 L9.907472,9.724697 Z M8.46792033,8.65242425 L8.46792033,9.40318183 C8.32430884,9.4601515 8.21409713,9.57727275 8.16067247,9.724697 L7.41586551,9.724697 C7.4920797,9.17416667 7.92186799,8.7375 8.46792033,8.65242425 L8.46792033,8.65242425 L8.46792033,8.65242425 Z M7.41788294,10.0866667 L8.16732254,10.0866667 C8.21745953,10.2273485 8.3309589,10.3412121 8.46792033,10.3948485 L8.46792033,11.1456061 C7.92627647,11.0612121 7.49917808,10.6308333 7.41788294,10.0866667 L7.41788294,10.0866667 L7.41788294,10.0866667 Z M8.82859275,11.1497727 L8.82859275,10.4049242 C8.98229142,10.3546212 9.10251558,10.2374242 9.15930258,10.0866667 L9.90545458,10.0866667 C9.8233375,10.6400757 9.38510583,11.0759848 8.82859275,11.1497727 L8.82859275,11.1497727 L8.82859275,11.1497727 Z" id="Fill-4"></path>
                            <path d="M40.0573599,9.724697 L39.520797,9.724697 C39.4391283,8.90568183 38.7876463,8.25545454 37.9698381,8.17818182 L37.9698381,7.45992424 L37.6123786,7.45992424 L37.6123786,8.18136363 C36.8086924,8.27159091 36.1720797,8.91575758 36.0913823,9.724697 L35.615193,9.724697 L35.615193,10.0866667 L36.0929514,10.0866667 C36.1793275,10.8892424 36.8131756,11.5268939 37.6123786,11.6166667 L37.6123786,12.2141667 L37.9698381,12.2141667 L37.9698381,11.6198485 C38.7832378,11.5429546 39.4318058,10.8993939 39.5193026,10.0866667 L40.0573599,10.0866667 L40.0573599,9.724697 L40.0573599,9.724697 Z M39.0519302,9.724697 L38.3071232,9.724697 C38.2537733,9.56727275 38.1268244,9.44674242 37.9698381,9.39310608 L37.9698381,8.647803 C38.5300872,8.72113633 38.9743711,9.16409092 39.0519302,9.724697 L39.0519302,9.724697 L39.0519302,9.724697 Z M37.6123786,8.6523485 L37.6123786,9.40318183 C37.4687671,9.4601515 37.3552677,9.57727275 37.3052055,9.724697 L36.5603985,9.724697 C36.6361644,9.17393942 37.0642341,8.73712125 37.6123786,8.6523485 L37.6123786,8.6523485 L37.6123786,8.6523485 Z M36.5624159,10.0866667 L37.3085678,10.0866667 C37.3618431,10.2273485 37.4722043,10.3412121 37.6123786,10.3948485 L37.6123786,11.1456818 C37.0686426,11.0615909 36.6431881,10.6311363 36.5624159,10.0866667 L36.5624159,10.0866667 L36.5624159,10.0866667 Z M37.9698381,11.1502272 L37.9698381,10.4049242 C38.1233873,10.3546212 38.2470486,10.2374242 38.3005479,10.0866667 L39.0499128,10.0866667 C38.9671232,10.6409091 38.525604,11.0774242 37.9698381,11.1502272 L37.9698381,11.1502272 L37.9698381,11.1502272 Z" id="Fill-5"></path>
                        </g>
                    </g>
                </g>
            </g>
        </g>
    </g>
</svg>