<?xml version="1.0" encoding="utf-8"?>
<!-- Generator: Adobe Illustrator 16.0.0, SVG Export Plug-In . SVG Version: 6.00 Build 0)  -->
<!DOCTYPE svg PUBLIC "-//W3C//DTD SVG 1.1//EN" "http://www.w3.org/Graphics/SVG/1.1/DTD/svg11.dtd">
<svg version="1.1" id="Слой_1" xmlns="http://www.w3.org/2000/svg" xmlns:xlink="http://www.w3.org/1999/xlink" x="0px" y="0px"
	 width="55.756px" height="20px" viewBox="0 0 55.756 20" enable-background="new 0 0 55.756 20" xml:space="preserve">
<g>
	<path fill-rule="evenodd" clip-rule="evenodd" d="M20.732,19.999h3.554c0.166-1.911,0.449-3.864,0.581-5.797l0.627-5.852
		l0.594,6.576c0.138,1.084,0.379,4.567,0.497,5.072c0.358,0,3.105,0.028,3.209-0.013c0.207-0.076,0.083-0.015,0.166-0.63l1.2-10.74
		C31.25,7.907,32.099,0.533,32.099,0h-2.872c-0.152,1.789-0.317,3.674-0.455,5.456l-0.462,5.565c0-0.504-0.089-0.895-0.117-1.365
		c-0.028-0.424-0.083-0.936-0.145-1.386c-0.131-0.929-0.152-1.803-0.276-2.745L27.219,0h-3.505l-0.746,8.296
		c-0.041,0.935-0.228,1.843-0.228,2.84c-0.152-0.17-0.158-0.923-0.172-1.304L21.705,0h-3.333c0,0.362,0.083,0.847,0.131,1.236
		l0.745,6.254c0.456,3.653,0.856,7.586,1.325,11.238C20.615,19.043,20.718,19.679,20.732,19.999L20.732,19.999z"/>
	<path fill-rule="evenodd" clip-rule="evenodd" d="M14.127,16.756h-0.573V3.353c0.725,0,1.091-0.15,1.325,0.615
		c0.208,0.669,0.111,9.745,0.111,11.143C14.99,15.896,14.907,16.756,14.127,16.756L14.127,16.756z M10.048,19.999l4.956,0.015
		c0.87-0.124,1.594-0.287,2.236-0.908c0.87-0.834,1.249-1.646,1.249-2.971V4.206c0-2.321-1.69-4.206-4.017-4.206h-4.424V19.999z"/>
	<path fill-rule="evenodd" clip-rule="evenodd" d="M46.97,19.999h3.383v-6.705c0-0.17,0.441-1.167,0.538-1.454l0.214-0.478
		l1.145,8.637h3.505c0-0.374-1.719-9.565-1.911-10.556c-0.373-1.884-0.353-1.475,0.165-3.502L55.411,0h-3.389
		c-0.007,0.293-0.131,0.731-0.186,1.065c-0.179,1.031-1.422,6.938-1.422,7.457L50.353,0H46.97V19.999z"/>
	<path fill-rule="evenodd" clip-rule="evenodd" d="M4.596,4.944l0.801,7.723H3.851l0.656-6.733C4.548,5.626,4.596,5.244,4.596,4.944
		L4.596,4.944z M0,19.999h3.099c0-0.362,0.035-0.703,0.083-1.058l0.325-3.265h2.236l0.186,2.145
		c0.042,0.327,0.069,0.703,0.111,1.086c0.035,0.313,0.103,0.729,0.103,1.092h3.561l-0.29-2.498c-0.2-2.349-0.628-5.02-0.863-7.498
		C8.378,8.221,7.405,0.881,7.405,0H2.243c0,0.423-0.083,0.826-0.124,1.243L1.69,4.964C1.456,6.657,1.36,8.283,1.125,9.977
		c-0.331,2.403-0.538,5.019-0.855,7.503L0,19.999z"/>
	<path fill-rule="evenodd" clip-rule="evenodd" d="M39.731,0.17v19.829h6.777v-3.298h-3.326v-5.285h2.637V8.125h-2.637V3.469
		c0-0.137,0.035-0.17,0.166-0.17h3.161V0h-6.604C39.773,0,39.731,0.041,39.731,0.17L39.731,0.17z"/>
	<polygon fill-rule="evenodd" clip-rule="evenodd" points="32.554,19.999 39.331,19.999 39.331,16.701 36.005,16.701 36.005,11.416 
		38.586,11.416 38.586,8.125 36.005,8.125 36.005,3.298 39.331,3.298 39.331,0 32.554,0 	"/>
</g>
<rect opacity="0" fill-rule="evenodd" clip-rule="evenodd" fill="#141515" width="55.756" height="20"/>
</svg>
