<?xml version="1.0" encoding="utf-8"?>
<!-- Generator: Adobe Illustrator 16.0.0, SVG Export Plug-In . SVG Version: 6.00 Build 0)  -->
<!DOCTYPE svg PUBLIC "-//W3C//DTD SVG 1.1//EN" "http://www.w3.org/Graphics/SVG/1.1/DTD/svg11.dtd">
<svg version="1.1" id="Слой_1" xmlns="http://www.w3.org/2000/svg" xmlns:xlink="http://www.w3.org/1999/xlink" x="0px" y="0px"
	 width="46.367px" height="20px" viewBox="0 0 46.367 20" enable-background="new 0 0 46.367 20" xml:space="preserve">
<g>
	<path fill-rule="evenodd" clip-rule="evenodd" d="M0.342,7.708l2.524-0.026C3.129,7.11,2.997,6.351,4.699,6.317
		C5.144,6.31,5.717,6.363,6.044,6.574c0.418,0.27,1.047,1.445-0.473,1.704C3.42,8.646,0.702,8.492,0.12,10.867
		c-0.749,3.05,2.136,4.345,4.685,3.481c0.215-0.072,0.391-0.176,0.581-0.24c-0.125-0.222-0.343-0.348-0.49-0.55
		c0.626,0.061,1.101-0.009,1.424-0.354c0.187-0.199,0.582-0.921,0.425-1.305c-0.248,0.313-0.209,0.456-0.658,0.641
		c-1.071,0.438-2.171-0.788-1.213-1.872l0.308-0.315C5.685,9.86,6.575,9.601,6.858,8.02C6.899,7.789,6.879,7.6,7.001,7.473
		c0.361,0.514,0.774,1,0.736,1.918c-0.051,1.243,1.967,1.491,0.499,2.052c0.216,0.664,0.562,0.694-0.243,0.862L7.81,12.37
		c0.147,0.162,0.294,0.195,0.542,0.219C8.347,12.903,8.158,12.963,8,13.085c-0.059,0.433,0.311,0.537-0.118,0.897
		c-0.303,0.254-0.602,0.091-0.963,0.025c0.315,0.429,0.615,0.328,1.229,0.336c0.368,0.005,1.213,0.034,1.532-0.024
		c0.063-0.914-0.549,0.337-0.575-2.233C9.094,11.148,9.148,7.065,9.031,6.5C8.872,5.732,8.32,5.167,7.759,4.875
		c-1.34-0.699-3.298-0.761-4.89-0.373C1.359,4.872,0.447,5.995,0.342,7.708L0.342,7.708z"/>
	<g>
		<path d="M31.361,5.778c-0.768,0-1.594,0.257-2.056,0.641c-0.453,0.377-0.582,0.554-0.759,0.917
			c-0.121-0.305-0.241-0.487-0.637-0.881c-0.429-0.427-1.086-0.673-1.802-0.673c-1.062,0-2.049,0.521-2.617,1.37l-0.014-1.148
			l-0.794-0.03L22.66,6.206c-0.044,0.43-0.035,3.871-0.022,7.061l0.004,1.633l0.842-0.029v-4.182c0-1.538,0.131-3.235,1.696-3.911
			c0.411-0.176,1.051-0.194,1.562-0.048c0.824,0.237,1.242,1.02,1.242,2.326v5.844l0.842-0.029v-0.241
			c0-0.571-0.008-1.158-0.015-1.749c-0.016-1.227-0.033-2.495,0.019-3.67c0.068-1.544,1.044-2.582,2.427-2.582
			c1.393,0,2.068,0.747,2.068,2.283v5.988l0.842-0.029v-2.719c0-1.032,0.002-2.064,0-3.096C34.158,6.015,32.017,5.778,31.361,5.778z
			"/>
		<path d="M45.517,5.992l-2.857,7.507c-0.127-0.309-0.264-0.621-0.398-0.928c-0.086-0.195-0.172-0.389-0.252-0.576l-2.092-4.94
			l-0.273-0.652c-0.121-0.305-0.201-0.42-0.613-0.42l0,0h-0.367l0.053,0.293c0.047,0.267,0.262,0.745,0.453,1.166
			c0.074,0.166,0.143,0.316,0.188,0.428c0.104,0.253,0.209,0.498,0.316,0.742c0.105,0.245,0.213,0.49,0.316,0.745
			c0.416,1.003,0.834,1.984,1.268,2.98c0.172,0.395,0.328,0.765,0.492,1.153l0.139,0.331c0.072,0.169,0.133,0.297,0.182,0.399
			c0.145,0.307,0.145,0.307-0.068,0.84l-0.029,0.077c-0.07,0.177-0.131,0.34-0.188,0.49c-0.379,1.02-0.48,1.294-1.9,1.294h-0.25
			v0.836h0.25c1.971,0,2.189-0.565,2.719-1.932l0.49-1.253c0.986-2.51,3.039-7.733,3.188-8.271l0.086-0.319L45.517,5.992z"/>
		<path d="M14.508,5.982h-1.801l-0.001-0.333c-0.004-1.113-0.007-1.727,0.187-1.92c0.141-0.142,0.561-0.146,1.36-0.119l0.483,0.017
			l0.013-0.765l-0.189-0.05c-0.4-0.107-1.036-0.12-1.493-0.035c-1.312,0.241-1.265,1.499-1.22,2.716
			c0.006,0.161,0.012,0.324,0.015,0.489l-1.43,0.001l-0.017,0.834l1.45,0.011v8.077l0.84-0.041l0.018-8.043h1.83L14.508,5.982z"/>
		<polygon points="35.484,6.002 35.482,14.877 36.324,14.896 36.287,5.972 		"/>
		<path d="M38.465,2.715l-0.822-0.036l0.014,12.212h0.129h0.664c0,0,0.094-11.348,0.035-11.948L38.465,2.715z"/>
		<polygon points="36.322,2.715 35.496,2.725 35.48,4.866 36.324,4.899 		"/>
		<path d="M22.282,14.058v-0.031l-0.163,0.026l-0.712-0.022c-0.138-0.022-0.169-0.038-0.169-0.458l0.001-3.269
			c0-0.246,0.006-0.485,0.011-0.716c0.03-1.246,0.055-2.321-0.846-3.124c-0.479-0.428-1.313-0.683-2.23-0.683
			c-0.565,0-1.103,0.094-1.556,0.272c-1.169,0.458-1.956,1.613-1.913,2.807l0.009,0.241h0.765l0.039-0.203
			c0.192-1.009,0.396-1.698,1.438-2.071c0.385-0.139,0.857-0.218,1.296-0.218c0.722,0,1.956,0.203,2.114,1.566
			c0.084,0.72,0,1.072-0.297,1.256c-0.392,0.24-1.161,0.278-1.975,0.318c-1.062,0.052-2.16,0.105-2.893,0.594
			c-0.451,0.301-0.778,0.746-0.921,1.253c-0.271,0.95-0.166,1.781,0.303,2.401c0.527,0.698,1.483,1.098,2.624,1.098
			c0.5,0,1.002-0.081,1.454-0.234c0.498-0.169,0.943-0.416,1.327-0.734c0.184-0.154,0.31-0.293,0.406-0.422
			c0.004,0.383,0.045,0.658,0.252,0.867c0.227,0.229,0.611,0.298,1.14,0.313l0.388,0.007h0.11v-0.39l0.052-0.442L22.282,14.058z
			 M20.401,10.204v0.034c0.012,1.094,0.023,2.039-0.564,2.789c-0.356,0.455-1.151,1.218-2.465,1.218C15,14.245,15,12.942,15,12.515
			c0-1.671,1.216-1.845,3.072-1.92c0.337-0.014,0.667-0.027,0.972-0.059C19.47,10.492,19.989,10.414,20.401,10.204z"/>
	</g>
</g>
<rect x="0.038" opacity="0" fill-rule="evenodd" clip-rule="evenodd" width="46.329" height="20"/>
</svg>
