<?xml version="1.0" encoding="UTF-8" standalone="no"?>
<svg width="21px" height="20px" viewBox="0 0 21 20" version="1.1" xmlns="http://www.w3.org/2000/svg" xmlns:xlink="http://www.w3.org/1999/xlink" xmlns:sketch="http://www.bohemiancoding.com/sketch/ns">
    <!-- Generator: Sketch 3.5.1 (25234) - http://www.bohemiancoding.com/sketch -->
    <title>ahaber.com.tr</title>
    <desc>Created with Sketch.</desc>
    <defs></defs>
    <g id="logotypes" stroke="none" stroke-width="1" fill="none" fill-rule="evenodd" sketch:type="MSPage">
        <g id="ukraine" sketch:type="MSArtboardGroup" transform="translate(-42.000000, -1927.000000)" fill="#000000">
            <g id="ahaber.com.tr" sketch:type="MSLayerGroup" transform="translate(42.000000, 1927.000000)">
                <g id="Слой_1" sketch:type="MSShapeGroup">
                    <g id="Group">
                        <path d="M6.18199429,12.8939656 C5.81557788,13.1388399 5.42231354,13.3761018 5,13.604248 C5,17.9762325 5,19.7202013 5,19.7202013 L21,19.7202013 L21,1.00020197 L13.005127,1.00020197 C12.3978346,1.00020197 12.0853296,1.41912985 11.866341,2.1195365 L19.8222083,2.1195365 L19.8222083,18.7528471 L6.18199429,18.7528471 L6.18199429,12.8939656 Z" id="Rectangle-path"></path>
                        <path d="M7.32038889,14.5856667 L8.57272217,14.5856667 L8.57272217,15.8553086 L9.94316167,15.8553086 L9.94316167,14.5856667 L11.2005857,14.5856667 L11.2005857,18.2215058 L9.94316167,18.2215058 L9.94316167,16.7492506 L8.57272217,16.7492506 L8.57272217,18.2215058 L7.32038889,18.2215058 L7.32038889,14.5856667 L7.32038889,14.5856667 Z M11.7412272,14.5856667 L13.9587734,14.5856667 C14.3283645,14.5856667 14.6114121,14.6732282 14.8099528,14.8463149 C15.0074753,15.0194016 15.1062365,15.2352509 15.1062365,15.4918265 C15.1062365,15.7066577 15.0349655,15.8909441 14.8944598,16.0436677 C14.7997712,16.1475197 14.66232,16.2279541 14.481088,16.2880254 C14.7570086,16.3511511 14.9586037,16.4580576 15.0889278,16.6107812 C15.2182338,16.7635048 15.2823777,16.9559365 15.2823777,17.1870581 C15.2823777,17.3754172 15.2365606,17.5454495 15.1439083,17.6951186 C15.051256,17.8458058 14.9250045,17.9649302 14.7641357,18.0524917 C14.6643563,18.1074722 14.5146872,18.1471803 14.3141103,18.1705979 C14.0473531,18.2041971 13.8701937,18.2215058 13.7836504,18.2215058 L11.7412272,18.2215058 L11.7412272,14.5856667 L11.7412272,14.5856667 Z M12.9334892,16.013123 L13.4496948,16.013123 C13.6339813,16.013123 13.7643054,15.9835964 13.8355764,15.9235251 C13.9078656,15.8614176 13.9445192,15.7748742 13.9445192,15.6598224 C13.9445192,15.5539341 13.9068474,15.4714634 13.8355764,15.4124103 C13.7643054,15.3533571 13.6370358,15.3228124 13.4578401,15.3228124 L12.9334892,15.3228124 L12.9334892,16.013123 L12.9334892,16.013123 Z M12.9334892,17.4395611 L13.5372564,17.4395611 C13.7419059,17.4395611 13.8854661,17.4049438 13.968955,17.3367272 C14.053462,17.2685107 14.0952065,17.1758584 14.0952065,17.0608067 C14.0952065,16.9539002 14.053462,16.8673568 13.9709913,16.8021948 C13.8875024,16.7370327 13.7429241,16.7024154 13.53522,16.7024154 L12.9345073,16.7024154 L12.9345073,17.4395611 L12.9334892,17.4395611 Z M15.6702956,18.222524 L15.6702956,14.5866848 L17.5813765,14.5866848 C17.9356952,14.5866848 18.206525,14.6162114 18.3928477,14.6762827 C18.5812068,14.7363539 18.7318941,14.8473331 18.8469458,15.0082019 C18.9619976,15.1690707 19.0179962,15.3665932 19.0179962,15.5977149 C19.0179962,15.79931 18.9742155,15.9734148 18.8866539,16.1210476 C18.7990924,16.2686804 18.6779317,16.3867866 18.52419,16.4774026 C18.4264469,16.5354376 18.291032,16.583291 18.1220179,16.6219809 C18.258451,16.6667799 18.3572122,16.7115788 18.4193198,16.7573958 C18.4610643,16.7848861 18.5231719,16.8500481 18.6036063,16.9488094 C18.6830225,17.0455343 18.7349485,17.1208779 18.7624388,17.1738221 L19.3203889,18.2245603 L18.0242749,18.2245603 L17.4113443,17.114769 C17.331928,16.972227 17.2647296,16.8775384 17.2036402,16.8357939 C17.1211695,16.7797953 17.0264809,16.7523051 16.9216107,16.7523051 L16.8208131,16.7523051 L16.8208131,18.2245603 L15.6702956,18.2245603 L15.6702956,18.222524 Z M16.8218313,16.0640308 L17.3054559,16.0640308 C17.3573819,16.0640308 17.4591976,16.0446858 17.6098849,16.0141411 C17.6862467,15.9978506 17.7483543,15.961197 17.7962077,15.9001075 C17.844061,15.8379999 17.869515,15.7687653 17.869515,15.689349 C17.869515,15.5712428 17.830825,15.4806268 17.7554814,15.417501 C17.6791196,15.3533571 17.5365776,15.3228124 17.3268372,15.3228124 L16.8228494,15.3228124 L16.8228494,16.0640308 L16.8218313,16.0640308 Z" id="Shape"></path>
                        <path d="M9.93172222,7.35088889 C9.49683333,10.9746111 6.64788889,11.8000556 5.60922222,10.7191667 C4.66555556,9.73961111 5.64722222,8.43494444 6.35127778,7.98844444 C7.41211111,7.31605556 8.55422222,7.35194444 9.93172222,7.35088889 L9.93172222,7.35088889 L9.93172222,7.35088889 Z M2.32644444,4.07761111 C2.40033333,4.46816667 2.17972222,4.1325 2.48794444,4.37844444 L7.08594444,4.34994444 C8.03911111,2.85105556 8.76322222,2.63994444 9.45144444,2.64838889 C10.3972222,2.66105556 11.0801667,3.44638889 10.4257222,5.10677778 C7.48177778,5.14688889 6.23094444,5.15638889 3.52555556,5.94594444 C2.58716667,6.56872222 2.014,6.63944444 1.32366667,7.43216667 C0.7695,8.06972222 0.266,8.94161111 0.0812777778,10.0277778 C-0.376833333,12.711 1.14527778,13.7570556 3.56777778,14.0072222 C7.44166667,14.0040556 7.638,12.7458333 8.99966667,11.9214444 L8.74527778,13.5966111 L13.7739444,13.6208889 C13.9206667,12.6666667 13.9037778,11.6607222 14.1117222,10.7065 C14.5487222,8.70094444 16.036,3.496 15.4448889,2.30427778 C13.9945556,-1.12944444 3.68177778,-0.874 2.32644444,4.07761111 L2.32644444,4.07761111 L2.32644444,4.07761111 Z" id="Shape"></path>
                    </g>
                </g>
            </g>
        </g>
    </g>
</svg>