<?xml version="1.0" encoding="UTF-8" standalone="no"?>
<svg width="200px" height="18px" viewBox="0 0 200 18" version="1.1" xmlns="http://www.w3.org/2000/svg" xmlns:xlink="http://www.w3.org/1999/xlink" xmlns:sketch="http://www.bohemiancoding.com/sketch/ns">
    <!-- Generator: Sketch 3.3 (11970) - http://www.bohemiancoding.com/sketch -->
    <title>aif.ru</title>
    <desc>Created with Sketch.</desc>
    <defs></defs>
    <g id="Page-1" stroke="none" stroke-width="1" fill="none" fill-rule="evenodd" sketch:type="MSPage">
        <g id="aif.ru" sketch:type="MSArtboardGroup" fill="#1A1918">
            <g id="Imported-Layers" sketch:type="MSLayerGroup">
                <path d="M76.8257677,7.34608443 C77.0567766,6.96802118 77.2219052,6.51840933 77.2817964,6.0783159 C77.340939,5.64453244 77.3432919,5.13567107 77.1011603,4.74819634 C76.8618093,4.36499956 76.5179696,4.03174777 76.0906031,3.86095088 C75.6561779,3.68726638 75.2180096,3.57828577 74.7556708,3.50973173 C74.4761072,3.46834262 74.1822125,3.44973357 73.8997613,3.44973357 C74.0654247,2.74098529 74.2319436,2.03255786 74.4002807,1.32445128 L72.3441941,1.32445128 C72.1197091,2.28431483 71.895224,3.24417839 71.6707389,4.20414889 C71.4820816,5.01086207 71.2941729,5.8176822 71.1045531,6.62418148 C70.8940783,7.51934114 70.6836035,8.4145008 70.4731286,9.30966046 C71.421014,9.30966046 72.3712521,9.33211966 73.3183888,9.29693358 C73.6081125,9.28613177 73.8938791,9.24795113 74.176972,9.18634874 L74.1922657,9.18634874 C75.0910616,8.96186366 75.9482545,8.54765179 76.5226754,7.79580323 C76.633688,7.65035316 76.7341127,7.50447529 76.8257677,7.34608443 L76.8257677,7.34608443 Z M75.3397171,5.92922957 C75.3049588,6.20718895 75.2095606,6.43627282 75.0856072,6.68375184 C74.9381251,6.89026956 74.7738521,7.03069305 74.5696873,7.17667787 C74.4406003,7.24106092 74.3121551,7.28351951 74.176972,7.33068384 C74.0921618,7.34351767 74.006496,7.35827657 73.9228622,7.37688562 C73.6230853,7.37688562 73.322239,7.38458592 73.0219273,7.38458592 L73.530147,5.19770125 C73.8002991,5.19770125 74.0838198,5.17267528 74.3527955,5.20262088 C74.6313966,5.23374292 74.8657209,5.29523836 75.1087081,5.43641049 C75.1575836,5.48517905 75.2167262,5.53266422 75.2550138,5.59041645 C75.2660295,5.61447989 75.2793981,5.63736688 75.2934083,5.65971914 L75.3089159,5.69822063 C75.3215358,5.7567215 75.3298778,5.81629187 75.3397171,5.87532749 L75.3397171,5.92922957 L75.3397171,5.92922957 Z" id="Fill-1" sketch:type="MSShapeGroup"></path>
                <path d="M17.9416947,15.6085043 C18.8307583,15.5055129 19.7550079,15.1924743 20.3798016,14.5235109 C20.7057809,14.1745377 20.9151862,13.7803252 21.071652,13.3328523 C21.2152839,12.9221698 21.2783836,12.4249658 21.2137867,11.9934283 C21.1764616,11.7440242 21.1012767,11.5191113 20.9833124,11.2963374 L20.9833124,11.2808298 C20.4655743,10.4756139 19.4991869,10.2118787 18.5944019,10.1365869 C17.978485,10.0853585 17.3659904,10.0872836 16.7481485,10.0872836 C16.9764837,9.04442797 17.2048189,8.00157231 17.4331542,6.95871666 C17.6104749,6.14879502 17.7893999,5.33908728 17.9678971,4.52937954 C18.1584795,3.66448633 18.348634,2.79937922 18.5415693,1.93502076 C18.6855221,1.29001384 18.8295818,0.645006918 18.9735346,0 L16.0692388,0 L16.0551216,0 C15.3945002,0.724148872 14.7338788,1.44819079 14.0733643,2.17233967 C13.5265362,2.77157259 12.9794942,3.37059162 12.4330939,3.97025233 C12.0157805,4.42831313 11.5983602,4.88648087 11.1810468,5.34454166 C10.3393614,6.26836354 9.49756912,7.19229237 8.65588376,8.11611425 C7.71623349,9.14741946 6.77669016,10.1787247 5.83703989,11.2101368 C5.12593875,11.9906476 4.41473066,12.7711584 3.70362951,13.5517761 C3.51636254,13.7573313 3.32898862,13.9628865 3.14172164,14.1684416 L4.11965951,10.0872836 L2.0713802,10.0872836 L0,17.8646917 L2.26388766,17.8646917 L5.99853226,13.7680261 L5.05909588,17.8646917 L7.16897757,17.8646917 L8.99394824,10.7187081 L10.8805213,8.63973452 L13.7824642,8.63973452 L14.7306704,8.63973452 L14.4226584,10.0872836 L12.8236701,10.0872836 C12.412025,10.0872836 12.0009147,10.1019356 11.5962212,10.1828957 C10.7264084,10.357008 9.85317317,10.7915401 9.3176816,11.5219989 C9.05212827,11.8842338 8.82293745,12.272671 8.7127804,12.7132992 C8.65855747,12.9305118 8.60476233,13.1716808 8.61738227,13.3974493 C8.62968135,13.6169078 8.6454028,13.8611784 8.72999913,14.0665196 C8.90838937,14.4997684 9.16399649,14.8574044 9.55607,15.1232786 C9.93787645,15.3822011 10.3748684,15.5162077 10.8245872,15.5983442 C11.1915278,15.665294 11.5694841,15.6624064 11.9411304,15.6624064 L13.1752101,15.6624064 L12.5283851,18.4268135 L14.7768721,18.4268135 L15.5392017,15.6624064 C16.3385354,15.6624064 17.1457833,15.696523 17.9416947,15.6085043 L17.9416947,15.6085043 Z M13.5448244,14.0529372 C12.9802429,14.0529372 12.4148057,14.0452369 11.8507588,14.0452369 C11.7243456,14.0223499 11.5991088,14.0038478 11.4734442,13.9759342 C11.4139808,13.9536889 11.3558008,13.9288768 11.2963374,13.9067385 L11.2501356,13.8758303 L11.1962335,13.8528364 C11.1567695,13.8195754 11.1124928,13.7935868 11.0730287,13.7603258 C11.0235115,13.6950872 10.9724971,13.6364794 10.9267231,13.5679253 L10.9113225,13.5216166 L10.8882216,13.4755218 C10.872821,13.4215127 10.8574204,13.3676106 10.8420198,13.3137085 C10.8071546,13.0355353 10.843731,12.7673082 10.9421237,12.5052842 C10.9729249,12.4513821 11.0037261,12.39748 11.0345272,12.3435779 C11.0616922,12.3109586 11.0868251,12.2780184 11.1115302,12.2433671 C11.2058589,12.1491454 11.303396,12.066795 11.4118419,11.9893642 C11.5699119,11.9102223 11.7207094,11.8343957 11.8911854,11.7830604 C12.0631587,11.7312973 12.2422976,11.7192121 12.4205809,11.7044532 L12.4513821,11.6967529 L14.076145,11.6967529 L13.5448244,14.0529372 L13.5448244,14.0529372 Z M15.1541868,6.96866287 L12.4205809,6.96866287 C12.6415367,6.75904365 12.8351136,6.51242021 13.0388507,6.28643785 C13.4820456,5.79490215 13.9252406,5.3034734 14.3684355,4.8119377 C14.9075633,4.21409511 15.4466911,3.61635947 15.985819,3.01851687 L15.1541868,6.96866287 L15.1541868,6.96866287 Z M17.5489795,14.0606375 C17.0081405,14.096893 16.466125,14.0838453 15.9242166,14.0838453 L16.4324362,11.6967529 L17.5087668,11.6967529 C17.7919667,11.6967529 18.0777333,11.6918332 18.3575108,11.7429547 L18.3960123,11.7583553 C18.5821028,11.7932205 18.7305474,11.8755709 18.8965317,11.9584561 C18.9358887,11.9884017 18.9694706,12.0236947 19.0043358,12.0586669 L19.0274367,12.0894681 L19.0582379,12.1201623 C19.0736385,12.14583 19.0890391,12.1716046 19.1044397,12.1972723 C19.1198403,12.2357738 19.1352409,12.2742752 19.1506415,12.3127767 C19.159946,12.3560909 19.1664699,12.3999398 19.1737424,12.4435749 L19.1737424,12.5899875 C19.1667907,12.6386491 19.1624058,12.6872037 19.1583418,12.7362931 C19.1429412,12.7978955 19.1302143,12.8583215 19.1198403,12.9209933 C19.0828361,13.0229153 19.0506446,13.1247304 19.0065817,13.2239787 C18.9656204,13.3162753 18.9034833,13.397984 18.8503299,13.4831151 C18.515153,13.8741191 18.0389109,13.9952919 17.5489795,14.0606375 L17.5489795,14.0606375 Z" id="Fill-2" sketch:type="MSShapeGroup"></path>
                <path d="M78.643038,1.32445128 C78.4463596,2.14795539 78.2495742,2.9714595 78.0528957,3.7949636 C77.7576107,5.03064756 77.4624326,6.26633151 77.1672545,7.50190852 C77.0234086,8.10413601 76.8822365,8.70679128 76.7411713,9.30966046 L78.9510499,9.30966046 L80.76062,1.32445128 L78.643038,1.32445128" id="Fill-3" sketch:type="MSShapeGroup"></path>
                <path d="M53.5170721,5.92922957 L53.8558852,4.35066845 L49.7131248,4.35066845 L50.1135403,2.81830912 L53.2464922,2.81830912 L54.933927,2.81830912 L55.2342386,1.32445128 L52.8333498,1.32445128 L48.9393518,1.32445128 L48.2653618,1.32445128 C48.0440852,2.23447679 47.8228086,3.14450231 47.601425,4.05452782 C47.3641061,5.03032671 47.1267872,6.00612561 46.8894683,6.9819245 C46.700811,7.75762259 46.5131162,8.53374847 46.3249937,9.30966046 L48.7235296,9.30966046 L52.645655,9.30966046 L53.4015676,9.30966046 L53.8326774,7.38458592 L48.9815965,7.38458592 L49.382012,5.92922957 L53.5170721,5.92922957" id="Fill-4" sketch:type="MSShapeGroup"></path>
                <path d="M25.0952717,9.30966046 L27.0896489,9.30966046 L28.7298124,2.99541598 L31.1631066,2.99541598 L32.4259555,6.24483485 L29.8694565,9.30966046 L32.2103471,9.30966046 L37.7160603,2.65660286 L36.2299028,9.30966046 L38.1626776,9.30966046 L39.2946214,4.86658843 L39.8336423,9.30966046 L41.9050225,9.30966046 C42.4450059,8.39717513 42.9849893,7.4846898 43.5248658,6.57231142 C43.8868867,5.96067246 44.2476243,5.34839181 44.6077202,4.73568336 C44.4029137,5.60314334 44.1998183,6.47113806 43.9928728,7.33806329 C43.8358723,7.99526235 43.6789787,8.6524614 43.5220851,9.30966046 L45.5471566,9.30966046 C45.764797,8.39439447 45.9823304,7.47923542 46.1998638,6.56407638 C46.4285199,5.6019669 46.657176,4.63996438 46.885939,3.67796185 C47.0724573,2.89317313 47.2614355,2.10891915 47.4492372,1.32445128 L44.5792719,1.32445128 L44.576919,1.32445128 C44.1452745,2.05180861 43.711705,2.77788256 43.2770659,3.50342176 C42.7103454,4.44980979 42.1436248,5.39609087 41.5769043,6.34237196 C41.573375,6.34836108 41.5697387,6.3543502 41.5662094,6.36033932 C41.4355182,5.30379425 41.304934,4.24724917 41.1742428,3.1907041 C41.0973468,2.56858417 41.0198091,1.9465712 40.9424852,1.32445128 L38.0159442,1.32445128 L36.5302144,1.32445128 L33.9968163,4.35836875 L32.6492641,1.32445128 L26.9664441,1.32445128 C26.7532956,2.23362121 26.5397193,3.14268418 26.3268916,4.05185411 C26.0858295,5.08219678 25.8446604,6.1124325 25.6034913,7.14277517 C25.4345126,7.86510592 25.2646782,8.58732971 25.0952717,9.30966046" id="Fill-5" sketch:type="MSShapeGroup"></path>
                <path d="M17.718386,9.30966046 L19.7358642,9.30966046 L20.3210868,6.96106952 L21.8315217,6.96106952 C22.2591021,6.96106952 22.6894632,6.95112331 23.1116962,6.87433422 C23.5585274,6.79316025 23.9939151,6.66161349 24.3919778,6.44055076 C24.8020186,6.21275027 25.1460722,5.90719816 25.4168661,5.52368054 C25.6834889,5.14604508 25.8334308,4.70905316 25.9445504,4.26468179 C26.053424,3.82918715 26.0671135,3.35219646 25.9643359,2.91584623 C25.7448774,1.98432405 24.8566694,1.50391101 23.9717768,1.37739083 C23.5779921,1.32102893 23.184956,1.32445128 22.7883907,1.32445128 L21.0269475,1.32445128 L19.5818582,1.32445128 C19.3698861,2.24805926 19.1513901,3.17016997 18.9350331,4.09270846 C18.7394242,4.92647964 18.5425318,5.75992996 18.3488479,6.59412893 C18.138694,7.49923481 17.92854,8.40444763 17.718386,9.30966046 L17.718386,9.30966046 Z M20.9833124,4.03495623 L21.1912205,3.01081658 C21.5278946,3.00739422 21.8646757,3.00407881 22.2013499,3.00065646 C22.477705,2.99798275 22.756413,2.98322384 23.0315918,3.01081658 C23.095547,3.02685886 23.160037,3.03327578 23.2240992,3.04931807 L23.2780013,3.07241896 C23.3502985,3.0883543 23.4199221,3.12418208 23.4859093,3.15712224 L23.5244108,3.18792343 L23.5706126,3.21102433 C23.6327498,3.25818865 23.6753153,3.32096747 23.7323189,3.37273059 C23.7631201,3.42395896 23.7938143,3.47540123 23.8247225,3.52673655 C23.8337061,3.55539877 23.8436524,3.58374015 23.8554167,3.61143983 C23.8621545,3.66117092 23.879694,3.70790745 23.8863249,3.7577455 L23.8863249,3.81164758 L23.8940251,3.86554967 L23.8940251,3.92715205 C23.8790523,4.03131998 23.8675019,4.13441841 23.8486789,4.23815854 C23.8300699,4.34050834 23.7880391,4.42991735 23.7554198,4.52777531 L23.7246186,4.5893777 C23.6195951,4.736432 23.5187426,4.86059931 23.3704049,4.9666923 L23.3088025,4.9974935 L23.3088025,5.0051938 C23.1946883,5.06230434 23.0802534,5.10433513 22.9622891,5.15149946 C22.84379,5.17299613 22.7249702,5.19930548 22.6080754,5.22850244 C22.3302229,5.24989216 22.0587874,5.26700393 21.7796516,5.26700393 L20.7292026,5.26700393 L20.9833124,4.03495623 L20.9833124,4.03495623 Z" id="Fill-6" sketch:type="MSShapeGroup"></path>
                <path d="M46.8177058,15.908816 C46.9788773,15.526047 47.0978041,15.1424224 47.1565189,14.7305634 C47.1565189,14.535917 47.1442198,14.3500403 47.1186591,14.1571051 C47.0928845,13.9633143 46.9965238,13.7638551 46.9102163,13.5909193 C46.7698998,13.4211919 46.6863729,13.2199146 46.5145065,13.0725395 C46.3338704,12.917571 46.1456409,12.7875215 45.935273,12.676295 C45.5397771,12.4672105 45.0556209,12.4050734 44.614458,12.4050734 L43.7914886,12.4050734 C43.9638897,11.6325837 44.1357561,10.8599872 44.3075155,10.0872836 L42.2438356,10.0872836 C42.0127197,11.0755955 41.7814969,12.0639074 41.550381,13.0522193 C41.3706004,13.8208587 41.1907129,14.5894982 41.0113601,15.3583516 C40.8163929,16.193727 40.6215325,17.0292094 40.4265653,17.8646917 C41.3711352,17.8646917 42.3203039,17.8947443 43.2640182,17.8596651 C43.7298862,17.8423394 44.1758618,17.7608446 44.6300725,17.6619172 C44.8496379,17.6141112 45.0721979,17.5190339 45.2745446,17.4232079 C45.4707953,17.3302696 45.6792381,17.2328395 45.8489655,17.0948758 C46.0492802,16.9321 46.2405043,16.7700729 46.4039217,16.5686887 C46.5692642,16.3649517 46.7056237,16.145814 46.8177058,15.908816 L46.8177058,15.908816 Z M45.1083465,14.7382637 C45.1083465,14.9992183 45.0435357,15.232794 44.9620409,15.4775993 C44.8847171,15.63214 44.7865383,15.7540614 44.6771298,15.8857151 C44.4767082,16.052341 44.2761796,16.1531935 44.0226045,16.2168279 L44.0147973,16.2245282 C43.6481775,16.2705161 43.2842315,16.2629227 42.9136546,16.2629227 L43.4218743,14.076145 C43.8523424,14.076145 44.3095476,14.0305849 44.7232247,14.1684416 C44.7511383,14.1824519 44.7785171,14.1964622 44.807928,14.2070501 C44.8445044,14.2288676 44.8825781,14.2492948 44.9157321,14.2762458 L44.93894,14.2994537 L44.9696342,14.3225546 C44.9827889,14.3422331 44.9984034,14.3605213 45.015943,14.3764566 C45.0479206,14.4364548 45.0727327,14.5040463 45.092839,14.5688571 C45.0980795,14.6047919 45.103213,14.6407266 45.1083465,14.6766613 L45.1083465,14.7382637 L45.1083465,14.7382637 Z" id="Fill-7" sketch:type="MSShapeGroup"></path>
                <path d="M46.8871154,17.0329526 L46.694501,17.8646917 L48.9044866,17.8646917 L50.6678549,10.0872836 L48.5426795,10.0872836 L46.8871154,17.0329526" id="Fill-8" sketch:type="MSShapeGroup"></path>
                <path d="M60.5628449,4.26596517 L57.2517167,4.26596517 L57.8985418,1.32445128 L55.7885531,1.32445128 C55.568346,2.27864656 55.3482458,3.23284184 55.1280387,4.18703712 C54.9387397,5.00733277 54.748799,5.82762842 54.5601417,6.64813796 C54.3561907,7.53527648 54.1522398,8.422415 53.9481819,9.30966046 L56.0658708,9.30966046 L56.8282003,6.02163315 L60.1393285,6.02163315 L59.4384944,9.30966046 L61.4329786,9.30966046 L63.2655426,1.32445128 L61.2404712,1.32445128 L60.5628449,4.26596517" id="Fill-9" sketch:type="MSShapeGroup"></path>
                <path d="M41.4120965,11.6967529 L41.8279126,10.0872836 L39.7825209,10.0872836 L35.7778311,10.0872836 L32.7873348,10.0872836 L32.6492641,10.0872836 L28.8992189,12.8209964 L29.4844416,10.0872836 L27.5516668,10.0872836 C27.3254705,11.0417997 27.0992743,11.9963159 26.873078,12.950832 C26.679715,13.7668497 26.4858172,14.5826535 26.2932028,15.3988851 C26.099198,16.220785 25.9051933,17.0427918 25.7112955,17.8646917 L27.8596787,17.8646917 L28.4218005,15.3003855 L29.4767413,14.5843647 L31.2786111,17.8646917 L33.704205,17.8646917 L31.147706,13.3292161 L33.342291,11.7274471 L36.4609117,11.7274471 L35.0594575,17.8646917 L37.0923362,17.8646917 L38.5553928,11.6967529 L41.4100645,11.6967529 L41.4120965,11.6967529" id="Fill-10" sketch:type="MSShapeGroup"></path>
                <path d="M71.4818677,2.96461479 L71.8128736,1.32445128 L69.5703756,1.32445128 L65.5210883,1.32445128 L63.9123677,1.32445128 L63.4888513,2.99541598 L66.3611694,2.99541598 L64.7826083,9.30966046 L67.0156948,9.30966046 L68.6866595,2.96461479 L71.4818677,2.96461479" id="Fill-11" sketch:type="MSShapeGroup"></path>
                <path d="M26.9433432,10.0872836 L24.5793517,10.0872836 C24.0174438,10.7172108 23.4558568,11.3473519 22.8934142,11.9767443 C22.2327928,12.7160799 21.5742034,13.4573405 20.9112291,14.194644 C20.2286832,14.9538721 19.5461374,15.7129931 18.8642332,16.4726489 C18.4483101,16.9361641 18.0332427,17.4003209 17.6182822,17.8646917 L19.8051668,17.8646917 L20.9756122,16.6633382 L23.2317995,16.6633382 L22.9699894,17.8646917 L25.0798711,17.8646917 C25.2758009,17.046642 25.4717307,16.2286992 25.6677674,15.4106495 C25.8962096,14.4574167 26.1248657,13.5042909 26.3532009,12.5510582 C26.5498794,11.7298 26.7465578,10.9085418 26.9433432,10.0872836 L26.9433432,10.0872836 Z M23.6091141,14.9923735 L22.5772742,14.9923735 C23.0649597,14.4738868 23.5526453,13.9554001 24.0403308,13.4369133 L23.6091141,14.9923735 L23.6091141,14.9923735 Z" id="Fill-12" sketch:type="MSShapeGroup"></path>
            </g>
        </g>
    </g>
</svg>