<?xml version="1.0" encoding="UTF-8" standalone="no"?>
<svg width="33px" height="20px" viewBox="0 0 33 20" version="1.1" xmlns="http://www.w3.org/2000/svg" xmlns:xlink="http://www.w3.org/1999/xlink" xmlns:sketch="http://www.bohemiancoding.com/sketch/ns">
    <!-- Generator: Sketch 3.5.1 (25234) - http://www.bohemiancoding.com/sketch -->
    <title>ain.ua</title>
    <desc>Created with Sketch.</desc>
    <defs>
        <rect id="path-1" x="0" y="0" width="33" height="20"></rect>
    </defs>
    <g id="feed" stroke="none" stroke-width="1" fill="none" fill-rule="evenodd" sketch:type="MSPage">
        <g id="screen" sketch:type="MSArtboardGroup" transform="translate(-23.000000, -52.000000)">
            <g id="ain.ua" sketch:type="MSLayerGroup" transform="translate(23.000000, 52.000000)">
                <mask id="mask-2" sketch:name="Mask" fill="white">
                    <use xlink:href="#path-1"></use>
                </mask>
                <use id="Mask" opacity="0.7" sketch:type="MSShapeGroup" xlink:href="#path-1"></use>
                <g mask="url(#mask-2)" id="Слой_1" fill="#000000" sketch:type="MSShapeGroup">
                    <g>
                        <g id="Group">
                            <path d="M33.0133333,18.5966667 L33.0133333,10.4888889 C32.9122222,10.28 32.8644444,9.92777778 32.7566667,9.65888889 C32.0733333,7.96222222 30.5066667,7.12222222 28.6222222,6.83111111 C27.0744444,6.59222222 20.7855556,6.39666667 20.6977778,8.63222222 C20.6511111,9.80111111 20.6511111,18.0777778 20.7166667,18.5022222 C20.9511111,20.0211111 22.5155556,19.8577778 23.3744444,19.8577778 C24.3377778,19.8577778 25.7311111,19.9044444 25.8488889,18.3444444 C25.9288889,17.2955556 25.8644444,11.8377778 25.8533333,10.3855556 C25.8511111,9.97222222 25.7911111,9.71444444 26.0822222,9.53666667 C26.5633333,9.24333333 27.7666667,9.19777778 27.8611111,10.3211111 C28.0233333,12.2455556 27.7388889,16.02 27.8611111,18.2933333 C27.9488889,19.92 29.4311111,19.8577778 30.3077778,19.8577778 C30.8955556,19.8577778 31.6144444,19.9444444 32.1166667,19.6866667 C32.7422222,19.3655556 32.67,19.1455556 33.0133333,18.5966667 L33.0133333,18.5966667 L33.0133333,18.5966667 Z" id="Shape"></path>
                            <path d="M6.02,13.6366667 C6.48333333,13.4922222 7.06,13.66 7.33444444,13.91 C7.69888889,14.2422222 7.60888889,14.7677778 7.60888889,15.3522222 C7.60888889,16.5177778 7.87222222,17.5766667 6.60111111,17.7111111 C5.47333333,17.8311111 5.03777778,16.9688889 4.96777778,15.9411111 C4.89888889,14.92 5.18777778,13.8977778 6.02,13.6366667 L6.02,13.6366667 L6.02,13.6366667 Z M0,15.2133333 L0,16.3655556 C0.267777778,16.8822222 0.196666667,18.0033333 1.87111111,18.9888889 C3.40222222,19.8911111 4.68888889,19.7522222 5.32888889,19.9888889 L8.67333333,19.9888889 L10.2411111,19.7366667 C12.6644444,19.2488889 12.3844444,18.4122222 12.3844444,16.7211111 C12.3844444,15.57 12.4755556,10.7544444 12.2855556,9.99666667 C11.3966667,6.44555556 5.53333333,6.09666667 2.40555556,6.87666667 C-1.52666667,7.86111111 0.344444444,10.0533333 1.61444444,9.76111111 C2.57888889,9.53777778 3.37666667,9.24 4.43,9.13777778 C5.25444444,9.05888889 6.91888889,9.11555556 7.39,9.60888889 C7.67666667,9.90777778 7.75333333,10.46 7.73666667,10.9788889 C7.71444444,11.6811111 7.38333333,11.6666667 6.66888889,11.6255556 C4.72222222,11.51 2.57777778,11.7066667 1.12888889,12.9422222 C0.205555556,13.7288889 0.237777778,14.6433333 0,15.2133333 L0,15.2133333 L0,15.2133333 Z" id="Shape"></path>
                            <path d="M19.1133333,18.5522222 C19.2133333,18.0766667 19.1388889,11.3488889 19.1388889,10.2566667 C19.1388889,9.69888889 19.24,8.73777778 18.9211111,8.39111111 C18.6322222,8.07777778 17.4655556,8.14888889 16.9988889,8.25666667 C16.6411111,8.33888889 14.3588889,9.54 14.2188889,9.68888889 C13.8044444,10.1311111 13.98,12.8033333 13.98,13.6522222 C13.98,15.0455556 13.9833333,16.44 13.9788889,17.8333333 C13.9744444,19.4144444 14.61,19.8611111 16.1777778,19.8577778 C16.7611111,19.8566667 17.66,19.9333333 18.1555556,19.7244444 C18.5988889,19.5377778 18.9966667,19.1111111 19.1133333,18.5522222 L19.1133333,18.5522222 L19.1133333,18.5522222 Z" id="Shape"></path>
                            <path d="M13.1233333,1.06444444 C13.2288889,0.995555556 12.9866667,0.98 13.5344444,0.981111111 C14.8022222,0.981111111 18.97,0.926666667 19.5177778,1.00666667 C19.6311111,1.32666667 19.6088889,5.50111111 19.5611111,5.68111111 C19.5166667,5.85111111 19.5444444,5.73777778 19.4633333,5.82666667 C15.5422222,5.56222222 16.0722222,6.63666667 14.1777778,7.32 C14.1466667,6.34444444 14.1266667,5.87111111 13.1222222,5.76444444 L13.1233333,1.06444444 L13.1233333,1.06444444 Z M19.9766667,0 L12.5733333,0 C11.9633333,0.56 12.0722222,0.624444444 12.0722222,1.63444444 L12.0722222,5.81777778 C12.0933333,6.62555556 12.4133333,6.76 13.12,6.93777778 C13.1233333,7.74777778 12.9,8.49333333 13.8644444,8.44444444 C14.36,8.42 15.04,7.96555556 15.4244444,7.74777778 C17.3388889,6.66222222 16.54,6.89 19.1488889,6.89555556 C20.9811111,6.89888889 20.6155556,6.22666667 20.6155556,3.92 L20.6155556,1.69777778 C20.6155556,0.205555556 20.5922222,0.513333333 19.9766667,0 L19.9766667,0 L19.9766667,0 Z" id="Shape"></path>
                            <path d="M14.3355556,3.70555556 L18.5388889,3.73444444 L18.5333333,4.63888889 C18.4433333,4.78666667 18.6711111,4.72555556 18.2955556,4.76777778 L14.2855556,4.74222222 C14.1988889,4.51111111 14.2244444,4.42888889 14.2233333,4.18111111 C14.2188889,3.64888889 14.2377778,3.77222222 14.3355556,3.70555556 L14.3355556,3.70555556 L14.3355556,3.70555556 Z M14.27,2.13777778 L18.5588889,2.15777778 L18.5277778,3.18888889 L14.2644444,3.17111111 L14.27,2.13777778 L14.27,2.13777778 Z" id="Shape"></path>
                            <path d="M18.5333333,4.63888889 L18.5388889,3.73555556 L14.3355556,3.70666667 L14.3033333,4.68777778 C15.1188889,4.66666667 18.0044444,4.78888889 18.5333333,4.63888889 L18.5333333,4.63888889 L18.5333333,4.63888889 Z" id="Shape"></path>
                            <path d="M14.3277778,3.10555556 L18.5066667,3.10888889 L18.4844444,2.21333333 L14.3444444,2.21222222 L14.3277778,3.10555556 Z" id="Shape"></path>
                        </g>
                    </g>
                </g>
            </g>
        </g>
    </g>
</svg>