<?xml version="1.0" encoding="UTF-8" standalone="no"?>
<svg width="66px" height="20px" viewBox="0 0 66 20" version="1.1" xmlns="http://www.w3.org/2000/svg" xmlns:xlink="http://www.w3.org/1999/xlink">
    <!-- Generator: Sketch 3.6.1 (26313) - http://www.bohemiancoding.com/sketch -->
    <title>aitnews.com</title>
    <desc>Created with Sketch.</desc>
    <defs></defs>
    <g id="onboarding" stroke="none" stroke-width="1" fill="none" fill-rule="evenodd">
        <g id="aitnews.com" transform="translate(0.000000, -1.000000)" fill="#000000">
            <g id="Слой_1">
                <path d="M31.315,16.678 L28.885,16.678 L28.885,11.96 C28.885,10.965 28.83,10.318 28.729,10.024 C28.621,9.731 28.458,9.507 28.215,9.346 C27.981,9.176 27.701,9.099 27.366,9.099 C26.936,9.099 26.554,9.214 26.22,9.445 C25.886,9.676 25.652,9.985 25.527,10.371 C25.402,10.748 25.339,11.457 25.339,12.49 L25.339,16.676 L22.909,16.676 L22.909,7.428 L25.16,7.428 L25.16,8.784 C25.97,7.743 26.982,7.227 28.206,7.227 C28.744,7.227 29.242,7.328 29.685,7.52 C30.139,7.713 30.473,7.96 30.7,8.26 C30.933,8.568 31.09,8.907 31.182,9.293 C31.268,9.67 31.314,10.217 31.314,10.935 L31.314,16.678 L31.315,16.678 Z M39.098,13.756 L41.528,14.163 C41.225,15.059 40.726,15.736 40.056,16.206 C39.378,16.669 38.537,16.908 37.533,16.908 C35.935,16.908 34.744,16.384 33.98,15.328 C33.374,14.488 33.069,13.424 33.069,12.137 C33.069,10.603 33.466,9.401 34.261,8.531 C35.063,7.668 36.068,7.228 37.283,7.228 C38.653,7.228 39.728,7.683 40.523,8.592 C41.31,9.501 41.691,10.897 41.652,12.77 L35.568,12.77 C35.591,13.495 35.787,14.065 36.161,14.465 C36.535,14.865 37.002,15.072 37.555,15.072 C37.937,15.072 38.256,14.966 38.513,14.758 C38.771,14.55 38.965,14.218 39.098,13.756 L39.098,13.756 L39.098,13.756 Z M39.246,11.274 C39.223,10.565 39.044,10.025 38.701,9.655 C38.35,9.285 37.93,9.1 37.439,9.1 C36.91,9.1 36.473,9.293 36.123,9.685 C35.779,10.071 35.608,10.602 35.617,11.273 L39.246,11.274 L39.246,11.274 L39.246,11.274 Z M45.345,16.678 L42.439,7.428 L44.807,7.428 L46.529,13.484 L48.119,7.428 L50.464,7.428 L51.99,13.484 L53.752,7.428 L56.15,7.428 L53.198,16.678 L50.86,16.678 L49.279,10.727 L47.714,16.678 L45.345,16.678 L45.345,16.678 Z M56.57,14.07 L59.024,13.702 C59.126,14.172 59.337,14.534 59.655,14.773 C59.974,15.019 60.419,15.142 60.987,15.142 C61.619,15.142 62.093,15.027 62.414,14.794 C62.624,14.632 62.732,14.408 62.732,14.14 C62.732,13.954 62.67,13.8 62.553,13.677 C62.436,13.562 62.163,13.453 61.742,13.355 C59.77,12.915 58.533,12.521 58.003,12.16 C57.271,11.659 56.912,10.966 56.912,10.072 C56.912,9.27 57.224,8.599 57.854,8.052 C58.485,7.505 59.458,7.227 60.784,7.227 C62.046,7.227 62.98,7.435 63.588,7.851 C64.204,8.268 64.625,8.876 64.858,9.685 L62.568,10.117 C62.475,9.754 62.279,9.476 62.007,9.284 C61.735,9.091 61.337,8.991 60.831,8.991 C60.185,8.991 59.725,9.083 59.444,9.26 C59.256,9.391 59.164,9.554 59.164,9.761 C59.164,9.931 59.242,10.086 59.404,10.201 C59.623,10.371 60.385,10.594 61.686,10.895 C62.987,11.188 63.899,11.55 64.414,11.982 C64.92,12.42 65.177,13.029 65.177,13.808 C65.177,14.648 64.826,15.379 64.117,15.988 C63.416,16.597 62.372,16.907 60.985,16.907 C59.731,16.907 58.742,16.652 58.009,16.142 C57.279,15.637 56.796,14.941 56.57,14.07 L56.57,14.07 L56.57,14.07 Z" id="Shape"></path>
                <g id="Group" transform="translate(0.000000, 1.000000)">
                    <path d="M0,0 L0,19.984 L21.765,19.984 L21.765,0 L0,0 L0,0 Z M7.175,16.258 C7.112,16.096 7.034,15.856 6.942,15.54 C6.902,15.394 6.872,15.301 6.856,15.255 C6.443,15.663 5.999,15.973 5.524,16.18 C5.048,16.38 4.549,16.49 4.012,16.49 C3.071,16.49 2.323,16.227 1.784,15.712 C1.239,15.203 0.966,14.548 0.966,13.754 C0.966,13.237 1.091,12.769 1.34,12.358 C1.589,11.95 1.932,11.641 2.384,11.418 C2.828,11.202 3.475,11.017 4.317,10.849 C5.455,10.64 6.241,10.432 6.676,10.255 L6.676,10.007 C6.676,9.529 6.56,9.19 6.334,8.982 C6.1,8.781 5.664,8.682 5.018,8.682 C4.581,8.682 4.247,8.766 4.004,8.944 C3.756,9.112 3.561,9.42 3.413,9.859 L1.215,9.467 C1.465,8.566 1.894,7.894 2.493,7.463 C3.101,7.023 4.005,6.808 5.196,6.808 C6.286,6.808 7.096,6.938 7.627,7.193 C8.156,7.455 8.53,7.78 8.749,8.18 C8.959,8.58 9.068,9.305 9.068,10.368 L9.037,13.221 C9.037,14.031 9.076,14.631 9.154,15.016 C9.232,15.403 9.372,15.819 9.59,16.258 L7.175,16.258 L7.175,16.258 Z M13.897,16.258 L11.466,16.258 L11.466,7.008 L13.897,7.008 L13.897,16.258 L13.897,16.258 Z M13.897,5.76 L11.466,5.76 L11.466,5.759 L11.466,3.494 L13.897,3.494 L13.897,5.76 L13.897,5.76 Z M18.876,16.489 C18.44,16.489 18.05,16.411 17.7,16.265 C17.342,16.118 17.085,15.925 16.929,15.687 C16.758,15.448 16.65,15.132 16.586,14.73 C16.532,14.446 16.508,13.868 16.508,12.998 L16.508,8.95 L15.386,8.95 L15.386,7.008 L16.508,7.008 L16.508,5.174 L18.939,3.725 L18.939,7.008 L20.606,7.008 L20.606,8.95 L18.939,8.95 L18.939,12.696 C18.939,13.451 18.955,13.898 18.986,14.021 C19.016,14.144 19.088,14.25 19.204,14.33 C19.313,14.414 19.454,14.453 19.617,14.453 C19.843,14.453 20.17,14.376 20.597,14.223 L20.8,16.119 C20.231,16.365 19.593,16.489 18.876,16.489 L18.876,16.489 Z" id="Shape"></path>
                    <path d="M3.872,12.635 C3.553,12.865 3.396,13.151 3.396,13.498 C3.396,13.837 3.521,14.137 3.778,14.385 C4.028,14.631 4.355,14.762 4.744,14.762 C5.18,14.762 5.599,14.616 6.006,14.324 C6.295,14.1 6.489,13.839 6.583,13.514 C6.646,13.305 6.676,12.905 6.676,12.326 L6.676,11.833 C6.364,11.94 5.874,12.065 5.197,12.211 C4.52,12.357 4.074,12.495 3.872,12.635 L3.872,12.635 Z" id="Shape"></path>
                </g>
                <rect id="Rectangle-path" fill-opacity="0" x="0" y="0.992" width="65.178" height="20"></rect>
            </g>
        </g>
    </g>
</svg>