<?xml version="1.0" encoding="UTF-8" standalone="no"?>
<svg width="27px" height="20px" viewBox="0 0 27 20" version="1.1" xmlns="http://www.w3.org/2000/svg" xmlns:xlink="http://www.w3.org/1999/xlink" xmlns:sketch="http://www.bohemiancoding.com/sketch/ns">
    <!-- Generator: Sketch 3.5.1 (25234) - http://www.bohemiancoding.com/sketch -->
    <title>ajanshaber.com</title>
    <desc>Created with Sketch.</desc>
    <defs></defs>
    <g id="logotypes" stroke="none" stroke-width="1" fill="none" fill-rule="evenodd" sketch:type="MSPage">
        <g id="ukraine" sketch:type="MSArtboardGroup" transform="translate(-42.000000, -1846.000000)" fill="#000000">
            <g id="ajanshaber.com" sketch:type="MSLayerGroup" transform="translate(42.000000, 1847.000000)">
                <g id="Слой_1" sketch:type="MSShapeGroup">
                    <g id="Group">
                        <path d="M0.686315789,14.2231579 C1.53789474,15.6421053 0.467368421,15.2631579 0.987368421,17.0157895 C1.25789474,17.9294737 1.96421053,18.5863158 2.61157895,18.96 C2.51473684,18.0136842 2.37473684,17.6168421 2.93578947,16.8905263 C3.34947368,16.3557895 3.79368421,16.0336842 4.44421053,15.6831579 C5.47578947,15.1252632 5.43578947,15.5863158 5.87157895,14.3926316 C6.07578947,13.8347368 6.36105263,12.9631579 6.62631579,12.4789474 L7.02526316,11.2852632 C4.55473684,11.6894737 2.13684211,13.0178947 1.30105263,14.5410526 C0.331578947,13.0978947 1.73684211,11.0789474 3.27789474,10.06 C5.52631579,8.57473684 7.91157895,8.58526316 8.25789474,8.13052632 C8.34315789,8.01789474 9.44842105,5.06631579 9.53263158,4.75052632 C8.10421053,4.90842105 6.45263158,5.37684211 5.22842105,5.86 C3.16631579,6.67368421 3.26736842,6.89894737 1.96105263,7.74210526 C1.71684211,3.51789474 9.70736842,2.91578947 10.38,2.61894737 L11.3631579,0 C8.32210526,0.107368421 3.18736842,1.39684211 1.74210526,4.17578947 C0.986315789,5.62842105 1.32315789,6.44210526 1.75473684,7.88631579 C1.09473684,8.81578947 0.495789474,9.18631579 0.133684211,10.6915789 C-0.249473684,12.2863158 0.272631579,12.9536842 0.686315789,14.2231579 L0.686315789,14.2231579 L0.686315789,14.2231579 Z" id="Shape"></path>
                        <path d="M20.7473684,13.7084211 C20.9221053,14.0484211 21.1863158,14.9936842 21.4105263,15.2010526 C21.4978947,15.2821053 22.7010526,15.8484211 22.9242105,15.9894737 C23.3294737,16.2442105 23.7810526,16.6652632 24.0336842,17.0747368 C24.4378947,17.7336842 24.3042105,18.2115789 24.2284211,18.9589474 C25.4336842,18.2631579 26.2231579,17.0105263 25.9105263,15.5168421 C25.7389474,14.7 25.7421053,14.9063158 26.1536842,14.2221053 C26.58,12.9115789 27.1084211,12.2515789 26.6852632,10.6052632 C26.3105263,9.15052632 25.7326316,8.79894737 25.0852632,7.88526316 C25.5136842,6.43789474 25.8536842,5.63052632 25.0968421,4.17578947 C23.6242105,1.34526316 18.5957895,0.186315789 15.4494737,0.00105263158 C16.9284211,3.75789474 15.7863158,2.31368421 19.3694737,3.18947368 C21.5189474,3.71473684 25.0242105,5.05263158 24.8768421,7.74105263 C24.3115789,7.37578947 24.2021053,7.19157895 23.3136842,6.66842105 C21.7294737,5.73473684 19.1894737,4.96631579 17.3178947,4.74842105 C17.4242105,5.12526316 18.4747368,7.93578947 18.5968421,8.11263158 C18.94,8.60631579 21.2926316,8.55894737 23.5589474,10.0578947 C25.0968421,11.0747368 26.5052632,13.0884211 25.5357895,14.5389474 C24.6810526,12.9736842 22.3326316,11.7610526 19.8336842,11.2915789 L20.7473684,13.7084211 L20.7473684,13.7084211 Z" id="Shape"></path>
                        <path d="M10.0673684,12.5378947 C10.0589474,13.0778947 9.67368421,13.6936842 9.50631579,14.2073684 C10.6589474,14.22 12.0010526,14.0094737 13.2621053,14.0073684 C14.6442105,14.0052632 15.8463158,14.1378947 17.1852632,14.2368421 L17.0252632,13.6905263 C16.5378947,12.8873684 16.2452632,11.3694737 15.7526316,10.6357895 C14.0936842,10.5263158 12.6242105,10.5326316 10.9673684,10.6263158 C10.6347368,11.1357895 10.5252632,12.1263158 10.0673684,12.5378947 L10.0673684,12.5378947 L10.0673684,12.5378947 Z" id="Shape"></path>
                        <path d="M12.0536842,7.80526316 L14.6694737,7.82105263 L13.4873684,4.74421053 C13.3315789,4.48105263 13.4526316,4.66842105 13.3389474,4.53894737 L12.0536842,7.80526316 L12.0536842,7.80526316 Z" id="Shape"></path>
                    </g>
                </g>
            </g>
        </g>
    </g>
</svg>