<?xml version="1.0" encoding="UTF-8" standalone="no"?>
<svg width="102px" height="20px" viewBox="0 0 102 20" version="1.1" xmlns="http://www.w3.org/2000/svg" xmlns:xlink="http://www.w3.org/1999/xlink" xmlns:sketch="http://www.bohemiancoding.com/sketch/ns">
    <!-- Generator: Sketch 3.5.1 (25234) - http://www.bohemiancoding.com/sketch -->
    <title>ajansspor.com</title>
    <desc>Created with Sketch.</desc>
    <defs></defs>
    <g id="logotypes" stroke="none" stroke-width="1" fill="none" fill-rule="evenodd" sketch:type="MSPage">
        <g id="ukraine" sketch:type="MSArtboardGroup" transform="translate(-43.000000, -1804.000000)" fill="#000000">
            <g id="ajansspor.com" sketch:type="MSLayerGroup" transform="translate(42.000000, 1808.000000)">
                <g id="Слой_1" sketch:type="MSShapeGroup">
                    <g id="Group">
                        <path d="M22.869,12.02 C22.986,11.629 23.217,11.178 23.373,10.801 C23.542,10.395 23.663,9.979 23.838,9.584 L23.928,12.02 L22.869,12.02 L22.869,12.02 Z M35.512,15.123 C35.747,14.996 35.722,14.621 35.82,14.098 C36.206,12.016 36.999,8.312 37.208,6.624 L34.078,6.626 L33.243,10.889 C32.998,10.121 32.807,9.52 32.531,8.761 C32.3,8.125 31.921,7.246 31.772,6.626 L28.571,6.626 L27.092,14.368 L26.079,6.628 C22.058,6.624 22.798,6.306 22.105,7.623 L18.174,15.124 L21.545,15.122 C21.681,14.751 21.846,14.37 22.006,14.032 C24.43,14.042 24.066,13.692 24.101,15.141 L30.058,15.141 C30.317,15.057 30.864,11.159 30.914,10.897 L32.442,15.124 L35.512,15.124 L35.512,15.123 Z" id="Shape"></path>
                        <path d="M53.835,10.148 C53.86,9.984 54.024,8.957 54.067,8.865 C54.164,8.653 54.287,8.681 54.607,8.716 C55.806,8.848 55.676,10.307 53.835,10.148 L53.835,10.148 L53.835,10.148 Z M50.67,7.364 C49.962,6.273 46.05,5.483 44.573,7.534 C43.939,8.415 43.724,9.842 44.513,10.724 C45.665,12.011 46.918,11.699 47.011,12.486 C45.917,13.291 44.321,11.529 44.172,11.435 C43.861,11.97 42.852,13.169 42.69,13.646 C42.971,13.984 43.817,14.505 44.339,14.74 C46.52,15.719 49.442,15.066 50.013,13.103 C50.153,13.425 49.854,14.402 49.777,14.974 L52.926,14.976 C53.015,14.288 53.189,13.402 53.329,12.722 C53.42,12.281 53.325,12.419 54.337,12.406 C54.76,12.402 55.228,12.392 55.625,12.33 C57.128,12.092 58.197,11.307 58.445,9.883 C59.143,5.868 54.439,6.433 51.35,6.48 L50.213,12.217 C50.193,11.106 49.851,10.526 49.14,10.063 C48.53,9.667 47.067,9.286 47.311,8.769 C47.982,8.092 49.089,9.229 49.5,9.419 L50.67,7.364 L50.67,7.364 Z" id="Shape"></path>
                        <path d="M9.499,12.023 C9.61,11.638 9.846,11.175 10.004,10.8 C10.177,10.388 10.294,9.984 10.468,9.583 L10.564,12.019 L9.499,12.023 L9.499,12.023 Z M10.729,15.105 C11.634,15.189 13.435,15.062 13.92,15.117 C14.176,15.146 14.441,15.279 14.767,15.322 C16.162,15.504 17.195,14.896 17.805,14.162 C18.445,13.392 18.651,12.18 18.876,11.008 C19.033,10.19 19.504,8.237 19.505,7.528 C19.163,7.869 18.632,8.203 17.882,8.178 C17.119,8.153 16.733,7.735 16.388,7.424 C16.208,8.469 15.986,9.545 15.783,10.612 C15.399,12.633 15.309,12.569 14.134,12.1 L13.627,13.661 L12.704,6.628 L9.367,6.624 C9.138,6.679 7.299,10.355 7.043,10.826 L4.8,15.123 L8.181,15.119 C8.293,14.764 8.485,14.348 8.636,14.031 C9.161,14.033 10.252,13.92 10.677,14.082 L10.729,15.105 L10.729,15.105 Z" id="Shape"></path>
                        <path d="M3.765,3.938 C3.179,3.709 2.304,2.924 1.748,2.74 C1.57,2.886 1.089,3.46 0.969,3.668 L3.927,5.645 C4.171,5.454 4.851,4.506 5.184,4.3 L6.424,5.516 L3.927,9.743 C3.313,10.786 1.834,13.145 1.396,14.003 C1.951,14.253 3.509,14.743 4.15,14.892 L9.366,5.453 C10.594,6.166 9.659,6.259 11.557,6.257 C11.751,5.806 13.541,3.306 13.663,2.931 C13.454,2.743 12.735,2.247 12.503,2.161 C12.146,2.573 11.463,3.737 11.088,4.241 L7.915,2.585 C8.076,2.309 8.743,1.819 8.994,1.626 C9.487,1.841 10.001,2.332 10.488,2.535 C10.637,2.348 11.038,1.757 11.134,1.527 L8.77,0 C8.35,0.283 7.96,0.627 7.536,0.968 C7.113,1.308 6.737,1.602 6.29,1.953 L3.765,3.938 L3.765,3.938 Z" id="Shape"></path>
                        <path d="M63.014,9.115 C65.218,8.669 65.276,11.98 63.409,12.342 C61.203,12.77 61.023,9.518 63.014,9.115 L63.014,9.115 L63.014,9.115 Z M67.798,11.205 C68.901,4.986 59.562,4.538 58.595,10.254 C57.541,16.488 66.788,16.902 67.798,11.205 L67.798,11.205 L67.798,11.205 Z" id="Shape"></path>
                        <path d="M72.008,8.663 C72.69,8.556 73.449,8.733 73.271,9.543 C73.127,10.195 72.413,10.213 71.708,10.244 L72.008,8.663 L72.008,8.663 Z M74.326,11.682 C76.759,11.198 76.893,8.269 75.651,7.264 C74.332,6.198 71.264,6.45 69.28,6.482 L67.702,14.978 L70.825,14.962 L71.379,12.005 C71.671,12.493 72.074,14.773 72.413,14.98 L75.52,14.947 L74.326,11.682 L74.326,11.682 Z" id="Shape"></path>
                        <path d="M94.88,9.139 L92.175,9.149 L91.058,15.124 L93.935,15.124 C94.035,14.356 94.225,13.515 94.365,12.749 C94.506,11.974 94.57,10.968 95.428,11.206 C95.687,11.864 94.999,14.249 94.869,15.126 L97.788,15.105 C97.897,14.337 98.069,13.552 98.207,12.787 C98.316,12.18 98.445,10.896 99.228,11.209 C99.571,11.662 98.828,14.418 98.715,15.123 L101.636,15.125 C102.019,12.75 103.597,8.609 100.206,8.928 C99.228,9.019 98.816,9.529 98.331,10.023 L98.2,9.861 C98.047,9.625 98.038,9.449 97.732,9.216 C96.508,8.278 95.12,9.603 94.736,9.866 L94.88,9.139 L94.88,9.139 Z" id="Shape"></path>
                        <path d="M44.097,7.511 C43.952,7.294 43.723,7.166 43.476,7.023 C43.222,6.876 43.044,6.79 42.765,6.689 C38.252,5.069 35.348,9.946 39.185,11.784 C39.66,12.011 40.383,12.098 40.435,12.632 C39.449,13.486 37.656,11.62 37.596,11.583 C37.267,12.233 36.365,13.147 36.115,13.794 C36.889,14.46 37.845,15.108 39.206,15.306 C40.983,15.562 41.782,15.007 42.782,14.335 C42.499,13.704 41.87,14.017 42.817,12.745 C43.023,12.468 43.13,12.276 43.336,11.999 C44.186,10.851 42.021,9.909 41.273,9.571 C40.917,9.411 40.688,9.37 40.74,8.915 C41.402,8.227 42.523,9.368 42.929,9.567 L44.097,7.511 L44.097,7.511 Z" id="Shape"></path>
                        <path d="M87.813,11.334 C88.813,10.988 88.928,12.666 88.05,12.934 C87.027,13.244 86.882,11.654 87.813,11.334 L87.813,11.334 L87.813,11.334 Z M91.245,12.463 C92.099,7.968 85.357,7.722 84.569,11.783 C84.165,13.867 85.523,15.33 87.502,15.347 C89.465,15.363 90.933,14.109 91.245,12.463 L91.245,12.463 L91.245,12.463 Z" id="Shape"></path>
                        <path d="M84.776,9.205 C83.441,8.92 82.594,8.646 81.305,9.359 C79.342,10.447 78.718,13.185 80.446,14.713 C81.136,15.324 82.625,15.586 83.726,15.131 L84.085,12.922 C83.694,13.037 83.243,13.227 82.782,12.994 C82.46,12.832 82.27,12.433 82.393,11.914 C82.714,10.564 84.325,11.449 84.4,11.461 L84.776,9.205 L84.776,9.205 Z" id="Shape"></path>
                        <path d="M79.238,14.016 C79.774,11.889 76.437,11.475 75.944,13.446 C75.385,15.67 78.73,16.031 79.238,14.016 L79.238,14.016 L79.238,14.016 Z" id="Shape"></path>
                        <path d="M17.752,4.91 C15.58,5.537 16.487,8.378 18.486,7.741 C20.427,7.122 19.757,4.332 17.752,4.91 L17.752,4.91 L17.752,4.91 Z" id="Shape"></path>
                        <path d="M4.284,0.463 C2.874,0.842 3.453,2.868 4.848,2.518 C6.14,2.195 5.697,0.084 4.284,0.463 L4.284,0.463 L4.284,0.463 Z" id="Shape"></path>
                    </g>
                </g>
            </g>
        </g>
    </g>
</svg>