<?xml version="1.0" encoding="utf-8"?>
<!-- Generator: Adobe Illustrator 16.0.0, SVG Export Plug-In . SVG Version: 6.00 Build 0)  -->
<!DOCTYPE svg PUBLIC "-//W3C//DTD SVG 1.1//EN" "http://www.w3.org/Graphics/SVG/1.1/DTD/svg11.dtd">
<svg version="1.1" id="Слой_1" xmlns="http://www.w3.org/2000/svg" xmlns:xlink="http://www.w3.org/1999/xlink" x="0px" y="0px"
	 width="47.847px" height="20px" viewBox="0 0 47.847 20" enable-background="new 0 0 47.847 20" xml:space="preserve">
<g>
	<path fill-rule="evenodd" clip-rule="evenodd" d="M7.019,4c2.807-1.305,3.197,2.042,1.487,3.605
		c-2.044,1.894-3.178,2.28-5.836,3.043c-1.747,0.506,0.334,3.567,0.334,5.204c0,1.26-0.223,2.622-0.223,3.836
		c-0.958-3.154-2.658-1.729-2.779-7.146c-0.046-2.482,1.06-3.99,1.971-4.597c1.143-0.763,2.249-0.387,3.467-1.619
		C6.377,5.379,6.387,4.294,7.019,4L7.019,4z"/>
	<polygon fill-rule="evenodd" clip-rule="evenodd" points="11.907,4.184 11.805,3.191 16.062,0.414 16.062,2.142 	"/>
	<path fill-rule="evenodd" clip-rule="evenodd" d="M10.207,12.164c-1.683,0.69-3.69,1.729-5.474,2.089
		c-0.938,0.192,0.427,2.023,2.993,1.757c1.05-0.11,1.989-0.267,3.541-1.509c0.391-0.313,1.71-1.959,1.282-2.436
		c2.789,0.449,4.898-1.169,5.939-1.923c1.115-0.8,1.757-2.574,1.682-4.036V0.175l-2.704,3.503l0.344,3.107
		c0,1.454-1.199,1.839-2.045,1.895c-1.57,0.102-0.613-0.966-1.822-0.984c-0.558-0.009-0.938,0.9-1.282,0.984
		C12,8.836,12.223,6.501,9.983,8.873c-0.502,0.525-1.003,1.406-1.05,1.517C8.626,11.236,9.193,11.835,10.207,12.164L10.207,12.164z"
		/>
	<polygon fill-rule="evenodd" clip-rule="evenodd" points="22.53,12.312 22.232,3.55 24.984,0 25.281,8.901 	"/>
	<polygon fill-rule="evenodd" clip-rule="evenodd" points="11.647,18.529 13.636,14.924 18.218,13.977 16.889,17.141 	"/>
	<path fill-rule="evenodd" clip-rule="evenodd" d="M28.162,10.539c-0.269-0.424-0.566-0.396-0.855-0.203
		c-0.539,0.376-1.589,1.655-2.946,2.491c-1.04,0.635-2.5,0.837-2.648,1.196c-0.418,0.965,1.329,1.498,2.026,1.498
		C25.923,15.54,28.692,13.122,28.162,10.539L28.162,10.539z"/>
	<path fill-rule="evenodd" clip-rule="evenodd" d="M32.996,15.265l-3.216-0.128L29.492,4.818l2.574-2.989l0.13,10.042
		c0.651,0.616,1.413-0.147,1.915-0.754c0.103-0.12,0.716-0.938,0.948-0.45c0.604,1.258,1.217,1.407,2.667,0.844
		c0.092-0.35,2.509-0.21,2.156-0.808c-1.004-1.673,0.195-3.173,0.966-2.869c0.92,0.35,3.076,1.397,3.058,2.51
		c-0.019,1.205-0.595,1.867-1.162,2.924c-0.409,0.764-2.761,0.551-3.588,0.91c-0.046,0.019-0.046,0.009-0.093,0.045
		c-0.539,1.086-0.576,0.59-0.845,1.996c-0.084,0.488-1.655,1.638-0.901-0.982c0.046-0.176,0.102-0.838,0.102-1.067L32.996,15.265z"
		/>
	<polygon fill-rule="evenodd" clip-rule="evenodd" points="40.328,6.52 38.042,5.058 40.04,2.703 42.206,3.991 	"/>
	<polygon fill-rule="evenodd" clip-rule="evenodd" points="45.802,2.97 46.369,1.756 44.353,2.703 44.501,4.478 43.934,5.232 
		45.58,4.893 	"/>
	<polygon fill-rule="evenodd" clip-rule="evenodd" points="45.337,15.375 47.847,12.331 47.847,3.356 45.337,6.18 	"/>
	<polygon fill-rule="evenodd" clip-rule="evenodd" points="31.973,20 29.687,18.539 31.787,15.789 34.102,16.992 	"/>
</g>
<rect x="-0.012" opacity="0" fill-rule="evenodd" clip-rule="evenodd" width="47.859" height="20"/>
</svg>
