<?xml version="1.0" encoding="utf-8"?>
<!-- Generator: Adobe Illustrator 16.0.0, SVG Export Plug-In . SVG Version: 6.00 Build 0)  -->
<!DOCTYPE svg PUBLIC "-//W3C//DTD SVG 1.1//EN" "http://www.w3.org/Graphics/SVG/1.1/DTD/svg11.dtd">
<svg version="1.1" id="Слой_1" xmlns="http://www.w3.org/2000/svg" xmlns:xlink="http://www.w3.org/1999/xlink" x="0px" y="0px"
	 width="51.839px" height="20px" viewBox="0 0 51.839 20" enable-background="new 0 0 51.839 20" xml:space="preserve">
<g>
	<path fill-rule="evenodd" clip-rule="evenodd" d="M10.618,0.07h4.31v10.281v4.335h-4.31H0.02v-4.335h10.598V0.07z M2.461,0.006
		h1.765v4.149H2.461V3.318h0.847V2.033H2.461V0.006z M0,0.006h1.764v4.149H0V3.318h0.846V2.033H0V0.006z M9.654,5.371H5.312v4.092
		h4.342V8.017H6.792V6.841h2.863V5.371z M51.839,5.294h-4.291v9.321h4.291V5.294z M51.839,0.02h-4.342v4.091h4.342V2.667h-2.863
		V1.49h2.863V0.02z M30.605,15.733h-4.239v4.246h4.239V15.733z M30.605,5.294h-4.239v4.993H25.39V0H21.08v10.287v4.328h4.311h16.892
		h4.039v-4.328V9.392V5.294h-4.039h-10.65v4.098h10.65v0.895H30.605V5.294z M35.975,0.02h-4.342v4.091h4.342V0.02z M15.749,5.281
		h4.31v14.615h-4.31V5.281z"/>
</g>
<rect x="-0.012" y="-0.01" opacity="0" fill-rule="evenodd" clip-rule="evenodd" width="51.852" height="20"/>
</svg>
