<?xml version="1.0" encoding="UTF-8" standalone="no"?>
<svg width="65px" height="20px" viewBox="0 0 65 20" version="1.1" xmlns="http://www.w3.org/2000/svg" xmlns:xlink="http://www.w3.org/1999/xlink" xmlns:sketch="http://www.bohemiancoding.com/sketch/ns">
    <!-- Generator: Sketch 3.5.1 (25234) - http://www.bohemiancoding.com/sketch -->
    <title>aksam.com.tr</title>
    <desc>Created with Sketch.</desc>
    <defs></defs>
    <g id="logotypes" stroke="none" stroke-width="1" fill="none" fill-rule="evenodd" sketch:type="MSPage">
        <g id="ukraine" sketch:type="MSArtboardGroup" transform="translate(-42.000000, -1767.000000)" fill="#000000">
            <g id="aksam.com.tr" sketch:type="MSLayerGroup" transform="translate(42.000000, 1768.000000)">
                <g id="Слой_1" sketch:type="MSShapeGroup">
                    <g id="Group">
                        <path d="M49.298,16.959 L53.33,16.966 L53.077,6.369 L55.291,16.964 L58.506,16.955 L60.825,6.305 C60.908,6.891 60.783,8.28 60.761,8.945 C60.733,9.842 60.702,10.737 60.672,11.634 C60.639,12.587 60.464,16.349 60.503,16.964 L64.557,16.964 L64.565,0.394 L58.804,0.394 L56.959,9.257 L55.127,0.395 L49.299,0.394 L49.299,16.959 L49.298,16.959 Z" id="Shape"></path>
                        <path d="M13.2,16.813 L13.204,16.964 L17.522,16.964 C17.597,16.024 17.539,14.854 17.539,13.887 C17.539,13.343 17.48,12.953 17.657,12.478 C17.749,12.23 17.965,11.527 18.073,11.364 L20.053,16.96 L24.514,16.967 C24.447,16.685 24.221,16.207 24.104,15.917 L20.906,7.97 C20.79,7.688 20.754,7.691 20.898,7.422 C21.269,6.735 22.018,5.117 22.354,4.395 C22.574,3.921 24.171,0.69 24.284,0.364 L19.949,0.364 C19.816,0.846 19.543,1.459 19.362,1.95 C19.164,2.489 18.961,3.024 18.757,3.564 C18.374,4.583 17.979,5.802 17.541,6.761 C17.51,4.713 17.539,2.436 17.539,0.364 L13.198,0.364 L13.2,16.813 L13.2,16.813 Z" id="Shape"></path>
                        <path d="M28.975,11.138 L24.996,11.138 C24.945,11.426 24.978,13.034 24.998,13.413 C25.039,14.124 25.242,14.654 25.54,15.167 C25.843,15.693 26.167,16.057 26.644,16.367 C26.925,16.549 27.899,17.013 28.235,17.12 L28.239,17.977 L32.128,17.979 C32.149,16.947 32.075,17.088 32.403,16.986 C32.971,16.808 33.859,16.214 34.224,15.78 C34.739,15.167 35.098,14.421 35.241,13.383 C35.365,12.474 35.396,11.071 35.127,10.229 C34.726,8.978 33.779,8.222 32.705,7.486 C32.367,7.255 31.993,7.055 31.658,6.821 C31.31,6.579 29.837,5.61 29.647,5.41 C29.071,4.806 28.971,3.348 30.15,3.34 C31.309,3.334 31.305,4.58 31.316,5.626 L35.322,5.633 C35.322,3.965 35.058,2.649 34.168,1.651 C33.424,0.818 32.324,0.095 30.631,0.01 C28.354,-0.103 26.358,0.705 25.616,2.717 C25.432,3.215 25.202,4.302 25.19,4.87 C25.125,7.817 27.529,9.294 29.691,10.663 C29.948,10.825 30.201,10.996 30.463,11.164 C30.785,11.367 30.995,11.437 31.182,11.758 C31.581,12.441 31.494,14.175 29.989,14.007 C29.655,13.971 29.362,13.732 29.201,13.482 C28.796,12.854 29.131,11.824 28.975,11.138 L28.975,11.138 L28.975,11.138 Z" id="Shape"></path>
                        <path d="M6.122,3.859 L6.971,10.613 L5.221,10.603 L6.122,3.859 L6.122,3.859 Z M0,16.964 L4.259,16.966 L4.754,13.831 L7.36,13.82 L7.902,16.96 L12.131,16.966 C12.066,16.376 11.835,15.503 11.701,14.904 C10.943,11.519 10.2,7.933 9.482,4.527 C9.334,3.819 9.181,3.136 9.036,2.439 L8.698,0.871 C8.678,0.776 8.666,0.698 8.645,0.606 C8.61,0.439 8.647,0.458 8.531,0.394 L3.697,0.394 C3.571,0.426 3.587,0.577 3.534,0.835 L1.821,8.628 C1.688,9.211 0.041,16.539 0,16.964 L0,16.964 L0,16.964 Z" id="Shape"></path>
                        <path d="M41.221,10.611 C41.25,10.302 42.026,4.176 42.121,3.882 L42.968,10.611 L41.221,10.611 L41.221,10.611 Z M35.994,16.962 L40.254,16.964 L40.753,13.826 L43.36,13.82 L43.865,16.96 L48.094,16.966 C48.047,16.533 46.465,9.278 46.334,8.673 C46.032,7.292 45.749,5.91 45.445,4.527 L44.661,0.871 C44.612,0.635 44.619,0.426 44.496,0.393 L39.66,0.393 C39.535,0.425 39.556,0.57 39.499,0.834 L36.89,12.806 C36.748,13.444 36.035,16.579 35.994,16.962 L35.994,16.962 L35.994,16.962 Z" id="Shape"></path>
                    </g>
                </g>
            </g>
        </g>
    </g>
</svg>