<?xml version="1.0" encoding="utf-8"?>
<!-- Generator: Adobe Illustrator 16.0.0, SVG Export Plug-In . SVG Version: 6.00 Build 0)  -->
<!DOCTYPE svg PUBLIC "-//W3C//DTD SVG 1.1//EN" "http://www.w3.org/Graphics/SVG/1.1/DTD/svg11.dtd">
<svg version="1.1" id="Слой_1" xmlns="http://www.w3.org/2000/svg" xmlns:xlink="http://www.w3.org/1999/xlink" x="0px" y="0px"
	 width="105.659px" height="20px" viewBox="0 0 105.659 20" enable-background="new 0 0 105.659 20" xml:space="preserve">
<g>
	<path d="M8.571,16.204H4.379l-0.598,2.167H0l4.508-13.15H8.56l4.485,13.15H9.169L8.571,16.204z M35.855,4.873h3.185V1.629h-3.185
		V4.873z M7.788,13.365L6.476,8.639l-1.312,4.727H7.788z M13.045,5.221h3.232v4.97l4.379-4.97h4.31l-5.059,5.19l5.327,7.96h-3.981
		l-3.547-5.828l-1.675,2.201l0.246,3.627h-3.232V5.221z M24.275,5.221h12.073v3.255h-4.567v9.895h-3.711V8.476h-3.794V5.221z
		 M35.855,5.221h3.185v13.15h-3.185V5.221z M39.803,5.221h9.099v2.838h-6.09l0.023,2.607h5.293l-0.011,2.688h-5.305v5.018h-3.009
		V5.221z M50.294,5.221h3.736v4.6h4.098v-4.6h3.747v13.15h-3.747v-5.318H54.03v5.318h-3.736V5.221z M70.049,16.204h-4.262
		l-0.609,2.167h-3.84l4.578-13.15h4.122l4.567,13.15h-3.946L70.049,16.204z M69.253,13.365L67.93,8.639l-1.335,4.727H69.253z
		 M74.125,5.221h6.815c1.136,0,2.003,0.325,2.611,0.95c0.609,0.625,0.913,1.402,0.913,2.328c0,0.777-0.222,1.449-0.655,2.004
		c-0.281,0.371-0.715,0.661-1.265,0.881c1.968,0.521,2.178,1.518,2.178,3.383c0,1.576-0.89,3.163-2.693,3.429
		c-0.808,0.116-1.357,0.175-1.628,0.175h-6.276V5.221z M77.789,10.388h1.593c0.563,0,0.96-0.116,1.183-0.325
		c0.222-0.22,0.328-0.544,0.328-0.949c0-0.383-0.106-0.684-0.328-0.904c-0.223-0.208-0.609-0.325-1.159-0.325h-1.617V10.388z
		 M77.789,15.544h1.851c0.632,0,1.078-0.128,1.334-0.37c0.258-0.244,0.388-0.58,0.388-0.997c0-0.395-0.129-0.706-0.388-0.938
		c-0.257-0.232-0.702-0.359-1.334-0.359h-1.851V15.544z M85.238,5.221h8.945v2.815h-6.125v2.098h5.715v2.675h-5.715v2.596h6.302
		v2.967h-9.122V5.221z M95.073,18.371V5.221h5.539c1.03,0,1.814,0.116,2.366,0.325c0.539,0.22,0.983,0.625,1.312,1.206
		c0.339,0.579,0.503,1.297,0.503,2.131c0,0.73-0.129,1.355-0.387,1.889c-0.257,0.533-0.608,0.962-1.054,1.297
		c-0.281,0.208-0.68,0.383-1.171,0.511c0.397,0.162,0.69,0.324,0.866,0.486c0.117,0.104,0.305,0.336,0.526,0.695
		c0.235,0.348,0.388,0.625,0.47,0.811l1.615,3.801H101.9l-1.779-4.009c-0.234-0.511-0.422-0.857-0.599-1.009
		c-0.245-0.208-0.515-0.301-0.818-0.301h-0.293v5.318H95.073z M98.411,10.574h1.404c0.153,0,0.445-0.07,0.879-0.186
		c0.223-0.058,0.409-0.186,0.539-0.417c0.14-0.22,0.21-0.476,0.21-0.765c0-0.417-0.104-0.753-0.328-0.973
		c-0.221-0.231-0.632-0.348-1.24-0.348h-1.464V10.574z"/>
</g>
<rect opacity="0" fill-rule="evenodd" clip-rule="evenodd" fill="#141515" width="105.659" height="20"/>
</svg>
