<?xml version="1.0" encoding="utf-8"?>
<!-- Generator: Adobe Illustrator 16.0.0, SVG Export Plug-In . SVG Version: 6.00 Build 0)  -->
<!DOCTYPE svg PUBLIC "-//W3C//DTD SVG 1.1//EN" "http://www.w3.org/Graphics/SVG/1.1/DTD/svg11.dtd">
<svg version="1.1" id="Слой_1" xmlns="http://www.w3.org/2000/svg" xmlns:xlink="http://www.w3.org/1999/xlink" x="0px" y="0px"
	 width="36.736px" height="20px" viewBox="0 0 36.736 20" enable-background="new 0 0 36.736 20" xml:space="preserve">
<g>
	<path fill-rule="evenodd" clip-rule="evenodd" d="M0.037,5.478C0.019,7.27,0.035,9.07,0.035,10.862
		c0,3.188-0.628,6.484,2.687,8.034c1.368,0.643,3.284,0.439,4.929,0.439c1.717,0,3.524,0.207,4.943-0.498
		c3.223-1.604,2.592-4.909,2.592-8.047c0-1.684,0.093-3.646-0.012-5.297H10.54c-0.084,0.794-0.019,5.569-0.021,6.803
		c0,1.057,0.165,2.299-0.372,3.042c-0.597,0.829-1.273,0.835-2.569,0.835c-1.335,0.002-2.029-0.036-2.567-0.903
		c-0.487-0.791-0.312-2.039-0.312-3.047c0-2.233,0.045-4.511-0.004-6.737L0.037,5.478z"/>
	<path fill-rule="evenodd" clip-rule="evenodd" d="M24.36,3.411l0.002,10.534c0,1.467-0.76,2.229-2.227,2.229l-4.97,0.004
		l-0.012,3.138c1.185,0.087,6.03,0.062,7.303,0.014c2.042-0.073,3.586-1.339,4.181-2.753c0.644-1.524,0.389-4.639,0.389-6.5
		c0-2.3-0.011-4.603,0.002-6.902L24.36,3.171V3.411z"/>
	<path fill-rule="evenodd" clip-rule="evenodd" d="M32.07,19.319l4.662-0.034l0.004-16.067c-0.409-0.123-4.032-0.079-4.67-0.038
		L32.07,19.319z"/>
	<polygon fill-rule="evenodd" clip-rule="evenodd" points="17.564,14.615 22.228,14.613 22.236,5.589 17.556,5.591 	"/>
	<path fill-rule="evenodd" clip-rule="evenodd" d="M6.946,0.741c-3.358,1.006-1.674,5.703,1.37,4.757
		c1.095-0.342,2.138-1.506,1.733-3.021C9.745,1.339,8.513,0.271,6.946,0.741L6.946,0.741z"/>
	<path fill-rule="evenodd" clip-rule="evenodd" d="M17.135,1.383v2.813c1.097-0.32,1.458-0.876,2.883-0.337
		c1.961,0.743,1.808,0.189,2.808-0.178l-0.008-2.828c-0.464,0.203-0.663,0.505-1.333,0.557c-0.556,0.045-1.004-0.205-1.443-0.369
		C18.534,0.473,18.039,1.103,17.135,1.383L17.135,1.383z"/>
</g>
<rect opacity="0" fill-rule="evenodd" clip-rule="evenodd" width="36.736" height="19.999"/>
</svg>
