<?xml version="1.0" encoding="utf-8"?>
<!-- Generator: Adobe Illustrator 16.0.0, SVG Export Plug-In . SVG Version: 6.00 Build 0)  -->
<!DOCTYPE svg PUBLIC "-//W3C//DTD SVG 1.1//EN" "http://www.w3.org/Graphics/SVG/1.1/DTD/svg11.dtd">
<svg version="1.1" id="Слой_1" xmlns="http://www.w3.org/2000/svg" xmlns:xlink="http://www.w3.org/1999/xlink" x="0px" y="0px"
	 width="48.725px" height="20px" viewBox="0 0 48.725 20" enable-background="new 0 0 48.725 20" xml:space="preserve">
<g>
	<path fill-rule="evenodd" clip-rule="evenodd" d="M32.138,7.908c0.315-0.083,1.09-0.062,1.413,0.006
		c1.537,0.327,0.085,2.689-0.105,2.915c-0.317-0.589,0.233-0.813-0.862-2.35C32.277,8.049,32.209,8.147,32.138,7.908L32.138,7.908z
		 M3.129,3.005l3.026,0.009L6.153,0.015L3.132,0.004L3.129,3.005z M12.96,19.995l3.044-0.032v-2.94
		c-0.315-0.102-2.567-0.05-3.054-0.036L12.96,19.995z M17.913,19.993l3.041-0.004l0.005-3.007l-3.056,0.001L17.913,19.993z
		 M8.042,19.993l3.057,0.003l0.002-3.014l-3.07,0.003L8.042,19.993z M8.03,3.012l3.073,0.004L11.102,0L8.035,0.004L8.03,3.012z
		 M3.021,15.107c0.302-0.254,0.269-3.197,3.115-5.474c0.353-0.283,1.343-0.882,1.896-0.941l-0.004,6.417l12.926-0.009l0.001-10.144
		L17.9,4.959l-0.004,7.131l-1.891-0.023l-0.003-7.11l-3.054,0.006l-0.003,7.129h-1.841V4.925c-1.102-0.242-3.601,0.429-4.536,0.79
		C5.364,6.182,4.223,6.977,3.33,7.819C1.304,9.73,0.319,12.225,0,15.107H3.021z M42.549,3.862c1.632,0.512,2.841,2.148,3.031,4.171
		c0.131,1.409,0.119,5.521,0.089,7.073l3.027-0.004c-0.118-4.785,0.794-9.188-2.61-12.585c-1.756-1.753-3.925-2.483-6.602-2.505
		L39.48,12.097l-3.645-0.002c0.185-0.396,0.526-0.782,0.772-1.227c1.327-2.39,1.227-5.642-2.407-5.878
		c-1.239-0.08-2.653-0.037-3.912-0.028c-0.186,0.627-0.44,1.315-0.666,1.932c-0.139,0.374-0.617,1.596-0.643,1.933
		c0.395,0.291,0.966,1.008,1.244,1.421c0.297,0.445,0.72,1.245,0.827,1.85l-3.936-0.017l-0.004-7.118l-3.04-0.006
		c-0.017,2.3,0.003,4.604,0.003,6.904c0,1.731,0.334,3.53-0.547,4.589c-0.538,0.646-1.076,0.333-1.159,0.588l-0.036,2.942
		c0.725,0.026,1.416-0.176,2.011-0.408c0.713-0.276,1.003-0.616,1.42-1.021c1.227-1.194,1.212-3.051,1.399-3.441l15.39-0.011
		L42.549,3.862z"/>
</g>
<rect y="0" opacity="0" fill-rule="evenodd" clip-rule="evenodd" width="48.725" height="20"/>
</svg>
