<?xml version="1.0" encoding="utf-8"?>
<!-- Generator: Adobe Illustrator 16.0.0, SVG Export Plug-In . SVG Version: 6.00 Build 0)  -->
<!DOCTYPE svg PUBLIC "-//W3C//DTD SVG 1.1//EN" "http://www.w3.org/Graphics/SVG/1.1/DTD/svg11.dtd">
<svg version="1.1" id="Слой_1" xmlns="http://www.w3.org/2000/svg" xmlns:xlink="http://www.w3.org/1999/xlink" x="0px" y="0px"
	 width="41.975px" height="20px" viewBox="0 0 41.975 20" enable-background="new 0 0 41.975 20" xml:space="preserve">
<g>
	<path fill-rule="evenodd" clip-rule="evenodd" d="M41.975,0l-2.434,1.837v13.138h2.434V0z M30.504,18.268l1.75-1.731l1.75,1.731
		l-1.75,1.731L30.504,18.268z M9.305,18.268l1.75-1.731l1.75,1.731l-1.75,1.731L9.305,18.268z M9.445,10.097L5.197,3.843L0,9.31
		v2.714l0.928-1.715l3.424-2.815l2.372,3.339l-4.258,0.033l0.01-0.787l-2.45,2.735v2.161h13.792V10.08l-1.71-4.911l-1.713,2.304
		l1.904,2.612L9.445,10.097z M0.064,1.841l1.75-1.731l1.744,1.726L5.3,0.11l1.75,1.731L5.3,3.575L3.559,1.849L1.814,3.575
		L0.064,1.841z M17.392,0l-2.434,1.837v13.138h2.434V0z M22.866,4.766c2.267,0,4.909,1.288,4.909,4.508v0.806h1.66V6.611
		l2.434-1.835v5.304h3.176V1.837L37.479,0v10.08v4.896h-2.435h-7.2c-0.183,1.424-0.622,1.927-1.592,3.013
		c-2.123,2.373-6.844,1.837-6.682,1.759c1.909-0.91,4.657-2.515,4.657-4.771h-5.642v-3.028h-0.009V9.112
		C18.577,7.135,20.871,4.766,22.866,4.766L22.866,4.766z M22.622,7.153c1.183,0,2.142,1.178,2.142,2.632
		c0,0.1-0.004,0.198-0.014,0.295h-4.258c-0.007-0.097-0.013-0.195-0.013-0.295C20.479,8.331,21.439,7.153,22.622,7.153L22.622,7.153
		z"/>
</g>
<rect opacity="0" fill-rule="evenodd" clip-rule="evenodd" width="42" height="20"/>
</svg>
