<?xml version="1.0" encoding="utf-8"?>
<!-- Generator: Adobe Illustrator 16.0.0, SVG Export Plug-In . SVG Version: 6.00 Build 0)  -->
<!DOCTYPE svg PUBLIC "-//W3C//DTD SVG 1.1//EN" "http://www.w3.org/Graphics/SVG/1.1/DTD/svg11.dtd">
<svg version="1.1" id="Слой_1" xmlns="http://www.w3.org/2000/svg" xmlns:xlink="http://www.w3.org/1999/xlink" x="0px" y="0px"
	 width="105.943px" height="20px" viewBox="0 0 105.943 20" enable-background="new 0 0 105.943 20" xml:space="preserve">
<g>
	<g>
		<path d="M8.72,17.653L8.634,17.77c-0.057,0.077-0.064,0.141-0.071,0.196c-0.001,0.012-0.002,0.023-0.004,0.037
			c-0.126,0.034-0.17-0.033-0.253-0.259c-0.063-0.168-0.134-0.359-0.316-0.433l-0.152-0.06l-0.02,0.16
			c-0.048,0.392,0.385,1.077,0.571,1.204c0.131,0.089,0.251,0.135,0.355,0.135c0.132,0,0.238-0.071,0.29-0.196
			c0.095-0.228-0.001-0.593-0.21-0.799L8.72,17.653z"/>
		<path d="M2.888,10.431l-0.048-0.07l-0.083,0.02c-0.192,0.044-0.216,0.178-0.233,0.277c-0.002,0.012-0.004,0.025-0.007,0.039
			L2.437,10.69c-0.091-0.277,0.127-0.517,0.419-0.797c0.162-0.156,0.291-0.279,0.31-0.417l0.021-0.15L3.032,9.336
			c-0.35,0.025-1.006,0.712-1.088,1.25c-0.033,0.215-0.003,0.503,0.137,0.664c0.07,0.08,0.162,0.123,0.267,0.123
			c0.063,0,0.13-0.016,0.201-0.046c0.144-0.068,0.322-0.313,0.381-0.526C2.969,10.657,2.955,10.529,2.888,10.431z"/>
		<path d="M5.44,18.647l0.09,0.034l0.056-0.079c0.068-0.094,0.188-0.233,0.304-0.366c0.178-0.207,0.29-0.34,0.333-0.419l0.049-0.091
			l-0.082-0.063c-0.1-0.079-0.222-0.18-0.325-0.265l-0.072-0.062c-0.029-0.025-0.058-0.05-0.088-0.075
			c0.156-0.141,0.564-0.615,0.657-0.779l0.042-0.073L6.35,16.343c-0.095-0.111-0.551-0.48-0.701-0.556l-0.085-0.044l-0.089,0.099
			c-0.204,0.222-0.458,0.499-0.618,0.734l-0.055,0.081l0.066,0.072c0.132,0.143,0.317,0.289,0.487,0.42
			c-0.108,0.093-0.229,0.245-0.345,0.394c-0.102,0.13-0.207,0.263-0.292,0.338l-0.081,0.073l0.063,0.089
			C4.776,18.151,5.29,18.591,5.44,18.647z"/>
		<path d="M11.227,8.78c-0.909-1.662-1.878-2.903-2.906-4.218L8.298,4.533C8.092,4.269,7.882,4.016,7.672,3.764L7.454,3.5
			C6.902,2.83,5.875,1.583,6.384,0.65c0.087-0.158,0.179-0.223,0.269-0.286c0.056-0.039,0.114-0.08,0.162-0.139l0.087-0.107
			L6.786,0.044C6.573-0.091,6.221,0.091,5.975,0.476C5.812,0.729,5.331,1.663,5.977,3.013C6.023,3.11,6.061,3.177,6.088,3.227
			C6.108,3.263,6.13,3.297,6.13,3.289C6.127,3.299,6.105,3.33,6.086,3.357C6.056,3.402,6.014,3.462,5.96,3.552
			C5.467,4.377,5.73,5.027,5.942,5.55C6.02,5.741,6.093,5.921,6.123,6.091c0.152,0.856-0.402,2.074-0.769,2.88L5.245,9.213
			c-0.205,0.456-0.417,0.952-0.562,1.55c-0.09,0.364-0.265,1.508-0.037,1.975l0.042,0.087c-0.084,0.097-0.151,0.193-0.193,0.293
			c-0.083,0.199-0.134,0.539-0.194,0.931c-0.108,0.716-0.248,1.644-0.653,2.209c-0.003-0.038-0.011-0.081-0.023-0.137
			c-0.018-0.083-0.043-0.2-0.067-0.388c-0.047-0.357-0.071-0.726-0.069-1.091c0.004-0.7,0.089-1.41,0.244-2.055
			c0.306-1.271,0.77-2.228,1.18-3.072C5.554,8.193,6.108,7.05,5.72,5.309C5.649,4.991,5.539,4.644,5.258,4.474
			C5.135,4.398,5.002,4.36,4.865,4.36c-0.32,0-0.628,0.221-0.734,0.526c-0.06,0.174-0.047,0.351,0.032,0.509
			C4.055,5.383,3.94,5.4,3.823,5.441c-0.371,0.133-0.57,0.445-0.508,0.794C3.369,6.54,3.634,6.848,4.036,6.848c0,0,0,0,0,0
			c0.081,0,0.164-0.013,0.247-0.039c0.046-0.014,0.089-0.032,0.129-0.053C4.079,6.999,3.668,7.238,3.235,7.489
			c-0.74,0.43-1.506,0.875-2.047,1.447c-1.818,1.924-1.09,3.872-0.779,4.704c0.05,0.133,0.097,0.259,0.102,0.309
			c0.011,0.133,0.013,0.271,0.014,0.407c0.001,0.166,0.003,0.336,0.021,0.512c0.215,2.063,1.426,3.142,2.511,3.142
			c0.192,0,0.375-0.033,0.545-0.097l0.003,0.014c0.128,0.575,0.773,1.299,1.047,1.54c0.303,0.268,0.818,0.554,1.354,0.554
			c0.25,0,0.48-0.063,0.683-0.189c0.54-0.332,0.633-1.084,0.723-1.812l0.008-0.064c0.022-0.181,0.041-0.366,0.061-0.556
			C7.5,17.2,7.521,17.001,7.545,16.803l0.038,0.008c0.154,0.036,0.284,0.073,0.404,0.105c0.341,0.097,0.629,0.174,1.179,0.152
			c0.538-0.024,1.01-0.15,1.487-0.394c0.762-0.388,1.322-1.119,1.619-2.113C12.891,12.499,12.045,10.28,11.227,8.78z M4.763,6.008
			C4.752,5.94,4.734,5.875,4.709,5.817c0.036,0.006,0.073,0.01,0.109,0.01c0,0,0,0,0,0c0.142,0,0.271-0.05,0.379-0.11
			C5.162,6.045,4.936,6.334,4.598,6.612C4.749,6.443,4.795,6.212,4.763,6.008z M1.929,13.262c0.108,0,0.199,0.065,0.275,0.198
			c0.074,0.13,0.042,0.235,0.002,0.303c-0.146,0.249-0.592,0.32-0.933,0.114C1.379,13.588,1.679,13.262,1.929,13.262z M1.943,12.024
			c-0.119-0.048-0.235-0.073-0.345-0.073c-0.438,0-0.695,0.368-0.842,0.728c-0.035-0.274-0.023-0.643,0.005-0.854
			c0.05-0.388,0.161-0.791,0.297-1.077c0.599-1.251,1.6-1.877,2.569-2.483c0.38-0.237,0.773-0.483,1.126-0.76
			c0.16-0.125,0.251-0.202,0.373-0.342C4.991,7.572,4.758,8.039,4.502,8.555c-0.65,1.308-1.457,2.934-1.569,5.087
			C2.8,12.946,2.438,12.227,1.943,12.024z M2.074,16.69c-0.539-0.261-0.927-1.069-0.932-1.886c0.224,0.215,0.563,0.5,0.982,0.5
			c0.143,0,0.284-0.034,0.419-0.103c0.194-0.096,0.329-0.289,0.396-0.558c0.026,0.778,0.102,1.77,0.28,1.994l0.004,0.006
			C2.895,16.814,2.386,16.839,2.074,16.69z M5.157,12.218c0.008-0.23,0.022-0.614,0.175-1.101c0.19-0.612,0.395-1.002,0.594-1.379
			c0.232-0.442,0.452-0.859,0.634-1.58c0.18-0.715,0.158-1.051,0.136-1.376C6.69,6.705,6.686,6.629,6.683,6.549l0.629,0.638
			c0.3,0.271,1.038,1.204,1.184,1.648c0.207,0.625-0.055,1.251-0.368,1.628l-0.056,0.067c-0.163,0.19-0.365,0.428-0.325,0.819
			c0.022,0.223,0.186,0.793,0.33,0.959l0.098,0.112l0.094-0.116c0.446-0.542,0.583-0.639,0.947-0.896
			c0.12-0.085,0.264-0.188,0.449-0.328c0.078-0.059,0.166-0.141,0.249-0.222c0.004-0.004,0.009-0.008,0.013-0.013
			c-0.075,0.599-0.518,1.204-0.918,1.574l-1.471,1.471c-0.293,0.349-0.534,0.664-0.699,1.183L6.16,14.492
			c-0.177-0.17-0.287-0.316-0.439-0.517l-0.191-0.251l0.635-0.563c0.373-0.375,0.288-0.826,0.197-1.305
			c-0.02-0.108-0.041-0.218-0.058-0.334l-0.04-0.271l-0.525,0.61c-0.144,0.152-0.326,0.305-0.501,0.453
			c-0.031,0.027-0.061,0.053-0.091,0.077C5.152,12.347,5.154,12.289,5.157,12.218z M4.489,17.068
			c0.333-0.677,0.401-1.424,0.457-2.024c0.031-0.335,0.059-0.637,0.124-0.829c0.134,0.439,0.71,1.244,0.97,1.483
			c0.153,0.14,0.262,0.243,0.4,0.397l0.095,0.106l0.093-0.106c-0.021,0.14-0.04,0.282-0.06,0.427c-0.101,0.728-0.205,1.48-0.42,1.86
			c-0.167,0.297-0.405,0.453-0.685,0.453c-0.322,0-0.67-0.202-0.956-0.558c-0.059-0.073-0.124-0.179-0.186-0.281
			C4.24,17.865,4.165,17.74,4.09,17.663l-0.028-0.027C4.233,17.485,4.378,17.297,4.489,17.068z M8.645,14.514l0.095-0.095
			c0.099-0.099,0.196-0.194,0.292-0.289c0.321-0.313,0.624-0.61,0.94-1.014c0.456-0.578,0.646-1.204,0.602-1.968
			c-0.029-0.477-0.236-1.725-0.431-2.111L10.063,8.93L9.947,9C9.922,9.015,9.911,9.027,9.885,9.056
			c-0.021,0.022-0.04,0.045-0.058,0.069C9.684,9.308,9.451,9.544,9.249,9.704c0.099-0.698,0.068-1.058-0.301-1.771
			C8.612,7.279,8.152,6.77,7.708,6.278L7.603,6.162C7.53,6.081,7.425,5.982,7.306,5.868C6.579,5.179,5.913,4.45,6.421,3.776
			L8.7,6.654c1.396,1.821,3.733,4.867,2.529,7.324c-0.591,1.206-1.596,1.819-2.846,1.683c-0.072-0.006-0.153-0.023-0.233-0.041
			c-0.116-0.022-0.236-0.046-0.343-0.046H7.805C7.984,15.174,8.332,14.826,8.645,14.514z"/>
		<polygon points="10.633,14.146 9.598,13.684 9.065,14.813 10.079,15.285 		"/>
		<polygon points="6.473,13.217 7.515,13.682 8.044,12.54 7.033,12.082 		"/>
		<path d="M6.406,11.096l0.147-0.148c0.072-0.074,0.181-0.199,0.303-0.34c0.186-0.215,0.397-0.459,0.55-0.6
			C7.49,9.931,7.558,9.854,7.632,9.771C7.694,9.7,7.761,9.625,7.845,9.542c0.237-0.234,0.211-0.387,0.168-0.64l-0.06-0.377
			L7.567,8.976c-0.066,0.07-0.115,0.128-0.172,0.197L6.919,9.688C6.882,9.73,6.847,9.762,6.811,9.795
			C6.774,9.828,6.736,9.862,6.696,9.906L6.653,9.952c-0.388,0.417-0.448,0.499-0.31,0.945L6.406,11.096z"/>
	</g>
	<path fill-rule="evenodd" clip-rule="evenodd" d="M90.056,8.333c-1.432,0.246-0.834,0.24-2.049,0.17V6.476
		C91.326,6.33,90.097,7.551,90.056,8.333L90.056,8.333z M85.13,15.213h2.932v-4.129c1.57-0.226,1.496,0.348,1.982,1.533
		c0.361,0.889,0.607,1.709,1.035,2.564l2.941,0.027l-2.207-5.362c-0.018-0.023-0.053-0.066-0.07-0.105
		c0.857-0.768,2.057-1.55,1.369-3.748c-0.834-2.667-4.246-2.019-7.982-2.019V15.213z"/>
	<path fill-rule="evenodd" clip-rule="evenodd" d="M100.367,7.322c0.527,0.729,0.84,2.247,1.04,3.266l-2.073-0.02L100.367,7.322z
		 M97.802,15.186c1.055-2.418-0.502-2.031,4.413-2.025l0.689,2.053l3.039-0.041l-3.879-11.197L98.716,4
		c-0.537,2.298-3.674,10.041-3.729,11.213L97.802,15.186z"/>
	<path fill-rule="evenodd" clip-rule="evenodd" d="M47.072,7.304l1.122,3.267l-2.081,0.012L47.072,7.304z M41.757,15.213l2.809-0.01
		c1.031-2.436-0.476-2.047,4.41-2.047l0.65,2.07l3.023-0.021L48.778,4.008l-3.311-0.029C45.05,6.152,41.793,13.918,41.757,15.213
		L41.757,15.213z"/>
	<path fill-rule="evenodd" clip-rule="evenodd" d="M55.961,10.312c-1.069,1.571-1.896,2.047-1.334,4.901l7.967-0.02l-0.019-2.475
		l-4.088-0.016c0.395-0.939,1.946-2.833,2.611-3.827c1.819-2.724,1.438-1.116,1.435-4.901h-7.861l0.054,2.472l3.874,0.086
		C57.777,7.777,56.853,9.003,55.961,10.312L55.961,10.312z"/>
	<path fill-rule="evenodd" clip-rule="evenodd" d="M68,6.452h4.378l0.013-2.477H65.06c0,2.187-0.29,9.656,0.091,11.238l7.619-0.041
		l0.013-2.35l-4.775-0.014l0.009-1.93h3.758l-0.036-2.425h-3.741L68,6.452z"/>
	<path fill-rule="evenodd" clip-rule="evenodd" d="M78.184,10.878l3.637,0.003l-0.036-2.422L78.02,8.39V6.469l4.405-0.017
		l0.013-2.477l-7.263,0.019l-0.002,11.174h7.609v-2.283l-4.794-0.012l-0.041-1.51C78.071,10.627,77.914,11.145,78.184,10.878
		L78.184,10.878z"/>
	<path fill-rule="evenodd" clip-rule="evenodd" d="M34.112,18.865c3.83,1.152,5.826-0.006,5.849-4.072
		c0.02-3.602,0-7.215-0.004-10.818h-2.933c0,2.573,0,5.147,0,7.724c0,5.24-0.068,4.645-2.063,4.801
		c-0.025,0.006-0.104,0.068-0.123,0.025c-0.022-0.041-0.087,0.012-0.152,0.023L34.112,18.865z"/>
	<path fill-rule="evenodd" clip-rule="evenodd" d="M27.971,15.209l6.456-0.01l0.016-2.51l-3.565-0.057
		c0-1.52,0.223-7.695-0.125-8.661l-2.82,0.026L27.971,15.209z"/>
	<path fill-rule="evenodd" clip-rule="evenodd" d="M20.475,7.322c0.526,0.729,0.843,2.247,1.036,3.266l-2.07-0.02L20.475,7.322z
		 M17.909,15.186c1.056-2.418-0.502-2.031,4.41-2.025l0.692,2.053l3.043-0.041l-3.88-11.197L18.826,4
		c-0.541,2.298-3.677,10.041-3.729,11.213L17.909,15.186z"/>
</g>
<rect y="0.01" opacity="0" fill-rule="evenodd" clip-rule="evenodd" fill="#141515" width="105.943" height="20"/>
</svg>
