<?xml version="1.0" encoding="utf-8"?>
<!-- Generator: Adobe Illustrator 16.0.0, SVG Export Plug-In . SVG Version: 6.00 Build 0)  -->
<!DOCTYPE svg PUBLIC "-//W3C//DTD SVG 1.1//EN" "http://www.w3.org/Graphics/SVG/1.1/DTD/svg11.dtd">
<svg version="1.1" id="Слой_1" xmlns="http://www.w3.org/2000/svg" xmlns:xlink="http://www.w3.org/1999/xlink" x="0px" y="0px"
	 width="105.943px" height="20px" viewBox="0 0 105.943 20" enable-background="new 0 0 105.943 20" xml:space="preserve">
<g>
	<g>
		<path d="M8.72,17.642l-0.087,0.117c-0.057,0.078-0.063,0.142-0.07,0.196c-0.001,0.013-0.002,0.022-0.004,0.037
			c-0.126,0.034-0.17-0.032-0.253-0.259C8.243,17.565,8.171,17.374,7.99,17.3l-0.152-0.06l-0.02,0.16
			c-0.048,0.392,0.385,1.077,0.571,1.204c0.131,0.089,0.251,0.135,0.354,0.135c0.132,0,0.238-0.07,0.29-0.195
			c0.095-0.229-0.001-0.594-0.21-0.8L8.72,17.642z"/>
		<path d="M2.888,10.421l-0.049-0.07l-0.083,0.02c-0.191,0.045-0.216,0.178-0.232,0.277c-0.002,0.012-0.004,0.025-0.007,0.039
			l-0.08-0.008c-0.091-0.276,0.127-0.517,0.419-0.797c0.162-0.156,0.291-0.279,0.31-0.416l0.021-0.15l-0.155,0.01
			c-0.35,0.025-1.006,0.712-1.088,1.25c-0.033,0.215-0.003,0.503,0.137,0.664c0.07,0.08,0.162,0.123,0.268,0.123
			c0.063,0,0.13-0.016,0.2-0.046c0.145-0.067,0.322-0.313,0.382-0.526C2.969,10.646,2.955,10.519,2.888,10.421z"/>
		<path d="M5.44,18.636l0.09,0.035l0.056-0.08c0.068-0.094,0.188-0.232,0.305-0.365c0.178-0.207,0.29-0.34,0.333-0.42l0.049-0.09
			L6.19,17.652c-0.101-0.079-0.223-0.181-0.325-0.265l-0.072-0.063c-0.028-0.025-0.058-0.05-0.088-0.074
			c0.156-0.142,0.564-0.615,0.657-0.779l0.042-0.073L6.35,16.333c-0.096-0.111-0.552-0.48-0.701-0.557l-0.085-0.044l-0.089,0.099
			c-0.204,0.223-0.458,0.499-0.618,0.734l-0.055,0.08l0.065,0.072c0.132,0.144,0.317,0.289,0.487,0.42
			c-0.108,0.094-0.229,0.246-0.346,0.395c-0.102,0.13-0.206,0.264-0.292,0.338l-0.08,0.073L4.7,18.032
			C4.776,18.14,5.29,18.58,5.44,18.636z"/>
		<path d="M11.227,8.769c-0.909-1.661-1.878-2.902-2.906-4.217L8.297,4.522c-0.206-0.264-0.416-0.518-0.626-0.77L7.454,3.489
			c-0.552-0.67-1.579-1.917-1.07-2.85c0.088-0.158,0.18-0.223,0.27-0.287c0.056-0.039,0.114-0.079,0.162-0.139l0.087-0.106
			L6.786,0.033C6.573-0.102,6.221,0.08,5.975,0.466C5.812,0.718,5.331,1.652,5.977,3.003c0.046,0.096,0.084,0.164,0.11,0.213
			c0.021,0.037,0.042,0.07,0.042,0.063c-0.003,0.01-0.024,0.041-0.044,0.068C6.056,3.392,6.014,3.451,5.959,3.542
			C5.466,4.366,5.73,5.017,5.942,5.54c0.078,0.189,0.15,0.37,0.181,0.54c0.152,0.856-0.401,2.074-0.769,2.88L5.245,9.202
			c-0.205,0.456-0.417,0.952-0.562,1.551c-0.091,0.363-0.266,1.508-0.037,1.975l0.042,0.086c-0.084,0.098-0.151,0.193-0.193,0.294
			c-0.083,0.198-0.134,0.538-0.194,0.931c-0.107,0.717-0.247,1.645-0.652,2.209c-0.003-0.037-0.011-0.08-0.023-0.137
			c-0.018-0.083-0.043-0.2-0.066-0.389c-0.047-0.356-0.071-0.726-0.069-1.09c0.004-0.701,0.089-1.41,0.244-2.056
			c0.306-1.271,0.77-2.228,1.18-3.071C5.554,8.183,6.108,7.04,5.72,5.298C5.649,4.979,5.539,4.634,5.257,4.464
			C5.134,4.388,5.001,4.349,4.865,4.349c-0.32,0-0.628,0.222-0.734,0.527c-0.06,0.174-0.047,0.35,0.032,0.508
			C4.055,5.372,3.94,5.39,3.823,5.431c-0.371,0.133-0.57,0.445-0.508,0.793c0.054,0.306,0.318,0.613,0.721,0.613l0,0
			c0.081,0,0.164-0.013,0.247-0.039c0.046-0.014,0.089-0.031,0.129-0.053C4.079,6.988,3.667,7.228,3.235,7.478
			c-0.74,0.431-1.506,0.875-2.047,1.447c-1.818,1.924-1.09,3.873-0.779,4.705c0.05,0.133,0.097,0.258,0.103,0.309
			c0.011,0.133,0.013,0.271,0.014,0.406c0.001,0.166,0.003,0.336,0.021,0.513c0.216,2.063,1.427,3.142,2.512,3.142
			c0.191,0,0.375-0.033,0.545-0.097l0.003,0.015c0.128,0.574,0.772,1.299,1.047,1.539c0.303,0.268,0.818,0.555,1.354,0.555
			c0.25,0,0.48-0.063,0.684-0.189c0.54-0.332,0.633-1.084,0.723-1.813l0.008-0.063c0.022-0.181,0.041-0.366,0.062-0.556
			c0.019-0.201,0.04-0.399,0.063-0.598L7.583,16.8c0.154,0.037,0.284,0.074,0.404,0.105c0.341,0.098,0.629,0.174,1.179,0.152
			c0.538-0.024,1.01-0.15,1.487-0.395c0.762-0.388,1.322-1.119,1.619-2.113C12.891,12.488,12.044,10.269,11.227,8.769z M4.763,5.997
			C4.751,5.929,4.734,5.864,4.708,5.806c0.036,0.006,0.073,0.011,0.109,0.011l0,0c0.142,0,0.271-0.05,0.379-0.11
			C5.162,6.034,4.936,6.323,4.598,6.601C4.749,6.433,4.794,6.201,4.763,5.997z M1.929,13.251c0.107,0,0.198,0.065,0.274,0.198
			c0.074,0.13,0.042,0.235,0.002,0.304c-0.146,0.248-0.592,0.319-0.933,0.113C1.378,13.577,1.679,13.251,1.929,13.251z
			 M1.943,12.013c-0.119-0.047-0.235-0.072-0.345-0.072c-0.438,0-0.695,0.367-0.843,0.729c-0.034-0.275-0.022-0.644,0.006-0.855
			c0.05-0.387,0.16-0.79,0.297-1.076c0.599-1.251,1.6-1.877,2.568-2.482C4.006,8.017,4.4,7.771,4.752,7.494
			c0.16-0.125,0.251-0.202,0.373-0.342C4.991,7.562,4.757,8.028,4.501,8.544c-0.649,1.309-1.457,2.934-1.568,5.088
			C2.799,12.935,2.438,12.216,1.943,12.013z M2.074,16.679c-0.539-0.26-0.927-1.068-0.932-1.885c0.224,0.215,0.563,0.5,0.981,0.5
			c0.144,0,0.284-0.035,0.419-0.104c0.194-0.096,0.329-0.289,0.396-0.559c0.025,0.778,0.102,1.771,0.28,1.994l0.004,0.006
			C2.895,16.804,2.386,16.828,2.074,16.679z M5.157,12.208c0.008-0.23,0.022-0.615,0.175-1.102c0.19-0.612,0.396-1.002,0.594-1.379
			c0.232-0.442,0.452-0.859,0.635-1.58c0.18-0.715,0.157-1.051,0.136-1.377C6.69,6.694,6.686,6.618,6.683,6.538l0.629,0.639
			c0.3,0.271,1.038,1.203,1.184,1.647c0.207,0.625-0.055,1.251-0.368,1.628l-0.056,0.066c-0.163,0.191-0.365,0.429-0.325,0.82
			c0.022,0.223,0.187,0.793,0.33,0.959l0.098,0.111l0.095-0.115c0.445-0.543,0.583-0.64,0.946-0.896
			c0.12-0.086,0.265-0.188,0.449-0.328c0.078-0.059,0.166-0.141,0.249-0.223c0.004-0.004,0.009-0.008,0.014-0.012
			c-0.075,0.598-0.519,1.203-0.919,1.573L7.538,13.88c-0.293,0.348-0.534,0.664-0.699,1.182l-0.679-0.58
			c-0.177-0.17-0.287-0.316-0.438-0.518l-0.191-0.25l0.635-0.563c0.373-0.375,0.288-0.826,0.197-1.306
			c-0.021-0.107-0.041-0.217-0.058-0.334l-0.04-0.271l-0.525,0.61c-0.144,0.152-0.326,0.305-0.501,0.453
			c-0.031,0.026-0.061,0.053-0.091,0.076C5.152,12.337,5.154,12.278,5.157,12.208z M4.489,17.058
			c0.333-0.678,0.401-1.424,0.457-2.024c0.031-0.335,0.059-0.638,0.124-0.829c0.134,0.439,0.71,1.244,0.97,1.482
			c0.153,0.141,0.263,0.244,0.4,0.398l0.095,0.105l0.093-0.105c-0.021,0.139-0.04,0.281-0.06,0.426
			c-0.102,0.729-0.205,1.48-0.42,1.86c-0.167,0.298-0.405,0.453-0.686,0.453c-0.321,0-0.67-0.202-0.956-0.558
			c-0.059-0.073-0.124-0.18-0.186-0.281c-0.081-0.131-0.156-0.256-0.231-0.333l-0.027-0.026C4.233,17.474,4.377,17.286,4.489,17.058
			z M8.645,14.503l0.095-0.095c0.099-0.099,0.196-0.194,0.292-0.289c0.321-0.313,0.624-0.61,0.94-1.015
			c0.456-0.577,0.646-1.203,0.602-1.967c-0.029-0.478-0.236-1.726-0.431-2.111l-0.08-0.107l-0.116,0.07
			C9.921,9.005,9.911,9.017,9.884,9.046C9.864,9.067,9.845,9.091,9.827,9.114C9.684,9.298,9.451,9.533,9.249,9.693
			c0.1-0.698,0.068-1.058-0.301-1.771c-0.336-0.654-0.796-1.164-1.24-1.656L7.603,6.151C7.53,6.07,7.424,5.972,7.306,5.857
			C6.579,5.169,5.913,4.438,6.42,3.765L8.7,6.644c1.396,1.82,3.733,4.867,2.529,7.324c-0.591,1.205-1.597,1.818-2.847,1.683
			c-0.071-0.007-0.152-0.022-0.232-0.041c-0.116-0.022-0.236-0.046-0.343-0.046H7.805C7.984,15.163,8.332,14.815,8.645,14.503z"/>
		<polygon points="10.632,14.136 9.598,13.673 9.065,14.802 10.079,15.274 		"/>
		<polygon points="6.473,13.206 7.515,13.671 8.043,12.529 7.033,12.071 		"/>
		<path d="M6.406,11.085l0.147-0.148c0.071-0.073,0.181-0.198,0.303-0.34c0.186-0.215,0.396-0.459,0.55-0.6
			C7.49,9.921,7.558,9.843,7.631,9.761c0.063-0.072,0.13-0.146,0.214-0.229c0.236-0.233,0.211-0.388,0.168-0.64L7.953,8.515
			L7.567,8.966C7.5,9.035,7.452,9.093,7.395,9.162L6.918,9.677C6.881,9.72,6.847,9.751,6.811,9.784
			C6.774,9.817,6.736,9.851,6.696,9.896L6.653,9.941c-0.388,0.417-0.448,0.499-0.311,0.944L6.406,11.085z"/>
	</g>
	<path d="M90.056,8.322c-1.433,0.246-0.834,0.239-2.05,0.17V6.466C91.326,6.319,90.097,7.54,90.056,8.322L90.056,8.322z
		 M85.129,15.202h2.933v-4.129c1.569-0.227,1.496,0.348,1.981,1.533c0.361,0.889,0.607,1.709,1.035,2.564l2.941,0.026l-2.207-5.362
		c-0.019-0.023-0.054-0.066-0.07-0.105c0.857-0.768,2.057-1.549,1.369-3.747c-0.834-2.667-4.246-2.019-7.982-2.019V15.202z"/>
	<path d="M100.367,7.312c0.528,0.729,0.84,2.246,1.04,3.266l-2.073-0.02L100.367,7.312z M97.802,15.175
		c1.055-2.418-0.503-2.031,4.413-2.024l0.689,2.053l3.039-0.041l-3.879-11.196l-3.349,0.023c-0.536,2.298-3.674,10.041-3.729,11.213
		L97.802,15.175z"/>
	<path d="M47.072,7.294l1.122,3.266l-2.081,0.013L47.072,7.294z M41.756,15.202l2.81-0.01c1.031-2.436-0.477-2.047,4.41-2.047
		l0.649,2.07l3.023-0.021L48.778,3.997l-3.312-0.029C45.049,6.142,41.792,13.907,41.756,15.202L41.756,15.202z"/>
	<path d="M55.96,10.302c-1.068,1.57-1.896,2.047-1.334,4.9l7.968-0.02l-0.02-2.475l-4.088-0.017
		c0.395-0.938,1.946-2.833,2.611-3.827c1.818-2.725,1.438-1.115,1.435-4.9h-7.861l0.055,2.471L58.6,6.521
		C57.777,7.767,56.853,8.992,55.96,10.302L55.96,10.302z"/>
	<path d="M68,6.441h4.378l0.014-2.478H65.06c0,2.188-0.29,9.656,0.091,11.238l7.619-0.041l0.013-2.35l-4.775-0.014l0.01-1.931h3.758
		l-0.036-2.425h-3.741L68,6.441z"/>
	<path d="M78.184,10.867l3.637,0.003l-0.036-2.422L78.02,8.38V6.458l4.404-0.017l0.014-2.478l-7.264,0.02l-0.002,11.174h7.609
		v-2.283l-4.794-0.012l-0.041-1.51C78.071,10.616,77.914,11.134,78.184,10.867L78.184,10.867z"/>
	<path d="M34.112,18.854c3.83,1.152,5.826-0.006,5.849-4.072c0.021-3.602,0-7.215-0.004-10.818h-2.933c0,2.573,0,5.147,0,7.725
		c0,5.24-0.068,4.645-2.063,4.801c-0.024,0.006-0.104,0.068-0.123,0.025c-0.021-0.041-0.087,0.012-0.151,0.022L34.112,18.854z"/>
	<path d="M27.971,15.198l6.456-0.01l0.016-2.51l-3.565-0.058c0-1.521,0.224-7.694-0.125-8.661l-2.819,0.026L27.971,15.198z"/>
	<path d="M20.475,7.312C21,8.04,21.318,9.558,21.511,10.577l-2.07-0.02L20.475,7.312z M17.909,15.175
		c1.056-2.418-0.502-2.031,4.41-2.024l0.692,2.053l3.043-0.041L22.173,3.966l-3.348,0.023c-0.541,2.298-3.677,10.041-3.729,11.213
		L17.909,15.175z"/>
</g>
<rect opacity="0" fill-rule="evenodd" clip-rule="evenodd" width="105.943" height="20"/>
</svg>
