<?xml version="1.0" encoding="utf-8"?>
<!-- Generator: Adobe Illustrator 16.0.0, SVG Export Plug-In . SVG Version: 6.00 Build 0)  -->
<!DOCTYPE svg PUBLIC "-//W3C//DTD SVG 1.1//EN" "http://www.w3.org/Graphics/SVG/1.1/DTD/svg11.dtd">
<svg version="1.1" id="Слой_1" xmlns="http://www.w3.org/2000/svg" xmlns:xlink="http://www.w3.org/1999/xlink" x="0px" y="0px"
	 width="68.877px" height="20px" viewBox="0 0 68.877 20" enable-background="new 0 0 68.877 20" xml:space="preserve">
<g>
	<path fill-rule="evenodd" clip-rule="evenodd" d="M12.689,15.772c-0.509,0.184-1.167,1.43-3.241,1.641
		c-1.597,0.164-2.922-0.158-4.023-0.789C0.536,13.819,0.98,6.604,5.443,4.313c4.243-2.178,6.706,0.512,7.246,0.719l-0.003-1.1
		l4.731-0.007v13.075l-4.738-0.002L12.689,15.772z M36.025,14.384l0.023-0.838c-1.223-0.023-0.891-1.217-0.881-2.079
		c0.012-1.03,0.029-2.315,0.029-2.924c0-1.722,0-3.446,0-5.168h-1.002l-0.008,9.247c0.018,0.617,0.178,1.221,0.719,1.58
		C35.261,14.438,35.607,14.353,36.025,14.384L36.025,14.384z M33.689,14.384l0.025-0.838c-1.223-0.023-0.893-1.217-0.883-2.079
		c0.014-1.03,0.029-2.315,0.029-2.924c0-1.722,0-3.446,0-5.168h-1.006l-0.002,9.247c0.016,0.617,0.176,1.221,0.717,1.58
		C32.926,14.438,33.271,14.353,33.689,14.384L33.689,14.384z M6.933,10.823c0.365,3.67,6.251,3.313,5.842-0.725
		C12.414,6.499,6.533,6.799,6.933,10.823L6.933,10.823z M53.859,10.332c0-1.78,0.705-3.083,2.566-3.328
		c0.74-0.096,1.65,0.339,2.08,0.719c1.008,0.888,0.877,1.87,0.877,3.206C59.383,14.226,53.859,14.974,53.859,10.332L53.859,10.332z
		 M52.851,9.536c0,1.72-0.148,3.019,1.428,4.255c1.949,1.53,6.209,0.724,6.209-3.062c0-1.875-0.254-3.469-2.17-4.41
		C55.994,5.179,52.851,6.925,52.851,9.536L52.851,9.536z M26.732,13.612c-0.586,0-0.771-0.027-1.337-0.267
		c-0.413-0.174-0.464-0.276-0.757-0.544c-0.991-0.887-0.818-1.963-0.818-3.266c0-0.718,0.47-1.455,0.877-1.813
		c1.161-1.022,2.83-0.907,3.812,0.057C30.132,9.379,29.488,13.612,26.732,13.612L26.732,13.612z M22.815,9.237
		c0,1.768-0.276,3.008,1.077,4.305c1.259,1.205,3.577,1.318,5.01,0.23c0.248-0.189,0.299-0.297,0.545-0.457
		c0.057,0.689,1.042,1.193,1.829,1.193c0.014-0.491-0.02-0.81-0.02-0.912c-0.791-0.064-0.84-0.213-0.901-0.914
		c-0.076-0.892,0.033-1.949,0.01-2.886c-0.039-1.614-1.137-3.297-2.789-3.726c-1.156-0.299-2.471-0.011-3.488,0.849
		C23.456,7.456,22.815,8.335,22.815,9.237L22.815,9.237z M36.695,14.499c0,0.01,0.885,0.008,0.988,0.008
		c0.033-0.903,0.01-1.958,0.02-1.966c0.869-0.983,0.455-0.484,1.488-1.515c0.771,0.514,3.318,3.48,3.717,3.48
		c1.779,0,1.672,0.318-1.781-3.107l-1.131-1.067c0.584-0.583,2.926-2.876,4.041-4.224c-1.223,0-0.949-0.073-1.297,0.014
		c-0.283,0.073-4.039,4.238-5,4.875c-0.029-1.814,0.047-5.923,0.047-7.323c0-0.405-0.318-0.299-1.105-0.299v8.564
		C36.681,12.302,36.689,14.079,36.695,14.499L36.695,14.499z M48.533,13.612c-1.646,0-2.914-1.102-2.914-2.385
		c0-1.749-0.238-2.518,0.979-3.604c1.271-1.133,4.549-0.936,4.549,2.708c0,1.064-0.172,1.591-0.656,2.233
		C50.127,13.042,49.314,13.612,48.533,13.612L48.533,13.612z M44.515,9.836v7.255h1.004v-3.678c0.379,0.252,0.607,0.508,1.068,0.734
		c1.896,0.924,5.563,0.371,5.563-3.815c0-0.871-0.117-1.606-0.387-2.226c-0.744-1.696-2.732-2.511-4.496-1.99
		C45.767,6.559,44.515,7.89,44.515,9.836L44.515,9.836z M65.213,13.612c-0.889,0-1.566-0.229-2.152-0.854
		c-0.816-0.881-0.764-1.503-0.764-2.725c0-3.219,3.211-3.721,4.748-2.21c1.02,1.003,1.09,3.765,0.053,4.872
		C66.699,13.117,65.992,13.612,65.213,13.612L65.213,13.612z M61.191,10.134v6.658c0,0.377,0.236,0.299,0.807,0.299
		c0.477,0,0.301-0.803,0.299-1.691c0-0.662,0-1.322,0-1.986c0.432,0.286,0.842,0.803,1.781,1.02c1.158,0.27,2.385,0.006,3.275-0.59
		c0.328-0.22,0.467-0.387,0.701-0.695c0.457-0.613,0.654-1.082,0.736-1.596c0.162-0.982,0.121-2.617-0.346-3.521
		c-0.955-1.846-3.4-2.606-4.988-1.719C61.949,7.159,61.191,8.216,61.191,10.134L61.191,10.134z M0,1.094v17.534
		c0,0.51,0.106,0.791,0.396,1.055l0.131,0.107c0.021,0.014,0.052,0.033,0.076,0.047c0.292,0.158,0.568,0.125,0.971,0.117
		l14.937-0.004c0.915,0,2.777,0.146,3.32-0.074c0.372-0.154,0.605-0.375,0.723-0.729c0.172-0.533,0.159-17.9,0.014-18.344
		c-0.182-0.578-0.771-0.796-1.376-0.799L1.82,0.015C1.617,0.011,1.269-0.007,1.084,0.008C0.444,0.052,0,0.416,0,1.094L0,1.094z"/>
</g>
<rect x="0" opacity="0" fill-rule="evenodd" clip-rule="evenodd" width="68.877" height="20"/>
</svg>
