<?xml version="1.0" encoding="utf-8"?>
<!-- Generator: Adobe Illustrator 16.0.0, SVG Export Plug-In . SVG Version: 6.00 Build 0)  -->
<!DOCTYPE svg PUBLIC "-//W3C//DTD SVG 1.1//EN" "http://www.w3.org/Graphics/SVG/1.1/DTD/svg11.dtd">
<svg version="1.1" id="Слой_1" xmlns="http://www.w3.org/2000/svg" xmlns:xlink="http://www.w3.org/1999/xlink" x="0px" y="0px"
	 width="50.077px" height="20px" viewBox="0 0 50.077 20" enable-background="new 0 0 50.077 20" xml:space="preserve">
<g>
	<polygon points="10.004,9.966 11.653,8.055 9.715,6.417 8.066,8.336 	"/>
	<path d="M26.002,3.038c0.927,0.183,1.227,0.416,1.483,0.808c0.126,0.195,0.237,0.428,0.345,0.653
		c0.222,0.465,0.398,0.832,0.707,0.885c0.054,0.009,0.103,0.013,0.148,0.013c0.552,0,0.582-0.539,0.597-0.829
		c0.02-0.364-0.108-0.788-0.231-1.198c-0.108-0.355-0.218-0.721-0.219-1.004c0.029,0.004,0.06,0.01,0.092,0.015
		c0.315,0.05,0.727,0.079,0.978-0.037c0.213-0.1,0.384-0.322,0.436-0.566c0.057-0.262-0.022-0.535-0.221-0.766
		c-0.472-0.548-1.394-0.514-1.875,0.062c-0.381,0.469-0.442,0.85-0.453,1.096c-0.021-0.019-0.043-0.04-0.068-0.064
		c-0.599-0.582-1.108-0.877-1.515-0.877c-0.411,0-0.706,0.302-0.752,0.769C25.41,2.446,25.603,2.958,26.002,3.038z"/>
	<path d="M36.569,2.987c0.939,0.186,1.237,0.416,1.484,0.802c0.148,0.228,0.224,0.458,0.292,0.662
		c0.094,0.284,0.191,0.577,0.494,0.63c0.046,0.007,0.089,0.011,0.128,0.011c0.533,0,0.556-0.543,0.568-0.834l0.004-0.093
		c0.018-0.328-0.031-0.647-0.077-0.955c-0.048-0.312-0.093-0.609-0.066-0.898c0.03,0.004,0.062,0.009,0.095,0.015
		c0.319,0.05,0.735,0.079,0.987-0.043c0.213-0.102,0.383-0.328,0.434-0.574c0.053-0.26-0.026-0.527-0.222-0.751
		c-0.477-0.554-1.405-0.517-1.875,0.062c-0.381,0.469-0.442,0.851-0.456,1.095c-0.021-0.02-0.045-0.043-0.072-0.068
		c-0.606-0.589-1.101-0.875-1.512-0.875c-0.411,0-0.705,0.302-0.752,0.769C35.979,2.394,36.17,2.908,36.569,2.987z"/>
	<path d="M4.69,3.15c0.928,0.184,1.228,0.417,1.483,0.809c0.144,0.222,0.219,0.45,0.285,0.65c0.095,0.29,0.194,0.59,0.499,0.636
		c0.049,0.009,0.094,0.013,0.135,0.013c0.525,0,0.547-0.538,0.558-0.827l0.004-0.103c0.018-0.33-0.03-0.65-0.076-0.959
		C7.532,3.056,7.487,2.757,7.512,2.475C7.544,2.48,7.58,2.486,7.616,2.492c0.317,0.05,0.723,0.082,0.979-0.039
		C8.81,2.347,8.98,2.12,9.03,1.874c0.053-0.259-0.024-0.525-0.219-0.752C8.333,0.576,7.413,0.608,6.93,1.186
		C6.553,1.655,6.491,2.037,6.478,2.282c-0.02-0.019-0.043-0.041-0.069-0.065C5.81,1.633,5.3,1.337,4.894,1.337
		c-0.411,0-0.706,0.302-0.751,0.77C4.098,2.559,4.292,3.071,4.69,3.15z"/>
	<path d="M31.407,4.439c0.241,0,0.511-0.082,0.797-0.168c0.125-0.038,0.253-0.077,0.379-0.108c0.105-0.027,0.271-0.043,0.432-0.043
		c0.218,0,0.364,0.029,0.44,0.055c-0.029,0.032-0.077,0.079-0.159,0.14c-0.162,0.121-0.518,0.218-0.862,0.312
		C31.8,4.798,31.2,4.962,31.095,5.406c-0.042,0.18-0.019,0.328,0.071,0.44c0.061,0.077,0.179,0.168,0.4,0.168
		c0.368,0,0.861-0.252,0.866-0.254c0.258-0.132,0.576-0.17,0.913-0.21c0.791-0.094,1.775-0.212,2.393-1.666
		c0.231-0.544,0.333-0.921,0.175-1.24c-0.163-0.327-0.561-0.465-0.926-0.557c-0.227-0.06-0.583-0.089-1.089-0.089
		c-0.406,0-0.833,0.019-1.146,0.033c-0.177,0.007-0.317,0.014-0.385,0.022L32.209,2l-1.496,1.794l0.027,0.117
		C30.817,4.252,31.055,4.439,31.407,4.439z"/>
	<path d="M4.584,10.865c0.159,0,0.39-0.073,0.588-0.427c0.109-0.198,0.249-0.352,0.383-0.501c0.259-0.288,0.528-0.584,0.528-1.128
		c0-0.212-0.103-0.651-0.423-0.651c-0.066,0-0.193,0.023-0.296,0.179C5.29,8.448,5.186,8.5,5.101,8.521
		c0-0.177,0.106-0.321,0.274-0.531C5.608,7.696,5.9,7.332,5.677,6.72C5.608,6.6,5.398,6.236,5.052,6.236
		c-0.521,0-0.798,0.778-1.058,1.645c-0.033,0.107-0.06,0.197-0.081,0.256c-0.347,0.954-0.194,1.93,0.136,2.401
		C4.238,10.809,4.444,10.865,4.584,10.865z"/>
	<path d="M45.537,15.113c-0.802,0.483-1.228,0.643-1.871,0.887c-0.232,0.088-0.489,0.186-0.799,0.311
		c-0.336,0.136-0.663,0.185-0.951,0.229c-0.617,0.092-1.2,0.18-1.431,1.061c-0.042,0.167,0.01,0.278,0.06,0.343
		c0.079,0.102,0.205,0.153,0.373,0.153c0.405,0,1.095-0.309,1.16-0.344c0.255-0.145,0.416-0.184,0.737-0.263
		c0.12-0.029,0.257-0.063,0.426-0.108c0.206-0.059,0.418-0.115,0.631-0.173c0.673-0.18,1.37-0.366,1.941-0.595
		c0.731-0.296,0.915-0.793,0.849-1.13C46.57,15.023,46.027,14.819,45.537,15.113z"/>
	<path d="M49.183,6.487c-0.068-0.304-0.133-0.595-0.192-0.87c0.309,0.056,0.592-0.06,0.739-0.302c0.265-0.436,0.105-1.2-0.486-2.335
		c-0.156-0.298-0.241-0.625-0.316-0.912c-0.144-0.554-0.293-1.126-0.94-1.126c-0.157,0-0.333,0.037-0.539,0.111l-0.085,0.031
		l-0.044,0.08c-0.826,1.479-0.72,1.909-0.425,2.667c0.147,0.376,0.33,0.846,0.401,1.685c0.023,0.274,0.104,0.902,0.208,1.713
		c0.129,1.009,0.34,2.662,0.497,4.173c-0.028-0.218-0.069-0.406-0.12-0.534c-0.348-0.924-1.352-0.924-1.682-0.924
		c-0.424,0-0.896,0.062-1.351,0.123c-0.134,0.018-0.268,0.036-0.401,0.052c-0.192-0.756-0.476-2.707-0.465-3.146
		C43.997,6.218,44,5.676,44,5.294c0.305,0.253,0.841,0.261,1.422-0.236c0.459-0.394,0.087-1.193-0.307-2.04
		c-0.111-0.239-0.222-0.477-0.309-0.697c-0.28-0.717-0.383-1.193-0.451-1.508c-0.078-0.36-0.146-0.671-0.515-0.671
		c-0.52,0-0.997,0.731-1.306,1.345c-0.28,0.557-0.308,0.765-0.28,0.868l0.636,7.796l0.001,0.128
		c0.002,0.143,0.003,0.246-0.022,0.391c-0.054,0.252-1.463,0.598-2.843,0.698l-0.099,0.006c-0.043,0.003-0.083,0.006-0.122,0.009
		c0.037-0.046,0.075-0.096,0.112-0.151c0.564-0.858,0.644-1.759,0.224-2.538c-0.523-0.971-1.776-1.623-3.118-1.623
		c-0.689,0-1.706,0.168-2.649,0.986l-3.484,3.603c-0.024-0.027-0.05-0.056-0.078-0.087c-0.253-0.279-0.636-0.7-1.006-0.941
		c-0.25-0.166-0.551-0.249-0.896-0.249c-0.877,0-1.898,0.545-2.574,0.906l-0.273,0.144c-1.185,0.611-3.616,3.185-4.34,4.062
		c-0.556,0.677-2.109,1.603-2.592,1.801l-0.026-0.01c-0.097-0.057-0.432-0.345-0.527-0.472l0.019-0.104l-0.146-0.086
		c-0.011-0.007-0.02-0.013-0.027-0.018c0.099-0.126,0.476-0.366,0.785-0.563c1.274-0.812,3.394-2.16,3.89-4.912
		c0.126-0.06,0.321-0.171,0.654-0.375l0.111-0.067c1.87-1.222,2.145-3.097,0.816-5.572c-0.231-0.434-0.151-0.519-0.029-0.647
		c0.186-0.196,0.36-0.446,0.076-0.944c-0.575-1.016-1.047-1.646-1.618-1.646c-0.077,0-0.153,0.013-0.228,0.037
		c-0.54,0.176-0.959,0.843-1.093,1.41C21.678,3.794,21.753,4.188,22,4.432c0.551,0.545,1.792,3.271,1.544,3.592
		c-0.588,0.318-0.918,0.453-1.106,0.453c-0.126,0-0.188-0.06-0.402-0.317c-0.186-0.224-0.441-0.532-0.9-0.864
		c-1.387-1.003-2.732-0.79-3.453,0.479c-0.527,0.928-0.707,2.307-0.411,3.14c0.125,0.349,0.331,0.589,0.596,0.691
		c0.573,0.226,1.117,0.34,1.621,0.34c0.788,0,1.312-0.273,1.632-0.471c-0.004,0.028-0.009,0.059-0.015,0.091
		c-0.234,1.432-5.222,4.496-7.883,4.497c0,0,0,0-0.001,0c-0.169,0-0.325-0.014-0.463-0.041c-0.848-0.165-1.508-0.924-1.596-1.819
		c0.212-0.177,1.02-0.624,1.568-0.927c0.766-0.423,1.243-0.69,1.396-0.835c2.055-1.925,1.783-3.448,0.482-5.52l0.883-0.499
		c-0.079,0.314-0.064,0.52,0.045,0.663c0.075,0.099,0.19,0.153,0.324,0.153c0.501,0,1.661-0.964,3.449-2.866l0.039-0.041
		c0.144-0.123,0.279-0.235,0.404-0.339c0.669-0.557,1.074-0.893,1.01-1.312c-0.043-0.285-0.294-0.5-0.722-0.717
		c0.367-0.096,0.395-0.682,0.405-0.914c0.016-0.326-0.076-0.611-0.258-0.803c-0.152-0.16-0.362-0.249-0.589-0.249
		c-0.402,0-0.814,0.268-1.13,0.734c-0.032,0.047-0.113,0.118-0.191,0.187c-0.227,0.199-0.539,0.473-0.526,0.876
		c0.01,0.314,0.216,0.624,0.627,0.942c0.286,0.23,0.321,0.286,0.167,0.537c-0.389,0.643-1.372,1.502-2.091,2.13
		c-0.603,0.527-0.85,0.749-0.927,0.917l-2.107-2.9l-1.14,1.76c-0.369,0.416-0.122,0.802,0.041,1.057
		c0.071,0.111,0.139,0.217,0.166,0.313c0.125,0.478,0.411,0.951,0.688,1.407c0.443,0.731,0.862,1.422,0.635,2.074
		c-0.223,0.64-1.048,1.218-2.522,1.765c-5.818,2.15-9.179,1.994-9.634-0.487c-0.143-0.767,0.025-1.682,0.16-2.418
		c0.143-0.78,0.237-1.296,0.004-1.576C1.752,7.24,1.635,7.149,1.436,7.149C1.16,7.15,0.77,7.265,0.472,7.807
		c-0.758,1.378-0.434,4.523,0.353,5.777c0.877,1.401,3.029,2.584,4.726,2.584c0.62-0.006,2.307-0.259,4.359-1.161
		c0.05,0.154,0.092,0.407,0.128,0.625c0.187,1.133,0.499,3.029,2.928,3.029c0.269,0,0.561-0.023,0.867-0.071
		c0.6-0.091,1.565-0.498,2.799-1.181c0.283,0.815,0.641,1.208,0.935,1.531c0.083,0.09,0.161,0.176,0.231,0.266
		c0.408,0.529,0.896,0.797,1.448,0.797c1.301,0,2.676-1.51,3.781-2.724c0.505-0.555,0.982-1.078,1.309-1.288
		c0.169-0.108,0.414-0.374,0.752-0.742c0.797-0.868,2.132-2.319,3.184-2.319c0.405,0,0.739,0.223,1.021,0.678
		c0.247,0.401,0.304,0.895,0.323,1.057l0.034,0.275h0.176C29.948,14.979,30.063,15,30.17,15c0.433,0,0.653-0.31,0.799-0.515
		c0.041-0.058,0.103-0.144,0.094-0.154l0.2,0.068c1.354,0.464,1.378,0.469,2.685,0.5l0.563,0.012c2.207,0,4.03-0.711,5.639-1.338
		c0.982-0.383,1.913-0.746,2.772-0.871c0.555,1.066,1.683,1.846,2.592,2.154c0.087,0.029,0.179,0.045,0.274,0.045
		c0.984,0,2.081-1.669,2.178-2.11c0.076-0.34,0.087-0.776,0.057-1.162c0.159,1.574,0.25,2.947,0.113,3.198
		c-0.262,0.312-0.547,1.464-0.347,1.892c0.157,0.336,0.53,0.355,0.991-0.134C50.931,14.29,49.921,9.779,49.183,6.487z
		 M46.302,12.688c-0.087,0.102-0.171,0.153-0.249,0.153c-0.087,0-0.333-0.07-0.72-0.717c-0.038-0.063-0.047-0.099-0.053-0.105
		c0.021-0.012,0.081-0.033,0.194-0.033c0.37,0,0.812,0.2,0.91,0.412C46.399,12.433,46.441,12.522,46.302,12.688z M38.433,10.429
		c-0.089,0.503-1.02,1.164-2.034,1.441c-1.11,0.309-2.297,0.355-2.906,0.355c-0.385,0-0.698-0.018-0.926-0.039l1.608-1.792
		c0.935-1.043,1.477-1.431,2.002-1.431c0.501,0,1.07,0.337,2.008,1.002C38.448,10.152,38.453,10.32,38.433,10.429z M20.213,9.329
		c-0.257,0.157-0.766,0.123-1.452-0.106c-0.056-0.018-0.087-0.033-0.1-0.034c0.002-0.018,0.007-0.044,0.013-0.072
		c0.013-0.068,0.068-0.295,0.224-0.357l0.011-0.235l0,0v0.235C19.202,8.759,19.995,9.116,20.213,9.329z M48.634,5.099
		C48.634,5.099,48.635,5.099,48.634,5.099L48.634,5.099C48.634,5.099,48.634,5.099,48.634,5.099z"/>
	<path d="M40.948,15.392c-0.157-0.425-0.607-0.644-1.274-0.583c-0.803,0.074-1.338,0.727-1.769,1.358
		c-0.91-0.444-1.37-0.28-2.159,0.15l-0.474,0.266c-0.704,0.397-1.581,0.893-2.243,1.114c-1.032,0.349-1.502,0.709-1.438,1.103
		c0.046,0.282,0.358,0.452,0.834,0.452c0.414,0,0.861-0.128,1.228-0.352c0.375-0.229,0.709-0.387,1.065-0.555
		c0.278-0.131,0.558-0.263,0.858-0.43c0.13-0.072,0.243-0.139,0.342-0.196c0.257-0.151,0.413-0.242,0.531-0.242
		c0.115,0,0.279,0.089,0.588,0.316c0.192,0.14,0.439,0.211,0.735,0.211c0.928,0,2.103-0.681,2.525-1.044
		C40.865,16.476,41.121,15.861,40.948,15.392z"/>
	<polygon points="28.138,16.534 26.617,15.255 24.968,17.166 26.906,18.796 28.224,17.274 29.738,18.553 31.386,16.635 
		29.456,15.005 	"/>
</g>
<rect opacity="0" fill-rule="evenodd" clip-rule="evenodd" width="50.077" height="20"/>
</svg>
