<?xml version="1.0" encoding="utf-8"?>
<!-- Generator: Adobe Illustrator 16.0.0, SVG Export Plug-In . SVG Version: 6.00 Build 0)  -->
<!DOCTYPE svg PUBLIC "-//W3C//DTD SVG 1.1//EN" "http://www.w3.org/Graphics/SVG/1.1/DTD/svg11.dtd">
<svg version="1.1" id="Слой_1" xmlns="http://www.w3.org/2000/svg" xmlns:xlink="http://www.w3.org/1999/xlink" x="0px" y="0px"
	 width="46.568px" height="20px" viewBox="0 0 46.568 20" enable-background="new 0 0 46.568 20" xml:space="preserve">
<g>
	<path d="M17.207,8.877h-2.034h-1.354V8.876h-1.673v1.655v0.496h3.026h1.51v2.279H9.194v-4.25H6.988v4.252v2.215v1.559
		c-0.115,0.6-0.886,0.656-0.918,0.786H4.101v2.149h0.032h3.38c0.919,0,1.673-0.746,1.673-1.654v-0.35h0.009v-2.49h9.677v-1.834
		v-0.381v-2.776C18.872,9.624,18.125,8.877,17.207,8.877z"/>
	<path d="M15.558,16.383c-0.681,0-1.23,0.553-1.23,1.225c0,0.675,0.55,1.227,1.23,1.227c0.688,0,1.238-0.552,1.238-1.227
		C16.797,16.936,16.247,16.383,15.558,16.383z"/>
	<path d="M7.988,8.439c0.68,0,1.238-0.544,1.238-1.226c0-0.674-0.558-1.217-1.238-1.217c-0.68,0-1.238,0.544-1.238,1.217
		C6.75,7.895,7.308,8.439,7.988,8.439z"/>
	<path d="M40.531,12.131h0.008v1.186H39.58v-0.008h-2.271v-2.654c0-0.908-0.755-1.646-1.673-1.646h-5.053v4.301h-3.296v-2.654
		c0-0.908-0.747-1.646-1.665-1.646h-3.388c-0.918,0-1.673,0.738-1.673,1.646v3.156c0,0.91,0.755,1.655,1.673,1.655h1.846v0.058
		h1.099v2.345h-1.583h-2.952v0.495v1.654h1.673h1.279h2.107c0.919,0,1.665-0.746,1.665-1.654v-2.84H39.58v-0.058h1.484
		c0.918,0,1.672-0.745,1.672-1.655v-1.68h0.009V4.073h-2.214V12.131z M25.031,12.783c0,0.301-0.246,0.543-0.549,0.543h-1.116
		c-0.303,0-0.549-0.242-0.549-0.543v-1.039c-0.001-0.3,0.246-0.543,0.549-0.543h1.116c0.303,0,0.549,0.243,0.549,0.543V12.783z
		 M35.052,12.783c0,0.301-0.246,0.543-0.55,0.543h-1.114c-0.305,0-0.55-0.242-0.55-0.543v-1.039c0-0.3,0.245-0.543,0.55-0.543h1.114
		c0.305,0,0.55,0.243,0.55,0.543V12.783z"/>
	<rect x="44.354" y="4.073" width="2.214" height="11.336"/>
</g>
<path d="M8.218,0c0.328,0,0.648,0.016,0.969,0.057v1.777C8.874,1.785,8.546,1.761,8.218,1.761c-3.551,0-6.438,2.856-6.438,6.37
	c0,0.041,0,0.089,0,0.129H0c0-0.041,0-0.089,0-0.13C0,3.644,3.683,0,8.218,0L8.218,0z"/>
<path d="M8.62,2.823c0.214,0,0.427,0.016,0.632,0.041v1.169C9.046,4,8.833,3.984,8.62,3.984c-2.346,0-4.24,1.875-4.24,4.195
	c0,0.024,0,0.049,0,0.081H3.215c0-0.032-0.008-0.057-0.008-0.081C3.207,5.218,5.634,2.823,8.62,2.823L8.62,2.823z"/>
<rect x="0" fill-opacity="0" width="46.568" height="20"/>
</svg>
