<?xml version="1.0" encoding="utf-8"?>
<!-- Generator: Adobe Illustrator 16.0.0, SVG Export Plug-In . SVG Version: 6.00 Build 0)  -->
<!DOCTYPE svg PUBLIC "-//W3C//DTD SVG 1.1//EN" "http://www.w3.org/Graphics/SVG/1.1/DTD/svg11.dtd">
<svg version="1.1" id="Слой_1" xmlns="http://www.w3.org/2000/svg" xmlns:xlink="http://www.w3.org/1999/xlink" x="0px" y="0px"
	 width="86.17px" height="20px" viewBox="0 0 86.17 20" enable-background="new 0 0 86.17 20" xml:space="preserve">
<g>
	<path d="M0,15.572h12.291V7.321C9.926,7.527,7.716,7.701,5.57,8.789C3.008,10.082,0.664,12.504,0,15.572z M9.119,10.748v3.1H5.053
		c0.134-0.729,0.726-1.375,1.192-1.838C7.085,11.189,8.061,10.852,9.119,10.748z"/>
	<rect x="3.816" y="3.945" width="3.288" height="1.734"/>
	<path d="M20.972,7.312h-3.464v7.387c0,0.564-0.073,1.377-0.353,1.869c-0.239,0.43-0.644,0.277-0.675,0.338v0.001h-2.208v2.34
		c1.099-0.022,2.375,0.041,3.443-0.144c1.256-0.207,2.49-0.781,3.008-2.188c0.291-0.748,0.321-1.425,0.249-2.195V7.312z"/>
	<path d="M77.5,0.754h-2.354l-8.92,1.17l4.875,1.724v10.159h-4.273V7.568h-3.465v6.239h-4.055v-4.72h-3.465v4.72H51.84v-3.201
		h-3.454v3.201h-7.852V7.568H37.08v6.237h-3.899V7.31h-5.404c-2.324,0-4.232,1.878-4.232,4.176v0.011
		c0,2.299,1.898,4.178,4.211,4.178h2.033c0.229,0.246-0.083,0.83-0.228,1.056c-0.238,0.402-0.643,0.258-0.674,0.309H23.68v2.145
		h5.403v-0.029c1.888-0.082,4.293-0.832,4.356-3.5h3.641h3.453h7.853h3.453h4.003h3.464h4.057h3.464h4.272h3.465v-1.848V4.869
		l1.566,0.554l1.174-0.39v10.621h3.463V3.873l5.403-1.815L77.5,0.754z M30.131,13.908h-1.431c-0.788,0-1.432-0.637-1.432-1.416
		v-1.076c0-0.781,0.644-1.417,1.432-1.417h1.431V13.908z"/>
	<rect x="8.66" y="3.945" width="3.288" height="1.734"/>
	<rect x="36.799" y="16.793" width="3.464" height="1.961"/>
</g>
<rect y="-0.031" fill-opacity="0" width="86.17" height="19.999"/>
</svg>
