<?xml version="1.0" encoding="utf-8"?>
<!-- Generator: Adobe Illustrator 16.0.0, SVG Export Plug-In . SVG Version: 6.00 Build 0)  -->
<!DOCTYPE svg PUBLIC "-//W3C//DTD SVG 1.1//EN" "http://www.w3.org/Graphics/SVG/1.1/DTD/svg11.dtd">
<svg version="1.1" id="Слой_1" xmlns="http://www.w3.org/2000/svg" xmlns:xlink="http://www.w3.org/1999/xlink" x="0px" y="0px"
	 width="80.111px" height="20px" viewBox="0 0 80.111 20" enable-background="new 0 0 80.111 20" xml:space="preserve">
<g>
	<polygon fill-rule="evenodd" clip-rule="evenodd" points="9.902,19.838 9.836,19.594 11.272,19.594 11.272,7.803 8.315,7.803 
		8.315,13.814 4.695,0.065 12.612,0.065 14.337,13.713 16.636,0 24.62,0 19.382,19.838 	"/>
	<path d="M21.21,17.48c0,0.251,0.061,0.514,0.175,0.806c0.115,0.293,0.296,0.573,0.573,0.835c0.278,0.257,0.664,0.461,1.147,0.622
		c0.477,0.161,1.086,0.263,1.84,0.263c0.761,0,1.382-0.102,1.877-0.263c0.494-0.161,0.88-0.371,1.152-0.628
		c0.145-0.131,0.259-0.268,0.356-0.417c0.09-0.144,0.169-0.28,0.217-0.412c0.097-0.292,0.133-0.561,0.133-0.812v-4.174
		c0-0.274-0.042-0.555-0.133-0.848c-0.054-0.148-0.126-0.293-0.217-0.436c-0.097-0.144-0.217-0.263-0.356-0.388
		c-0.278-0.251-0.658-0.466-1.152-0.62c-0.496-0.157-1.116-0.24-1.877-0.24c-0.754,0-1.363,0.083-1.84,0.24
		c-0.483,0.154-0.863,0.363-1.147,0.626c-0.271,0.245-0.458,0.519-0.573,0.817c-0.115,0.3-0.175,0.579-0.175,0.848V17.48z
		 M24.191,13.134c0-0.167,0.012-0.334,0.097-0.489s0.313-0.232,0.664-0.238c0.193,0,0.351,0.018,0.465,0.065
		c0.096,0.034,0.181,0.096,0.211,0.173c0.066,0.155,0.079,0.322,0.079,0.489v4.509c0,0.166-0.013,0.333-0.079,0.477
		c-0.066,0.161-0.308,0.251-0.676,0.251c-0.35,0-0.573-0.09-0.664-0.251c-0.079-0.149-0.097-0.311-0.097-0.477V13.134z M29.64,19.6
		h2.849V7.743H29.64V19.6z M41.232,13.545c0-0.955-0.253-1.664-0.814-2.112c-0.573-0.448-1.569-0.669-2.957-0.663
		c-1.086,0.006-1.967,0.197-2.631,0.586c-0.682,0.394-1.032,0.918-1.032,1.581v0.801h2.824v-0.717c0-0.4,0.284-0.614,0.875-0.614
		c0.549,0,0.809,0.257,0.791,0.739c-0.019,0.455-0.253,0.771-0.706,0.968c-0.223,0.102-0.477,0.19-0.754,0.28
		c-0.283,0.089-0.567,0.19-0.863,0.293c-0.284,0.096-0.567,0.191-0.845,0.316c-0.278,0.131-0.537,0.304-0.772,0.501
		c-0.229,0.191-0.398,0.441-0.543,0.729c-0.151,0.293-0.235,0.645-0.235,1.063c0,0.353,0.03,0.691,0.09,1.014
		c0.061,0.323,0.157,0.622,0.326,0.873c0.175,0.256,0.453,0.441,0.784,0.585c0.338,0.148,0.785,0.244,1.346,0.238
		c0.936-0.006,1.671-0.299,2.209-0.866l0.036,0.006v0.681h2.872V13.545z M38.288,15.366v2.388c0,0.21-0.055,0.401-0.175,0.544
		c-0.133,0.162-0.344,0.232-0.622,0.239c-0.5,0.006-0.754-0.228-0.754-0.717v-1.176c0-0.335,0.205-0.597,0.597-0.795L38.288,15.366z
		 M42.065,19.826h3.023v-6.071c0-0.132,0.012-0.305,0.103-0.513c0.084-0.222,0.314-0.329,0.67-0.335
		c0.192-0.006,0.356,0.012,0.47,0.071c0.103,0.048,0.187,0.126,0.217,0.221c0.061,0.191,0.079,0.383,0.079,0.556v6.071h3.017V12.68
		c0-0.555-0.181-1.009-0.555-1.355c-0.393-0.352-0.978-0.53-1.762-0.536c-0.567-0.007-1.032,0.096-1.376,0.292
		c-0.35,0.197-0.657,0.489-0.923,0.872h-0.036v-1.003h-2.927V19.826z M51.201,18.412c0,0.34,0.084,0.614,0.248,0.817
		c0.169,0.209,0.38,0.382,0.64,0.483c0.284,0.113,0.603,0.179,0.954,0.221c0.368,0.042,0.748,0.072,1.141,0.072h1.846v-1.804h-0.495
		c-0.242,0-0.387-0.102-0.447-0.269c-0.061-0.148-0.072-0.285-0.072-0.412V12.77h0.972v-1.72h-0.972V9.117h-3.814v1.933h-0.965v1.72
		h0.965V18.412z M56.276,17.48c0,0.251,0.06,0.514,0.175,0.806c0.108,0.293,0.29,0.573,0.567,0.835
		c0.272,0.257,0.658,0.461,1.141,0.622c0.471,0.161,1.074,0.263,1.822,0.263c0.754,0,1.37-0.102,1.865-0.263
		c0.489-0.161,0.869-0.371,1.141-0.628c0.139-0.131,0.259-0.268,0.35-0.417c0.091-0.144,0.169-0.275,0.218-0.412
		c0.096-0.292,0.132-0.561,0.132-0.806v-0.943h-2.951v1.105c0,0.166-0.012,0.327-0.078,0.477c-0.066,0.161-0.302,0.251-0.67,0.251
		c-0.344,0-0.567-0.09-0.657-0.251c-0.079-0.149-0.097-0.311-0.097-0.477v-1.905h4.454v-2.437c0-0.274-0.042-0.555-0.132-0.848
		c-0.048-0.148-0.121-0.293-0.218-0.436c-0.09-0.144-0.211-0.263-0.35-0.388c-0.278-0.251-0.652-0.466-1.141-0.62
		c-0.495-0.157-1.11-0.24-1.865-0.24c-0.749,0-1.351,0.083-1.822,0.24c-0.482,0.154-0.863,0.363-1.141,0.626
		c-0.271,0.245-0.459,0.519-0.567,0.817c-0.115,0.3-0.175,0.579-0.175,0.854V17.48z M59.232,13.134c0-0.167,0.013-0.334,0.097-0.489
		c0.085-0.155,0.313-0.232,0.657-0.238c0.194,0,0.35,0.018,0.459,0.065c0.103,0.034,0.181,0.096,0.211,0.173
		c0.066,0.155,0.078,0.322,0.078,0.489v0.974h-1.503V13.134z"/>
	<rect x="64.898" y="16.823" fill-rule="evenodd" clip-rule="evenodd" width="2.239" height="2.496"/>
	<path d="M73.667,7.695l-0.411,2.442h-2.613l0.41-2.442H73.667z M73.147,10.775l-1.455,8.591h-2.606l1.448-8.591H73.147z
		 M79.779,12.746h-2.057l-0.58,3.45c-0.072,0.353-0.109,0.597-0.109,0.729c0,0.46,0.375,0.698,1.129,0.698
		c0.356,0,0.658-0.023,0.899-0.07l-0.32,1.88c-0.597,0.096-1.171,0.143-1.726,0.143c-1.72,0-2.583-0.692-2.583-2.077
		c0-0.382,0.091-1.027,0.272-1.934l0.58-2.818h-1.34l0.332-1.971h1.449l0.585-2.364l2.209-0.059l-0.423,2.423h2.016L79.779,12.746z"
		/>
	<path d="M6.825,13.719c0-0.895-0.229-1.559-0.73-1.977c-0.507-0.424-1.394-0.626-2.631-0.619c-0.965,0-1.75,0.184-2.341,0.542
		c-0.603,0.37-0.917,0.866-0.917,1.48v0.752h2.516v-0.668c0-0.377,0.247-0.578,0.772-0.578c0.489,0,0.724,0.244,0.706,0.692
		c-0.012,0.423-0.224,0.722-0.628,0.906c-0.199,0.096-0.422,0.18-0.669,0.258c-0.253,0.082-0.507,0.185-0.766,0.274
		c-0.254,0.09-0.513,0.179-0.754,0.298c-0.248,0.12-0.477,0.28-0.688,0.473c-0.205,0.172-0.356,0.411-0.483,0.674
		C0.078,16.508,0,16.836,0,17.224c0,0.329,0.023,0.645,0.078,0.955c0.054,0.299,0.139,0.573,0.296,0.812
		c0.151,0.245,0.398,0.413,0.693,0.55c0.302,0.138,0.701,0.228,1.201,0.221c0.833-0.006,1.491-0.275,1.967-0.806h0.03v0.639h2.559
		V13.719z M4.2,15.42v2.233c0,0.196-0.048,0.376-0.157,0.508c-0.114,0.148-0.301,0.221-0.549,0.227
		c-0.447,0-0.676-0.216-0.676-0.668v-1.104c0-0.312,0.182-0.556,0.538-0.741L4.2,15.42z"/>
</g>
<rect y="0" opacity="0" fill-rule="evenodd" clip-rule="evenodd" width="80.111" height="20"/>
</svg>
