<?xml version="1.0" encoding="utf-8"?>
<!-- Generator: Adobe Illustrator 16.0.0, SVG Export Plug-In . SVG Version: 6.00 Build 0)  -->
<!DOCTYPE svg PUBLIC "-//W3C//DTD SVG 1.1//EN" "http://www.w3.org/Graphics/SVG/1.1/DTD/svg11.dtd">
<svg version="1.1" id="Слой_1" xmlns="http://www.w3.org/2000/svg" xmlns:xlink="http://www.w3.org/1999/xlink" x="0px" y="0px"
	 width="42.811px" height="20px" viewBox="0 0 42.811 20" enable-background="new 0 0 42.811 20" xml:space="preserve">
<g>
	<path fill-rule="evenodd" clip-rule="evenodd" d="M24.875,12.203c0.382,0.389,1.449,0.784,1.964,0.884
		c0.283,0.054,0.543,0.019,0.707,0.238c0.122,0.197,0.103,0.724-0.063,0.903c-1.229,1.314-3.947,1.372-5.466,1.85l-1.792,0.308
		c-0.667,0.077-1.705,0.599-2.385,0.674c-0.33,0.037-0.545,0.126-0.754,0.292c-0.473,0.383-0.405,1.094,0.175,1.323
		c0.857,0.338,0.771,0.321,1.592,0.468c2.646,0.477,5.247,1.497,8,0.051c0.516-0.271,1.393-1.128,1.716-1.531
		c0.421-0.525,1.3-1.798,1.505-2.46c0.852-2.739,4.676-2.018,6.054-5.784c0.155-0.423,0.054-7.854,0.052-8.686
		c-0.27,0.009-0.075-0.032-0.203,0.074l-2.702,2.615c-0.192,0.306-0.077,4.792-0.08,5.517c-0.281,0.215-1.854,0.759-2.273,0.682
		c-0.168-0.249-0.286-0.677-0.445-0.961c-0.162-0.292-0.358-0.598-0.585-0.832C27.409,5.272,23.714,11.024,24.875,12.203
		L24.875,12.203z M11.407,1.392c0.063,0.201,1.175,1.225,1.378,1.324l1.183-1.042c0.419-0.398,0.454-0.313-0.094-0.88
		C13.68,0.618,13.488,0.4,13.291,0.246c-0.463-0.361-0.328-0.36-0.939,0.248C12.127,0.716,11.544,1.142,11.407,1.392L11.407,1.392z
		 M39.539,5.57v11.647c0.529,0.078,2.812-2.305,3.051-2.797c0.128-0.263,0.204-0.546,0.204-0.849
		c-0.002-1.246,0.054-10.897-0.021-11.43c-0.344-0.004-3.06,2.52-3.172,2.775C39.552,5.024,39.539,5.198,39.539,5.57L39.539,5.57z
		 M15.007,4.927c-0.382,0.798-0.822,2.006-0.532,2.849c0.052,0.15,0.162,0.321,0.286,0.423l0.073,0.052
		c0.393,0.266,0.85,0.37,1.325,0.51c0.407,0.12,0.958,0.001,1.271,0.108c0.164,0.058,0.239,0.177,0.344,0.292l0.384,0.649
		c0.421,1.241-1.183,1.366-2.107,1.672c-1.056,0.235-3.303,0.488-4.095-0.095c-0.454-0.336-0.787-1.704-0.833-2.173
		c-0.035-0.361-0.227-0.815-0.705-0.753c-0.82,0.109-1.133,1.978-2.049,3.517c-0.328,0.549-1.423,0.485-1.618,0.522
		c-1.653,0.241-3.271,0.325-4.396,0.559c-1.086,0.225-3.104,0.581-2.068,1.818c0.494,0.591,0.824,0.823,1.637,1.208
		c0.234,0.11,0.216,0.166,0.459,0.238c0.916,0.268,1.718,0.768,2.73,0.829c2.124,0.125,3.179-1.386,4.034-3l0.044-0.077
		c0.588-0.984,0.888-0.269,1.051,0.494c0.159,0.748,1.185,0.875,1.356,0.943c0.246,0.097,1.613,0.286,1.959,0.293
		c0.868,0.015,2.386-0.341,3.125-0.79c0.119-0.074,0.26-0.166,0.365-0.238c0.693-0.481,0.686-0.454,1.248-1.051
		c0.621-0.663,0.988-1.13,1.431-1.941l0.335-0.775c0.124-0.471,0.073-0.017,0.26-0.879c0.087-0.403,0.157-0.343,0.197-0.912
		c0.059-0.81,0.147-1.926-0.138-2.684c-0.159-0.421,0.035-0.243-0.274-0.852c-0.168-0.331-0.315-0.751-0.563-1.149
		c-0.218-0.352-0.434-0.665-0.768-0.938l-0.068-0.051C17.559,2.706,15.588,3.801,15.007,4.927L15.007,4.927z"/>
</g>
<rect y="-0.03" opacity="0" fill-rule="evenodd" clip-rule="evenodd" width="42.811" height="19.999"/>
</svg>
