<?xml version="1.0" encoding="utf-8"?>
<!-- Generator: Adobe Illustrator 16.0.0, SVG Export Plug-In . SVG Version: 6.00 Build 0)  -->
<!DOCTYPE svg PUBLIC "-//W3C//DTD SVG 1.1//EN" "http://www.w3.org/Graphics/SVG/1.1/DTD/svg11.dtd">
<svg version="1.1" id="Слой_1" xmlns="http://www.w3.org/2000/svg" xmlns:xlink="http://www.w3.org/1999/xlink" x="0px" y="0px"
	 width="98.648px" height="20px" viewBox="0 0 98.648 20" enable-background="new 0 0 98.648 20" xml:space="preserve">
<g>
	<path d="M98.648,3.797l-52.4,0.014l0.005,1.204c0.481,0.028,1.208,0.015,1.875-0.006c0.654-0.017,1.267-0.033,1.689,0
		c0.893,0.078,1.408,0.961,1.375,1.735c-0.033,0.775-0.637,1.683-2.26,1.571l0.024,1.395c1.611-0.194,2.821,0.553,3.175,1.937
		c0.314,1.229-0.183,2.555-1.156,3.088c-0.393,0.213-0.824,0.32-1.281,0.32c-0.808,0-1.715-0.352-2.426-0.943
		c-0.745-0.615-1.163-1.027-1.668-1.844c-0.067-0.105-0.122-0.209-0.171-0.303c-0.021-0.041-0.042-0.08-0.06-0.115
		c-0.162,0.18-0.343,0.332-0.519,0.482c-0.187,0.158-0.378,0.322-0.551,0.518c0.205,0.291,0.414,0.547,0.612,0.752
		c0.127,0.127,0.243,0.258,0.359,0.389c0.138,0.152,0.277,0.311,0.443,0.471c1.154,1.125,3.021,2.465,5.365,2.465
		c0.565,0,1.135-0.08,1.696-0.238c1.967-0.553,3.171-1.896,3.222-3.586c0.045-1.486-0.855-2.849-2.189-3.315l-0.341-0.119
		l0.309-0.401c1.09-1.157,1.293-2.45,0.623-3.865l-0.177-0.373l14.684-0.006L68.898,7.48l-8.344,0.019
		c-0.002,0.044-0.004,0.093-0.005,0.14c-0.013,0.275-0.036,0.798,0.005,1.033c0.117,0.022,0.27,0.022,0.338,0.022l0.274-0.003
		c0.443-0.008,0.974-0.032,1.436,0.175c0.898,0.407,1.502,1.197,1.7,2.221c0.208,1.076-0.083,2.254-0.728,2.932
		c-0.503,0.531-1.116,0.814-1.775,0.814c-1.17,0-2.315-0.9-2.916-2.301c-0.226-0.531-0.319-0.971-0.433-1.521l-0.031-0.139
		l-1.734,0.039c0.42,2.746,1.868,4.809,4.001,5.688c0.589,0.242,1.255,0.371,1.927,0.371c1.719,0,3.783-0.891,4.517-2.881
		c0.316-0.863,0.356-1.887,0.113-2.881c-0.28-1.12-0.673-1.547-0.934-1.829c-0.115-0.124-0.213-0.232-0.275-0.364l-0.169-0.37h3.04
		v8.179l3.35,0.008l0.007-11.818h2.02L74.278,16.83h3.358V5.009h11.42l-0.009,1.999l-0.304-0.054
		c-1.068-0.185-1.993,0.173-2.565,1.001l-0.484,0.69l-0.092-0.205L85.37,8.119c-0.08-0.112-0.141-0.199-0.253-0.329
		c-0.532-0.62-1.354-0.974-2.256-0.974c-1.047,0-2.061,0.462-2.779,1.269c-0.64,0.718-1.348,2.042-1.089,4.29
		c0.38,3.324,2.563,4.504,4.316,4.504c0.725,0,1.372-0.201,1.731-0.537c0.013-0.02,0.123-0.221,0.374-1.338
		c-0.045,0.027-0.098,0.055-0.161,0.084c-0.255,0.125-0.523,0.203-0.839,0.24c-0.756,0.084-1.31-0.16-1.725-0.707
		c-1.018-1.342-0.709-4.119-0.411-5.181c0.134-0.474,0.575-1.186,1.132-1.29c0.32-0.056,0.55,0.026,0.735,0.216
		c0.435,0.445,0.412,1.424,0.393,2.29c-0.005,0.232-0.01,0.453-0.005,0.635l2.249-0.006c0.01-0.197,0-0.447-0.008-0.693
		c-0.021-0.598-0.042-1.165,0.152-1.463c0.389-0.587,1.152-0.838,1.937-0.617l0.191,0.052v8.265h3.351l0.006-11.82l2.021,0.01
		l-0.001,0.261l-0.005,11.549l3.356-0.008V5.012l0.864-0.009L98.648,3.797z"/>
	<path d="M34.481,14.029c0.103,0.16,0.209,0.316,0.316,0.477l0.237,0.352c0.628,0.98,0.932,1.393,2.189,1.768
		c0.458,0.135,1.041,0.209,1.639,0.209c1.125,0,2.177-0.252,2.814-0.676c0.147-0.098,0.543-0.355,0.563-0.531
		c0.024-0.219,0.015-0.545,0.006-0.857c0-0.027,0-0.055-0.001-0.08c-0.126,0.086-0.263,0.178-0.424,0.254
		c-0.397,0.191-0.883,0.295-1.366,0.295c-0.779,0-1.479-0.262-1.921-0.721c-0.517-0.535-0.625-0.719-0.864-1.123
		c-0.069-0.115-0.15-0.254-0.256-0.426c-0.903-1.43-0.937-1.631-0.951-1.717l-0.051-0.303h0.308c2.599,0,4.313-1.395,4.384-3.552
		c0.029-0.886-0.275-1.347-0.496-1.683c-0.081-0.124-0.149-0.229-0.192-0.328l-0.158-0.362l1.998-0.024l0.012-1.213L11.19,3.785
		l-0.007,1.218l1.811,0.007v2.843L11.207,7.86l-0.005,1.119l1.769,0.026l0.023,7.805l3.357,0.014l0.006-11.808l3.324-0.01
		l0.031,4.522l-0.071,0.183L19.477,9.81c-0.054,0.036-0.134,0.073-0.231,0.112c-0.432,0.181-1.235,0.514-1.182,2.061
		c0.063,1.975,1.368,2.861,2.632,2.861c0.579,0,1.149-0.178,1.648-0.512c0.801-0.539,0.792-1.348,0.784-2.199
		c-0.003-0.291-0.007-0.594,0.026-0.877l0.026-0.23l2.974-0.016l0.026,5.813l3.367,0.006l0.005-11.803l7.238-0.022l0.038,0.012
		c0.552,0.171,1.037,1.522,0.912,2.54c-0.124,1.009-0.78,1.6-1.844,1.659c-0.977,0.054-1.108-0.237-1.439-0.827
		c-0.121-0.216-0.28-0.5-0.525-0.858c-0.525,0.305-2.108,1.309-2.634,1.672c0.345,0.562,1.41,2.162,2.149,3.27
		C33.917,13.176,34.318,13.775,34.481,14.029z M26.175,9.87l-3.108-0.022V5.008l3.108,0.009V9.87z"/>
	<path d="M3.23,15.85c1.121,0.701,2.356,1.072,3.57,1.072l0,0c1.928,0,3.697-0.932,4.505-2.373c0.605-1.078,0.569-2.277-0.101-3.377
		c-0.292-0.469-0.686-0.85-1.206-1.157C9.916,9.964,9.845,9.929,9.782,9.9C9.647,9.836,9.506,9.77,9.383,9.616L9.23,9.426
		l0.178-0.166c0.392-0.358,0.645-0.593,0.886-1.185c0.643-1.592,0.018-3.443-1.487-4.399C8.136,3.249,7.387,3.031,6.581,3.031
		c-1.663,0-3.222,0.913-4.102,1.542l0.668,1.229C3.165,5.785,3.184,5.767,3.2,5.75c0.327-0.322,0.637-0.625,1.241-0.839
		c1.035-0.363,1.969-0.013,2.35,0.821C7.076,6.359,6.98,7.086,6.546,7.586C6.088,8.107,5.522,8.168,5.137,8.168
		c-0.111,0-0.217-0.005-0.316-0.01C4.768,8.156,4.718,8.153,4.67,8.15L4.657,9.711c0.134-0.004,0.256-0.012,0.37-0.022
		C5.545,9.653,5.96,9.683,6.465,9.913c1.376,0.626,1.662,2.128,1.333,3.339c-0.308,1.141-1.17,1.795-2.363,1.795
		c-0.823,0-1.721-0.332-2.402-0.883c-0.715-0.588-1.113-0.959-1.682-1.826l-0.28-0.473L0,12.836
		C0.544,13.705,2.327,15.291,3.23,15.85z"/>
</g>
<rect fill-opacity="0" width="98.648" height="20"/>
</svg>
