<?xml version="1.0" encoding="utf-8"?>
<!-- Generator: Adobe Illustrator 16.0.0, SVG Export Plug-In . SVG Version: 6.00 Build 0)  -->
<!DOCTYPE svg PUBLIC "-//W3C//DTD SVG 1.1//EN" "http://www.w3.org/Graphics/SVG/1.1/DTD/svg11.dtd">
<svg version="1.1" id="Слой_1" xmlns="http://www.w3.org/2000/svg" xmlns:xlink="http://www.w3.org/1999/xlink" x="0px" y="0px"
	 width="103.254px" height="20px" viewBox="0 0 103.254 20" enable-background="new 0 0 103.254 20" xml:space="preserve">
<g>
	<path d="M36.14,11.561c0.625-0.727,1.246-1.098,2.134-1.322l-0.094,3.046C37.46,12.951,36.608,12.012,36.14,11.561L36.14,11.561z
		 M101.723,7.852l1.531-0.174l-0.129-1.655L101.65,5.88c-1.029-0.958-0.045-1.002-1.014-1.814c-0.5,0.872-0.332,2.045-0.345,3.41
		c-2.449-1.233,1.276-1.509-8.295-1.421c0.043-0.065,0.109-0.24,0.141-0.197c0.02,0.045,0.092-0.145,0.129-0.189
		c0.676-0.928,1.822-2.591-0.799-2.597c-0.93,2.163-0.221,4.869-6.586,0.015c-4.128-3.15-6.277,0.152-7.753,1.568
		c0.298,0.833,0.372,0.476,0.783,1.391L76.02,5.974c-0.977-2.096,0.007-1.401-0.998-1.888l-0.286,3.912
		c-0.948-0.71-2.055-2.749-4.352-1.8c-1.226,0.508-2.831,2.476-2.076,4.318c2.37,0.562,0.837-1.065,2.67-0.362
		c-0.038,1.103-0.565,0.95-1.283,1.667c2.274,2.478,3.389-1.276,4.935-2.342c0.053,4.92-1.099,7.163,1.476,8.694L76.18,7.675
		l1.731-0.007c0.228,1.243,0,4.268-0.051,5.684c-0.11,2.75-0.469,3.803,1.524,4.826l0.044-10.481l5.885-0.022
		c-0.852,0.996-1.952,1.308-2.275,2.919c-0.381,1.9,0.733,2.771,2.562,2.416c1.371-1.242,0.806-1.625,0.124-2.947
		c0.462-0.458,0.681-0.76,1.436-1.067l-0.19,5.98c-0.88-0.256-1.439-0.652-2.399-0.871c-0.859-0.188-1.973-0.101-2.698-0.349
		c-0.85-0.282-1.313-1.108-0.814-2.053c0.432-0.806,1.709-0.616,0.903-1.894c-2.046-1.327-2.392,4.657-0.448,5.824
		c1.775,1.07,4.408-0.745,5.794,0.925c0.294,0.358,0.309,0.59,0.456,0.795c0.448,0.606,0.013,0.389,0.71,0.549
		c0.264-0.844,0.176-6.574,0.163-8.15c-0.008-1.319-0.192-1.327-0.698-2.069l6.22-0.014c-0.551,0.771-0.166,0.343-1.057,0.784
		l-3.652,2.336c0.967,2.984,1.664,1.705,3.529,2.979c2.215,1.519,1.297,3.604,2.412,4.092c0.596-1.342,0.16-6.373,0.26-8.368
		c1.361,0.18,1.574,0.544,2.389,1.233l-0.57,0.254c-0.061,0.021-0.141,0.043-0.207,0.064c-2.971,1.133,0.174,4.252,1.395,2.132
		c1.871-3.265-2.863-5.404-2.943-5.478c3.814-0.196,4.584,0.009,4.469,3.862c-0.104,3.221-0.83,5.551,1.511,6.676L101.723,7.852z
		 M59.589,14.469c-0.608,2.129,1.951,2.697,2.583,1.525C62.795,14.82,61.365,13.418,59.589,14.469L59.589,14.469z M91.945,11.307
		c0.621-0.574,1.371-1.06,2.18-1.292l-0.141,2.936C93.837,12.889,92.105,11.473,91.945,11.307L91.945,11.307z M71.654,9.542
		c-0.27-0.334-0.168-0.202-0.387-0.405l-0.448-0.394c0.489-1.015,1.297-1.734,2.545-0.936C73.012,8.498,72.447,9.071,71.654,9.542
		L71.654,9.542z M78.924,5.941c0.354-1.401,2.09-2.814,4.299-2.472c0.858,0.138,1.664,0.616,2.289,1.039l2.016,1.546L78.924,5.941z
		 M60.835,11.307c0.668-0.44,1.276-0.894,2.26-1.132l0.015,3.003C62.464,12.744,61.372,11.835,60.835,11.307L60.835,11.307z
		 M9.712,13.285c-1.21-0.813-0.478-2.162-1.028-3.401C8.002,8.345,7.386,8.688,6.572,7.708l3.33-0.038L9.712,13.285z M52.842,13.148
		c0.439-1.922,1.238-2.131,1.937-3.121c-0.389-0.885-0.829-1.465-1.753-1.854c-0.557,0.352-2.011,2.094-3.089-0.467
		c3.579-0.27,6.028-0.675,5.972,3.076c-0.031,2.117-1.036,6.617,1.494,7.408l-0.015-10.53l5.78,0.014l-1.314,0.836
		c-0.563,0.269-0.866,0.435-1.344,0.718c-0.931,0.546-1.505,0.855-2.355,1.56c0.44,2.795,1.871,1.881,3.646,3.092
		c2.238,1.533,1.504,3.201,2.603,4.209c0.177-0.289,0.14-0.181,0.25-0.658c0.096-0.428,0.03-0.047,0.074-0.484
		c0.028-0.278,0-0.969-0.007-1.284l-0.013-7.687L66,7.467l-0.132-1.413c-2.093-0.016-6.91,0.239-8.65-0.169
		c-0.285-0.582-0.373-1.309-0.827-1.814l-0.19,0.4c-0.317,0.958-0.175,2.105-0.221,3.105c-2.156-2.037-1.73-1.53-5.544-1.53
		c-1.841,0.008-5.583,0.211-7.191-0.167c-0.343-0.719-0.263-1.292-0.827-1.829c-0.645,0.952-0.331,2.431-0.426,3.504
		c-0.91-0.478-0.549-1.204-1.996-1.465c-3.3-0.581-20.067,0.581-25.274-0.154l-0.97-1.464c-0.564,1.603,0.227-1.32-0.14,0.445
		l-0.093,2.647c-1.058-0.616-0.494-1.211-1.997-1.467C9.388,5.74,2.421,6.022,0,6.054l0.044,1.601L5.23,7.692
		C5.17,7.729,5.084,7.773,5.046,7.795c-2.876,1.646-1.85,4.404,1.24,3.568c0.205-0.363,0.301-0.551,0.453-1.11l0.226-0.994
		c2.377,1.656-0.271,4.777-2.801,3.28C2.428,11.5,1.723,8.703,0.499,7.997C-0.184,9.208,2.2,12.382,2.948,13.23
		c1.974,2.227,3.112,2.422,5.568,0.586c0.564,0.4,1.057,1.004,1.453,1.938c0.85,2.056-0.073,1.627,1.137,2.017
		c0.571-1.408,0.184-8.034,0.219-10.094c4.754,0.56-0.309,8.197,3.602,10.434V7.662l5.668-0.023l-0.124,3.479
		c-0.199-0.19-0.205-0.197-0.418-0.444c-0.873-0.994,0.617,0.756-0.242-0.296c-0.264-0.318-0.146-0.255-0.471-0.575
		c-3.189-3.156-5.661,4.07-2.001,4.282c1.532,0.095,1.532-1.112,1.973-2.142c2.164,2.091,1.6,5.08,2.399,5.938
		c0.886-0.964,0.375-8.268,0.367-10.19l4.863-0.022l-0.03,2.171l-0.945-0.963c-2.854-2.67-5.142,4.42-0.58,3.215
		c0.411-0.726,0.3-0.783,0.63-1.661c1.438,1.543,0.64,2.299,0.352,3.963c0.704,0.367,0.743,0.615,1.556,0.922
		c0.982-0.853,0.834-1.836,2.111-2.504c-0.147,1.283-0.154,2.197,0.25,3.352c0.456,1.301,0.492,1.59,1.66,1.916
		c-0.398-1.5-1.197-2.213-0.845-4.135c0.279-1.494,1.282-1.996,1.694-3.152c-0.405-0.717-0.777-1.217-1.505-1.661
		c-1.334,0.624-1.89,1.334-2.86,1.911l-0.013-3.376l9.894,0.021c-0.439,0.676,0.043,0.111-0.542,0.546L35.779,9.35
		c-0.792,0.449-1.709,1.007-2.375,1.705c1.18,3.918,3.894,1.452,5.163,4.82c0.456,1.188,0.066,1.939,1.006,2.334
		c0.645-1.221,0.205-8.512,0.256-10.499c2.75,0.432,2.148,2.445,2.074,5.138c-0.071,2.678-0.608,4.608,1.535,5.383L43.429,7.679
		l3.5-0.028c-0.528,1.466-1.415,2.821-0.141,4.449c1.043,1.328,2.223,1.16,3.375,0.299c-0.044,1.011-0.383,1.351-0.968,1.931
		c-4.262,0.414-3.146-4.762-4.71-6.328c-1.085,1.256,1.637,8.015,3.221,8.603c3.843,1.453,5.008-5.933,1.694-6.903l-0.711,0.929
		c-0.535,0.523-0.139,0.445-0.932,0.275c-0.521-1.097,0.308-1.684,1.387-2.554c1.094,0.681,0.696,1.451,2.888,2.227
		c-0.286,2.077-0.93,6.604,1.365,7.438C53.289,16.134,52.322,15.445,52.842,13.148L52.842,13.148z"/>
</g>
<rect y="0.001" fill-opacity="0" width="103.253" height="19.999"/>
</svg>
