<?xml version="1.0" encoding="utf-8"?>
<!-- Generator: Adobe Illustrator 16.0.0, SVG Export Plug-In . SVG Version: 6.00 Build 0)  -->
<!DOCTYPE svg PUBLIC "-//W3C//DTD SVG 1.1//EN" "http://www.w3.org/Graphics/SVG/1.1/DTD/svg11.dtd">
<svg version="1.1" id="Слой_1" xmlns="http://www.w3.org/2000/svg" xmlns:xlink="http://www.w3.org/1999/xlink" x="0px" y="0px"
	 width="74.855px" height="20px" viewBox="0 0 74.855 20" enable-background="new 0 0 74.855 20" xml:space="preserve">
<g>
	<path d="M54.784,1.474c0.988-0.496,1.475,0.496,1.994,0.94c0.164-1.505-0.209-2.75-1.887-2.332
		c-1.704,0.427-1.45,0.991-1.165,2.545c-0.044,0.039-0.108,0.089-0.133,0.114L52.809,3.36c-0.374,0.333-0.329,0.421-0.729,0.79
		c-0.685-0.595-0.715-1.091-1.995-1.348c-1.596-0.326-3.844,0.808-2.938,2.462c0.559,1.021,1.166,0.376,1.172,2.03
		c-3.084,0.226-1.242-3.026-4.515-3.087c-1.09-0.02-2.077,0.546-2.641,1.096c-0.912,0.902-0.704,1.39-0.234,2.599
		c0.525-0.571,0.329-1.485,1.784-1.497c1.128-0.014,1.709,0.933,1.165,1.785c-0.45,0.715-3.109,0.721-3.781,2.932
		c-0.619,2.03,0.69,3.772,2.286,4.226c3.009,0.844,3.725-1.404,4.332-1.932c0.818,0.598,0.88,1.447,2.173,1.887
		c1.012,0.344,2.406,0.057,3.134-0.576c1.54-1.328,1.4-4.674-1.115-4.806l0.044,1.985c-1.759,0.986-3.633,0.641-3.121-1.967
		c-0.898,0.302-0.893,0.251-2.007,0.227c0.893,3.453-2.849,2.398-3.211,1.186c-0.589-1.97,1.8-1.838,3.433-3.116
		c1.185,0.383,1.361,0.959,2.869,0.771c1.077-0.132,1.797-0.723,2.071-1.737c-0.395-1.912-2.225-1.053-1.641-2.714
		c1.355-1.133,2.032,0.802,2.735,1.561c0.494-0.915,0.462-1.485,1.476-1.803c1.089-0.351,1.805-0.163,2.09,0.746
		c-0.241,0.125-3.155,0.011-2.856,2.606c0.374,3.32,5.585,3.523,4.147-2.539C56.107,1.611,54.448,3.723,54.784,1.474L54.784,1.474z
		 M54.688,5.705c0.545-0.221,1.19,0.092,1.438,0.7c0.254,0.613,0.018,1.284-0.526,1.502c-0.545,0.22-1.191-0.093-1.437-0.702
		C53.91,6.598,54.144,5.922,54.688,5.705L54.688,5.705z"/>
	<path d="M3.214,10.639c3.415,0.342,2.781-0.386,4.801-0.031c3.939,0.701,2.881-0.305,4.389-0.354
		C12.582,13.132,4.836,13.283,3.214,10.639L3.214,10.639z M5.108,4.694c0.615,0,1.109,0.49,1.109,1.097
		c0,0.606-0.494,1.095-1.109,1.095C4.495,6.886,4,6.397,4,5.791C4,5.184,4.495,4.694,5.108,4.694L5.108,4.694z M11.536,5.383
		c0.544-0.226,1.191,0.095,1.445,0.701c0.253,0.609,0.013,1.278-0.533,1.499C11.91,7.807,11.263,7.489,11.01,6.88
		C10.757,6.273,10.992,5.603,11.536,5.383L11.536,5.383z M3.044,6.706C4.128,6.681,3.417,7.27,4.855,7.607
		C6.881,8.089,9.1,5.251,6.9,3.549C5.521,2.483,4.121,2.995,3.133,3.93c-1.71,1.61-1.476,2.726-1.988,3.521
		C0.542,7.024,1.087,7.488,0.643,6.886L0.252,6.315c-0.248,1.486-0.569,1.932,0.45,3.159c0.861,1.032,0.558,1.647,1.14,2.82
		c2.249,4.495,8.885,3.526,10.944,1.63c2.596-2.398,0.866-4.593,0.436-5.553c0.569-1.107,1.458-2.353,0.703-4.029
		c-1.172-2.63-5.983-1.101-4.958,1.773c0.595,1.65,1.83,1.656,2.044,2.939c-2.159,0.05-2.457-1.278-4.838-0.546
		C4.456,9.031,2.475,9.219,3.044,6.706L3.044,6.706z"/>
	<path d="M33.923,10.021l-2.242,0.067c1.033,3.684-2.957,2.742-3.375,0.635c-0.589-2.901,1.545-3.941,4.104-4.18
		c2.666-0.252,5.168,0.983,5.048,3.596C37.299,13.641,33.24,13.25,33.923,10.021L33.923,10.021z M32.645,2.902
		C31.2,1.409,31.06,0.495,28.636,2.15l0.095,1.715c1.02-0.496,2.11-1.453,2.678,0.309l-2.064,0.945
		c-2.172,1.24-3.262,3.571-2.907,6.285c0.506,3.91,4.427,5.857,6.148,1.844c1.273,0.512,1.172,2.947,4.062,2.004
		c1.652-0.547,2.424-2.096,2.614-3.896c0.197-1.919-0.303-3.737-1.235-4.996c-1.634-2.206-3.559-1.234-4.016-2.681
		c1.546-1.196,2.179,0.388,4.188-0.221c0.455-0.663,0.714-1.347,0.348-2.486c-0.855-0.125-0.577,0.243-1.734-0.02
		c-0.734-0.161-0.95-0.368-1.85-0.211c-1.298,0.224-1.665,1.025-2.223,1.998C32.714,2.776,32.682,2.852,32.645,2.902L32.645,2.902z"
		/>
	<path d="M70.99,5.332l0.443,1.58c-1.209,0.39-2.869,0.878-2.298,2.669c0.652,2.065,2.824,1.178,3.604,1.667
		c-1.078,2.129-7.164,1.986-8.063-0.188c5.009,0.693,4.117-3.554,1.831-3.922c-2.647-0.427-4.813,2.454-3.622,5.334
		c2.317,5.609,14.971,2.746,11.31-4.096c-0.652-1.228-0.747-0.725-1.52-1.552c0.209-2.196,0.222-3.31-1.806-4.018
		c-4.8-1.677-8.556,2.07-4.687,3.346C69.355,7.206,69.99,5.29,70.99,5.332L70.99,5.332z M65.201,8.247
		c0.481-0.2,1.058,0.081,1.284,0.627c0.224,0.545,0.013,1.147-0.475,1.34c-0.481,0.195-1.057-0.081-1.286-0.626
		C64.505,9.042,64.715,8.441,65.201,8.247L65.201,8.247z M66.994,4.756c0.025-0.521,0.526-0.915,1.121-0.89
		c0.589,0.026,1.052,0.471,1.026,0.991c-0.02,0.515-0.521,0.914-1.115,0.889C67.43,5.715,66.969,5.276,66.994,4.756L66.994,4.756z
		 M71.224,8.322c0.482-0.2,1.059,0.081,1.286,0.625c0.222,0.545,0.013,1.141-0.475,1.343c-0.481,0.195-1.059-0.088-1.286-0.632
		C70.528,9.117,70.737,8.516,71.224,8.322L71.224,8.322z"/>
	<path d="M19.192,6.917c3.959-1.728,6.776,4.056,2.744,5.627c-1.831,0.714-4.028-0.396-4.656-1.565
		c-0.449-0.828-0.511-1.893,0.014-2.751C17.875,7.276,18.161,7.371,19.192,6.917L19.192,6.917z M15.04,10.359
		c0.247,2.75,2.495,5.135,5.508,5.043c2.97-0.096,5.175-2.645,5.054-5.708C25.298,1.929,14.482,4.035,15.04,10.359L15.04,10.359z"/>
	<path d="M54.119,13.072c0.443-0.127,3.502-1.995,2.609,0.951c-0.393,1.283-1.799,1.703-0.829,3.609
		c1.203,2.358,5.465,1.896,6.693-0.195c1.57-2.688-1.279-5.295-2.33-6.773c-2.59-3.651-0.633-4.894,0.841-4.152
		c0.881,0.444-0.355,0.212,0.767,0.33c0.823-5.044-6.948-2.517-3.198,3.403c0.81,1.278,2.349,2.726,2.533,4.56
		c0.316,3.192-3.148,2.393-3.71,1.323c-0.273-1.987,1.514-3.737-0.012-4.924C56.735,10.628,54.404,10.684,54.119,13.072
		L54.119,13.072z"/>
	<path d="M26.951,15.741c2.261,7.146,11.932,4.002,11.874,0.005c-1.444,1.414-2.924,2.41-5.736,2.382
		C28.641,18.07,28.426,16.35,26.951,15.741L26.951,15.741z"/>
	<path d="M31.447,16.654c1.361,0.492,1.646,0.762,2.837-0.326c-0.177-0.46-0.057-0.219-0.379-0.582
		c-0.265-0.294-0.057-0.005-0.361-0.327c-0.195-0.207-0.374-0.474-0.569-0.694c-0.05,0.055-0.108,0.106-0.14,0.146
		C31.188,16.779,31.759,15.443,31.447,16.654L31.447,16.654z"/>
</g>
<rect y="0.049" fill-opacity="0" width="74.855" height="20"/>
</svg>
