<?xml version="1.0" encoding="utf-8"?>
<!-- Generator: Adobe Illustrator 16.0.0, SVG Export Plug-In . SVG Version: 6.00 Build 0)  -->
<!DOCTYPE svg PUBLIC "-//W3C//DTD SVG 1.1//EN" "http://www.w3.org/Graphics/SVG/1.1/DTD/svg11.dtd">
<svg version="1.1" id="Слой_1" xmlns="http://www.w3.org/2000/svg" xmlns:xlink="http://www.w3.org/1999/xlink" x="0px" y="0px"
	 width="134.113px" height="20px" viewBox="0 0 134.113 20" enable-background="new 0 0 134.113 20" xml:space="preserve">
<g>
	<path fill-rule="evenodd" clip-rule="evenodd" d="M22.682,16.329c-1.446-0.015-2.295,0.163-3.394-0.577
		c-0.633-0.426-1.304-1.496-0.942-2.699c0.748-2.48,3.857-1.854,5.933-1.895l0.033,7.188l1.904-0.006
		c0.156-0.586,0.112-8.179,0.036-9.187c-1.274-0.073-5.319-0.128-6.383,0.139c-1.703,0.425-2.901,1.525-3.459,2.989
		c-0.477,1.247-0.274,2.756,0.458,3.858c1.292,1.955,3.237,2.233,5.854,2.207L22.682,16.329z M2.807,14.039
		c0.205,1.035,0.934,1.052,2.046,1.06c0.247,1.293-0.562,3.65,1.142,3.673c1.825,0.021,1.019-2.262,1.241-3.662l1.504-0.008
		c0.195,1.398-0.534,3.615,1.162,3.67c1.808,0.057,0.961-2.38,1.221-3.673c1.126-0.011,1.8-0.017,2.038-1.038l-0.016-7.64
		L2.795,6.418L2.807,14.039z M21.274,6.06l-0.515-0.398l-4.375-0.266L15.599,8.34c-0.132,0.49-0.638,0.763-1.126,0.609l-0.436-0.139
		c-0.488-0.152-0.778-0.681-0.649-1.171l0.639-2.385l-1.131-0.068l0,0c0.08,0.318,0.131,0.646,0.153,0.984H2.774
		c0.178-2.762,2.41-4.943,5.135-4.943c1.825,0,3.425,0.973,4.339,2.442l2.243-0.152l0.197-0.737c0.132-0.49,0.636-0.764,1.123-0.609
		l0.438,0.138c0.444,0.139,0.726,0.591,0.671,1.041l3.723-0.254l0.63-0.556l1.15,0.011c0.871,0.653,0.929,1.117,0.901,2.101
		c-0.011,0.419-0.449,1.146-0.819,1.366c-0.011,0.008-0.011,0.008-0.014,0.021L21.274,6.06z M0.196,12.79
		c0.298,0.284,0.506,0.558,1.082,0.521c0.526-0.033,0.844-0.38,0.997-0.716c0.176-0.659,0.077-3,0.077-3.837
		c0-0.77,0.307-2.803-1.37-2.531c-1.219,0.194-0.95,1.715-0.95,2.927C0.035,10.139-0.111,11.98,0.196,12.79L0.196,12.79z
		 M89.912,9.502c-0.608,0.499-0.973,0.803-0.981,1.873h3.783c-0.014-1.095-0.085-1.344-0.83-1.786l0.225-0.55
		c-0.354,0.119-0.191-0.02-0.364,0.406c-0.871-0.195-0.865-0.187-1.731-0.002c-0.104-0.266-0.041-0.271-0.359-0.404L89.912,9.502z
		 M129.617,9.072c0.115,0.2,0.154,0.216,0.244,0.439c-0.684,0.633-0.928,0.574-0.955,1.862l3.785,0.002
		c-0.01-1.255-0.063-1.255-0.896-1.854l0.279-0.472c-0.299,0.106-0.244,0.182-0.473,0.377c-0.684-0.155-0.85-0.128-1.543-0.003
		C129.729,9.12,129.955,9.12,129.617,9.072L129.617,9.072z M71.693,9.136c-0.077,0.924-0.099,8.739,0.043,9.211l1.942-0.014
		l-0.011-9.187L71.693,9.136z M91.889,12.291l-3.175,0.017c-0.339,0.985-0.622,1.962-0.945,2.981
		c-1.09,3.428-0.608,2.953,3.829,2.972c1.356,0.006,2.17-0.294,2.521-1.417l-3.624-0.008L91.889,12.291z M128.51,18.261h3.479
		c1.164,0,1.836-0.524,2.125-1.409l-3.582-0.008l1.377-4.542l-3.193-0.005c-0.32,1.08-0.689,2.156-1.037,3.279
		C127.324,16.713,126.645,18.261,128.51,18.261L128.51,18.261z M75.648,11.158c3.32,0.064,6.914-0.864,6.856,2.558
		c-0.058,3.442-3.503,2.616-6.854,2.61l-0.041,2.006c1.761-0.004,4.92,0.23,6.313-0.415c3.254-1.509,3.418-6.831-0.005-8.39
		c-1.326-0.602-4.604-0.404-6.25-0.386L75.648,11.158z M39.548,11.115c2.459,0.541,6.922-1.299,6.865,2.604
		c-0.022,1.385-0.85,2.504-2.162,2.604c-1.501,0.109-3.183-0.088-4.698,0.02l-0.025,1.963c1.422,0.157,5.136,0.135,6.276-0.365
		c3.38-1.491,3.301-7.015,0.057-8.402c-1.117-0.476-4.96-0.571-6.303-0.366L39.548,11.115z M50.327,15.725
		c3.849,0.058,6.36-0.816,5.969,2.623l1.931-0.051c0.096-1.45-0.172-2.18-0.797-3.049c0.432-0.412,0.652-0.472,0.901-1.073
		c0.195-0.472,0.285-1.033,0.293-1.603c0.039-3.094-1.832-3.431-4.423-3.433c-1.093-0.003-2.909-0.104-3.929,0.029l-0.002,1.952
		c0.844,0.153,2.956,0.043,3.931,0.043c1.221-0.004,2.525-0.053,2.525,1.312c0,1.45-1.199,1.401-2.525,1.397
		c-1.293-0.006-2.594-0.011-3.887,0.004L50.327,15.725z M29.971,18.334c0.238-1.365-0.074-3.764,0.047-5.289
		c0.269-3.388,5.369-3.38,5.583,0.021c0.101,1.637,0.003,3.609,0.003,5.284l1.994-0.008c-0.005-1.771,0.238-5.432-0.38-6.849
		c-0.666-1.522-2.254-2.724-4.471-2.694c-2.197,0.031-3.794,1.282-4.391,2.866c-0.384,1.01-0.438,5.455-0.271,6.68L29.971,18.334z
		 M64.658,10.819c1.578-0.232,2.808,1.08,2.964,2.429c0.447,3.848-5.051,4.295-5.358,0.64
		C62.125,12.242,63.217,11.031,64.658,10.819L64.658,10.819z M60.442,14.196c0.247,2.354,2.315,4.458,5.063,4.122
		c2.361-0.29,4.256-2.566,3.947-5.269c-0.274-2.383-2.331-4.48-5.109-4.13C61.979,9.218,60.161,11.502,60.442,14.196L60.442,14.196z
		 M101.975,16.817c-0.803,0.103-1.614-0.161-1.433-1.033c0.138-0.669,0.484-1.39,0.611-2.078l1.801,0.052L101.975,16.817z
		 M106.572,12.293c-1.715-0.013-3.596-0.064-5.295,0.02c-1.679,0.081-2.826,0.816-3.52,1.764c-1.321,1.798-0.535,4.918,2.421,4.307
		c0.916-0.187,1.142-0.576,1.673-0.938c0.182,0.734,0.67,0.815,1.533,0.818c2.57,0.008,4.902,0.412,5.443-1.42l-3.68-0.024
		L106.572,12.293z M115.764,15.17l0.889-2.873h-3.184l-1.865,5.93c1.783,0.213,2.646-0.047,3.676-0.963l2.607-2.154
		c-0.137,0.641-0.646,1.797-0.641,2.336c0.006,1.006,1.309,0.813,2.18,0.813c2.016,0,4.211,0.403,4.773-1.417l-3.598,0.002
		c0.211-1.889,2.568-5.195-0.389-4.742c-1.141,0.176-1.75,0.835-2.381,1.377L115.764,15.17z"/>
</g>
<rect y="0" opacity="0" fill-rule="evenodd" clip-rule="evenodd" width="134.113" height="20"/>
</svg>
