<?xml version="1.0" encoding="utf-8"?>
<!-- Generator: Adobe Illustrator 16.0.0, SVG Export Plug-In . SVG Version: 6.00 Build 0)  -->
<!DOCTYPE svg PUBLIC "-//W3C//DTD SVG 1.1//EN" "http://www.w3.org/Graphics/SVG/1.1/DTD/svg11.dtd">
<svg version="1.1" id="Слой_1" xmlns="http://www.w3.org/2000/svg" xmlns:xlink="http://www.w3.org/1999/xlink" x="0px" y="0px"
	 width="109.354px" height="20px" viewBox="0 0 109.354 20" enable-background="new 0 0 109.354 20" xml:space="preserve">
<g>
	<path fill-rule="evenodd" clip-rule="evenodd" d="M2.791,1.668h19.633c1.537,0,2.791,1.24,2.791,2.76v11.141
		c0,1.521-1.254,2.762-2.791,2.762H2.791C1.254,18.331,0,17.09,0,15.569V4.429C0,2.909,1.254,1.668,2.791,1.668L2.791,1.668z
		 M4.158,3.171h14.955c0.858,0,1.565,0.699,1.565,1.548v10.459c0,0.854-0.707,1.554-1.565,1.554H4.158
		c-0.859,0-1.565-0.699-1.565-1.554V4.719C2.593,3.87,3.299,3.171,4.158,3.171L4.158,3.171z M22.475,7.408h0.672
		c0.198,0,0.362,0.157,0.362,0.358v4.556c0,0.201-0.164,0.357-0.362,0.357h-0.672c-0.198,0-0.362-0.156-0.362-0.357V7.767
		C22.113,7.565,22.277,7.408,22.475,7.408L22.475,7.408z"/>
	<path fill-rule="evenodd" clip-rule="evenodd" d="M7.204,5.905h2.367c0.322,0,0.582,0.257,0.582,0.575v2.371
		c0,0.318-0.26,0.575-0.582,0.575H7.204c-0.322,0-0.582-0.257-0.582-0.575V6.48C6.622,6.162,6.881,5.905,7.204,5.905L7.204,5.905z"
		/>
	<path fill-rule="evenodd" clip-rule="evenodd" d="M12.588,4.988h2.362c0.322,0,0.587,0.263,0.587,0.582v2.364
		c0,0.319-0.266,0.581-0.587,0.581h-2.362C12.266,8.515,12,8.253,12,7.934V5.57C12,5.25,12.266,4.988,12.588,4.988L12.588,4.988z"/>
	<path fill-rule="evenodd" clip-rule="evenodd" d="M6.656,13.748c0.48-0.04,1.017,0.117,1.576,0.156
		c0.893,0.061,1.853,0.027,2.802-0.072c1.215-0.135,2.407-0.521,3.655-1.549c0.916-0.75,1.65-1.706,2.113-2.885
		c0.209-0.525,0.339-0.967,0.531-0.961c0.181,0.005,0.396,0.296,0.254,0.86c-0.333,1.347-1.322,2.851-2.746,3.902
		c-2.141,1.577-5.074,1.693-7.65,1.275C6.299,14.328,6.328,13.781,6.656,13.748L6.656,13.748z"/>
	<g>
		<path d="M93.734,4.375H88.6V15.54l2.979,0.02v-2.835l0.35-0.025c2.197-0.147,4.096-0.275,4.779-2.658
			c0.455-1.564,0.244-3.23-0.552-4.346C95.573,4.88,94.745,4.424,93.734,4.375z M93.826,8.888c-0.169,0.562-0.965,0.85-2.263,0.796
			l-0.004-2.34c0.78-0.083,1.396-0.048,1.761,0.189C93.624,7.735,93.98,8.378,93.826,8.888z"/>
		<path d="M43.597,11.75c-0.341-0.646-0.718-1.356-1.099-2.073c-1.105-2.079-2.248-4.229-2.602-5.031l-0.132-0.299l-2.619,0.008
			l-0.007,8.504l-0.011,1.143c-0.007,0.603-0.01,0.856,0.017,1.027v0.567h1.952l0-1.173c0.007-0.203,0.007-0.483,0-0.844
			l-0.007-5.907c1.148,2.282,2.115,4.108,2.843,5.483c0.517,0.977,0.902,1.703,1.123,2.164l0.136,0.283h1.254l0.105,0.209
			l0.002-0.209h1.134L45.74,4.348h-2.058L43.597,11.75z"/>
		<path d="M64.702,9.24c0.408-1.447-0.102-3.219-0.648-3.853c-0.881-1.015-2.612-1.145-4.022-1.145c-0.524,0-1.052,0.02-1.554,0.038
			c-0.443,0.017-0.865,0.033-1.245,0.033h-0.496l-0.09,11.356l2.095-0.051l0.095-3.861l2.063,0.005l1.884,3.835l2.311,0.092
			l-1.992-4.51C63.905,10.783,64.454,10.121,64.702,9.24z M59.026,6.409c0.262-0.005,0.527-0.009,0.79-0.009
			c1.063,0,2.207,0.076,2.639,0.638c0.26,0.339,0.288,0.901,0.082,1.668c-0.201,0.74-0.762,1.001-2.147,1.001
			c-0.291,0-0.594-0.01-0.903-0.021c-0.207-0.007-0.416-0.014-0.626-0.018l-0.044-3.257C58.885,6.412,58.955,6.41,59.026,6.409z
			 M58.465,10.165v0.002h0L58.465,10.165z"/>
		<path d="M68.257,4.491c-2.407,0.839-3.34,3.33-2.775,7.404c0.346,2.463,2.018,3.993,4.364,3.994h0
			c0.647,0,1.338-0.115,2.055-0.342c2.174-0.689,3.166-4.174,2.729-6.997C74.081,5,71.574,3.334,68.257,4.491z M72.255,12.025
			c-0.257,1.05-1.209,1.783-2.316,1.783c-0.535,0-1.039-0.173-1.456-0.5c-0.934-0.731-1.149-3.543-0.707-5.383
			c0.288-1.188,1.291-1.72,2.157-1.72c0.723,0,1.381,0.33,1.853,0.929C72.602,8.172,72.769,9.909,72.255,12.025z"/>
		<path d="M81.666,4.303l-2.484,0.011l-0.104,11.354l1.36-0.006c4.443-0.004,7.125-0.008,7.195-5.659
			c0.027-2.259-0.344-3.655-1.206-4.527C85.356,4.391,83.638,4.303,81.666,4.303z M82.535,13.602c-0.375,0-0.809-0.027-1.317-0.085
			l-0.006-7.062c0.478-0.029,0.921-0.05,1.327-0.05c1.14,0,1.799,0.178,2.203,0.596c0.515,0.532,0.729,1.556,0.674,3.223
			C85.321,13.063,84.33,13.602,82.535,13.602z"/>
		<polygon points="100.819,4.329 100.79,7.204 103.547,7.318 103.561,15.663 106.582,15.633 106.66,7.326 109.305,7.326 
			109.354,4.313 		"/>
		<path d="M52.333,4.51l-5.034-0.015v11.08l5.015-0.12c1.514-0.094,3.331-1.116,3.393-5.452C55.752,6.604,54.634,4.757,52.333,4.51z
			 M52.825,12.877c-0.44,0.469-1.148,0.697-2.171,0.697l-0.906,0.017l-0.443-0.048l-0.006-7.07c0.323-0.007,0.628-0.013,0.915-0.013
			c2.392,0,3.11,0.346,3.262,2.64C53.573,10.596,53.563,12.089,52.825,12.877z"/>
		<polygon points="97.299,15.635 100.311,15.654 100.393,4.348 97.367,4.307 		"/>
		<polygon points="75.574,15.615 77.633,15.682 77.731,4.304 75.633,4.344 		"/>
		<path d="M33.353,4.361h-3.264L26.94,15.597h2.235l0.815-2.526h3.517l0.814,2.526h2.235L33.511,4.726L33.353,4.361z M30.489,10.885
			l1.212-4.534h0.095l1.211,4.534H30.489z"/>
	</g>
</g>
<rect opacity="0" fill-rule="evenodd" clip-rule="evenodd" width="109.354" height="20.001"/>
</svg>
