<?xml version="1.0" encoding="utf-8"?>
<!-- Generator: Adobe Illustrator 16.0.0, SVG Export Plug-In . SVG Version: 6.00 Build 0)  -->
<!DOCTYPE svg PUBLIC "-//W3C//DTD SVG 1.1//EN" "http://www.w3.org/Graphics/SVG/1.1/DTD/svg11.dtd">
<svg version="1.1" id="Слой_1" xmlns="http://www.w3.org/2000/svg" xmlns:xlink="http://www.w3.org/1999/xlink" x="0px" y="0px"
	 width="53.752px" height="20px" viewBox="0 0 53.752 20" enable-background="new 0 0 53.752 20" xml:space="preserve">
<g>
	<path fill-rule="evenodd" clip-rule="evenodd" d="M45.468,1.62l1.297-0.004l0.009,8.181l-1.27,0.022L45.468,1.62z M20.852,3.461
		c-0.18,0.264-0.523,2.979-0.465,3.405l0.902-0.009L20.852,3.461z M36.329,5.163c1.077,0.049,1.294-0.131,1.29-1.214
		c-0.007-1.065-0.241-1.168-1.256-1.142L36.329,5.163z M49.619,8.511v0.093c0.813,0,1.229,0.113,1.3-0.767l-0.002-4.142
		c-0.068-0.785-0.501-0.87-1.3-0.878L49.619,8.511z M30.985,8.607c1.566-0.008,1.302-0.161,1.302-2.883
		c0-0.627,0.041-1.416-0.01-2.024c-0.063-0.751-0.557-0.874-1.297-0.883L30.985,8.607z M7.322,2.751
		C6.223,3.127,6.62,4.416,6.988,4.759c1.368,1.271,4.429-0.743,2.918-1.627C9.316,2.788,8.056,2.5,7.322,2.751L7.322,2.751z
		 M41.777,2.646c-0.492,0.23-0.383,0.902-0.383,1.47c0.002,0.649,0,1.296,0,1.945c0,0.74-0.36,3.286,0.939,2.744
		c0.597-0.251,0.37-2.698,0.37-3.419C42.704,4.625,43.021,2.058,41.777,2.646L41.777,2.646z M44.49,19.773l1.273,0.035l-0.005-8.202
		c-1.399-0.054-1.28-0.248-1.276,0.958C44.492,14.8,44.4,17.71,44.49,19.773L44.49,19.773z M26.168,12.773l1.295,0.017l0.024,7.029
		l1.29-0.009l-0.005-6.999l1.283-0.034l0.059-1.191l-3.953,0.009L26.168,12.773z M19.474,13.455c0.165,0.41,0.404,2.766,0.465,3.413
		l-0.956-0.007L19.474,13.455z M17.294,19.799l1.239,0.008l0.288-1.767l1.29-0.008l0.248,1.774l1.285,0.002
		c0.017-0.61-1.206-7.866-1.373-8.196l-1.641-0.02L17.294,19.799z M25.971,11.629l-1.317-0.043c0.067,1.752,0.007,4.027,0.012,5.88
		c0.002,0.587,0.056,1.265-0.636,1.27c-0.748,0.008-0.686-0.601-0.683-1.27l0.008-5.863l-1.327-0.013
		c0.065,1.693,0.013,3.491,0.013,5.199c0,1.738,0.041,3.209,1.986,3.198c1.866-0.009,1.939-1.501,1.939-3.198
		C25.966,15.073,25.939,13.34,25.971,11.629L25.971,11.629z M30.394,19.811l1.232-0.002l0.034-3.652l1.242-0.023l0.032,3.661
		l1.249,0.017l0.029-8.225l-1.285,0.019l0.004,3.346l-1.275-0.013l0.005-3.352l-1.28,0.007L30.394,19.811z M36.373,13.664
		c0-0.62,0.063-1.119,0.711-1.082c0.576,0.031,0.61,0.527,0.61,1.082v4.054c0,0.606,0.012,0.684-0.32,1.093
		c-0.893,0.134-1.001-0.281-1.001-1.093V13.664z M36.47,11.504c-1.871,0.503-1.392,2.757-1.392,4.864
		c0,0.957-0.104,1.979,0.303,2.784c0.321,0.638,1.208,1.026,2.23,0.769c1.833-0.465,1.396-2.938,1.396-4.819
		c0-0.921,0.143-2.048-0.282-2.801C38.362,11.66,37.445,11.241,36.47,11.504L36.47,11.504z M41.15,12.781
		c1.086,0,1.297,0.114,1.29,1.22c-0.009,1.07-0.242,1.164-1.285,1.167L41.15,12.781z M39.875,19.817l1.288-0.005l-0.007-3.403
		l0.607-0.051l0.792,3.457l1.29-0.007l-0.896-3.778c0.337-0.448,0.659-0.62,0.76-1.473c0.428-3.544-1.982-2.903-3.843-2.974
		L39.875,19.817z M46.063,12.777l1.273,0.01l0.038,7.03l1.281-0.007l-0.002-7.013l1.127-0.015c0.218,0.32,0.82,2.507,1.016,3.117
		c0.412,1.278,0.076,2.563,0.226,3.903h1.236c0.158-2.077-0.275-2.428,0.354-4.473c0.351-1.142,0.896-2.589,1.14-3.729l-1.314-0.008
		c-0.065,0.518-0.247,1.152-0.379,1.682c-0.069,0.269-0.134,0.554-0.196,0.816c-0.032,0.126-0.063,0.307-0.095,0.415
		c-0.026,0.097-0.026,0.111-0.071,0.197l-0.926-3.076l-4.727-0.034L46.063,12.777z M9.224,19.439l-0.07-0.619
		c0.738-0.224,1.251-0.26,1.938-0.549c0.656-0.278,1.055-0.597,1.578-0.923c0.252,0.378,0.598,1.361,0.603,1.891
		C12.62,19.564,10.079,19.523,9.224,19.439L9.224,19.439z M3.188,19.154c0.059-0.523,0.506-1.595,0.698-2.107
		c0.313-0.83,0.779-1.079,1.849-0.974c1.704,0.168,2.6,1.48,2.205,3.376C6.792,19.502,4.014,19.643,3.188,19.154L3.188,19.154z
		 M9.539,13.939c2.215-0.107,1.278,0.201,1.936,0.335c0.641,0.134,1.856-0.105,2.196-0.009c-0.003,1.067,0.116,1.209-0.441,1.891
		c-1.038,1.275-3.378,2.579-4.826,2.173c-0.181-0.364-0.222-0.982-0.431-1.367c-0.709-1.313-2.479-1.559-4.026-0.935
		c-0.339-0.477-0.514-0.378-0.412-1.252c1.232-0.28,2.381-0.563,3.674-0.688c-0.171,1.17-0.276,1.348,1.053,1.57
		C9.464,15.857,9.27,14.91,9.539,13.939L9.539,13.939z M13.326,13.832l0.013-1.021l0.958,0.223l-0.063,1.169
		c-0.203,0.016-0.247-0.036-0.465-0.105l-0.402-0.214C13.358,13.874,13.341,13.849,13.326,13.832L13.326,13.832z M11.405,14.065
		c-0.089-0.399-0.017-1.229,0.068-1.584c0.337-0.081,0.835-0.067,1.208,0.002c0.59,0.11,0.496,0.259,0.491,0.84
		c-0.004,0.595,0.138,0.827-0.491,0.823C12.305,14.141,11.693,14.146,11.405,14.065L11.405,14.065z M9.938,12.548l1.259,0.044
		l-0.036,1.158l-1.566-0.019C9.633,13.391,9.682,12.752,9.938,12.548L9.938,12.548z M7.223,13.872
		c-0.714,0.123-1.442,0.2-2.193,0.345c-0.68,0.132-1.421,0.357-2.066,0.455l0.002-0.671c1.237-0.201,0.245-0.62,1.317-0.868
		c0.925-0.214,2.323-0.446,3.243-0.483C7.484,13.041,7.371,13.587,7.223,13.872L7.223,13.872z M9.118,15.159l-1.897-0.392
		L7.9,11.685l1.883,0.382L9.118,15.159z M2.622,13.02c-0.121-0.148-0.012-0.045-0.201-0.193c-0.518-0.402-1.941-1.3-2.006-2.129
		c-0.078-0.982,0.16-1.089,0.707-1.452c0.45-0.299,0.806-0.57,1.39-0.816c1.219-0.515,2.504-0.932,2.693,0.79
		c0.07,0.649-0.058,1.314-0.62,1.51c-1.302,0.452-1.147,0.073-1.658-0.102c0.218,0.299,0.854,1.102,0.971,1.499
		c0.174,0.585-0.69,1.49-0.705,1.495c-0.399,0.023-0.949,0.066-1.264-0.127C1.963,13.061,2.174,13.137,2.622,13.02L2.622,13.02z
		 M13.912,11.61c-0.055-1.009-0.225-1.955-0.327-2.935c0.666,0.185,1.752,0.829,2.077,1.184c0.653,0.715-0.285,1.855-0.625,2.261
		C13.76,13.64,13.958,12.452,13.912,11.61L13.912,11.61z M13.646,12.692c-0.634-0.119-0.08-0.228-0.82-0.372
		c-1.288-0.254-1.417,0.057-1.861,0.08c-0.293,0.014-0.729-0.027-1.043-0.029c0.034-1.001-0.118-1.046-1.231-1.207
		c-1.143-0.165-0.768,0.601-1.148,1.238c-0.435,0.159-1.261,0.164-1.786,0.245c-0.557,0.082-1.106,0.21-1.628,0.313
		c0.128-0.364,0.343-0.419,0.201-0.929c-0.09-0.326-0.303-0.458-0.451-0.732c1.072-0.436,1.876-0.308,1.755-1.931
		C5.546,8.233,5.093,7.481,3.897,7.651C3.88,7.237,3.926,7.28,4.442,7.212c0.295-0.038,0.603-0.074,0.9-0.104
		c1.778-0.189,3.917-0.117,5.654,0.189c0.571,0.103,1.135,0.226,1.663,0.383c0.433,0.131,0.407,0.117,0.491,0.517
		C13.399,9.392,13.607,11.493,13.646,12.692L13.646,12.692z M3.406,5.683c0.162-2.079,1.193-3.585,3.226-4.157
		c1.971-0.556,4.044,0.104,5.344,1.661C11.959,3.2,11.933,3.21,11.92,3.214c-0.011,0.004-0.041,0.019-0.055,0.026l-0.324,0.091
		c-0.898,0.297-0.228,1.265,0.099,1.636c0.702,0.794,0.513,0.361,1.406,0.533c0.041,0.417,0.116,0.783,0.02,1.195
		C10.824,5.762,6.034,5.267,3.406,5.683L3.406,5.683z M5.712,0.85C4.28,0.846,2.292,0.644,1.801,2.742
		c-0.22,0.937-0.092,4.504-0.075,5.701C1.344,8.669,0.939,8.895,0.531,9.169C0.054,9.487,0.018,9.945,0,10.625
		c-0.026,1.193,1.184,1.546,1.711,2.277c-0.303,1.004,0.012,0.221,0.009,2.199c0,0.784-0.05,1.773,0.012,2.534
		c0.13,1.553,1.193,2.346,2.827,2.346c2.532,0,5.066,0,7.6,0c1.535,0,2.577-0.846,2.718-2.269c0.138-1.408,0.02-3.517,0.014-4.997
		c0.146-0.141,0.247-0.185,0.39-0.352c0.126-0.148,0.208-0.283,0.358-0.493c0.24-0.334,0.436-0.688,0.537-1.15
		c0.175-0.795,0.078-0.989-0.798-1.597c-0.189-0.132-0.339-0.228-0.481-0.359c-0.027-1.331,0.166-5.227-0.131-6.211
		c-0.658-2.169-3.059-1.609-3.812-1.692c-0.745-0.087,0.054-0.02-0.503-0.4c-0.67,0.381,0.434,0.39-1.793,0.39
		c-0.705,0-1.453,0.025-2.154-0.014c-0.112-0.215-0.9-1.295-0.998-0.613C5.483,0.389,5.647,0.664,5.712,0.85L5.712,0.85z
		 M48.399,9.816c-0.124-0.499-0.106-7.44-0.021-8.209c3.816-0.026,3.865,0.114,3.865,4.116C52.242,9.574,52.373,9.876,48.399,9.816
		L48.399,9.816z M40.131,8.341c-0.133-0.965-0.155-5.237,0.189-5.926c0.743-1.493,3.35-1.332,3.664,0.619
		c0.15,0.929,0.123,5.22-0.199,5.937C43.14,10.421,40.427,10.506,40.131,8.341L40.131,8.341z M29.715,9.824l0.004-8.221
		c1.277,0.019,2.599-0.223,3.357,0.575c0.738,0.773,0.527,2.315,0.527,3.463c0,1.051,0.189,2.789-0.433,3.556
		C32.483,10.046,31,9.819,29.715,9.824L29.715,9.824z M18.68,9.816c-0.053-0.633,0.603-3.938,0.753-4.833
		c0.141-0.823,0.267-1.646,0.414-2.469c0.184-1.035,0.034-0.898,0.496-0.92c0.392-0.013,1.015-0.042,1.31,0.065
		c0.153,0.385,1.365,7.842,1.324,8.159c-1.563,0.005-1.268,0.09-1.379-0.765c-0.159-1.221,0.146-1.01-1.431-1.008l-0.295,1.771
		H18.68z M25.191,9.819l-1.109-0.002L24.054,1.62l1.14-0.015c0.305,0.867,0.564,1.712,0.842,2.547
		c0.22,0.659,0.578,2.031,0.894,2.531l-0.011-5.079l1.179,0.005l0.019,8.201l-1.157,0.01c-0.215-0.306-0.68-1.873-0.847-2.356
		c-0.206-0.597-0.601-2.058-0.894-2.443C25.215,5.992,25.375,9.098,25.191,9.819L25.191,9.819z M39.013,9.813l-1.266,0.003
		l-0.806-3.417l-0.617-0.036l0.002,3.458l-1.234-0.004L35.059,1.62c0.82-0.051,2.474-0.125,3.083,0.277
		c1,0.661,1.065,2.958,0.218,3.906c-0.21,0.234-0.249,0.13-0.169,0.513C38.357,7.142,39.025,9.227,39.013,9.813L39.013,9.813z
		 M53.678,10.561l0.039-9.62L17.255,0.929C17.163,3.47,17.25,6.763,17.248,9.44c-0.002,1.389-0.283,1.127,1.655,1.127h23.225
		C45.906,10.567,49.931,10.7,53.678,10.561L53.678,10.561z"/>
</g>
<rect opacity="0" fill-rule="evenodd" clip-rule="evenodd" width="53.752" height="20"/>
</svg>
