<?xml version="1.0" encoding="utf-8"?>
<!-- Generator: Adobe Illustrator 16.0.0, SVG Export Plug-In . SVG Version: 6.00 Build 0)  -->
<!DOCTYPE svg PUBLIC "-//W3C//DTD SVG 1.1//EN" "http://www.w3.org/Graphics/SVG/1.1/DTD/svg11.dtd">
<svg version="1.1" id="Слой_1" xmlns="http://www.w3.org/2000/svg" xmlns:xlink="http://www.w3.org/1999/xlink" x="0px" y="0px"
	 width="61.35px" height="20px" viewBox="0 0 61.35 20" enable-background="new 0 0 61.35 20" xml:space="preserve">
<g>
	<path fill-rule="evenodd" clip-rule="evenodd" d="M32.698,9.378l1.373-0.004l0.025-4.165l1.377,4.182h1.764V0.888l-1.453,0.006
		l-0.018,4.006L34.4,0.895h-1.745C32.594,2.023,32.516,8.667,32.698,9.378L32.698,9.378z"/>
	<path fill-rule="evenodd" clip-rule="evenodd" d="M39.969,2.017l1.165,0.043v0.397v3.536l-0.012,2.239l-1.153-0.006V3.393V2.017z
		 M38.476,9.374c4.946,0.175,4.128,0.318,4.128-4.212c0-0.834,0.227-3.55-0.22-3.996c-0.426-0.422-3.11-0.307-3.902-0.254
		L38.476,9.374z"/>
	<path fill-rule="evenodd" clip-rule="evenodd" d="M58.627,2.01h1.214l-0.042,6.227H58.64L58.627,2.01z M57.188,9.374
		c4.893,0.107,4.117,0.451,4.111-4.212c0-4.514,0.817-4.473-4.105-4.255L57.188,9.374z"/>
	<path fill-rule="evenodd" clip-rule="evenodd" d="M50.594,2.028l1.16-0.018l-0.043,6.234l-1.11-0.024L50.594,2.028z M49.765,0.979
		c-0.878,0.302-0.622,0.719-0.622,2.62c-0.005,1.043-0.005,2.082-0.005,3.126c0,0.893-0.276,2.304,0.568,2.589
		c0.353,0.12,2.701,0.12,3.013-0.019c0.774-0.345,0.512-1.708,0.512-2.571V2.036c0-0.604-0.024-0.846-0.488-1.033
		C52.345,0.839,50.168,0.839,49.765,0.979L49.765,0.979z"/>
	<path fill-rule="evenodd" clip-rule="evenodd" d="M45.294,2.017l1.03,0.007l0.006,2.654L45.3,4.661L45.294,2.017z M43.812,9.378
		h1.434L45.3,5.807h1.203v3.591l1.464-0.007c-0.007-0.784-0.007-1.568,0-2.359c0-1.068,0.176-1.383-0.501-1.87
		c0.469-0.388,0.312-0.99,0.312-1.769c0-3.06,0.232-2.493-3.96-2.499L43.812,9.378z"/>
	<path fill-rule="evenodd" clip-rule="evenodd" d="M33.547,11.707l1.176,0.039l0.006,5.589l-0.006,0.606l-1.17-0.01l-0.006-0.388
		v-4.895V11.707z M32.796,10.634c-1.012,0.253-0.708,1.37-0.708,2.432c0,1.044,0,2.083,0,3.119c0,0.817-0.281,2.44,0.427,2.766
		c0.347,0.156,2.671,0.174,3.087,0.055c0.854-0.241,0.578-1.642,0.578-2.504c0-1.039,0-2.084,0-3.121
		c0-0.84,0.281-2.359-0.479-2.698C35.352,10.531,33.192,10.531,32.796,10.634L32.796,10.634z"/>
	<path fill-rule="evenodd" clip-rule="evenodd" d="M29.374,2.24l0.568,4.351h-1.213L29.374,2.24z M26.91,9.361l1.397,0.017
		l0.275-1.659l1.579-0.006l0.196,1.672l1.347-0.007c0.104-0.548-0.884-7.393-1.055-8.472l-2.594-0.012L26.91,9.361z"/>
	<path fill-rule="evenodd" clip-rule="evenodd" d="M48.314,16.514l-1.44-0.019l-0.012,1.466l-1.165-0.007l-0.012-6.259l1.182,0.007
		l0.007,1.456l1.433-0.004c0.153-2.869,0.007-2.623-2.812-2.58c-1.696,0.028-1.299,0.868-1.293,4.158
		c0,3.247-0.445,4.296,1.19,4.327C48.393,19.12,48.393,19.416,48.314,16.514L48.314,16.514z"/>
	<path fill-rule="evenodd" clip-rule="evenodd" d="M28.508,11.727l0.481-0.024l0.208-0.007l0.488,0.036l-0.006,2.367l-0.586,0.017
		l-0.104,0.008l-0.475-0.047L28.508,11.727z M27.05,19.065l1.47-0.006l-0.013-3.79c1.05-0.198,2.074,0.235,2.513-0.43
		c0.245-0.416,0.251-3.572-0.054-3.934c-0.458-0.53-3.013-0.319-3.898-0.331L27.05,19.065z"/>
	<polygon fill-rule="evenodd" clip-rule="evenodd" points="49.356,19.065 53.126,19.06 53.114,17.941 50.857,17.954 50.839,15.094 
		52.278,15.094 52.333,14.016 50.845,14.016 50.845,11.695 52.955,11.702 52.967,10.587 49.369,10.575 	"/>
	<polygon fill-rule="evenodd" clip-rule="evenodd" points="37.438,19.037 40.579,19.043 40.597,18.015 38.927,17.938 38.927,10.567 
		37.438,10.587 	"/>
	<polygon fill-rule="evenodd" clip-rule="evenodd" points="41.476,19.065 42.964,19.046 42.958,10.599 41.488,10.575 	"/>
	<polygon fill-rule="evenodd" clip-rule="evenodd" points="54.486,9.398 55.956,9.391 55.949,0.888 54.499,0.895 	"/>
	<path fill-rule="evenodd" clip-rule="evenodd" d="M23.749,4.588c0.247-0.41,0.499-0.828,0.726-1.24L11.539,3.336L9.539,0
		C7.856,2.767,1.639,13.471,0,16.433l4.732-0.006l1-1.337h7.692l3.031,4.881c0.326-0.524,0.69-1.188,0.846-1.472l1.616-2.622
		l-4.262-7.225c-0.105-0.211-0.171-0.355-0.214-0.458l-0.318-0.762h2.958l-0.382,0.969c-0.057,0.14-0.116,0.287-0.122,0.332
		c0.011,0.009,0.104,0.159,0.193,0.303l2.226,3.67c0.896-1.548,1.856-3.201,2.749-4.709C22.288,7.08,22.804,6.2,23.33,5.29
		C23.463,5.061,23.604,4.827,23.749,4.588z M7.729,10.992L9.675,8.1l1.586,2.954L7.729,10.992z"/>
</g>
<rect y="-0.015" opacity="0" fill-rule="evenodd" clip-rule="evenodd" width="61.35" height="20.001"/>
</svg>
