<?xml version="1.0" encoding="utf-8"?>
<!-- Generator: Adobe Illustrator 16.0.0, SVG Export Plug-In . SVG Version: 6.00 Build 0)  -->
<!DOCTYPE svg PUBLIC "-//W3C//DTD SVG 1.1//EN" "http://www.w3.org/Graphics/SVG/1.1/DTD/svg11.dtd">
<svg version="1.1" id="Слой_1" xmlns="http://www.w3.org/2000/svg" xmlns:xlink="http://www.w3.org/1999/xlink" x="0px" y="0px"
	 width="111.097px" height="20px" viewBox="0 0 111.097 20" enable-background="new 0 0 111.097 20" xml:space="preserve">
<g>
	<path fill-rule="evenodd" clip-rule="evenodd" d="M13.545,10.104c-0.103,0.865-1.535,1.327-2.213,0.306
		c-0.648-0.979,0.487-2.191,1.269-1.82c-0.412,0.183-0.608,0.17-0.818,0.562c-0.349,0.651,0.124,1.47,0.946,1.431
		C13.149,10.562,13.333,10.31,13.545,10.104L13.545,10.104z M18.239,6.816c-0.191-0.189-0.488-0.009-0.79-0.252l0.664-0.353
		c0.053-0.332-0.055-0.544-0.084-0.883c0.303,0.156,0.278,0.211,0.496,0.412c0.19,0.174,0.013,0.039,0.184,0.151l0.777-0.372
		l-0.34,0.766c0.162,0.29,0.407,0.361,0.586,0.671l-0.871-0.088l-0.377,0.753C18.346,7.385,18.417,7.025,18.239,6.816L18.239,6.816z
		 M21.096,3.976c1.281-0.399,4.253-1.091,5.419-0.382c1.525,0.932-0.697,3.196-1.413,3.842c-0.317,0.288-0.577,0.485-0.863,0.729
		c-0.322,0.268-0.547,0.45-0.891,0.701c-0.603,0.442-1.229,0.904-1.875,1.315c-3.649,2.311-9.366,5.147-13.537,5.643
		c-2.39,0.284-4.179-0.394-2.523-2.611c0.516-0.689,0.949-1.124,1.538-1.645c0.371-0.326,1.377-1.255,1.82-1.426
		c-0.142,1.053-0.165,1.897,0.022,2.914c0.105,0.572,0.501,1.957,0.817,2.264c2.6-0.518,6.131-2.127,8.206-3.226
		c1.482-0.782,6.042-3.42,6.875-4.587C23.705,5.345,21.291,4.176,21.096,3.976L21.096,3.976z M20.48,3.738
		c0.586-0.489,10.255-3.252,8.668,0.793c-0.561,1.428-1.839,2.485-2.911,3.452c-2.235,2.014-6.299,4.361-8.985,5.713
		c-2.872,1.441-9.039,4.165-12.943,3.949c-1.287-0.071-2.451-0.628-1.91-2.094c0.398-1.072,1.103-1.771,1.753-2.436
		c0.95-0.973,2.296-2.052,3.446-2.851c0.342-0.237,0.878-0.683,1.324-0.858C8.846,9.713,8.885,9.625,8.638,9.79l-0.914,0.599
		c-0.897,0.592-2.684,2.099-3.381,2.773c-0.955,0.924-3.793,4.167,0.178,4.307c5.482,0.193,16.955-5.521,21.429-9.484
		c0.368-0.327,0.751-0.632,1.08-0.945c0.724-0.689,4.031-4.106,0.402-4.489c-1.568-0.165-3.83,0.373-5.35,0.828
		C21.705,3.491,20.861,3.87,20.48,3.738L20.48,3.738z M31.275,3.551c0.575-2.174-2.388-2.113-3.973-1.929
		c-1.808,0.211-3.391,0.664-5.022,1.156c-3.49,1.049-1.353,0.821-3.525,0.443c-2.296-0.402-4.439,0.084-6.167,1.186
		c-1.289,0.82-2.246,1.855-2.981,3.238c-0.72,1.356-0.01,0.945-1.349,1.763c-2.409,1.471-6.94,4.771-8.035,7.301
		c-1.006,2.32,1.594,2.523,3.418,2.37c4.249-0.364,10.302-2.863,13.833-4.649C21.048,12.62,30.277,7.31,31.275,3.551L31.275,3.551z"
		/>
	<path fill-rule="evenodd" clip-rule="evenodd" d="M11.129,17.396c0.208,0.471,1.459,1.251,1.927,1.525
		c4.608,2.712,11.434,0.155,12.562-5.957c0.138-0.752,0.19-2.395-0.065-3.088l-1.631,1.068c-0.501,0.365-1.116,0.693-1.687,1.069
		c-0.79,0.519-2.612,1.502-3.521,1.988c-2.124,1.129-3.55,1.725-5.639,2.622c-0.34,0.149-0.637,0.257-0.987,0.395
		C11.865,17.105,11.294,17.293,11.129,17.396L11.129,17.396z"/>
	<path fill-rule="evenodd" clip-rule="evenodd" d="M16.448,1.833c-0.53,0-0.497,0.124-0.893,0.005
		c-0.248-0.073-0.206-0.182-0.076-0.238c0.22-0.096,0.746-0.116,0.824-0.123c0.332-0.018,0.711-0.055,1.021,0.076
		c0.196,0.083,0.056,0.226-0.079,0.268C16.986,1.902,16.464,1.833,16.448,1.833L16.448,1.833z M16.4,2.206
		c0.294,0,0.532,0.048,0.532,0.11c0,0.061-0.237,0.11-0.532,0.11c-0.293,0-0.532-0.049-0.532-0.11
		C15.869,2.254,16.107,2.206,16.4,2.206L16.4,2.206z M15.598,0.701c0.486-0.088,1.448-0.179,1.994-0.011
		c0.245,0.079,0.353,0.174,0.066,0.337c-0.311,0.179-0.829-0.033-1.284-0.012c-0.392,0.017-0.769,0.195-1.095,0.108
		C14.625,0.942,15.344,0.745,15.598,0.701L15.598,0.701z M15.202,1.32c-0.181,0.471-0.088,0.501,0.358,0.683
		c-0.039,0.149-0.078,0.185-0.047,0.39l0.31,0.199c0.012,0.013,0.029,0.031,0.039,0.043c0.012,0.016,0.028,0.039,0.039,0.05
		c0.011,0.012,0.025,0.035,0.038,0.051c0.242-0.11,0.728-0.249,0.887,0.014c0.239-0.22,0.129-0.247,0.511-0.404
		c-0.008-0.297-0.043-0.215-0.064-0.408c0.421-0.175,0.538-0.25,0.367-0.691c1.988-1.119-1.559-1.666-2.72-0.865
		C14.221,0.863,15.083,1.245,15.202,1.32L15.202,1.32z"/>
	<path fill-rule="evenodd" clip-rule="evenodd" d="M9.12,6.808c0.043-0.224,0.186-0.395,0.305-0.563
		c0.033-0.042,0.658-0.795,0.594-0.419c-0.078,0.46-0.163,0.288-0.4,0.613C9.603,6.463,9.044,7.217,9.12,6.808L9.12,6.808z
		 M9.725,5.315c-0.06,0.358-0.32,0.425-0.526,0.704C8.927,6.388,8.97,6.564,8.587,6.708C8.145,6.873,8.892,5.583,9.491,5.192
		C9.718,5.044,9.77,5.044,9.725,5.315L9.725,5.315z M7.69,6.105c0.33-0.765,1.222-1.787,1.701-1.848
		C9.4,4.608,9.351,4.782,9.098,4.986C8.269,5.643,8.271,6.168,7.989,6.399C7.616,6.702,7.514,6.516,7.69,6.105L7.69,6.105z
		 M8.012,6.592c0.15,0.413,0.348,0.361,0.734,0.233c0.012-0.032,0.101,0.132,0.243,0.179c0.125,0.038,0.303-0.037,0.351-0.043
		l0.169-0.007c0.525-0.014,0.698-0.602,0.703-0.679c0.016-0.296-0.025-0.063-0.064-0.296c-0.072-0.435,0.155-0.37-0.305-0.558
		C9.997,4.892,9.931,4.9,9.535,4.702C9.924,2.669,7.591,4.498,7.192,5.9C6.964,6.711,7.368,6.895,8.012,6.592L8.012,6.592z"/>
	<g>
		<path d="M36.4,5.922c-0.438-0.009-0.868-0.018-1.284-0.018c-2.405,0-4.792,0.258-5.244,3.338c-0.271,1.851,0.01,3.275,0.836,4.232
			c0.748,0.865,1.903,1.305,3.432,1.305h0c0.502,0,1.05-0.049,1.626-0.146l0.212-0.035l-0.028-1.916l-0.221-0.022
			c-0.389-0.039-0.759-0.063-1.108-0.084c-1.086-0.068-1.943-0.122-2.376-0.624c-0.318-0.368-0.432-1.015-0.35-1.975
			c0.152-1.76,1.605-2.361,4.306-1.845l-0.027,6.622l2.079-0.054l0.094-8.762l-0.561,0.004C37.319,5.941,36.854,5.932,36.4,5.922z"
			/>
		<path d="M110.846,5.954c-0.496-0.004-0.987-0.02-1.469-0.034c-0.549-0.017-1.083-0.033-1.596-0.033
			c-2.258,0-4.706,0.258-5.169,3.335c-0.271,1.796,0.03,3.262,0.872,4.24c0.746,0.867,1.897,1.325,3.331,1.325
			c0.534,0,1.112-0.063,1.716-0.188l0.2-0.042l-0.006-1.835l-0.212-0.031c-0.531-0.079-1.036-0.101-1.481-0.12
			c-1.616-0.07-2.428-0.104-2.37-2.351c0.049-1.86,0.954-2.2,2.719-2.2c0.343,0,0.706,0.013,1.084,0.026
			c0.146,0.005,0.296,0.01,0.446,0.015l0.074,6.517l2.016,0.152l0.096-8.774L110.846,5.954z"/>
		<path d="M71.073,5.926c-0.521,0-1.081,0.082-1.663,0.243c-2.607,0.72-3.537,2.572-2.841,5.665c0.402,1.773,2.021,2.92,4.124,2.921
			c0.548,0,1.108-0.079,1.666-0.234c2.154-0.601,3.005-2.934,2.732-4.928C74.86,7.901,73.669,5.926,71.073,5.926z M72.822,11.306
			c-0.336,1.007-1.256,1.365-2.004,1.365c-0.794,0-1.548-0.371-1.967-0.969c-0.459-0.655-0.512-1.525-0.153-2.517
			c0.253-0.698,1.039-1.15,2.001-1.15c0.824,0,1.558,0.336,1.963,0.9C73.088,9.526,73.143,10.346,72.822,11.306z"/>
		<path d="M89.544,5.94c-0.356,0-0.733,0.034-1.118,0.101c-2.647,0.458-3.781,2.318-3.276,5.377c0.348,2.107,1.84,3.316,4.094,3.316
			c0.431,0,0.892-0.044,1.37-0.131c2.31-0.419,3.365-2.765,3.186-4.76C93.638,8.043,92.426,5.94,89.544,5.94z M91.413,11.532
			c-0.272,0.7-0.968,1.118-1.86,1.118c-0.9,0-1.756-0.435-2.18-1.106c-0.429-0.679-0.411-1.552,0.053-2.522
			c0.287-0.602,1.039-0.99,1.915-0.99c0.857,0,1.613,0.355,2.02,0.95C91.796,9.618,91.814,10.5,91.413,11.532z"/>
		<path d="M80.124,5.959l-0.083,0c-1.523,0-2.61,0.369-3.322,1.126c-1.265,1.346-1.117,3.722-0.96,6.238
			c0.023,0.369,0.046,0.743,0.066,1.119l0.012,0.239l2.023-0.018l0.008-0.239c0.023-0.664-0.014-1.354-0.05-2.02
			c-0.084-1.554-0.164-3.022,0.547-3.772c0.363-0.383,0.923-0.57,1.758-0.57c0,0,0.001,0,0.001,0
			c0.851,0.008,1.393,0.165,1.708,0.494c0.491,0.511,0.46,1.485,0.418,2.833c-0.028,0.893-0.06,1.904,0.046,3.065l0.021,0.232
			l1.996-0.046l0.052-1.055c0.149-2.932,0.268-5.248-0.941-6.53C82.742,6.332,81.662,5.973,80.124,5.959z"/>
		<path d="M47.229,7.508c-0.638-0.828-0.958-1.244-2.594-1.484c-0.351-0.051-0.72-0.077-1.097-0.077
			c-1.144,0-2.195,0.237-2.886,0.652c-1.826,1.106-1.588,4.767-1.415,7.438l0.038,0.596l2.02,0.076l0.011-0.248
			c0.046-1.027,0.019-1.935-0.005-2.735c-0.045-1.522-0.078-2.621,0.452-3.168c0.324-0.334,0.875-0.49,1.753-0.491
			c1.639,0,2.082,0.389,2.155,1.893c0.066,1.343,0.116,3.058-0.084,4.4l-0.042,0.279l2.173,0.059l0.021-0.233
			c0.179-1.962,0.17-4.917-0.198-6.528L47.229,7.508z"/>
		<path d="M51.617,5.93c-0.461,0-0.937,0.011-1.421,0.021c-0.373,0.009-0.75,0.017-1.13,0.021l-0.46,0.002l-0.04,0l-0.009,0.5
			l-0.026,1.531l0.241,0.012c0.629,0.033,1.285,0.011,1.927-0.013c0.395-0.014,0.784-0.027,1.159-0.027
			c1.928,0,3.062,0.365,3.148,2.232c0.037,0.8-0.13,1.382-0.509,1.779c-0.624,0.653-1.799,0.737-2.752,0.737
			c-0.508,0-1.039-0.027-1.569-0.054c-0.449-0.022-0.898-0.045-1.332-0.052l-0.242-0.004l-0.099,2.031l0.891,0.048
			c0.859,0.048,1.67,0.093,2.445,0.093c2.711,0,5.228-0.527,5.284-4.347c0.024-1.502-0.313-2.585-1.029-3.313
			C55.115,6.133,53.596,5.93,51.617,5.93z"/>
		<path d="M65.419,7.555C64.756,6.061,62.709,5.869,61,5.869c-0.753,0-1.508,0.042-2.239,0.083l-0.862,0.046l-0.034,2.036
			l0.247,0.007c0.297,0.008,0.584,0.012,0.861,0.012c0,0,0,0,0.001,0c0.542,0,1.045-0.013,1.503-0.024
			c1.447-0.038,2.491-0.07,2.85,0.379c0.179,0.225,0.211,0.615,0.096,1.191c-0.94,0.316-2.145,0.283-3.307,0.267
			c-0.686-0.01-1.378-0.019-2.032,0.026L57.85,9.91l0.005,2l0.246,0.003c0.979,0.015,1.776-0.003,2.427-0.017
			c0.359-0.007,0.674-0.014,0.952-0.014c1.705,0,1.785,0.096,2.159,2.571l0.032,0.212l1.997,0.008l0.005-0.246
			c0.015-0.771-0.194-1.651-0.362-2.357c-0.105-0.442-0.214-0.899-0.192-1.069c0.026-0.204,0.123-0.414,0.234-0.657
			C65.648,9.7,66.016,8.899,65.419,7.555z"/>
		<path d="M98.295,10.826c-0.483-0.766-1.009-2.229-1.411-3.345c-0.191-0.531-0.362-1.008-0.504-1.346l-0.064-0.153l-2.334-0.009
			l3.393,8.689l1.841,0.031l3.021-8.655l-2.363-0.086L98.295,10.826z"/>
	</g>
</g>
<rect y="0" opacity="0" fill-rule="evenodd" clip-rule="evenodd" width="111.097" height="20"/>
</svg>
