<?xml version="1.0" encoding="utf-8"?>
<!-- Generator: Adobe Illustrator 16.0.0, SVG Export Plug-In . SVG Version: 6.00 Build 0)  -->
<!DOCTYPE svg PUBLIC "-//W3C//DTD SVG 1.1//EN" "http://www.w3.org/Graphics/SVG/1.1/DTD/svg11.dtd">
<svg version="1.1" id="Слой_1" xmlns="http://www.w3.org/2000/svg" xmlns:xlink="http://www.w3.org/1999/xlink" x="0px" y="0px"
	 width="121.201px" height="20px" viewBox="0 0 121.201 20" enable-background="new 0 0 121.201 20" xml:space="preserve">
<g>
	<path fill-rule="evenodd" clip-rule="evenodd" d="M15.871,10.512c-0.322,0.223-6.544,0.096-7.49,0.091l-7.298,0.007
		c0.021-2.876,1.891-5.342,3.659-6.171C4.489,3.726,3.541,2.953,3.774,2.153C4.72,1.885,4.717,2.865,5.585,3.96
		c0.9-0.17,1.435-0.497,2.565-0.556c0.787-0.037,2.058,0.051,2.646,0.369l0.655,0.192c0.65-0.896,1.045-2.286,1.701-1.797
		c0.226,0.196,0.266,0.173,0.11,0.55c-0.134,0.324-0.76,1.159-0.924,1.605c0.658,0.601,0.714,0.335,1.877,1.59
		c0.312,0.334,0.702,0.877,0.983,1.416C15.465,7.838,16.32,10.036,15.871,10.512L15.871,10.512z M2.743,2.448
		c0,0.882,0.422,0.882,0.567,1.501L2.055,5.146c-2.168,2.413-2.635,5.876-1.332,8.863c0.523,1.201,1.711,2.709,2.793,3.427
		c4.215,2.796,9.33,1.873,12.115-2.047c0.25-0.351,0.572-0.901,0.758-1.313c1.123-2.509,0.975-5.036-0.253-7.438
		c-0.465-0.915-1.426-2.105-2.308-2.688c0.18-0.661,0.57-0.502,0.57-1.501c0-1.505-1.819-1.983-2.576-0.954l-0.647,1.05
		c-0.903-0.074-1.018-0.375-3.033-0.375c-0.865,0-1.479,0.213-2.178,0.375C5.48,1.829,5.432,1.235,4.374,1.013
		C3.565,0.843,2.743,1.528,2.743,2.448L2.743,2.448z"/>
	<path fill-rule="evenodd" clip-rule="evenodd" d="M72.681,11.356c0-1.427,0.997-2.532,1.894-2.532h0.57
		c1.204,0,1.99,1.255,1.99,2.719c0,1.074-1.074,2.158-2.181,2.158C73.662,13.701,72.681,12.617,72.681,11.356L72.681,11.356z
		 M77.135,7.606c-0.381-0.252-0.572-0.449-1.042-0.659c-1.899-0.845-4.325,0.125-5.34,2.22c-0.849,1.743-0.513,3.979,0.905,5.355
		c2.479,2.402,7.205,1.249,7.729-2.626c0.161-1.186-0.067-2.799,0.091-3.941c0.143-1.021,0.027-2.977,0.027-4.099h-2.37V7.606z"/>
	<path fill-rule="evenodd" clip-rule="evenodd" d="M45.482,13.701c-3.153,0-2.837-4.877-0.285-4.877c0.685,0,1.026-0.027,1.65,0.523
		C48.426,10.743,47.548,13.701,45.482,13.701L45.482,13.701z M47.661,7.606c-1.091-0.726-1.233-0.938-2.748-0.938
		c-0.551,0-1.241,0.239-1.644,0.434c-3.033,1.47-3.498,6.472,0.094,8.229c2.574,1.257,6.617-0.154,6.574-4.162l0.094-7.312h-2.369
		V7.606z"/>
	<path fill-rule="evenodd" clip-rule="evenodd" d="M25.297,8.824h0.566c1.053,0,1.991,1.15,1.991,2.158v0.656
		c0,2.395-4.075,3.136-4.435-0.213C23.293,10.251,24.327,8.824,25.297,8.824L25.297,8.824z M21.031,11.168
		c0,2.867,2.694,5.485,5.864,4.303c0.497-0.186,0.664-0.385,1.056-0.646c0,0.927-0.333,0.749,2.273,0.749v-4.499
		c0-1.772-1.238-3.511-2.689-4.088C24.075,5.613,21.031,8.205,21.031,11.168L21.031,11.168z"/>
	<path fill-rule="evenodd" clip-rule="evenodd" d="M61.022,13.701c-3.011,0-2.832-4.971,0-4.971
		C63.733,8.73,63.867,13.701,61.022,13.701L61.022,13.701z M56.475,11.168c0,2.53,1.851,4.596,4.645,4.596
		c4.838,0,5.988-6.916,1.668-8.776c-1.467-0.633-3.227-0.446-4.39,0.457C57.321,8.281,56.475,9.536,56.475,11.168L56.475,11.168z"/>
	<path fill-rule="evenodd" clip-rule="evenodd" d="M31.742,10.512v5.063h2.369v-5.155c0-1.786,3.315-2.586,3.315,0.467v4.784
		c1.365,0,2.37,0.208,2.37-0.281v-4.406c0-1.415-0.325-2.297-0.943-3.1c-0.215-0.279-0.809-0.739-1.18-0.896
		c-1.112-0.474-2.24-0.497-3.363-0.122C32.813,7.367,31.742,8.747,31.742,10.512L31.742,10.512z"/>
	<path fill-rule="evenodd" clip-rule="evenodd" d="M83.958,15.574c1.034,0,0.935,0.139,1.504-1.416
		c0.637-1.738,0.913-2.345,1.432-4.207l0.285-0.846c0.062,0.744,0.755,2.572,1.007,3.316l1.174,3.152h1.136
		c0.326-0.608,0.588-1.365,0.866-2.049c0.271-0.664,0.532-1.387,0.781-2.134c0.301-0.896,1.273-3.867,1.29-4.631h-1.137
		c-0.075,0.915-0.967,3.743-1.284,4.824c-0.153,0.511-0.739,2.333-1.085,2.584l-1.198-3.597c-0.191-0.643-0.334-1.206-0.519-1.831
		c-0.186-0.617-0.307-1.313-0.462-1.98h-1.139c-0.016,0.758-1.257,4.731-1.574,5.661l-0.54,1.529
		c-0.108,0.188-0.07,0.117-0.159,0.218c-0.129-0.546-1.378-3.756-1.859-5.661c-0.524-2.075-0.014-1.84-1.647-1.84
		C80.851,7.524,83.208,15.574,83.958,15.574L83.958,15.574z"/>
	<path fill-rule="evenodd" clip-rule="evenodd" d="M114.852,11.264c0-1.616,0.391-2.729,1.482-3.314
		c0.566-0.306,1.27-0.313,1.92-0.247c0.383,0.04,0.674,0.094,0.992,0.245c0.301,0.138,0.539,0.334,0.818,0.409v6.187
		c-0.637,0.017-1.02,0.188-2.088,0.188C115.969,14.731,114.852,13.26,114.852,11.264L114.852,11.264z M119.969,7.043
		c-1.08-0.249-0.791-0.563-2.559-0.563c-3.559,0-5.105,4.922-2.805,7.838c1.932,2.45,5.566,1.093,6.596,1.071V3.761h-1.232V7.043z"
		/>
	<path fill-rule="evenodd" clip-rule="evenodd" d="M95.235,11.264c0-0.968,0.264-1.927,0.688-2.51
		c1.468-2.012,4.997-1.429,4.997,2.51c0,3.973-3.701,4.21-4.997,2.413C95.525,13.126,95.235,12.165,95.235,11.264L95.235,11.264z
		 M94.002,10.886c0,1.994,0.513,3.676,2.305,4.566c2.507,1.249,5.845-0.489,5.845-3.813c0-1.414-0.105-2.751-1.111-3.776
		C100,6.802,99.324,6.575,97.792,6.575C95.646,6.575,94.002,8.73,94.002,10.886L94.002,10.886z"/>
	<path fill-rule="evenodd" clip-rule="evenodd" d="M51.263,10.793v4.503c0,0.489,1.005,0.278,2.369,0.278v-4.688
		c0-1.147,0.374-1.85,1.408-2.078c0.626-0.135,0.483,0.006,1.056,0.017c0-0.811-0.094-1.297-0.094-2.156
		c-0.625,0-0.736-0.224-1.996,0.091C52.214,7.202,51.263,8.792,51.263,10.793L51.263,10.793z"/>
	<path fill-rule="evenodd" clip-rule="evenodd" d="M66.709,7.043v8.531h2.369V7.043c0-0.47-0.809-0.282-2.084-0.282
		C66.776,6.761,66.709,6.827,66.709,7.043L66.709,7.043z"/>
	<path fill-rule="evenodd" clip-rule="evenodd" d="M110.018,13.419c0,1.741,0.83,2.345,2.369,2.345c0-0.476,0.094-0.511,0.094-1.032
		c-0.688,0-1.229-0.278-1.229-0.938V3.856h-1.234V13.419z"/>
	<path fill-rule="evenodd" clip-rule="evenodd" d="M103.668,7.418v7.878c0,0.398,0.365,0.278,1.232,0.278V7.889
		c0.51-0.014,0.545-0.189,1.799-0.189c0.668,0,0.973,0.145,1.52,0.189c0.445-0.923,0.221-1.016-0.104-1.113
		c-0.959-0.298-2.197-0.2-3.158,0.042C104.574,6.913,103.668,7.054,103.668,7.418L103.668,7.418z"/>
	<path fill-rule="evenodd" clip-rule="evenodd" d="M11.954,7.118c-1.117,0.419-0.4,1.889,0.545,1.527
		C13.485,8.266,12.991,6.73,11.954,7.118L11.954,7.118z"/>
	<path fill-rule="evenodd" clip-rule="evenodd" d="M4.631,7.102C3.64,7.394,3.992,8.976,5.134,8.661
		C6.052,8.407,5.738,6.775,4.631,7.102L4.631,7.102z"/>
</g>
<rect y="0" opacity="0" fill-rule="evenodd" clip-rule="evenodd" width="121.201" height="20"/>
</svg>
