<?xml version="1.0" encoding="utf-8"?>
<!-- Generator: Adobe Illustrator 16.0.0, SVG Export Plug-In . SVG Version: 6.00 Build 0)  -->
<!DOCTYPE svg PUBLIC "-//W3C//DTD SVG 1.1//EN" "http://www.w3.org/Graphics/SVG/1.1/DTD/svg11.dtd">
<svg version="1.1" id="Слой_1" xmlns="http://www.w3.org/2000/svg" xmlns:xlink="http://www.w3.org/1999/xlink" x="0px" y="0px"
	 width="200px" height="18px" viewBox="0 0 200 18" enable-background="new 0 0 200 18" xml:space="preserve">
<g>
	<path d="M12.224,14.085H5.568l-2.016,3.98H0L9.498,0.061h3.838l2.726,18.004h-3.276L12.224,14.085z M11.8,11.09l-0.974-7.246
		L6.771,11.09H11.8z"/>
	<path d="M31.597,18.065h-3.219L23.841,5.968l-2.36,12.098h-3.219l3.505-18.004h3.231l4.548,12.047l2.348-12.047h3.208
		L31.597,18.065z"/>
	<path d="M34.965,18.065l3.517-18.004h3.449l-3.506,18.004H34.965z"/>
	<path d="M51.29,18.065h-3.276L47.407,3.021l-2.669,15.045h-3.116l3.505-18.004h4.926l0.516,12.612l5.729-12.612h4.983
		l-3.517,18.004h-3.15l3.311-14.935L51.29,18.065z"/>
	<path d="M61.177,18.065l3.506-18.004h12.453l-0.584,3.008h-8.994l-0.801,4.09h8.695l-0.584,3.008h-8.695l-1.054,4.89h9.772
		l-0.596,3.009H61.177z"/>
</g>
<g>
	<path fill="#141515" d="M75.943,18.125L79.123,0h12.501l-0.52,3.039h-7.526l-0.8,4.537h6.575l-0.648,3.745h-6.597l-1.168,6.805
		H75.943z M89.245,18.125L92.425,0h4.78l-2.51,14.359h7.354l-0.67,3.766H89.245z M109.576,18.125h-5.277L101.573,0h4.607
		l1.622,12.883L113.773,0h4.175L109.576,18.125z"/>
</g>
</svg>
