<?xml version="1.0" encoding="utf-8"?>
<!-- Generator: Adobe Illustrator 16.0.0, SVG Export Plug-In . SVG Version: 6.00 Build 0)  -->
<!DOCTYPE svg PUBLIC "-//W3C//DTD SVG 1.1//EN" "http://www.w3.org/Graphics/SVG/1.1/DTD/svg11.dtd">
<svg version="1.1" id="Слой_1" xmlns="http://www.w3.org/2000/svg" xmlns:xlink="http://www.w3.org/1999/xlink" x="0px" y="0px"
	 width="52.334px" height="20px" viewBox="0 0 52.334 20" enable-background="new 0 0 52.334 20" xml:space="preserve">
<g>
	<path fill-rule="evenodd" clip-rule="evenodd" d="M18.646,0h8.575c0.547,0,0.903,0.499,0.668,0.991l-4.987,10.761
		c-0.234,0.499-0.703,0.998-1.257,0.998h-8.546c-0.547,0-0.987-0.499-0.753-0.998l4.987-10.761C17.566,0.499,18.099,0,18.646,0
		L18.646,0z M26.091,1.876l-4.397,8.919h-2.06l-0.697-5.883l-2.784,5.883h-1.89l4.398-8.919h1.925l0.746,5.679l2.92-5.679H26.091z"
		/>
	<path fill-rule="evenodd" clip-rule="evenodd" d="M30.801,0h8.575c0.546,0,0.902,0.499,0.667,0.991l-4.987,10.761
		c-0.234,0.499-0.704,0.998-1.257,0.998h-8.547c-0.547,0-0.987-0.499-0.76-0.998l4.995-10.761C29.722,0.499,30.254,0,30.801,0
		L30.801,0z M38.154,1.876l-4.398,8.919h-2.067L31,4.913l-2.792,5.883h-1.883l4.397-8.919h1.926l0.738,5.679l2.927-5.679H38.154z"/>
	<path fill-rule="evenodd" clip-rule="evenodd" d="M43.021,0h8.568c0.554,0,0.902,0.499,0.675,0.991l-4.995,10.761
		c-0.228,0.499-0.696,0.998-1.25,0.998h-8.546c-0.547,0-0.988-0.499-0.76-0.998l4.994-10.761C41.934,0.499,42.474,0,43.021,0
		L43.021,0z M46.899,10.824h-2.188l0.256-2.032h-3.041l-1.791,2.032h-2.408l8.205-8.976h1.897L46.899,10.824z M45.33,7.31
		l0.391-3.128L43.198,7.31H45.33z"/>
	<path fill-rule="evenodd" clip-rule="evenodd" d="M6.37,0h8.567c0.554,0,0.902,0.499,0.675,0.991l-4.994,10.761
		c-0.227,0.499-0.703,0.998-1.25,0.998H0.821c-0.554,0-0.987-0.499-0.76-0.998L5.056,0.991C5.283,0.499,5.816,0,6.37,0L6.37,0z
		 M10.49,10.824H8.309l0.256-2.032H5.517l-1.783,2.032H1.319l8.206-8.976h1.896L10.49,10.824z M8.921,7.31l0.397-3.128L6.79,7.31
		H8.921z"/>
	<path d="M15.836,13.922l-2.634,5.971h-1.35l-0.738-3.076l-1.522,3.076h-1.75l2.579-5.971h1.405l0.766,3.047l1.495-3.047H15.836z
		 M22.489,13.922l-0.547,1.288h-2.789l-0.447,0.947h2.817l-0.566,1.209H18.15l-0.529,1.163h2.799l-0.656,1.363h-4.439l2.232-5.971
		H22.489z M31.741,13.922l-3.782,5.971h-1.824l0.466-3.203l-2.353,3.203h-1.596l1.24-5.971h1.35l-0.857,3.724l2.762-3.724h1.113
		L27.74,17.61l2.425-3.688H31.741z M37.539,15.581l-1.75,0.1c-0.037-0.524-0.328-0.783-0.875-0.783c-0.219,0-0.392,0.053-0.51,0.142
		c-0.12,0.091-0.182,0.207-0.182,0.334c0,0.1,0.054,0.189,0.145,0.272c0.775,0.692,1.823,1.044,1.823,2.351
		c0,0.345-0.1,0.668-0.3,0.966c-0.191,0.298-0.474,0.552-0.839,0.74C34.677,19.902,34.157,20,33.474,20
		c-0.958,0-1.641-0.19-2.042-0.55c-0.401-0.36-0.602-0.829-0.602-1.398v-0.144l1.759-0.118c0,0.38,0.083,0.641,0.247,0.794
		c0.165,0.153,0.392,0.225,0.693,0.225c0.292,0,0.519-0.062,0.675-0.188c0.155-0.128,0.228-0.271,0.228-0.436
		c0-0.125-0.045-0.232-0.146-0.342c-0.455-0.468-0.555-0.198-1.458-1.235c-0.237-0.261-0.355-0.587-0.355-0.955
		c0-0.343,0.1-0.659,0.291-0.938c0.192-0.28,0.475-0.504,0.84-0.658c0.374-0.152,0.812-0.234,1.331-0.234
		C36.563,13.822,37.43,14.408,37.539,15.581L37.539,15.581z"/>
</g>
<rect opacity="0" fill-rule="evenodd" clip-rule="evenodd" width="52.334" height="20"/>
</svg>
