<?xml version="1.0" encoding="utf-8"?>
<!-- Generator: Adobe Illustrator 16.0.0, SVG Export Plug-In . SVG Version: 6.00 Build 0)  -->
<!DOCTYPE svg PUBLIC "-//W3C//DTD SVG 1.1//EN" "http://www.w3.org/Graphics/SVG/1.1/DTD/svg11.dtd">
<svg version="1.1" id="Слой_1" xmlns="http://www.w3.org/2000/svg" xmlns:xlink="http://www.w3.org/1999/xlink" x="0px" y="0px"
	 width="66.398px" height="20px" viewBox="0 0 66.398 20" enable-background="new 0 0 66.398 20" xml:space="preserve">
<g>
	<path fill-rule="evenodd" clip-rule="evenodd" d="M16.838,16.693h6.218l-0.021-1.783c-0.711,0.007-1.544,0.178-1.681-0.576
		c-0.064-0.354-0.036-6.216-0.014-6.691c0.094,0.029,4.193,7.09,4.675,7.921l0.646,1.13h4.171V6.562
		c0-1.655-0.021-1.484,1.889-1.477l0.007-1.784l-6.197,0.021l0.008,1.748c0.316,0.036,0.739,0.014,1.063,0.014
		c0.409,0,0.646,0.036,0.768,0.333c0.122,0.313,0.072,1.648,0.072,2.082c0,0.91,0.043,3.645-0.007,4.342
		c-0.108-0.078-2.298-3.801-2.571-4.256c-0.675-1.109-1.616-2.629-2.248-3.744c-0.093-0.164-0.244-0.376-0.309-0.541l-6.491,0.014
		l0.014,1.762c1.594,0.121,1.817-0.341,1.817,1.527v6.75c0,0.546,0.101,1.144-0.273,1.42c-0.287,0.221-1.113,0.143-1.537,0.136
		V16.693z M5.543,10.654c0.021-0.227,1.443-4.248,1.508-4.326c0.093,0.107,1.529,4.142,1.529,4.326H5.543z M5.866,14.925
		c-0.395-0.043-0.739,0.021-1.12-0.093c-0.438-0.121-0.474-0.22-0.373-0.682c0.072-0.32,0.187-0.626,0.287-0.938
		c0.165-0.533,0.151-0.774,0.381-0.781c1.22-0.028,2.922,0.015,4.193,0.021c0.166,0.276,0.604,1.84,0.553,2.244
		c-0.438,0.307-1.185,0.178-1.795,0.229v1.762c0.56,0.035,7.109,0.035,7.381-0.015l-0.007-1.747
		c-0.474-0.064-0.941,0.212-1.45-0.689c-0.245-0.434-2.93-8.149-3.368-9.413c-0.043-0.128-0.453-1.485-0.596-1.521H5.744
		c-0.107,0.434-0.905,2.608-1.12,3.211l-2.262,6.416C1.666,14.967,1.58,14.91,0,14.917v1.776c1.68,0.042,4.107-0.007,5.874-0.014
		L5.866,14.925z M52.633,10.654c0.014-0.227,0.919-2.699,1.12-3.275c0.043-0.127,0.302-0.965,0.402-1.051
		c0.1,0.164,1.515,4.206,1.515,4.326H52.633z M52.956,14.932c-0.725-0.128-1.687,0.17-1.508-0.718
		c0.108-0.504,0.367-1.293,0.546-1.783h4.337c0.158,0.362,0.61,1.832,0.545,2.253c-0.38,0.319-1.213,0.227-1.795,0.233v1.776h7.381
		l-0.015-1.755c-0.05-0.007-0.093-0.014-0.136-0.021c-0.344,0.008-0.646,0.015-0.919-0.185c-3.231-0.817-5.004-3.197-2.671-6.834
		c-0.474-1.357-0.891-2.543-1.077-3.068c-0.101-0.264-0.438-1.421-0.589-1.528l-4.15,0.007c-0.115,0.021-0.287,0.625-0.337,0.767
		l-3.117,8.845c-0.194,0.547-0.366,1.094-0.653,1.542c-0.345,0.532-0.905,0.454-1.709,0.454v1.776c0.74,0,5.58,0.049,5.874-0.021
		L52.956,14.932z M36.872,15.868c0.704,0.363,0.697,0.562,1.853,0.896c2.09,0.604,5.005,0.44,6.642-0.845
		c0.991-0.774,1.673-2.152,1.35-4.007c-0.761-4.397-7.833-3.176-8.566-5.015c-0.137-0.342-0.065-0.846,0.086-1.152
		c0.496-1.022,2.01-1.086,2.994-0.86c1.329,0.307,2.434,1.215,2.887,2.537c0.201,0.611,0.021,0.668,0.359,0.676l1.652-0.016
		l-0.014-4.958h-1.659l-0.373,0.922l-0.876-0.46c-2.226-1.081-5.55-0.867-7.31,0.496c-1.688,1.308-1.889,4.178-0.517,5.606
		c1.573,1.634,3.447,1.627,5.694,2.188c0.596,0.149,1.522,0.448,1.838,0.789c0.338,0.369,0.402,1.059,0.108,1.535
		c-0.122,0.191-0.144,0.205-0.294,0.354c-1.472,1.456-5.867,0.533-6.204-2.934h-1.882v5.292h1.623
		c0.093-0.042,0.065-0.028,0.122-0.106l0.331-0.675c0.028-0.05,0.036-0.085,0.071-0.135L36.872,15.868z"/>
	<path d="M61.113,6.647c0.244,0,0.446,0.071,0.618,0.221c0.172,0.149,0.251,0.327,0.251,0.54c0,0.207-0.079,0.383-0.251,0.533
		c-0.172,0.149-0.38,0.22-0.618,0.22c-0.244,0-0.452-0.07-0.617-0.22c-0.172-0.15-0.259-0.327-0.259-0.533
		c0-0.213,0.086-0.391,0.259-0.54C60.661,6.719,60.869,6.647,61.113,6.647L61.113,6.647z M61.903,8.865v3.63
		c0,0.326,0.043,0.531,0.129,0.624c0.093,0.093,0.266,0.143,0.517,0.157v0.171h-2.872v-0.171c0.237-0.008,0.417-0.064,0.532-0.179
		c0.072-0.077,0.115-0.276,0.115-0.603V9.816c0-0.327-0.043-0.532-0.136-0.625c-0.086-0.093-0.259-0.143-0.51-0.157v-0.17H61.903z
		 M65.149,7.181v1.684h1.25v0.482h-1.25v2.828c0,0.263,0.014,0.434,0.043,0.511c0.028,0.079,0.079,0.143,0.15,0.186
		c0.072,0.05,0.136,0.071,0.194,0.071c0.244,0,0.474-0.156,0.689-0.477l0.172,0.107c-0.302,0.617-0.797,0.93-1.486,0.93
		c-0.33,0-0.618-0.078-0.847-0.241c-0.23-0.156-0.38-0.341-0.438-0.54c-0.043-0.113-0.058-0.412-0.058-0.902V9.347h-0.697V9.17
		c0.474-0.291,0.884-0.597,1.214-0.917c0.338-0.319,0.632-0.682,0.876-1.072H65.149z"/>
</g>
<rect y="0" opacity="0" fill-rule="evenodd" clip-rule="evenodd" width="66.226" height="20"/>
</svg>
