<?xml version="1.0" encoding="utf-8"?>
<!-- Generator: Adobe Illustrator 16.0.0, SVG Export Plug-In . SVG Version: 6.00 Build 0)  -->
<!DOCTYPE svg PUBLIC "-//W3C//DTD SVG 1.1//EN" "http://www.w3.org/Graphics/SVG/1.1/DTD/svg11.dtd">
<svg version="1.1" id="Слой_1" xmlns="http://www.w3.org/2000/svg" xmlns:xlink="http://www.w3.org/1999/xlink" x="0px" y="0px"
	 width="109.134px" height="20px" viewBox="0 0 109.134 20" enable-background="new 0 0 109.134 20" xml:space="preserve">
<g>
	<path fill-rule="evenodd" clip-rule="evenodd" d="M11.481,20.002c0.469-0.242,2.957-1.934,3.608-2.36l3.625-2.355
		c-0.215-3.703-3.316-6.76-7.233-6.764c-2.906-0.004-5.309,1.632-6.51,3.969c-0.296,0.572-0.817,2.024-0.715,2.77
		C4.255,15.261,11.222,19.906,11.481,20.002L11.481,20.002z"/>
	<path fill-rule="evenodd" clip-rule="evenodd" d="M20.105,14.231c0.427-0.238,1.409-1.423,1.701-1.892
		c1.696-2.717,1.46-5.608-0.333-7.998c-1.545-2.06-3.994-3.356-6.642-3.985c-0.63-0.15-2.614-0.518-3.101-0.271
		c-0.114,0.381,0.186,0.699,0.373,1.005C13.079,2.663,19.844,13.968,20.105,14.231L20.105,14.231z"/>
	<path fill-rule="evenodd" clip-rule="evenodd" d="M3.858,12.579C6.159,8.72,8.561,4.882,10.854,1.036
		c0.114-0.193,0.473-0.649,0.36-0.875c-0.224-0.453-2.991,0.171-3.38,0.268C4.213,1.312,0,4.149,0,8.481
		c0,2.033,0.66,3.322,1.81,4.758c0.11,0.134,0.897,0.935,1.058,0.992L3.858,12.579z"/>
	<path d="M26.951,9.923l-1.738-0.302c0.197-0.705,0.535-1.223,1.011-1.562c0.479-0.335,1.189-0.504,2.133-0.504
		c0.855,0,1.494,0.099,1.914,0.298c0.416,0.206,0.717,0.457,0.883,0.766c0.171,0.308,0.259,0.877,0.259,1.699l-0.03,2.217
		c0,0.626,0.03,1.095,0.094,1.396c0.061,0.299,0.176,0.621,0.342,0.961h-1.904c-0.047-0.123-0.109-0.309-0.182-0.555
		c-0.031-0.113-0.057-0.184-0.067-0.221c-0.327,0.316-0.68,0.555-1.054,0.715c-0.368,0.158-0.768,0.24-1.188,0.24
		c-0.747,0-1.333-0.2-1.758-0.602c-0.431-0.4-0.644-0.908-0.644-1.519c0-0.407,0.093-0.766,0.291-1.089
		c0.198-0.313,0.466-0.561,0.824-0.729c0.354-0.163,0.862-0.313,1.526-0.44c0.893-0.165,1.516-0.324,1.863-0.468v-0.19
		c0-0.369-0.094-0.631-0.275-0.789c-0.182-0.16-0.528-0.238-1.033-0.238c-0.342,0-0.612,0.067-0.803,0.207
		C27.221,9.348,27.07,9.584,26.951,9.923L26.951,9.923z M29.525,11.457c-0.244,0.083-0.633,0.18-1.168,0.293
		s-0.883,0.227-1.048,0.328c-0.25,0.182-0.375,0.4-0.375,0.672c0,0.269,0.1,0.494,0.302,0.688c0.202,0.195,0.457,0.294,0.762,0.294
		c0.347,0,0.681-0.113,0.991-0.34c0.234-0.174,0.385-0.379,0.457-0.632c0.052-0.158,0.078-0.466,0.078-0.923V11.457z M39.907,14.893
		h-1.915v-3.661c0-0.774-0.047-1.277-0.125-1.504c-0.082-0.226-0.217-0.399-0.404-0.528c-0.187-0.129-0.408-0.191-0.669-0.191
		c-0.338,0-0.638,0.094-0.903,0.273c-0.268,0.18-0.45,0.42-0.549,0.713c-0.098,0.299-0.152,0.848-0.152,1.648v3.25h-1.914V7.709
		h1.775v1.054c0.639-0.806,1.436-1.207,2.406-1.207c0.421,0,0.811,0.077,1.164,0.227c0.356,0.153,0.621,0.344,0.797,0.575
		c0.184,0.236,0.313,0.503,0.38,0.801c0.073,0.297,0.109,0.723,0.109,1.272V14.893z M45.163,7.709v1.51h-1.313v2.906
		c0,0.59,0.012,0.934,0.037,1.033c0.025,0.096,0.084,0.178,0.172,0.24c0.088,0.061,0.196,0.096,0.327,0.096
		c0.176,0,0.434-0.061,0.771-0.184l0.161,1.479c-0.446,0.189-0.948,0.283-1.516,0.283c-0.342,0-0.653-0.057-0.928-0.175
		c-0.28-0.112-0.482-0.261-0.613-0.446c-0.129-0.186-0.217-0.434-0.27-0.744c-0.041-0.222-0.063-0.668-0.063-1.346V9.219h-0.875
		v-1.51h0.875V6.283l1.92-1.119v2.545H45.163z M50.703,12.621l1.916,0.32c-0.245,0.692-0.633,1.222-1.162,1.586
		c-0.529,0.365-1.193,0.545-1.992,0.545c-1.262,0-2.195-0.406-2.799-1.223c-0.475-0.657-0.719-1.483-0.719-2.484
		c0-1.186,0.315-2.119,0.944-2.798c0.626-0.673,1.421-1.012,2.38-1.012c1.082,0,1.932,0.354,2.555,1.059
		c0.623,0.708,0.923,1.79,0.892,3.249h-4.799c0.015,0.559,0.171,1.002,0.466,1.314c0.297,0.313,0.664,0.467,1.1,0.467
		c0.301,0,0.555-0.077,0.759-0.242C50.445,13.244,50.601,12.981,50.703,12.621L50.703,12.621z M50.818,10.699
		c-0.016-0.551-0.156-0.972-0.431-1.259c-0.274-0.288-0.603-0.433-0.995-0.433c-0.416,0-0.764,0.154-1.033,0.459
		c-0.275,0.302-0.41,0.713-0.405,1.232H50.818z M60.888,14.893h-1.913v-3.661c0-0.774-0.042-1.277-0.125-1.504
		c-0.081-0.226-0.216-0.399-0.399-0.528c-0.185-0.129-0.416-0.191-0.674-0.191c-0.339,0-0.639,0.094-0.903,0.273
		c-0.271,0.18-0.452,0.42-0.545,0.713c-0.104,0.299-0.149,0.848-0.149,1.648v3.25h-1.92V7.709h1.778v1.054
		c0.639-0.806,1.438-1.207,2.401-1.207c0.427,0,0.816,0.077,1.167,0.227c0.354,0.153,0.62,0.344,0.8,0.575
		c0.183,0.236,0.307,0.503,0.381,0.801c0.07,0.297,0.102,0.723,0.102,1.272V14.893z M64.262,9.923l-1.733-0.302
		c0.193-0.705,0.529-1.223,1.012-1.562c0.477-0.335,1.189-0.504,2.128-0.504c0.854,0,1.495,0.099,1.914,0.298
		c0.421,0.206,0.716,0.457,0.888,0.766c0.166,0.308,0.254,0.877,0.254,1.699l-0.025,2.217c0,0.626,0.025,1.095,0.088,1.396
		c0.063,0.299,0.177,0.621,0.342,0.961h-1.899c-0.05-0.123-0.112-0.309-0.185-0.555c-0.032-0.113-0.053-0.184-0.066-0.221
		c-0.33,0.316-0.678,0.555-1.051,0.715c-0.373,0.158-0.773,0.24-1.193,0.24c-0.741,0-1.33-0.2-1.76-0.602
		c-0.43-0.4-0.643-0.908-0.643-1.519c0-0.407,0.097-0.766,0.291-1.089c0.197-0.313,0.472-0.561,0.824-0.729
		c0.354-0.163,0.861-0.313,1.525-0.44c0.898-0.165,1.52-0.324,1.864-0.468v-0.19c0-0.369-0.095-0.631-0.276-0.789
		c-0.182-0.16-0.529-0.238-1.031-0.238c-0.345,0-0.609,0.067-0.799,0.207C64.531,9.348,64.381,9.584,64.262,9.923L64.262,9.923z
		 M66.837,11.457c-0.245,0.083-0.634,0.18-1.168,0.293s-0.883,0.227-1.044,0.328c-0.254,0.182-0.378,0.4-0.378,0.672
		c0,0.269,0.103,0.494,0.3,0.688c0.203,0.195,0.456,0.294,0.769,0.294c0.344,0,0.675-0.113,0.992-0.34
		c0.226-0.174,0.383-0.379,0.454-0.632c0.049-0.158,0.075-0.466,0.075-0.923V11.457z M70.14,12.264l1.857-0.221
		c0.063,0.467,0.218,0.826,0.477,1.078c0.26,0.245,0.572,0.373,0.941,0.373c0.393,0,0.725-0.147,0.996-0.445
		c0.264-0.299,0.397-0.703,0.397-1.207c0-0.477-0.124-0.861-0.382-1.139c-0.26-0.277-0.578-0.422-0.95-0.422
		c-0.243,0-0.533,0.053-0.877,0.145l0.214-1.54c0.518,0.015,0.912-0.098,1.188-0.339c0.27-0.236,0.404-0.549,0.404-0.944
		c0-0.333-0.099-0.602-0.301-0.801c-0.198-0.2-0.467-0.298-0.799-0.298c-0.328,0-0.607,0.113-0.842,0.338
		c-0.233,0.227-0.373,0.556-0.42,0.992l-1.764-0.298c0.125-0.606,0.306-1.089,0.555-1.448c0.249-0.358,0.597-0.646,1.037-0.852
		c0.447-0.205,0.947-0.309,1.496-0.309c0.938,0,1.694,0.298,2.267,0.894c0.466,0.487,0.7,1.042,0.7,1.658
		c0,0.872-0.478,1.57-1.441,2.089c0.576,0.123,1.032,0.396,1.373,0.822c0.344,0.426,0.52,0.934,0.52,1.534
		c0,0.873-0.322,1.611-0.963,2.229c-0.646,0.609-1.438,0.918-2.398,0.918c-0.902,0-1.655-0.256-2.247-0.776
		C70.581,13.777,70.233,13.1,70.14,12.264L70.14,12.264z M78.383,14.893v-1.895h1.919v1.895H78.383z M88.607,9.841l-1.889,0.333
		c-0.062-0.375-0.209-0.65-0.437-0.842C86.06,9.147,85.769,9.05,85.405,9.05c-0.478,0-0.856,0.165-1.141,0.492
		c-0.287,0.329-0.426,0.874-0.426,1.644c0,0.852,0.139,1.452,0.432,1.807c0.289,0.354,0.674,0.528,1.161,0.528
		c0.363,0,0.664-0.103,0.893-0.308c0.233-0.205,0.395-0.559,0.492-1.063l1.891,0.317c-0.197,0.858-0.571,1.51-1.126,1.946
		c-0.556,0.437-1.299,0.658-2.237,0.658c-1.059,0-1.905-0.334-2.531-0.997c-0.634-0.663-0.95-1.582-0.95-2.757
		c0-1.186,0.316-2.109,0.95-2.771c0.632-0.662,1.488-0.991,2.566-0.991c0.883,0,1.584,0.19,2.106,0.565
		C88.005,8.496,88.379,9.07,88.607,9.841L88.607,9.841z M89.619,11.211c0-0.631,0.156-1.242,0.466-1.832
		c0.317-0.591,0.764-1.043,1.34-1.355c0.577-0.309,1.214-0.468,1.93-0.468c1.096,0,1.992,0.354,2.693,1.059
		c0.705,0.708,1.053,1.601,1.053,2.679c0,1.088-0.354,1.992-1.058,2.706c-0.712,0.718-1.604,1.073-2.678,1.073
		c-0.664,0-1.297-0.15-1.899-0.447c-0.603-0.298-1.063-0.734-1.381-1.311C89.775,12.74,89.619,12.037,89.619,11.211L89.619,11.211z
		 M91.591,11.313c0,0.714,0.172,1.257,0.508,1.639c0.343,0.38,0.765,0.568,1.267,0.568c0.498,0,0.918-0.188,1.256-0.568
		c0.338-0.382,0.509-0.931,0.509-1.654c0-0.702-0.171-1.241-0.509-1.621s-0.758-0.571-1.256-0.571c-0.502,0-0.924,0.191-1.267,0.571
		C91.762,10.057,91.591,10.6,91.591,11.313L91.591,11.313z M98.471,7.709h1.764V8.69c0.632-0.755,1.384-1.135,2.256-1.135
		c0.468,0,0.867,0.093,1.209,0.284c0.342,0.189,0.625,0.477,0.841,0.856c0.316-0.38,0.664-0.667,1.033-0.856
		c0.368-0.191,0.763-0.284,1.183-0.284c0.53,0,0.979,0.108,1.349,0.319c0.367,0.215,0.645,0.527,0.825,0.944
		c0.136,0.308,0.203,0.802,0.203,1.489v4.584h-1.919v-4.098c0-0.713-0.063-1.174-0.199-1.381c-0.175-0.267-0.451-0.406-0.819-0.406
		c-0.27,0-0.522,0.084-0.763,0.242c-0.232,0.164-0.405,0.405-0.514,0.714c-0.104,0.313-0.155,0.806-0.155,1.483v3.445h-1.912v-3.934
		c0-0.692-0.039-1.145-0.105-1.35c-0.067-0.199-0.173-0.354-0.316-0.451c-0.142-0.099-0.34-0.15-0.582-0.15
		c-0.296,0-0.565,0.078-0.801,0.238c-0.238,0.158-0.403,0.384-0.507,0.682c-0.104,0.298-0.155,0.791-0.155,1.479v3.486h-1.914V7.709
		z"/>
</g>
<rect x="0" y="0" opacity="0" fill-rule="evenodd" clip-rule="evenodd" width="109.134" height="20"/>
</svg>
