<?xml version="1.0" encoding="utf-8"?>
<!-- Generator: Adobe Illustrator 16.0.0, SVG Export Plug-In . SVG Version: 6.00 Build 0)  -->
<!DOCTYPE svg PUBLIC "-//W3C//DTD SVG 1.1//EN" "http://www.w3.org/Graphics/SVG/1.1/DTD/svg11.dtd">
<svg version="1.1" id="Слой_1" xmlns="http://www.w3.org/2000/svg" xmlns:xlink="http://www.w3.org/1999/xlink" x="0px" y="0px"
	 width="105.297px" height="20px" viewBox="0 0 105.297 20" enable-background="new 0 0 105.297 20" xml:space="preserve">
<g>
	<polygon points="17.186,8.748 13.056,8.748 13.056,4.387 10.606,4.387 10.606,15.768 13.056,15.768 13.056,11.169 17.186,11.169 
		17.186,15.768 19.637,15.768 19.637,4.387 17.186,4.387 	"/>
	<polygon points="20.499,6.473 23.509,6.473 23.509,15.768 25.958,15.768 25.958,6.473 29.12,6.473 29.12,4.396 20.499,4.396 	"/>
	<polygon points="32.512,11.443 32.512,4.387 30.071,4.387 30.071,15.768 32.4,15.768 36.544,9.17 36.544,15.768 38.995,15.768 
		38.995,4.387 36.651,4.387 	"/>
	<path d="M5.707,4.479C5.431,4.388,5.148,4.341,4.868,4.341c-0.858,0-1.555,0.43-1.981,1.258L0,15.732h2.502l0.775-3.084h3.315
		l0.792,3.084h2.545L7.364,6.635C7.13,5.869,6.705,4.812,5.707,4.479z M6.043,10.598H3.778l1.115-3.589L6.043,10.598z"/>
	<path d="M58.171,4.479c-0.276-0.091-0.559-0.138-0.84-0.138c-0.857,0-1.557,0.43-1.99,1.258l-2.877,10.133h2.503l0.766-3.084h3.314
		l0.801,3.084h2.537L59.82,6.637C59.594,5.871,59.178,4.814,58.171,4.479z M58.508,10.598h-2.274l1.123-3.591L58.508,10.598z"/>
	<path d="M73.951,13.383h-2.91V4.387h-2.468v8.996h-2.91V4.387h-2.584v8.955c0,1.338,1.099,2.426,2.45,2.426h8.522
		c1.306,0,2.369-1.057,2.369-2.355V4.387h-2.469V13.383z"/>
	<polygon points="80.943,11.443 80.943,4.387 78.494,4.387 78.494,15.768 80.832,15.768 84.976,9.17 84.976,15.768 87.417,15.768 
		87.417,4.387 85.083,4.387 	"/>
	<polygon points="96.676,4.396 96.676,6.473 99.695,6.473 99.695,15.768 102.137,15.768 102.137,6.473 105.297,6.473 105.297,4.396 
			"/>
	<path d="M49.314,5.647h-1.219v-1.26h-2.557v1.26h-1.193c-2.033,0-3.687,1.637-3.687,3.65c0,2.013,1.654,3.651,3.687,3.651h1.193
		v2.819h2.557v-2.819h1.219c2.028,0,3.679-1.638,3.679-3.651C52.993,7.285,51.342,5.647,49.314,5.647z M44.772,10.934
		c-0.913,0-1.655-0.734-1.655-1.636c0-0.902,0.743-1.635,1.655-1.635h0.766v3.271H44.772z M48.095,7.662h0.792
		c0.908,0,1.647,0.733,1.647,1.635c0,0.902-0.739,1.636-1.647,1.636h-0.792V7.662z"/>
	<path d="M88.769,8.249v3.647c0,2.135,1.75,3.871,3.901,3.871h3.624v-2.095h-2.966c-1.119,0-2.029-0.899-2.029-2.005V8.479
		c0-1.106,0.91-2.005,2.029-2.005h2.966V4.387H92.67C90.519,4.387,88.769,6.12,88.769,8.249z"/>
</g>
<rect opacity="0" fill-rule="evenodd" clip-rule="evenodd" width="105.297" height="20"/>
</svg>
