<?xml version="1.0" encoding="UTF-8" standalone="no"?>
<svg width="37px" height="16px" viewBox="0 0 37 16" version="1.1" xmlns="http://www.w3.org/2000/svg" xmlns:xlink="http://www.w3.org/1999/xlink" xmlns:sketch="http://www.bohemiancoding.com/sketch/ns">
    <!-- Generator: Sketch 3.5.1 (25234) - http://www.bohemiancoding.com/sketch -->
    <title>aol.co.uk</title>
    <desc>Created with Sketch.</desc>
    <defs></defs>
    <g id="Page-1" stroke="none" stroke-width="1" fill="none" fill-rule="evenodd" sketch:type="MSPage">
        <g id="Artboard-1" sketch:type="MSArtboardGroup" transform="translate(-27.000000, -168.000000)" fill="#000000">
            <g id="aol.co.uk" sketch:type="MSLayerGroup" transform="translate(26.000000, 166.000000)">
                <g id="Слой_1" sketch:type="MSShapeGroup">
                    <g id="Group" transform="translate(1.000000, 2.000000)">
                        <path d="M30.782,14.887 L27.568,14.887 L27.568,0.823 L30.782,0.823 L30.782,14.887 L30.782,14.887 Z M20.059,15.178 C16.202,15.178 14.348,12.157 14.348,9.574 C14.348,6.993 16.202,3.97 20.059,3.97 C23.917,3.97 25.778,6.993 25.778,9.574 C25.777,12.156 23.917,15.178 20.059,15.178 L20.059,15.178 L20.059,15.178 Z M10.251,14.887 L9.567,12.848 L4.627,12.848 L3.878,14.887 L0.085,14.887 L5.685,0.823 L8.54,0.823 L14.084,14.887 L10.251,14.887 L10.251,14.887 Z M20.059,6.914 C18.683,6.914 17.522,8.032 17.522,9.575 C17.522,11.11 18.683,12.235 20.059,12.235 C21.436,12.235 22.605,11.11 22.605,9.575 C22.604,8.031 21.436,6.914 20.059,6.914 L20.059,6.914 L20.059,6.914 Z M5.622,10 L8.605,10 L7.117,5.095 L5.622,10 L5.622,10 Z" id="Shape"></path>
                        <path d="M34.536,10.777 C35.689,10.777 36.62,11.699 36.62,12.834 C36.62,13.975 35.689,14.895 34.536,14.895 C33.39,14.895 32.459,13.975 32.459,12.834 C32.459,11.699 33.391,10.777 34.536,10.777 L34.536,10.777 L34.536,10.777 Z" id="Shape"></path>
                    </g>
                    <rect id="Rectangle-path" fill-opacity="0" x="0" y="0" width="38.917" height="20"></rect>
                </g>
            </g>
        </g>
    </g>
</svg>