<?xml version="1.0" encoding="UTF-8" standalone="no"?>
<svg width="90px" height="18px" viewBox="0 0 90 18" version="1.1" xmlns="http://www.w3.org/2000/svg" xmlns:xlink="http://www.w3.org/1999/xlink" xmlns:sketch="http://www.bohemiancoding.com/sketch/ns">
    <!-- Generator: Sketch 3.5.1 (25234) - http://www.bohemiancoding.com/sketch -->
    <title>apostrophe.com.ua</title>
    <desc>Created with Sketch.</desc>
    <defs>
        <rect id="path-1" x="0" y="0" width="90" height="20"></rect>
    </defs>
    <g id="feed" stroke="none" stroke-width="1" fill="none" fill-rule="evenodd" sketch:type="MSPage">
        <g id="screen" sketch:type="MSArtboardGroup" transform="translate(-23.000000, -53.000000)">
            <g id="apostrophe.com.ua" sketch:type="MSLayerGroup" transform="translate(23.000000, 52.000000)">
                <mask id="mask-2" sketch:name="Mask" fill="white">
                    <use xlink:href="#path-1"></use>
                </mask>
                <use id="Mask" opacity="0.7" sketch:type="MSShapeGroup" xlink:href="#path-1"></use>
                <g id="Слой_1" mask="url(#mask-2)" fill="#000000" sketch:type="MSShapeGroup">
                    <g transform="translate(0.000000, 1.000000)" id="Shape">
                        <path d="M9.54,9.207 L4.56,9.207 L3.973,10.773 C3.587,11.801 3.394,12.431 3.394,12.665 C3.394,12.812 3.429,12.917 3.503,12.984 C3.573,13.046 3.756,13.102 4.05,13.138 L4.875,13.244 L4.875,13.858 C4.326,13.818 3.705,13.796 3.015,13.796 C2.189,13.796 1.461,13.817 0.833,13.858 L0.833,13.244 L1.092,13.233 C1.495,13.217 1.756,13.175 1.874,13.095 C1.994,13.012 2.111,12.812 2.248,12.501 C2.653,11.568 3.075,10.57 3.5,9.495 L5.872,3.476 C6.501,1.88 6.935,0.723 7.165,0 L7.748,0 L12.111,11.37 C12.406,12.141 12.596,12.607 12.695,12.766 C12.795,12.924 12.906,13.038 13.033,13.107 C13.158,13.172 13.442,13.216 13.885,13.245 L13.885,13.859 C13.139,13.819 12.428,13.797 11.748,13.797 C11.116,13.797 10.275,13.818 9.222,13.859 L9.222,13.245 L10.074,13.183 C10.381,13.163 10.562,13.124 10.619,13.079 C10.703,13.01 10.748,12.917 10.748,12.809 C10.748,12.692 10.662,12.388 10.489,11.901 L9.54,9.207 L9.54,9.207 Z M4.883,8.415 L9.217,8.415 L7.053,2.623 L4.883,8.415 L4.883,8.415 Z M20.71,13.304 L21.349,13.304 C21.815,13.304 22.082,13.175 22.141,12.92 C22.2,12.669 22.229,11.813 22.229,10.354 L22.229,7.648 C22.229,7.576 22.226,7.407 22.211,7.144 C22.183,6.61 22.169,6.038 22.169,5.435 C21.782,5.39 21.272,5.366 20.647,5.366 L19.264,5.366 C18.753,5.366 18.267,5.389 17.803,5.435 C17.78,6.193 17.768,6.934 17.768,7.648 L17.768,10.354 C17.768,11.698 17.775,12.473 17.789,12.684 C17.803,12.9 17.872,13.054 17.997,13.158 C18.12,13.257 18.334,13.304 18.632,13.304 L19.267,13.304 L19.267,13.86 C18.327,13.82 17.511,13.798 16.819,13.798 C16.22,13.798 15.536,13.819 14.77,13.86 L14.77,13.304 L15.4,13.304 C15.848,13.304 16.108,13.184 16.171,12.949 C16.235,12.709 16.267,11.539 16.267,9.441 C16.267,7.168 16.238,5.903 16.18,5.649 C16.12,5.394 15.86,5.267 15.4,5.267 L14.768,5.267 L14.768,4.712 C15.503,4.751 16.336,4.771 17.269,4.771 L22.885,4.771 C23.44,4.771 24.222,4.75 25.227,4.712 L25.227,5.266 L24.601,5.266 C24.065,5.266 23.788,5.437 23.763,5.785 C23.739,6.127 23.717,7.326 23.728,9.37 L23.735,11.148 C23.741,12.251 23.756,12.848 23.784,12.948 C23.809,13.043 23.897,13.128 24.047,13.199 C24.198,13.268 24.382,13.303 24.6,13.303 L25.226,13.303 L25.226,13.859 C24.28,13.819 23.465,13.797 22.771,13.797 C22.163,13.797 21.477,13.818 20.708,13.859 L20.708,13.304 L20.71,13.304 Z M25.838,9.223 C25.838,8.331 26.032,7.53 26.419,6.81 C26.808,6.09 27.355,5.529 28.053,5.123 C28.755,4.718 29.551,4.514 30.441,4.514 C31.733,4.514 32.767,4.919 33.544,5.731 C34.32,6.543 34.708,7.626 34.708,8.981 C34.708,10.58 34.202,11.847 33.19,12.789 C32.285,13.632 31.202,14.057 29.942,14.057 C28.731,14.057 27.743,13.624 26.983,12.756 C26.221,11.889 25.838,10.711 25.838,9.223 L25.838,9.223 L25.838,9.223 Z M27.553,8.54 C27.553,9.869 27.81,11.005 28.323,11.948 C28.836,12.891 29.571,13.363 30.537,13.363 C31.269,13.363 31.865,13.068 32.315,12.476 C32.768,11.883 32.993,10.984 32.993,9.775 C32.993,8.807 32.86,7.962 32.591,7.249 C32.324,6.541 31.972,6.02 31.535,5.695 C31.1,5.37 30.612,5.206 30.073,5.206 C29.592,5.206 29.16,5.335 28.776,5.593 C28.391,5.851 28.108,6.196 27.925,6.628 C27.678,7.212 27.553,7.854 27.553,8.54 L27.553,8.54 L27.553,8.54 Z M43.929,12.492 L44.194,12.722 L43.791,13.343 C43.344,13.581 42.884,13.758 42.411,13.878 C41.941,13.997 41.459,14.056 40.965,14.056 C40.001,14.056 39.182,13.873 38.512,13.514 C37.84,13.157 37.318,12.632 36.951,11.948 C36.583,11.265 36.4,10.453 36.4,9.513 C36.4,8.682 36.542,7.959 36.822,7.342 C37.104,6.724 37.5,6.242 38.008,5.897 C38.518,5.549 39.153,5.207 39.914,4.871 C40.452,4.634 41.052,4.514 41.714,4.514 C42.221,4.514 42.652,4.555 43.019,4.637 C43.381,4.717 43.775,4.86 44.194,5.066 C44.032,5.918 43.944,6.772 43.932,7.624 L43.307,7.624 L43.307,7.137 C43.307,6.724 43.247,6.434 43.126,6.263 C43.004,6.091 42.726,5.924 42.293,5.755 C41.861,5.587 41.386,5.504 40.877,5.504 C39.991,5.504 39.31,5.771 38.829,6.301 C38.35,6.834 38.111,7.629 38.111,8.684 C38.111,10.048 38.47,11.134 39.175,11.955 C39.811,12.693 40.633,13.067 41.635,13.067 C42.027,13.067 42.415,13.02 42.796,12.92 C43.178,12.824 43.553,12.681 43.929,12.492 L43.929,12.492 L43.929,12.492 Z M46.121,7.425 L45.489,7.425 C45.502,7.095 45.509,6.823 45.509,6.61 C45.509,6.359 45.477,5.719 45.415,4.692 C46.641,4.732 47.415,4.752 47.735,4.752 L51.64,4.752 C52.086,4.752 52.86,4.732 53.958,4.692 C53.896,5.719 53.867,6.359 53.867,6.61 C53.867,6.823 53.872,7.096 53.886,7.425 L53.254,7.425 C53.189,6.301 53.078,5.692 52.922,5.593 C52.771,5.494 51.979,5.444 50.549,5.444 C50.516,5.843 50.496,6.226 50.496,6.589 L50.496,7.44 L50.468,9.106 L50.468,11.367 C50.468,12.212 50.48,12.704 50.506,12.84 C50.53,12.975 50.605,13.086 50.732,13.172 C50.862,13.261 51.072,13.304 51.364,13.304 L52.01,13.304 L52.01,13.86 C51.038,13.82 50.2,13.798 49.487,13.798 C48.868,13.798 48.163,13.819 47.368,13.86 L47.368,13.304 L48.023,13.304 C48.426,13.304 48.676,13.22 48.776,13.056 C48.876,12.892 48.927,12.383 48.927,11.533 L48.927,9.106 C48.927,7.407 48.897,6.187 48.838,5.444 L48.373,5.444 C47.245,5.444 46.6,5.494 46.452,5.596 C46.298,5.699 46.189,6.31 46.121,7.425 L46.121,7.425 L46.121,7.425 Z M57.863,6.319 L59.133,5.211 C59.455,4.929 59.727,4.752 59.951,4.681 C60.308,4.57 60.724,4.512 61.203,4.512 C62.281,4.512 63.151,4.835 63.82,5.491 C64.485,6.144 64.817,6.989 64.817,8.02 C64.817,8.536 64.743,9.048 64.589,9.549 C64.437,10.051 64.253,10.461 64.037,10.777 C63.818,11.096 63.573,11.362 63.3,11.577 C63.21,11.648 62.813,11.84 62.194,12.279 L61.83,12.537 C61.376,12.86 60.998,13.059 60.717,13.158 C60.436,13.257 60.115,13.304 59.752,13.304 C59.466,13.304 59.168,13.266 58.85,13.185 C58.536,13.107 58.207,12.989 57.863,12.837 L57.863,14.088 C57.863,15.371 57.881,16.276 57.919,16.806 C57.937,17.037 58.013,17.204 58.147,17.307 C58.28,17.412 58.563,17.463 58.994,17.463 L59.485,17.463 L59.485,17.973 C58.332,17.939 57.488,17.918 56.953,17.918 C56.363,17.918 55.608,17.939 54.694,17.973 L54.694,17.463 L55.36,17.463 C55.83,17.463 56.106,17.366 56.19,17.167 C56.273,16.973 56.317,15.93 56.317,14.039 L56.317,8.579 C56.317,7.632 56.293,6.898 56.246,6.384 C56.222,6.134 56.162,5.971 56.067,5.889 C55.973,5.809 55.753,5.769 55.408,5.769 L54.695,5.769 L54.695,5.223 C55.545,5.132 56.4,5.013 57.197,4.697 L57.757,4.476 C57.853,4.476 57.907,4.56 57.903,4.727 L57.876,5.679 L57.863,6.319 L57.863,6.319 Z M57.863,11.214 C58.251,11.643 58.638,11.945 59.025,12.122 C59.411,12.3 59.827,12.389 60.275,12.389 C61.231,12.389 61.963,12.037 62.471,11.33 C62.977,10.625 63.233,9.786 63.233,8.812 C63.233,8.158 63.117,7.599 62.885,7.133 C62.65,6.665 62.31,6.3 61.863,6.035 C61.415,5.771 60.935,5.641 60.421,5.641 C60.058,5.641 59.702,5.71 59.354,5.853 C59.007,5.996 58.703,6.195 58.444,6.447 C58.184,6.7 58.016,6.932 57.944,7.146 C57.888,7.307 57.863,7.729 57.863,8.42 L57.863,11.214 L57.863,11.214 Z M66.306,9.223 C66.306,8.331 66.498,7.53 66.887,6.81 C67.275,6.09 67.82,5.529 68.519,5.123 C69.221,4.718 70.016,4.514 70.907,4.514 C72.199,4.514 73.233,4.919 74.009,5.731 C74.785,6.543 75.175,7.626 75.175,8.981 C75.175,10.58 74.667,11.847 73.655,12.789 C72.751,13.632 71.67,14.057 70.409,14.057 C69.198,14.057 68.21,13.624 67.45,12.756 C66.689,11.889 66.306,10.711 66.306,9.223 L66.306,9.223 L66.306,9.223 Z M68.021,8.54 C68.021,9.869 68.278,11.005 68.791,11.948 C69.303,12.891 70.039,13.363 71.004,13.363 C71.737,13.363 72.332,13.068 72.784,12.476 C73.235,11.883 73.46,10.984 73.46,9.775 C73.46,8.807 73.327,7.962 73.06,7.249 C72.793,6.541 72.441,6.02 72.004,5.695 C71.568,5.37 71.078,5.206 70.543,5.206 C70.062,5.206 69.63,5.335 69.244,5.593 C68.859,5.851 68.577,6.196 68.393,6.628 C68.145,7.212 68.021,7.854 68.021,8.54 L68.021,8.54 L68.021,8.54 Z M82.47,5.277 C82.457,3.006 82.4,1.814 82.292,1.699 C82.188,1.586 81.948,1.532 81.571,1.532 L80.903,1.532 L80.903,1 C82.103,0.867 83,0.651 83.602,0.353 C83.661,0.323 83.71,0.309 83.751,0.309 C83.844,0.309 83.892,0.382 83.892,0.534 C83.892,0.725 83.879,1.109 83.85,1.687 C83.844,1.808 83.838,1.947 83.838,2.103 L83.838,5.664 L84.973,5.068 C85.466,4.81 86,4.682 86.577,4.682 C87.684,4.682 88.533,5.031 89.12,5.731 C89.706,6.434 90,7.299 90,8.328 C90,9.54 89.496,10.655 88.49,11.68 C87.483,12.704 86.507,13.215 85.566,13.215 C84.941,13.215 84.368,13.017 83.839,12.618 L83.839,15.374 C83.839,16.104 83.875,16.608 83.943,16.88 C84.013,17.151 84.354,17.286 84.967,17.286 L85.405,17.286 L85.405,17.745 C84.283,17.734 83.472,17.729 82.975,17.729 C82.43,17.729 81.74,17.734 80.903,17.745 L80.903,17.286 L81.571,17.286 C82.039,17.286 82.309,17.171 82.373,16.943 C82.438,16.717 82.469,15.808 82.469,14.222 L82.469,12.231 L81.301,12.851 C80.845,13.093 80.337,13.214 79.779,13.214 C78.596,13.214 77.726,12.848 77.168,12.115 C76.607,11.381 76.328,10.53 76.328,9.567 C76.328,8.354 76.83,7.24 77.831,6.214 C78.831,5.191 79.816,4.681 80.782,4.681 C81.386,4.682 81.948,4.88 82.47,5.277 L82.47,5.277 L82.47,5.277 Z M83.839,11.425 C84.43,12.029 85.129,12.328 85.931,12.328 C87.561,12.328 88.379,11.225 88.379,9.022 C88.379,7.918 88.15,7.067 87.69,6.466 C87.235,5.867 86.584,5.566 85.739,5.566 C85.182,5.566 84.725,5.698 84.371,5.962 C84.015,6.226 83.839,6.605 83.839,7.101 L83.839,11.425 L83.839,11.425 Z M82.47,6.473 C81.878,5.868 81.183,5.566 80.386,5.566 C78.75,5.566 77.93,6.667 77.93,8.865 C77.93,10.019 78.17,10.887 78.647,11.465 C79.125,12.041 79.769,12.327 80.578,12.327 C81.137,12.327 81.59,12.194 81.942,11.927 C82.293,11.66 82.471,11.282 82.471,10.794 L82.471,6.473 L82.47,6.473 Z"></path>
                    </g>
                </g>
            </g>
        </g>
    </g>
</svg>