<?xml version="1.0" encoding="utf-8"?>
<!-- Generator: Adobe Illustrator 16.0.0, SVG Export Plug-In . SVG Version: 6.00 Build 0)  -->
<!DOCTYPE svg PUBLIC "-//W3C//DTD SVG 1.1//EN" "http://www.w3.org/Graphics/SVG/1.1/DTD/svg11.dtd">
<svg version="1.1" id="Слой_1" xmlns="http://www.w3.org/2000/svg" xmlns:xlink="http://www.w3.org/1999/xlink" x="0px" y="0px"
	 width="113.359px" height="20px" viewBox="0 0 113.359 20" enable-background="new 0 0 113.359 20" xml:space="preserve">
<g>
	<path d="M8.472,2.3h-1.18C3.281,2.3,0,5.546,0,9.515v0.971C0,14.452,3.281,17.7,7.293,17.7h8.473V9.515
		C15.765,5.546,12.484,2.3,8.472,2.3z M12.205,14.222H7.56c-2.204,0-4.001-1.779-4.001-3.959V9.737c0-2.182,1.797-3.959,4.001-3.959
		h0.643c2.197,0,4.002,1.777,4.002,3.959V14.222z"/>
	<path d="M41.332,5.303c-0.344-0.235-0.768-0.394-1.295-0.487c-0.363-0.063-0.873-0.095-1.518-0.095h-3.91v10.084h1.789v-3.911
		h2.229c1.443,0,2.463-0.311,3.031-0.923c0.564-0.608,0.852-1.36,0.852-2.235c0-0.515-0.107-0.99-0.319-1.412
		C41.965,5.878,41.684,5.545,41.332,5.303z M40.254,8.874c-0.307,0.263-0.846,0.396-1.604,0.396h-2.252V6.344h2.221
		c0.719,0,1.021,0.048,1.133,0.075c0.279,0.076,0.5,0.23,0.673,0.471c0.173,0.249,0.257,0.538,0.257,0.884
		C40.681,8.261,40.541,8.622,40.254,8.874z"/>
	<path d="M50.826,5.303c-0.344-0.235-0.768-0.394-1.293-0.487c-0.355-0.063-0.867-0.095-1.52-0.095h-3.902v10.084h1.781v-3.911
		h2.238c1.437,0,2.453-0.311,3.021-0.922c0.564-0.607,0.852-1.359,0.852-2.236c0-0.526-0.105-0.988-0.318-1.408
		C51.474,5.894,51.185,5.55,50.826,5.303z M49.748,8.874c-0.307,0.263-0.846,0.396-1.602,0.396h-2.254V6.344h2.229
		c0.713,0,1.014,0.048,1.125,0.075c0.281,0.076,0.503,0.23,0.677,0.474c0.175,0.245,0.259,0.534,0.259,0.881
		C50.181,8.257,50.039,8.618,49.748,8.874z"/>
	<path d="M27.848,4.721l-3.909,10.084h1.899l1.052-2.909h3.729l1.121,2.909h2.002l-4.15-10.084H27.848z M27.452,10.37l0.933-2.479
		c0.122-0.328,0.232-0.668,0.332-1.017c0.121,0.354,0.265,0.748,0.428,1.178l0.885,2.318H27.452z"/>
	<polygon points="55.334,4.721 53.552,4.721 53.552,14.805 60.094,14.805 60.094,13.181 55.334,13.181 	"/>
	<polygon points="63.418,10.415 68.758,10.415 68.758,8.791 63.418,8.791 63.418,6.344 69.119,6.344 69.119,4.721 61.627,4.721 
		61.627,14.805 69.349,14.805 69.349,13.181 63.418,13.181 	"/>
	<path d="M103.157,9.198c0.251-0.408,0.378-0.949,0.378-1.607c0-0.897-0.276-1.584-0.82-2.039c-0.538-0.453-1.343-0.684-2.391-0.684
		h-4.246v9.91h1.104v-4.146h3.498c0.53,0,0.903,0.09,1.141,0.275c0.26,0.207,0.365,1.625,0.436,2.564
		c0.034,0.461,0.066,0.896,0.11,1.199l0.016,0.107h1.105l0.003-0.123c0.009-0.403-0.188-2.42-0.355-3.493
		c-0.07-0.45-0.399-0.955-0.869-1.183C102.654,9.784,102.953,9.522,103.157,9.198z M97.181,6.015h2.936
		c0.864,0,1.471,0.132,1.804,0.391c0.329,0.257,0.489,0.691,0.489,1.33c0,0.617-0.165,1.063-0.491,1.322
		c-0.334,0.273-0.904,0.412-1.694,0.412h-3.043V6.015z"/>
	<path d="M76.295,9.321l-1.636-0.319c-0.8-0.155-1.349-0.351-1.635-0.583c-0.27-0.212-0.405-0.529-0.405-0.941
		c0-0.531,0.197-0.943,0.604-1.261c0.409-0.311,0.978-0.468,1.689-0.468c0.744,0,1.301,0.164,1.701,0.502
		c0.403,0.336,0.624,0.816,0.676,1.471l0.009,0.115h1.105l-0.005-0.129c-0.032-0.971-0.361-1.737-0.979-2.277
		c-0.623-0.544-1.475-0.82-2.531-0.82c-1.029,0-1.863,0.269-2.477,0.797c-0.613,0.521-0.926,1.236-0.926,2.123
		c0,0.701,0.181,1.273,0.537,1.699c0.354,0.413,0.893,0.695,1.605,0.838l1.826,0.357c1.057,0.209,1.496,0.439,1.68,0.596
		c0.245,0.208,0.369,0.528,0.369,0.952c0,0.571-0.219,1.01-0.672,1.343c-0.459,0.346-1.072,0.514-1.873,0.514
		c-0.794,0-1.433-0.211-1.898-0.628c-0.473-0.425-0.703-0.976-0.703-1.685v-0.17h-1.125v0.269c0,1.05,0.346,1.892,1.024,2.5
		c0.679,0.611,1.616,0.921,2.786,0.921c1.123,0,2.016-0.275,2.652-0.82c0.64-0.545,0.965-1.313,0.965-2.281
		c0-0.734-0.194-1.32-0.576-1.739C77.707,9.776,77.123,9.49,76.295,9.321z"/>
	<polygon points="87.89,14.778 94.756,14.778 94.756,13.617 88.998,13.617 88.998,10.313 94.31,10.313 94.31,9.151 88.998,9.151 
		88.998,6.015 94.756,6.015 94.756,4.868 87.89,4.868 	"/>
	<path d="M109.376,4.946l-0.032-0.078h-1.158l-3.998,9.738l-0.071,0.172h1.151l1.213-2.985h4.537l1.173,2.907l0.032,0.078h1.137
		L109.376,4.946z M110.532,10.61h-3.568l1.788-4.475L110.532,10.61z"/>
	<polygon points="80.129,14.778 81.23,14.778 81.23,10.313 86.142,10.313 86.142,9.106 81.23,9.106 81.23,6.03 86.734,6.03 
		86.734,4.868 80.129,4.868 	"/>
</g>
<rect x="0" opacity="0" fill-rule="evenodd" clip-rule="evenodd" width="113.359" height="20"/>
</svg>
