<?xml version="1.0" encoding="utf-8"?>
<!-- Generator: Adobe Illustrator 16.0.0, SVG Export Plug-In . SVG Version: 6.00 Build 0)  -->
<!DOCTYPE svg PUBLIC "-//W3C//DTD SVG 1.1//EN" "http://www.w3.org/Graphics/SVG/1.1/DTD/svg11.dtd">
<svg version="1.1" id="Слой_1" xmlns="http://www.w3.org/2000/svg" xmlns:xlink="http://www.w3.org/1999/xlink" x="0px" y="0px"
	 width="58.686px" height="20px" viewBox="0 0 58.686 20" enable-background="new 0 0 58.686 20" xml:space="preserve">
<path d="M5.388,12.584L3.836,12.67c-0.024-0.834-0.366-1.252-1.043-1.252c-0.771,0-1.153,0.639-1.153,1.921
	c0,0.74,0.104,1.245,0.311,1.513c0.215,0.26,0.509,0.395,0.884,0.395c0.604,0,0.979-0.371,1.113-1.111l1.44,0.079
	c-0.087,0.701-0.374,1.236-0.843,1.604c-0.47,0.371-1.043,0.554-1.728,0.554c-0.836,0-1.512-0.274-2.037-0.813
	C0.263,15.023,0,14.275,0,13.322c0-0.881,0.254-1.612,0.756-2.18c0.51-0.567,1.202-0.852,2.078-0.852
	C4.345,10.292,5.197,11.057,5.388,12.584L5.388,12.584z M8.611,16.371c-0.844,0-1.504-0.299-1.974-0.898
	c-0.462-0.599-0.693-1.313-0.693-2.166c0-0.856,0.231-1.572,0.708-2.147c0.471-0.583,1.139-0.866,2.014-0.866
	c0.883,0,1.544,0.307,1.989,0.921c0.454,0.614,0.677,1.322,0.677,2.11c0,0.857-0.23,1.574-0.692,2.164
	C10.179,16.072,9.503,16.371,8.611,16.371L8.611,16.371z M8.659,11.418c-0.772,0-1.163,0.631-1.163,1.904
	c0,1.285,0.39,1.923,1.163,1.923c0.748,0,1.121-0.638,1.121-1.914C9.781,12.057,9.407,11.418,8.659,11.418L8.659,11.418z
	 M14.667,16.371c-0.853,0-1.504-0.299-1.975-0.898c-0.461-0.599-0.699-1.313-0.699-2.166c0-0.856,0.238-1.572,0.708-2.147
	c0.478-0.583,1.146-0.866,2.021-0.866s1.543,0.307,1.99,0.921c0.445,0.614,0.676,1.322,0.676,2.11c0,0.857-0.23,1.574-0.701,2.164
	C16.228,16.072,15.559,16.371,14.667,16.371L14.667,16.371z M14.708,11.418c-0.772,0-1.154,0.631-1.154,1.904
	c0,1.285,0.382,1.923,1.154,1.923c0.748,0,1.122-0.638,1.122-1.914C15.829,12.057,15.455,11.418,14.708,11.418L14.708,11.418z
	 M22.482,10.835v2.543l1.918-2.543h1.369l-1.472,1.937l1.838,3.512h-1.568l-1.225-2.362l-0.86,1.111v1.251h-1.399v-5.448H22.482z
	 M28.539,16.371c-0.765,0-1.354-0.275-1.775-0.827c-0.422-0.544-0.629-1.213-0.629-1.991c0-0.787,0.215-1.449,0.637-1.984
	c0.422-0.527,1.026-0.795,1.814-0.795c0.796,0,1.393,0.283,1.798,0.85c0.406,0.566,0.604,1.214,0.604,1.945
	c0,0.787-0.207,1.449-0.62,1.99C29.947,16.096,29.343,16.371,28.539,16.371L28.539,16.371z M28.579,11.813
	c-0.692,0-1.042,0.582-1.042,1.756c0,1.181,0.35,1.764,1.042,1.764c0.676,0,1.011-0.583,1.011-1.756
	C29.59,12.395,29.255,11.813,28.579,11.813L28.579,11.813z M32.646,14.143v2.142H31.42v-5.425h2.292c0.422,0,0.764,0.048,1.019,0.15
	c0.264,0.102,0.471,0.291,0.637,0.566c0.176,0.275,0.255,0.574,0.255,0.912c0,0.654-0.303,1.127-0.907,1.41l0.962,2.386h-1.344
	l-0.813-2.142H32.646z M32.646,11.836v1.387h0.756c0.239,0,0.423-0.023,0.533-0.057c0.111-0.04,0.207-0.119,0.295-0.236
	c0.087-0.125,0.135-0.268,0.135-0.425s-0.048-0.292-0.135-0.409c-0.088-0.119-0.184-0.188-0.278-0.222
	c-0.104-0.022-0.294-0.038-0.581-0.038H32.646z M39.139,10.859l1.624,5.424H39.45l-0.326-1.117h-1.68l-0.334,1.117h-1.074
	l1.679-5.424H39.139z M37.73,14.166h1.107l-0.549-1.906L37.73,14.166z"/>
<rect x="17.787" y="10.119" width="1.385" height="6.023"/>
<g>
	<path d="M52.04,5.261c-0.614-0.279-1.653-0.71-2.84-0.955c-1.807-0.369-5.102-0.023-6.454-0.44
		c-2.793-0.874-4.035-2.859-6.424-3.119c-1.042-0.111-2.395-0.165-3.652,0.944c-1.567,1.395,0.518,0.056,1.632,0.041
		c4.768-0.096,2.667,4.723-1.56,2.157c-1.888-1.15-0.757-4.379-6.67-3.748c-3.725,0.401-2.809,0.362-0.357,0.418
		c2.109,0.054,4.417,0.708,4.752,2.928c0.214,1.441-2.332,3.607-4.061,0.93c-0.922-1.433-2.824-1.299-2.889-1.386
		c2.825,0.693,2.563,4.661,4.998,4.497c4.425-0.307,7.489-0.661,11.396,2.141c1.479,1.063,2.793,4.017,4.218,5.292
		c0.001,0.001,0.001,0.002,0.002,0.002c0.994,2.929,3.784,5.038,7.08,5.038c4.131,0,7.473-3.308,7.473-7.394
		C58.685,8.797,55.78,5.668,52.04,5.261z M51.212,18.889c-3.479,0-6.295-2.788-6.295-6.229c0-3.441,2.817-6.229,6.295-6.229
		s6.295,2.787,6.295,6.229C57.507,16.1,54.69,18.889,51.212,18.889z"/>
	<path d="M53.481,9.237c0.573,0.055,0.883,0.386,0.955,0.914c0.159,0.086,0.095,0.054,0.151,0.007
		c2.069-1.693-3.892-4.181-4.528,0.26c-0.048-0.064-0.072-0.103-0.137-0.149c-3.16-2.064-5.109,0.959-4.68,1.488
		c0.58-0.433,1.48-0.795,2.195-0.534c2.604,0.92,0.366,3.062-0.429,1.723c-0.175,0.441,0.175,1.361,0.875,1.457
		c1.177,0.153,1.672-0.385,1.846-0.659c-0.473,0.873-0.486,2.188,0.152,3.014c0.319,0.417,1.21,0.802,1.704,0.582
		c-0.486-0.362-1.307-1.196-0.948-1.858c1.441-2.638,4.188,0.024,2.134,0.653c-0.008,0,2.133-0.173,1.536-1.864
		c-0.159-0.475-0.541-0.797-1.242-1.6c0.391,0.087,1.234,0.213,1.536-0.057c0.686-0.596-0.334-0.078-1.679-1.022
		C51.571,10.654,52.152,9.111,53.481,9.237z"/>
</g>
<rect x="0" y="0.031" fill-opacity="0" width="58.686" height="20"/>
</svg>
