<?xml version="1.0" encoding="utf-8"?>
<!-- Generator: Adobe Illustrator 16.0.0, SVG Export Plug-In . SVG Version: 6.00 Build 0)  -->
<!DOCTYPE svg PUBLIC "-//W3C//DTD SVG 1.1//EN" "http://www.w3.org/Graphics/SVG/1.1/DTD/svg11.dtd">
<svg version="1.1" id="Слой_1" xmlns="http://www.w3.org/2000/svg" xmlns:xlink="http://www.w3.org/1999/xlink" x="0px" y="0px"
	 width="50.767px" height="20px" viewBox="0 0 50.767 20" enable-background="new 0 0 50.767 20" xml:space="preserve">
<g>
	<path fill-rule="evenodd" clip-rule="evenodd" fill="#141515" d="M20.607,6.558h-2.409v3.879h-2.794l-0.128-0.068V6.558h-2.409
		c-0.938,0.02-1.788-0.273-3.062,0.762c-1.175,0.958-0.652,3.313-1.294,5.238c-0.77,2.305-7.188,0.868-3.989-3.04L2.774,8.433
		c-2.587,1.614-1.846,5.374,0.859,6.557c3.101,1.357,7.574,0.049,7.574-2.971c0-0.938,0.009-1.426,0.236-2.295
		c0.336-0.978,0.573-1.359,1.423-1.437c0,0.469-0.021,2.687,0.117,3.087c0.228,0.624,0.958,1.231,2.894,1.231h2.321h2.409v-2.169
		V6.558z M5.875,7.604H5.006V4.575C4.68,4.849,4.315,5.054,3.881,5.18V4.448c0.227-0.068,0.474-0.196,0.74-0.391
		c0.266-0.186,0.444-0.41,0.543-0.664h0.71V7.604z M3.061,6.861v0.743H0c0.04-0.285,0.138-0.548,0.306-0.802
		C0.464,6.548,0.79,6.216,1.284,5.796c0.385-0.341,0.632-0.566,0.721-0.684C2.123,4.946,2.183,4.78,2.183,4.614
		c0-0.176-0.05-0.313-0.159-0.41C1.925,4.105,1.776,4.057,1.589,4.057c-0.178,0-0.326,0.048-0.424,0.156
		C1.057,4.311,0.987,4.477,0.978,4.711L0.108,4.633c0.049-0.44,0.207-0.762,0.483-0.957C0.869,3.49,1.204,3.393,1.62,3.393
		c0.444,0,0.799,0.107,1.056,0.332C2.932,3.95,3.061,4.223,3.061,4.555c0,0.195-0.04,0.372-0.109,0.547
		C2.874,5.269,2.755,5.455,2.597,5.64C2.498,5.757,2.3,5.942,2.024,6.177C1.748,6.402,1.58,6.558,1.501,6.636
		c-0.07,0.079-0.129,0.156-0.178,0.225H3.061z M41.768,20c-1.491-1.593-1.432-4.512,0.73-5.528l3.812-2.745L43.704,8.16
		c0.721-0.713,4.048-0.673,4.661-0.264c2.578,1.71,3.396,4.836,0.879,6.937L41.768,20z M47.762,0.003
		c1.491,1.592,1.432,4.514-0.73,5.529L43.22,8.277l2.607,3.566c-0.721,0.714-4.049,0.673-4.661,0.264
		c-2.577-1.709-3.396-4.836-0.878-6.937L47.762,0.003z M31.814,10.437c-1.817-0.645-0.799-2.843,1.797-1.837l0.05-2.148
		c-4.395-1.847-5.935,2.598-5.165,3.985h-2.724V6.558h-2.4v5.842c0,1.164-0.75,1.056-1.174,1.388
		c-0.021,0.011-0.129,0.011-0.159,0.011l-0.029,2.013c0.414,0,0.464,0.019,0.849-0.128c1.501-0.546,2.824-1.279,2.914-3.077h8.629
		v-2.169H31.814z M5.134,16.718c0.701,0,1.273,0.577,1.273,1.289c0,0.715-0.572,1.289-1.273,1.289c-0.701,0-1.264-0.574-1.264-1.289
		C3.871,17.295,4.434,16.718,5.134,16.718L5.134,16.718z M8.086,16.718c0.701,0,1.274,0.577,1.274,1.289
		c0,0.715-0.573,1.289-1.274,1.289c-0.701,0-1.264-0.574-1.264-1.289C6.823,17.295,7.386,16.718,8.086,16.718L8.086,16.718z
		 M19.274,13.855c0.691,0,1.264,0.578,1.264,1.289c0,0.715-0.573,1.29-1.264,1.29c-0.701,0-1.273-0.575-1.273-1.29
		C18.001,14.434,18.574,13.855,19.274,13.855L19.274,13.855z"/>
</g>
<rect y="0.002" opacity="0" fill-rule="evenodd" clip-rule="evenodd" width="50.767" height="19.999"/>
</svg>
