<?xml version="1.0" encoding="utf-8"?>
<!-- Generator: Adobe Illustrator 16.0.0, SVG Export Plug-In . SVG Version: 6.00 Build 0)  -->
<!DOCTYPE svg PUBLIC "-//W3C//DTD SVG 1.1//EN" "http://www.w3.org/Graphics/SVG/1.1/DTD/svg11.dtd">
<svg version="1.1" id="Слой_1" xmlns="http://www.w3.org/2000/svg" xmlns:xlink="http://www.w3.org/1999/xlink" x="0px" y="0px"
	 width="44.343px" height="20px" viewBox="0 0 44.343 20" enable-background="new 0 0 44.343 20" xml:space="preserve">
<g>
	<path fill-rule="evenodd" clip-rule="evenodd" d="M39.748,10.96c-1.335-0.307-2.654-1.841-3.463-2.054
		c0.096-0.354,0.24-0.498,0.417-0.824c-1.779,0-1.371,0.271-2.717-0.19c-0.754-0.257-1.877-0.493-2.822-0.493
		c0.306-0.264,0.66-0.365,1.167-0.49c2.716-0.679,4.133,0.471,5.063,0.49c0.115-0.416,0.417-0.652,0.875-1.189
		c0.314-0.373,0.798-0.8,0.927-1.278c-4.703-2.462-8.892,0.854-11.613,4.272c-0.369,0.463-0.243,0.013-0.298,0.662
		c1.115,0,1.794,0.275,2.909,0.275l-1.629,1.949c-1.688,1.772-1.037,3.609-1.005,5.037c-0.926-0.076-1.986-1.081-2.433-1.701
		c-0.895-1.222-0.593-1.044-2.034,0.433l-1.209,1.405c0.117,0.497,0.313,0.669,0.608,1.041c0.93,1.173,2.089,1.7,3.686,1.7
		c1.606,0,2.379-1.396,3.507-2.698c0.411-0.481,0.607-0.532,0.742-1.328c0.133-0.808-0.428-2.268-0.444-3.515
		c-0.008-0.77,0.071-0.928,0.844-1.15c1.955-0.555,2.521-0.493,4.491,0.882c0.965,0.668,2.504,2.518,4.326,0.442
		c1.806-2.05,2.321-2.637,2.321-5.239h0.141c0,1.604,0.032,2.897-0.196,4.33c-0.279,1.764-1.013,3.167-1.052,3.617
		c0.58-0.048,0.208,0.042,0.494-0.194c0.59-0.481,1.795-2.284,2.042-2.913C44.883,8.428,44.388,3.825,43.485,0h-0.554
		c-0.114,0.427-1.276,1.686-1.629,2.085c-0.334,0.377-0.562,0.656-0.895,1.037l-0.896,1.042c-0.472,0.605,0,1.282,0.102,3.095
		C39.677,8.417,39.748,9.597,39.748,10.96L39.748,10.96z M15.581,12.195l0.51-0.524l-0.442-0.442
		c0.039-0.047,0.411-0.66,0.416-0.679c-0.216-0.238-0.318-0.175-0.486-0.408c-0.365,0.128-0.425,0.255-0.621,0.547l0.439,0.525
		l-0.466,0.402C15.239,12.177,14.918,12.052,15.581,12.195L15.581,12.195z M15.931,5.624c-0.004,1.445-0.256,2.505-1.08,3.146
		c-0.075-0.854,0.042-1.005,0.098-1.65L14.82,5.363c-0.613,0.229-1.222,1.061-1.563,1.732c-0.432,0.852-0.554,1.616-0.659,2.634
		l1.251-0.035l0.225,0.172c-0.086,0.8-0.405,1.335-0.904,1.937c-0.538,0.649-0.306,0.159-0.306,0.482l-0.357-0.016l-0.023-0.21
		c-1.092-0.023-3.509-1.126-4.172-1.624l0.703-0.423c0.922-0.321,2.284-0.283,3.27-0.283c0.035-0.668-0.185-1.95-0.425-2.552
		C11.53,6.357,9.528,4.05,9.544,6.292c0.008,0.87,0.011,1.741,0.011,2.615c-0.899,0-1.865,0.465-2.202,0.959
		c-0.828-0.521-1.426-1.189-2.128-1.88c-0.31-0.311-1.649-1.802-1.762-2.229c-0.684,0.016-0.64,0.127-1.01,0.508
		c-0.307,0.318-0.515,0.52-0.824,0.827C1.084,7.627,0.408,8.167,0,8.77L1.763,11c0.381,0.377,0.714,0.604,1.115,0.951l2.383,1.614
		c0.204,0.109,0.4,0.226,0.627,0.339c1.127,0.56,2.63,1.084,3.946,1.375c-0.319,0.314-0.288,0.132-0.416,0.613
		c0.349,0.517,1.452,1.491,2.037,2.094c0.353,0.365,0.31,0.466,0.871,0.513c0.114-0.419,1.917-2.207,2.403-2.742
		c2.568,0,5.46-0.427,7.482-1.044c1.88-0.579,2.559-1.386,3.729-2.751c0.377-0.441,0.762-0.664,0.927-1.274
		c-0.809,0.066-0.055,0.032-1.288,0.641c-2.081,1.034-5.877,1.406-8.267,1.414c-0.904,0.004-3.054-0.101-3.6-0.388
		c0.392-0.327,0.792-1.068,0.938-1.559c0.423-1.425,0-0.727,1.139-1.479c0.011,0.117-0.243,0.61,0.875,0.454
		c0.554-0.074,0.737-0.178,1.037-0.482c0.714-0.719,0.635-1.138,0.915-2.163c0.246,1.091-0.4,2.19,0.184,2.505
		c0.385,0.206,0.424,0.062,0.472-0.039c0.071,0,0.157,0,0.255,0c0.631-1.27,1.146-1.752,2.183-2.777
		c0.554-0.532,0.883-0.784,1.5-1.258c2.013-1.55,4.973-2.956,7.674-2.956c0.229-0.338,0.479-0.641,0.691-0.959
		c-2.382,0-4.864,0.983-6.843,2.277l-1.845,1.323c-0.786,0.66-1.826,1.561-2.445,2.374c-0.165,0.214-0.225,0.26-0.378,0.45
		c-0.337,0.408,0.075,0.108-0.427,0.427c0.079-0.994,0.035-2.015,0.027-3.014c-0.003-0.688,0.06-0.964,0.118-1.422
		c0.094-0.742-0.023-0.769-0.726-0.769c-0.353,0.132-0.617,0-1.076,0h-0.251c0,1.168,0.07,4.467-0.868,5.344L16.9,5.616
		C16.401,5.504,16.421,5.406,15.931,5.624L15.931,5.624z M10.67,7.263l-0.016-0.365c0.51,0.318,0.753,1.153,0.796,1.872
		c-0.231,0.074-0.298,0.218-0.75,0L10.67,7.263z M13.85,7.947l-0.278,0.959C13.312,8.334,13.619,8.276,13.85,7.947L13.85,7.947z"/>
</g>
<rect opacity="0" fill-rule="evenodd" clip-rule="evenodd" width="44.343" height="20"/>
</svg>
