<?xml version="1.0" encoding="utf-8"?>
<!-- Generator: Adobe Illustrator 16.0.0, SVG Export Plug-In . SVG Version: 6.00 Build 0)  -->
<!DOCTYPE svg PUBLIC "-//W3C//DTD SVG 1.1//EN" "http://www.w3.org/Graphics/SVG/1.1/DTD/svg11.dtd">
<svg version="1.1" id="Слой_1" xmlns="http://www.w3.org/2000/svg" xmlns:xlink="http://www.w3.org/1999/xlink" x="0px" y="0px"
	 width="20.214px" height="20px" viewBox="0 0 20.214 20" enable-background="new 0 0 20.214 20" xml:space="preserve">
<g>
	<path d="M20.214,0H0v20h20.214V7.767H17.52v5.193h-3.386V7.767h-2.815c0.196,0.279,0.313,0.616,0.313,0.983
		c0,0.475-0.19,0.9-0.499,1.21c-0.191,0.192-0.425,0.335-0.688,0.417l1.942,2.581H8.82l-1.731-2.496H6.098v2.498H2.709V7.039
		c0,0,7.275,0.001,7.275,0c0.448,0.016,0.852,0.207,1.148,0.501c0.06,0.061,0.111,0.128,0.161,0.197V7.043l8.921-0.004V0z"/>
	<path d="M7.254,7.765H6.098V9.74h1.21c0.251-0.014,0.477-0.121,0.646-0.291c0.179-0.179,0.29-0.425,0.29-0.699
		c0-0.271-0.111-0.518-0.29-0.697C7.785,7.886,7.559,7.777,7.308,7.765H7.254z"/>
</g>
<rect opacity="0" fill-rule="evenodd" clip-rule="evenodd" width="20.214" height="20"/>
</svg>
