<?xml version="1.0" encoding="utf-8"?>
<!-- Generator: Adobe Illustrator 16.0.0, SVG Export Plug-In . SVG Version: 6.00 Build 0)  -->
<!DOCTYPE svg PUBLIC "-//W3C//DTD SVG 1.1//EN" "http://www.w3.org/Graphics/SVG/1.1/DTD/svg11.dtd">
<svg version="1.1" id="Слой_1" xmlns="http://www.w3.org/2000/svg" xmlns:xlink="http://www.w3.org/1999/xlink" x="0px" y="0px"
	 width="66.396px" height="20px" viewBox="0 0 66.396 20" enable-background="new 0 0 66.396 20" xml:space="preserve">
<g>
	<path fill-rule="evenodd" clip-rule="evenodd" d="M-0.199,9.642c0,1.718,0.467,2.985,1.468,4.213
		c0.258,0.317,0.438,0.437,0.633,0.634c0.228,0.229,0.69,0.536,0.965,0.7c0.326,0.196,0.77,0.409,1.132,0.537
		c0.826,0.292,1.736,0.51,2.834,0.51h4.153c1.127,0,2.094-0.628,2.377-1.723c0.167-0.642,0.101-3.132,0.101-3.977
		c0.067,0.05,0.184,0.257,0.249,0.351c0.868,1.284,1.757,2.758,2.631,4.055c0.316,0.469,0.747,0.918,1.273,1.16
		c1.216,0.563,2.788,0.263,3.335-0.94c0.292-0.641,0.249-1.275,0.249-2.174c0-0.817,0-1.634,0-2.452l0.383,0.583
		c0.065,0.104,0.125,0.184,0.187,0.277l0.576,0.889c0.274,0.435,1.743,2.732,1.945,2.979c0.315,0.381,0.629,0.641,1.106,0.86
		c0.446,0.207,1.031,0.331,1.645,0.225c0.29-0.05,0.509-0.136,0.722-0.245c0.604-0.313,1.138-1.062,1.138-1.824V3.513h-1.708v10.039
		c0,1.256-0.936,1.264-1.396,0.719l-4.705-7.04c-0.137-0.205-0.271-0.39-0.401-0.596c-0.134-0.211-0.243-0.376-0.382-0.583
		c-0.146-0.218-0.364-0.672-0.731-0.4c-0.074,0.055-0.103,0.105-0.129,0.205c-0.038,0.141-0.023,0.409-0.023,0.604
		c0,0.92,0.032,7.334-0.014,7.542c-0.152,0.722-0.943,0.798-1.345,0.265c-0.141-0.186-0.259-0.384-0.389-0.576l-0.59-0.874
		c-0.036-0.059-0.048-0.087-0.089-0.146l-0.493-0.738c-0.14-0.205-0.263-0.389-0.402-0.596l-0.783-1.179
		c-0.536-0.793-1.039-1.558-1.574-2.352c-0.137-0.203-0.252-0.389-0.382-0.583c-0.131-0.195-0.28-0.4-0.4-0.599L12.58,6.043
		c-0.121-0.179-0.256-0.476-0.522-0.476c-0.444,0-0.335,0.572-0.335,0.927v6.395c0,0.366,0.031,0.922-0.079,1.181
		c-0.113,0.267-0.42,0.509-0.792,0.509H6.465c-0.729,0-1.466-0.199-2.004-0.4c-0.422-0.159-0.795-0.385-1.153-0.649
		c-0.258-0.189-0.432-0.357-0.637-0.597c-0.504-0.589-0.863-1.216-1.025-1.999c-0.36-1.746,0.119-3.277,1.328-4.48
		c0.389-0.386,0.994-0.73,1.502-0.934c0.553-0.219,1.3-0.383,2.057-0.383h2.545V3.513c-2.584,0-4.059-0.189-6.273,1.016
		C1.075,5.47-0.199,7.625-0.199,9.642L-0.199,9.642z"/>
	<path fill-rule="evenodd" clip-rule="evenodd" d="M9.111,12.591H6.8c-0.433,0-0.922-0.1-1.261-0.21
		c-0.871-0.285-1.592-0.974-1.801-1.863C3.584,9.86,3.703,9.214,3.953,8.681c0.484-1.022,1.63-1.557,2.915-1.557h2.21V5.6
		c0-0.076-0.023-0.099-0.101-0.099c-1.146,0-2.917-0.068-3.896,0.22C4.298,5.95,3.508,6.399,3.021,6.997
		C2.707,7.381,2.687,7.347,2.402,7.908c-0.7,1.377-0.572,2.876,0.157,4.208c0.071,0.131,0.143,0.228,0.226,0.338
		c0.047,0.06,0.069,0.087,0.122,0.146c0.557,0.616,1.053,0.994,1.879,1.288c0.545,0.192,1.234,0.327,1.981,0.327h4.018
		c0.553,0,0.503-0.504,0.502-0.763c-0.001-0.992-0.039-7.253,0.019-7.57c0.063-0.357,0.327-0.68,0.619-0.68
		c0.644,0,0.684,0.137,1.092,0.743l4.719,7.092c0.147,0.218,0.597,0.941,0.726,1.072c0.164,0.163,0.37,0.178,0.497-0.025
		c0.149-0.241,0.065-1.139,0.065-1.526l0-6.395c-0.007-1.155,1.025-1.181,1.464-0.588c0.147,0.2,0.287,0.412,0.414,0.62l4.097,6.15
		c0.133,0.197,1.118,1.734,1.244,1.818c0.273,0.183,0.519-0.018,0.519-0.347V3.513h-1.742v5.965L23.591,7.21
		c-0.285-0.46-1.127-1.862-1.419-2.272c-0.748-1.05-1.949-1.822-3.321-1.33c-0.551,0.197-1.082,0.63-1.334,1.165
		c-0.307,0.648-0.234,1.295-0.234,2.219c0,0.829,0,1.657,0,2.486l-2.8-4.489c-0.666-1.011-1.565-1.586-2.826-1.508
		c-0.395,0.024-0.783,0.21-1.052,0.383C10.332,4.04,10.04,4.336,9.883,4.608C9.452,5.348,9.547,6.066,9.547,7.19v4.374
		C9.547,12.076,9.641,12.591,9.111,12.591L9.111,12.591z"/>
	<path fill-rule="evenodd" clip-rule="evenodd" d="M54.521,11.63c0,0.197-0.029,0.34-0.067,0.498c-0.206,0.099-1.248,0.1-1.607,0.1
		h-6.598c-0.465,0-1.367-0.537-1.771-0.833c-0.663-0.488-1.138-1.324-1.338-2.124c-0.591-2.361,1.581-4.564,3.778-4.564h1.775V3.28
		c-0.925,0-2.373-0.02-3.169,0.21c-2.217,0.638-3.964,2.526-3.964,4.926c0,1.226,0.274,2.171,0.952,3.067
		c0.094,0.124,0.179,0.242,0.279,0.354c0.136,0.152,0.189,0.178,0.31,0.357c-0.209,0-0.26,0.033-0.467,0.033H39.05
		c-0.309-1.308-0.884-2.259-1.75-3.173c-0.262-0.276-0.897-1.045-1.13-1.167c-0.228,0.118-0.859,0.617-1.081,0.82
		c-0.128,0.118-0.225,0.155-0.326,0.307c0.02,0.021,0.014,0.013,0.046,0.053l1.661,1.967c0.515,0.721,0.804,1.719,0.804,2.947h18.72
		c0.373,0,0.469-0.09,0.469-0.462c0.001-0.314,0.032-0.552,0.032-0.896V2.949h-1.975V11.63z"/>
	<path fill-rule="evenodd" clip-rule="evenodd" d="M56.831,13.585c0,0.316-0.333,0.552-0.59,0.675
		c-0.247,0.121-0.877,0.055-1.218,0.055c-5.939,0-11.877,0-17.816,0c-0.367,1.563-1.507,2.905-3.022,3.503
		c-1.582,0.624-3.026,0.442-4.501-0.334c-0.576-0.304-0.959-0.735-1.115-0.817c-0.125,0.064-0.255,0.175-0.359,0.273l-0.875,0.791
		c-0.006,0.005-0.012,0.012-0.018,0.017l-0.121,0.112c0.372,0.548,1.419,1.183,2.021,1.479c1.569,0.778,3.731,0.822,5.385,0.281
		c0.638-0.21,1.497-0.637,2.032-1.072l0.668-0.598c0.427-0.422,0.773-0.903,1.07-1.426c0.081-0.145,0.172-0.254,0.212-0.422
		l16.878-0.032c0.799,0,0.96,0.082,1.669-0.204c0.653-0.263,1.13-0.765,1.411-1.387c0.114-0.252,0.168-0.427,0.168-0.795
		c-0.014-3.553,0.033-7.153,0.033-10.735h-1.909V13.585z"/>
	<path fill-rule="evenodd" clip-rule="evenodd" d="M66.409,16.004v-1.591c0-0.134-0.125-0.104-0.267-0.101l-2.613,0.002
		c-0.819,0-1.481,0.138-1.996-0.213c-0.118-0.079-0.28-0.321-0.307-0.457c-0.091-0.451,0.075-2.255-0.028-2.923
		c-0.049-0.327-0.014-7.489-0.014-7.772H59.31l0.033,10.735c0,0.292-0.013,0.351,0.061,0.568c0.306,0.882,1.069,1.618,2.048,1.785
		c0.709,0.119,1.768-0.059,2.502,0.04c0.34,0.047,1.412,0.024,1.885,0.024c0.113,0,0.225,0.003,0.337,0.003
		C66.302,16.107,66.409,16.132,66.409,16.004L66.409,16.004z"/>
	<path fill-rule="evenodd" clip-rule="evenodd" d="M61.52,13.685c0,0.081,0.22,0.297,0.302,0.297h4.488c0.077,0,0.1-0.022,0.1-0.098
		v-1.558c-0.438,0-2.641,0.012-2.98-0.066c-0.113-0.232-0.04-0.307-0.072-0.591c-0.023-0.202-0.029-0.388-0.029-0.635V2.949H61.52
		V13.685z"/>
	<path fill-rule="evenodd" clip-rule="evenodd" d="M33.122,10.304c0.049,0.183,0.672,0.816,0.824,1.009
		c0.065,0.083,0.067,0.086,0.14,0.16l0.698,0.865c0.407,0.663,0.354,1.603,0.003,2.296c-0.389,0.771-1.381,1.502-2.367,1.502
		c-0.54,0-0.896-0.062-1.362-0.276c-1.131-0.521-0.543-0.894-1.609-0.013c-0.157,0.131-0.562,0.497-0.645,0.652
		c0.183,0.271,0.947,0.83,1.286,0.981c0.99,0.438,1.438,0.442,2.498,0.442c0.634,0,1.321-0.203,1.753-0.418
		c0.572-0.286,0.812-0.438,1.257-0.843l0.117-0.116c0.842-0.889,1.259-1.778,1.259-3.127c0-0.771-0.168-1.375-0.502-1.988
		c-0.141-0.26-0.519-0.714-0.729-0.935c-0.077-0.083-0.1-0.129-0.184-0.216l-1.029-1.102c-0.178,0.047-1.036,0.809-1.239,0.961
		C33.207,10.201,33.181,10.219,33.122,10.304L33.122,10.304z"/>
	<path fill-rule="evenodd" clip-rule="evenodd" d="M43.335,8.35v0.331c0,1.673,1.477,3.101,3.061,3.333
		c0.521,0.077,2.439,0.047,3.035,0.047v-1.392h-2.009c-0.956,0-1.863-0.351-2.288-1.116c-0.295-0.528-0.291-0.698-0.291-1.235
		c0-0.565,0.499-1.221,0.836-1.458c0.892-0.631,1.749-0.498,3.015-0.498V4.938c-0.179,0-0.357,0.001-0.536,0l-1.58,0.061
		c-0.303,0.042-0.646,0.115-0.894,0.208C44.917,5.5,44.319,5.989,43.858,6.68C43.609,7.051,43.335,7.746,43.335,8.35L43.335,8.35z"
		/>
	<path fill-rule="evenodd" clip-rule="evenodd" d="M11.89,18.059c0,0.482,0,0.521,0.391,0.838c0.411,0.333,0.674,0.287,1.183,0.287
		c0.276,0,0.532-0.08,0.727-0.174c0.229-0.113,0.347-0.26,0.479-0.454c0.071,0.05,0.11,0.129,0.191,0.207
		c0.433,0.413,1.06,0.526,1.666,0.403c0.924-0.188,1.178-1.033,0.851-1.47c-0.374-0.5-0.808-0.565-1.436-0.565
		c-0.47,0-1.116,0.298-1.206,0.629c-0.199-0.052-0.375-0.629-1.239-0.629c-0.455,0-0.79-0.008-1.173,0.264
		C12.155,17.514,11.89,17.775,11.89,18.059L11.89,18.059z"/>
	<path fill-rule="evenodd" clip-rule="evenodd" d="M3.752,1.061c0,0.772,0.941,1.058,1.708,0.993
		c0.375-0.03,0.983-0.297,1.072-0.628c0.187,0.048,0.152,0.274,0.614,0.486C7.395,2.027,7.78,2.108,8.083,2.066
		c0.391-0.055,0.572-0.078,0.842-0.262c0.438-0.297,0.455-0.481,0.455-0.908C9.379,0.397,8.681,0,8.139,0
		C7.563,0,7.208,0.013,6.792,0.389C6.727,0.447,6.623,0.58,6.599,0.664C6.58,0.641,6.586,0.651,6.553,0.61
		C6.075,0.032,5.778,0,4.991,0C4.503,0,3.752,0.357,3.752,1.061L3.752,1.061z"/>
	<path fill-rule="evenodd" clip-rule="evenodd" d="M22.808,18.225c0,0.339,0.255,0.614,0.482,0.748
		c0.138,0.082,0.275,0.131,0.428,0.173c0.792,0.215,1.971-0.104,1.971-0.988c0-0.616-0.643-1.026-1.273-1.026
		c-0.478,0-0.804,0.014-1.207,0.296C22.971,17.595,22.808,17.822,22.808,18.225L22.808,18.225z"/>
	<path fill-rule="evenodd" clip-rule="evenodd" d="M63.529,17.792c0,0.373,0.018,0.605,0.42,0.877
		c0.505,0.341,1.509,0.352,2.015-0.024c0.14-0.102,0.187-0.136,0.285-0.281c0.27-0.398,0.154-0.901-0.242-1.201
		c-0.541-0.41-1.476-0.405-2.064-0.02C63.743,17.275,63.529,17.483,63.529,17.792L63.529,17.792z"/>
</g>
<rect opacity="0" fill-rule="evenodd" clip-rule="evenodd" width="66.409" height="20"/>
</svg>
