<?xml version="1.0" encoding="utf-8"?>
<!-- Generator: Adobe Illustrator 16.0.0, SVG Export Plug-In . SVG Version: 6.00 Build 0)  -->
<!DOCTYPE svg PUBLIC "-//W3C//DTD SVG 1.1//EN" "http://www.w3.org/Graphics/SVG/1.1/DTD/svg11.dtd">
<svg version="1.1" id="Слой_1" xmlns="http://www.w3.org/2000/svg" xmlns:xlink="http://www.w3.org/1999/xlink" x="0px" y="0px"
	 width="134.061px" height="20px" viewBox="0 0 134.061 20" enable-background="new 0 0 134.061 20" xml:space="preserve">
<g>
	<path fill-rule="evenodd" clip-rule="evenodd" d="M129.955,14.231c-1.863,0-2.514-2.549-1.459-3.584
		c1.416-1.402,3.359-0.383,3.523,1.291C132.125,12.993,131.139,14.231,129.955,14.231L129.955,14.231z M125.848,12.097
		c0,1.631,0.822,3.025,1.998,3.576c0.619,0.293,1.619,0.426,2.225,0.365c1.27-0.129,1.301-0.455,2.049-0.947v0.855h1.941V8.245
		h-1.941V9.1c-1.275-0.85-0.455-0.855-2.814-0.855C127.172,8.245,125.848,9.979,125.848,12.097L125.848,12.097z"/>
	<path fill-rule="evenodd" clip-rule="evenodd" d="M87.355,12.521c0-0.813-0.08-1.316,0.484-1.873
		c1.593-1.566,3.628-0.02,3.628,1.449c0,0.914-0.882,1.922-1.802,2.061c-0.471,0.068-1.128-0.15-1.44-0.346
		C87.919,13.618,87.355,12.956,87.355,12.521L87.355,12.521z M85.198,12.097c0,2.449,1.76,4.189,4.223,3.941
		c1.27-0.129,1.299-0.455,2.047-0.947c0.08,1.002,0,0.855,1.943,0.855V8.245h-1.943v0.643c-1.465-0.389,0.179-0.643-3.027-0.643
		C86.645,8.245,85.198,10.028,85.198,12.097L85.198,12.097z"/>
	<path fill-rule="evenodd" clip-rule="evenodd" d="M94.71,15.946c2.734,0,2.177,0.104,2.152-3.219
		c-0.013-2.008,0.429-2.56,1.74-2.56c2.219,0,1.729,3.353,1.729,5.779h1.943c0-3.129,0.766-7.702-3.242-7.702
		c-1.165,0-1.625,0.461-2.378,0.855V8.245H94.71V15.946z"/>
	<path fill-rule="evenodd" clip-rule="evenodd" d="M110.494,12.097c0,3.723,2.832,4.838,5.621,2.994v0.855h1.949V8.245h-1.949
		c0,2.36,0.484,5.774-1.943,5.774c-2.104,0-1.514-2.336-1.514-5.774h-2.164V12.097z"/>
	<path fill-rule="evenodd" clip-rule="evenodd" d="M103.359,8.887v1.28h3.242c-0.588,0.873-1.275,1.697-1.9,2.607
		c-0.729,1.055-1.557,1.584-1.557,3.172h6.486v-2.141h-3.244l3.244-5.561h-5.622C103.506,8.245,103.359,8.39,103.359,8.887
		L103.359,8.887z"/>
	<path fill-rule="evenodd" clip-rule="evenodd" d="M66.602,15.946h2.378c0.368-0.697,0.344-0.848,0.914-1.455
		c3.126-3.328,6.338-1.789,7.735-1.752c-2.115-1.457-5.816-0.521-6.92-0.432l1.441-3.499c0.349-0.722,0.478-0.965,0.814-1.759
		c0.307-0.74,0.594-1.049,0.772-1.801h-2.378c-0.263,0.484-0.344,0.775-0.588,1.346L66.602,15.946z"/>
	<path fill-rule="evenodd" clip-rule="evenodd" d="M0.214,8.027c0,0.733,0.558,1.612,1.073,1.934
		c1.974,1.22,6.283,0.753,6.283,2.992c0,1.582-1.851,2.139-2.813,2.139c-2.654,0-2.703-1-4.106-1.928
		c-0.289,0.262-0.276,0.23-0.65,0.432c0.84,3.109,8.649,3.492,8.649-0.643c0-4.058-7.35-2.105-7.35-4.925
		c0-1.996,3.745-2.353,5.186-1.492c0.564,0.34,0.809,1.043,1.422,0.746c0.318-0.152,0.637-0.34-0.3-1.194
		C6.344,4.934,3.604,4.958,2.176,5.473C1.287,5.795,0.214,6.887,0.214,8.027L0.214,8.027z"/>
	<path fill-rule="evenodd" clip-rule="evenodd" d="M62.709,9.1c1.74,0,2.77,0.867,2.807,2.565h-5.621
		C60.031,10.07,61.422,9.1,62.709,9.1L62.709,9.1z M58.817,12.097c0,4.705,6.442,4.711,7.134,2.135
		c-1.189-0.564-1.643,1.072-3.555,0.752c-1.458-0.25-2.378-1.002-2.5-2.463h6.484C67.668,7.056,58.817,6.692,58.817,12.097
		L58.817,12.097z"/>
	<path fill-rule="evenodd" clip-rule="evenodd" d="M79.142,15.946c2.685,0,2.2,0.135,2.151-3.219
		c-0.049-3.913,2.501-2.276,3.034-2.129l0.876-1.711c-1.396-0.922-2.721-0.928-4.119,0V8.245h-1.943V15.946z"/>
	<path fill-rule="evenodd" clip-rule="evenodd" d="M33.301,15.091c-3.77,0-3.77-5.991,0-5.991
		C37.205,9.1,37.205,15.091,33.301,15.091L33.301,15.091z M29.409,12.097c0,3.334,4.162,5.488,6.92,2.352v1.498h0.864V8.245h-0.864
		v1.498C33.515,6.541,29.409,8.838,29.409,12.097L29.409,12.097z"/>
	<path fill-rule="evenodd" clip-rule="evenodd" d="M11.027,12.308c0-4.227,5.841-4.147,5.841-0.211
		C16.868,16.093,11.027,15.776,11.027,12.308L11.027,12.308z M10.163,11.665c0,2.498,0.858,4.281,3.892,4.281
		c1.692,0,1.888-0.672,2.813-1.285v1.285h0.864V8.245h-0.864v1.279c-1.11-0.732-1.042-1.279-3.028-1.279
		C11.824,8.245,10.163,9.633,10.163,11.665L10.163,11.665z"/>
	<path fill-rule="evenodd" clip-rule="evenodd" d="M119.357,15.304c0,0.49,0.152,0.643,0.65,0.643h1.514V5.25h-2.164V15.304z"/>
	<path fill-rule="evenodd" clip-rule="evenodd" d="M122.82,15.946h1.514c0.496,0,0.65-0.152,0.65-0.643V5.25h-2.164V15.946z"/>
	<path fill-rule="evenodd" clip-rule="evenodd" d="M48.219,15.091c-4.051,0-4.008-5.991-0.214-5.991
		C52.326,9.1,51.566,15.091,48.219,15.091L48.219,15.091z M48.005,15.946c5.039,0,5.535-7.702-0.221-7.702
		C43.053,8.245,42.93,15.946,48.005,15.946L48.005,15.946z"/>
	<path fill-rule="evenodd" clip-rule="evenodd" d="M39.571,8.245h-1.514V9.1h1.514c0,3.172-0.625,6.846,2.164,6.846
		c0.741,0,0.833-0.156,1.514-0.217c-0.141-1.639-0.08-0.322-2.378-0.855c-0.423-1.795-0.221-3.906-0.221-5.774h2.378V8.245H40.65
		V6.104h-1.079V8.245z"/>
	<path fill-rule="evenodd" clip-rule="evenodd" d="M25.302,15.946c0.692,0,0.57-0.352,1.109-1.686
		c0.558-1.389,2.323-4.979,2.348-6.016c-1.232,0.024-0.876-0.091-2.071,2.87c-0.313,0.787-1.024,2.916-1.606,3.334
		c-0.38-1.625-1.404-3.463-1.999-5.081c-0.368-1.008-0.128-1.123-1.459-1.123l2.44,5.932C24.333,14.813,24.542,15.946,25.302,15.946
		L25.302,15.946z"/>
	<path fill-rule="evenodd" clip-rule="evenodd" d="M19.46,15.304c0,0.709,0.386,0.625,1.079,0.643V5.25H19.46V15.304z"/>
	<path fill-rule="evenodd" clip-rule="evenodd" d="M53.411,15.946h0.864c0-2.092-0.368-5.227,1.03-6.258
		c1.183-0.873,1.618-0.449,2.862-0.164l0.239-0.842c-2.513-1.177-3.372,0.127-4.131,0.63V8.245h-0.864V15.946z"/>
	<path fill-rule="evenodd" clip-rule="evenodd" d="M73.521,9.743c0,1.801,1.447,1.922,3.021,1.922
		c-0.392-0.74-0.613-1.395-1.005-2.208c-0.392-0.818-0.551-1.631-1.152-2.067C74.245,7.985,73.521,9.385,73.521,9.743L73.521,9.743z
		"/>
	<path fill-rule="evenodd" clip-rule="evenodd" d="M76.114,15.946h2.165l-0.889-2.328c-0.417-0.723-1.539-0.795-2.575-0.879
		C75.023,13.624,75.716,15.2,76.114,15.946L76.114,15.946z"/>
</g>
<rect y="0" opacity="0" fill-rule="evenodd" clip-rule="evenodd" width="134.061" height="20"/>
</svg>
