<?xml version="1.0" encoding="UTF-8" standalone="no"?>
<svg width="200px" height="18px" viewBox="0 0 200 18" version="1.1" xmlns="http://www.w3.org/2000/svg" xmlns:xlink="http://www.w3.org/1999/xlink" xmlns:sketch="http://www.bohemiancoding.com/sketch/ns">
    <!-- Generator: Sketch 3.3 (11970) - http://www.bohemiancoding.com/sketch -->
    <title>argumenti.ru</title>
    <desc>Created with Sketch.</desc>
    <defs></defs>
    <g id="Page-1" stroke="none" stroke-width="1" fill="none" fill-rule="evenodd" sketch:type="MSPage">
        <g id="argumenti.ru" sketch:type="MSArtboardGroup" fill="#000000">
            <g id="Imported-Layers" sketch:type="MSLayerGroup">
                <path d="M8.87295482,10.6084138 L8.87295482,14.7851379 L6.59171225,14.7851379 L6.59171225,4.09748276 L9.04668847,4.09748276 C10.0214269,4.09748276 10.5851011,4.22648276 11.0591974,4.46989655 C11.5334067,4.71786207 11.7652021,5.22858621 11.7652021,5.99255172 L11.7652021,8.76103448 C11.7652021,9.46293103 11.575654,9.91148276 11.1909096,10.197931 C10.801082,10.4937931 10.1373246,10.6274483 8.87295482,10.6084138 L8.87295482,10.6084138 Z M9.38387634,8.66089655 L9.38387634,6.09744828 C9.38387634,5.72037931 9.125761,5.52951724 8.60953032,5.52951724 L8.60953032,9.22417241 C9.125761,9.22417241 9.38387634,9.03796552 9.38387634,8.66089655 L9.38387634,8.66089655 Z M16.5119263,4.09748276 L16.5119263,5.47210345 L14.583799,5.47210345 L14.583799,14.7851379 L12.4026397,14.7851379 L12.4026397,4.09748276 L16.5119263,4.09748276 L16.5119263,4.09748276 Z M22.581082,4.09748276 C22.2280797,5.80634483 20.7002854,13.6728621 20.2261891,14.4462414 C19.9943936,14.8281724 19.6940309,14.7994138 19.388585,14.7994138 L18.3822176,14.7994138 C18.3980321,14.556 18.98283,13.3960345 18.7300238,12.3172759 L16.7648454,4.09748276 L18.951201,4.09748276 L19.6097622,9.50575862 L20.5264388,4.09748276 L22.581082,4.09748276 L22.581082,4.09748276 Z M31.600547,14.7851379 L29.5194709,14.7851379 L29.5194709,6.97593103 L28.0918728,14.7851379 L26.268912,14.7851379 L24.87283,7.22875862 L24.87283,14.7851379 L23.0499822,14.7851379 L23.0499822,4.09748276 L26.052931,4.09748276 L27.2645482,11.0762069 L28.471082,4.09748276 L31.600547,4.09748276 L31.600547,14.7851379 L31.600547,14.7851379 Z M36.3208383,14.7851379 L32.1167776,14.7851379 L32.1167776,4.09748276 L36.2892093,4.09748276 L36.2892093,5.47210345 L34.4558561,5.47210345 L34.4558561,7.97824138 L36.1786207,7.97824138 L36.1786207,9.51051724 L34.4558561,9.51051724 L34.4558561,13.2195517 L36.3208383,13.2195517 L36.3208383,14.7851379 L36.3208383,14.7851379 Z M41.8315161,14.7851379 L39.7558621,14.7851379 L39.7558621,9.51051724 L38.9076397,9.51051724 L38.9076397,14.7851379 L36.7792331,14.7851379 L36.7792331,4.09748276 L38.9076397,4.09748276 L38.9076397,8.07362069 L39.7558621,8.07362069 L39.7558621,4.09748276 L41.8315161,4.09748276 L41.8315161,14.7851379 L41.8315161,14.7851379 Z M47.4054518,5.48648276 L46.0988347,5.48648276 L46.0988347,14.7851379 L43.7544471,14.7851379 L43.7544471,5.48648276 L42.4479429,5.48648276 L42.4479429,4.09748276 L47.4054518,4.09748276 L47.4054518,5.48648276 L47.4054518,5.48648276 Z M53.8169917,4.09748276 L55.998151,4.09748276 L55.998151,14.7850345 L53.8169917,14.7850345 L53.8169917,4.09748276 Z M47.8479191,14.7851379 L47.8479191,4.09748276 L50.1239655,4.09748276 L50.1239655,8.03565517 C51.6411415,8.03565517 53.1637396,8.52248276 53.1637396,10.1834483 L53.1637396,12.890069 C53.1637396,13.6107931 52.9477586,14.1073448 52.5209929,14.3746552 C52.0890309,14.6467241 51.3302735,14.7851379 50.229132,14.7851379 L47.8479191,14.7851379 L47.8479191,14.7851379 Z M50.1239655,9.65844828 L50.1239655,13.2576207 C50.6296908,13.2576207 50.8878062,13.080931 50.8878062,12.7277586 L50.8878062,10.1548966 C50.8878062,9.82562069 50.7086504,9.65844828 50.3504518,9.65844828 L50.1239655,9.65844828 L50.1239655,9.65844828 Z" id="Fill-1" sketch:type="MSShapeGroup"></path>
                <path d="M69.4375446,14.7757241 L65.2228656,14.7757241 L65.2228656,4.10213793 L69.4165339,4.10213793 L69.4165339,5.47696552 L67.5620571,5.47696552 L67.5620571,8.06896552 L69.2321819,8.06896552 L69.2321819,9.55831034 L67.5620571,9.55831034 L67.5620571,13.2576207 L69.4375446,13.2576207 L69.4375446,14.7757241 L69.4375446,14.7757241 Z M75.8017539,16.6420345 L73.6575327,16.6420345 L73.6575327,14.7757241 L71.5660642,14.7757241 L71.5660642,16.5753103 L69.7115874,16.5894828 L69.7167836,13.1620345 C70.5543876,11.7206897 70.4491082,5.93048276 70.4491082,4.10213793 L75.3961118,4.10213793 L75.3961118,13.1001724 L75.8017539,13.1001724 L75.8017539,16.6420345 L75.8017539,16.6420345 Z M73.3202319,13.1001724 L73.3202319,5.78255172 L72.3877408,5.78255172 C72.3877408,8.93772414 72.5090606,11.3770345 71.7714269,13.1001724 L73.3202319,13.1001724 L73.3202319,13.1001724 Z M80.0583413,14.7757241 L76.1547562,14.7757241 L76.1547562,4.10213793 L80.2429191,4.10213793 L80.2429191,5.47696552 L78.1250178,5.47696552 L78.1250178,8.06896552 L80.0583413,8.06896552 L80.0583413,9.6537931 L78.1250178,9.6537931 L78.1250178,13.3054138 L80.0583413,13.3054138 L80.0583413,14.7757241 L80.0583413,14.7757241 Z M84.3257729,12.579931 L84.3257729,5.68210345 L83.4354162,5.68210345 L83.4354162,12.5988621 C83.4354162,14.2886897 81.8866112,15.105 80.4746017,14.7757241 L80.4746017,13.2768621 C80.580107,13.3244483 80.9806659,13.3101724 81.2439774,13.1144483 C81.3913912,13.0095517 81.4914744,12.7277586 81.4914744,12.6657931 L81.4914744,4.10213793 L86.5070452,4.10213793 L86.5070452,8.89934483 C85.9800832,9.39113793 84.6682699,11.7109655 84.3257729,12.579931 L84.3257729,12.579931 Z" id="Fill-2" sketch:type="MSShapeGroup"></path>
                <path d="M6.22820452,14.7851379 L3.95227111,14.7851379 L3.56244352,11.9163103 L2.58250892,11.9163103 L2.18206302,14.7851379 L0.0168311534,14.7851379 L1.76071938,4.09748276 L4.74785375,4.09748276 L6.22820452,14.7851379 L6.22820452,14.7851379 Z M3.42542212,10.4318276 L3.0935434,6.09744828 L2.77217004,10.4318276 L3.42542212,10.4318276 L3.42542212,10.4318276 Z" id="Fill-5" sketch:type="MSShapeGroup"></path>
                <path d="M64.4432105,14.7757241 L62.4201962,14.7757241 L62.4201962,9.6537931 L61.6193044,9.6537931 L61.6193044,14.7757241 L59.4434542,14.7757241 L59.4434542,4.10213793 L61.6193044,4.10213793 L61.6193044,8.35531034 L62.4201962,8.35531034 L62.4201962,4.10213793 L64.4432105,4.10213793 L64.4432105,14.7757241" id="Fill-6" sketch:type="MSShapeGroup"></path>
                <path d="M83.6199941,14.9855172 C82.8928656,17.3294483 83.8992331,18.327 85.321522,17.8974828 C86.3437039,17.5871379 87.4290309,16.4224138 87.8293639,15.7255862 C88.3772235,14.7707586 88.050541,14.1741724 88.2138823,13.1001724 C88.3560999,12.1597241 88.7039061,12.135931 89.415107,10.742069 C89.599346,10.3840345 90.9270868,8.57493103 90.9903448,7.34327586 C91.02717,6.66558621 90.5845898,5.88268966 89.5783353,6.27393103 C87.2813912,7.1762069 84.0308323,13.649069 83.6199941,14.9855172" id="Fill-3" sketch:type="MSShapeGroup"></path>
                <path d="M90.0524316,1.84448276 C90.0524316,2.69875862 91.4171106,3.97810345 92.2020749,4.28824138 C92.7815636,4.51748276 94.7572473,2.48875862 94.6781748,2.22631034 C94.6096076,2.01134483 94.4093282,1.49110345 94.1407075,1.14258621 C93.661302,0.507931034 92.9659156,0.0256551724 92.4706956,0.016137931 C91.7225565,0.00662068966 90.0262247,1.25710345 90.0524316,1.84448276" id="Fill-4" sketch:type="MSShapeGroup"></path>
            </g>
        </g>
    </g>
</svg>