<?xml version="1.0" encoding="utf-8"?>
<!-- Generator: Adobe Illustrator 16.0.0, SVG Export Plug-In . SVG Version: 6.00 Build 0)  -->
<!DOCTYPE svg PUBLIC "-//W3C//DTD SVG 1.1//EN" "http://www.w3.org/Graphics/SVG/1.1/DTD/svg11.dtd">
<svg version="1.1" id="Слой_1" xmlns="http://www.w3.org/2000/svg" xmlns:xlink="http://www.w3.org/1999/xlink" x="0px" y="0px"
	 width="71.228px" height="20px" viewBox="0 0 71.228 20" enable-background="new 0 0 71.228 20" xml:space="preserve">
<g>
	<path fill-rule="evenodd" clip-rule="evenodd" d="M44.708,8.238c1.365,0,1.154,1.746,1.154,2.917h-2.436
		c0-0.406,0.152-1.513,0.222-1.811C43.797,8.723,43.982,8.238,44.708,8.238L44.708,8.238z M32.028,7.731
		c-1.812,0-3.461,0.704-3.461,2.663c0,2.946,4.612,2.026,4.612,3.674c0,1.527-4.027,1.876-4.1-1.268h-0.513v2.156h-0.77
		c0-8.429,0.371-6.97-1.024-6.97H24.98c-0.745,0-0.835-0.446-1.024,0.251c-2.259-1.495-3.356,0.459-3.843,1.013
		c0-1.768,0.6-1.265-2.563-1.265c-0.737,0-0.952-0.485-1.024,0.377h0.897v6.593h-0.897v0.506h4.74v-0.506h-1.024
		c0-1.352-0.257-6.464,1.282-6.464c0.992,0-0.515,2.407,1.664,2.407c1.071,0,1.667-1.096,0.897-2.537h0.897v6.593
		c-1.119,0-0.806-0.044-1.024,0.251c0.148,0.215,0.018,0.255,0.384,0.255l5.327-0.079c1.845,0.284,4.452,0.679,5.378-1.243
		c0.632-1.314,0.047-2.642-1.006-3.205c-0.563-0.298-1.13-0.428-1.813-0.614C30.888,9.951,30.746,9.891,30.746,9
		c0-0.938,3.464-1.582,3.714,1.394c0.665-0.054,0.513-0.015,0.513-1.901h0.896v4.434c0,3.463,3.305,2.835,4.049,2.359
		c0.545-0.341,0.788-0.926,0.948-1.598c0.505,0.366,1.118,1.99,4.1,1.99c0.824,0,1.841-0.248,2.415-0.615
		c0.52-0.334,1.235-1.013,1.3-1.757c-1.071,0.026-0.262,0.342-1.202,1.097c-0.991,0.79-3.102,1.199-3.726-0.405
		c-0.178-0.457-0.327-1.75-0.327-2.335c5.926,0,5.781,0.451,5.258-1.402c-1.035-3.69-8.203-3.542-8.203,1.402
		c0,0.609,0.186,1.365,0.385,1.774h-0.385c-0.148,1.781-1.793,2.008-1.793,0.631V8.493c1.598,0,1.735,0.172,2.047-0.255
		c-0.297-0.428-0.432-0.251-2.047-0.251V5.706c0-0.486,0.04-0.047-0.128-0.381c-0.962,0.251-0.17,1.99-2.36,2.482
		c-0.733,0.165-1.438,0.294-2.011,0.201C33.418,7.886,32.892,7.731,32.028,7.731L32.028,7.731z"/>
	<path fill-rule="evenodd" clip-rule="evenodd" d="M50.475,16.226c0.45,0.104,0.748,0.309,1.293,0.366
		c0.606,0.06,1.191,0.038,1.688,0.103c0.919,0.127,2.654-0.164,2.654,0.795C56.11,19.71,48.325,19.396,50.475,16.226L50.475,16.226z
		 M53.035,12.676c-1.336,0-1.024-1.793-1.024-3.169c0-1.132,2.179-2.773,2.179,1.268C54.189,11.673,53.946,12.676,53.035,12.676
		L53.035,12.676z M49.32,10.52c0,1.127,0.726,2.065,1.667,2.281c-0.664,0.898-1.282,0.427-1.282,2.156
		c0,0.6,0.247,0.506,0.385,1.013c-1.315,0.302-2.974,3.104,2.455,3.535c1.063,0.083,3.551-0.338,4.43-1.286
		c0.918-0.996,0.977-2.953-0.843-3.539c-1.63-0.521-3.998-0.062-5.019-0.735v-0.638c0.625-0.165,0.113-0.234,0.752-0.234
		c0.628,0.004,4.884,0.588,4.884-2.298c0-1.649-0.16-1.257-0.771-2.155c0.302,0,0.752,0.028,1.032,0.003
		c1.096-0.09-0.036-0.158,0.893-0.259c0,2.684-0.871,7.814,3.112,7.272c1.598-0.217,1.714-0.956,2.139-1.44v1.268h7.688
		c0.359,0,0.236-0.054,0.385-0.255c-0.21-0.299,0.094-0.251-1.028-0.251v-7.1l-2.56,0.129c-0.646,0-0.574-0.116-1.154-0.129v0.506
		h0.896v6.593h-1.536c0-8.429,0.37-6.97-1.024-6.97c-2.811,0-2.756-0.389-2.818,0.377h1.024c0,1.584,0.479,6.593-1.409,6.593
		c-0.781,0-0.89-0.623-0.905-1.392l0.012-4.569c0.025-1.487,0.493-1.009-2.822-1.009c-0.315,0-0.497-0.072-0.657-0.076l-2.291,0.076
		C54.68,7.987,49.32,6.635,49.32,10.52L49.32,10.52z"/>
	<path fill-rule="evenodd" clip-rule="evenodd" d="M6.405,4.437c0.443,0.32,1.558,3.19,1.848,3.876
		C8.5,8.896,8.686,9.104,8.838,9.758H4.227c0.044-0.492,0.824-2.077,1.061-2.626L6.405,4.437z M21.011,18.377
		c-3.283,0-4.013-0.327-5.124-2.534c-1.252-2.482-2.473-5.435-3.671-7.903C11.755,6.995,8.773,0.801,8.584,0H7.557
		c-0.04,0.5-4.14,9.944-4.782,11.363l-1.75,3.719H0c0.015,0.561,0,0.668,0.617,0.644c0.469-0.02,0.625-0.162,1.304-0.144
		c1.354,0.035,2.026,0.636,2.052-0.5H2.306c0.196-0.833,0.356-1.691,0.625-2.426c0.265-0.729,0.748-1.565,0.911-2.262h5.382
		l1.583,3.502c1.195,2.446,1.67,5.008,5.461,4.99c0.973-0.004,1.649-0.104,2.437-0.129C19.26,18.739,20.56,18.661,21.011,18.377
		L21.011,18.377z"/>
	<path fill-rule="evenodd" clip-rule="evenodd" d="M24.595,4.943c0,1.883,3.461,2.148,3.461,0
		C28.056,2.827,24.595,3.021,24.595,4.943L24.595,4.943z"/>
	<path fill-rule="evenodd" clip-rule="evenodd" d="M67.128,4.817c0,1.078,0.857,1.646,1.537,1.646c2.632,0,2.273-3.04,0.257-3.04
		C67.996,3.424,67.128,3.905,67.128,4.817L67.128,4.817z"/>
	<polygon fill-rule="evenodd" clip-rule="evenodd" points="21.011,18.377 21.138,18.377 21.033,18.229 	"/>
	<path d="M22.438,16.721h0.913l1.19,1.783v-1.783h0.926v3.227h-0.926l-1.182-1.77v1.77h-0.921V16.721z M26.145,18.338
		c0-0.526,0.146-0.938,0.432-1.232c0.289-0.292,0.692-0.437,1.207-0.437c0.528,0,0.934,0.145,1.219,0.429
		c0.285,0.291,0.428,0.693,0.428,1.213c0,0.378-0.064,0.688-0.189,0.929c-0.122,0.242-0.307,0.427-0.541,0.563
		c-0.234,0.134-0.528,0.2-0.881,0.2c-0.355,0-0.653-0.059-0.888-0.173c-0.235-0.116-0.422-0.3-0.569-0.55
		C26.221,19.03,26.145,18.717,26.145,18.338L26.145,18.338z M27.126,18.338c0,0.327,0.059,0.563,0.176,0.704
		c0.121,0.142,0.28,0.213,0.485,0.213c0.214,0,0.377-0.066,0.491-0.207c0.117-0.142,0.172-0.391,0.172-0.754
		c0-0.301-0.058-0.522-0.18-0.663c-0.121-0.142-0.281-0.21-0.491-0.21c-0.197,0-0.355,0.072-0.474,0.214
		C27.185,17.775,27.126,18.013,27.126,18.338L27.126,18.338z M29.778,16.721h2.974v0.802h-0.997v2.425h-0.98v-2.425h-0.998V16.721z
		 M33.385,16.721h0.985v3.227h-0.985V16.721z M37.336,18.628l0.859,0.266c-0.059,0.245-0.151,0.45-0.276,0.613
		c-0.122,0.164-0.277,0.288-0.461,0.372c-0.185,0.081-0.416,0.124-0.7,0.124c-0.344,0-0.629-0.051-0.846-0.152
		c-0.219-0.1-0.406-0.28-0.566-0.539c-0.155-0.253-0.235-0.582-0.235-0.984c0-0.532,0.139-0.942,0.416-1.229
		c0.28-0.288,0.674-0.429,1.185-0.429c0.398,0,0.713,0.08,0.943,0.245c0.226,0.165,0.398,0.418,0.506,0.756l-0.863,0.198
		c-0.029-0.097-0.063-0.169-0.092-0.215c-0.059-0.075-0.125-0.136-0.201-0.176c-0.079-0.04-0.171-0.062-0.268-0.062
		c-0.223,0-0.393,0.089-0.511,0.271c-0.088,0.136-0.134,0.346-0.134,0.636c0,0.357,0.055,0.603,0.159,0.735
		c0.109,0.13,0.256,0.196,0.453,0.196c0.184,0,0.326-0.052,0.422-0.161C37.223,18.985,37.29,18.834,37.336,18.628L37.336,18.628z
		 M38.861,16.721h0.98v3.227h-0.98V16.721z M42.649,19.416h-1.11l-0.159,0.531h-0.998l1.19-3.227h1.072l1.186,3.227h-1.027
		L42.649,19.416z M42.438,18.721l-0.343-1.163l-0.348,1.163H42.438z M44.127,18.882l0.93-0.061c0.018,0.153,0.059,0.272,0.122,0.351
		c0.101,0.132,0.243,0.196,0.432,0.196c0.138,0,0.248-0.032,0.322-0.101c0.076-0.068,0.113-0.146,0.113-0.233
		c0-0.08-0.033-0.156-0.104-0.222c-0.071-0.067-0.239-0.129-0.503-0.188c-0.426-0.098-0.732-0.229-0.917-0.391
		c-0.186-0.165-0.277-0.368-0.277-0.622c0-0.167,0.05-0.322,0.142-0.468c0.097-0.149,0.235-0.267,0.428-0.35
		c0.188-0.086,0.448-0.125,0.779-0.125c0.402,0,0.712,0.077,0.921,0.23c0.214,0.151,0.34,0.396,0.382,0.731l-0.922,0.057
		c-0.025-0.146-0.075-0.255-0.155-0.319c-0.075-0.066-0.184-0.1-0.323-0.1c-0.113,0-0.2,0.024-0.259,0.071
		c-0.054,0.049-0.084,0.108-0.084,0.183c0,0.047,0.022,0.097,0.072,0.136c0.042,0.045,0.151,0.08,0.322,0.121
		c0.432,0.093,0.737,0.188,0.921,0.284c0.185,0.095,0.318,0.215,0.402,0.355c0.084,0.145,0.126,0.302,0.126,0.479
		c0,0.208-0.055,0.398-0.168,0.57c-0.113,0.177-0.268,0.31-0.469,0.398c-0.201,0.093-0.458,0.136-0.763,0.136
		c-0.541,0-0.914-0.104-1.119-0.316C44.27,19.477,44.152,19.208,44.127,18.882L44.127,18.882z"/>
</g>
<rect opacity="0" fill-rule="evenodd" clip-rule="evenodd" width="71.228" height="20"/>
</svg>
