<?xml version="1.0" encoding="utf-8"?>
<!-- Generator: Adobe Illustrator 16.0.0, SVG Export Plug-In . SVG Version: 6.00 Build 0)  -->
<!DOCTYPE svg PUBLIC "-//W3C//DTD SVG 1.1//EN" "http://www.w3.org/Graphics/SVG/1.1/DTD/svg11.dtd">
<svg version="1.1" id="Слой_1" xmlns="http://www.w3.org/2000/svg" xmlns:xlink="http://www.w3.org/1999/xlink" x="0px" y="0px"
	 width="93.458px" height="20px" viewBox="0 0 93.458 20" enable-background="new 0 0 93.458 20" xml:space="preserve">
<title>arstechnica.com</title>
<desc>Created with Sketch.</desc>
<g>
	<g>
		<path fill-rule="evenodd" clip-rule="evenodd" d="M10.087,0.019C4.516,0.019,0,4.487,0,10c0,5.511,4.516,9.979,10.087,9.979
			c5.571,0,10.087-4.468,10.087-9.979C20.174,4.487,15.658,0.019,10.087,0.019z M7.447,12.866H6.516l-0.129-0.819
			c-0.491,0.5-1.164,0.949-2.173,0.949c-1.114,0-1.812-0.666-1.812-1.703c0-1.523,1.319-2.125,3.895-2.393V8.643
			c0-0.768-0.466-1.037-1.177-1.037c-0.75,0-1.462,0.23-2.135,0.525L2.828,7.146c0.737-0.294,1.437-0.512,2.394-0.512
			c1.501,0,2.225,0.601,2.225,1.958V12.866z M10.129,9.257v3.609H8.977V6.762h0.918l0.195,1.241c0.44-0.691,1.151-1.318,2.161-1.369
			l0.181,1.087C11.41,7.773,10.543,8.451,10.129,9.257z M15.34,12.996c-0.815,0-1.721-0.283-2.252-0.578l0.168-1.074
			c0.582,0.397,1.333,0.703,2.174,0.703c0.789,0,1.255-0.292,1.255-0.806c0-0.562-0.35-0.768-1.462-1.036
			c-1.449-0.358-2.032-0.794-2.032-1.882c0-0.972,0.829-1.688,2.175-1.688c0.763,0,1.448,0.153,2.031,0.409l-0.181,1.075
			c-0.543-0.307-1.229-0.525-1.876-0.525c-0.699,0-1.061,0.268-1.061,0.704c0,0.409,0.31,0.641,1.28,0.883
			c1.527,0.384,2.214,0.82,2.214,1.983C17.772,12.279,16.931,12.996,15.34,12.996z"/>
		<path fill-rule="evenodd" clip-rule="evenodd" d="M3.54,11.229c0,0.5,0.336,0.818,0.918,0.818c0.673,0,1.32-0.332,1.838-0.856
			V9.77C4.019,9.987,3.54,10.601,3.54,11.229z"/>
	</g>
	<g>
		<path d="M45.786,15.218c-0.868,0.733-1.68,1.047-2.714,1.047c-1.738,0-2.734-1.252-2.734-3.437c0-2.12,0.991-3.437,2.585-3.437
			c0.998,0,1.819,0.323,2.745,1.077l0.727,0.595l0.445-2.654l-0.279-0.197C45.521,7.474,44.313,7.1,42.966,7.1
			c-3.078,0-5.145,2.31-5.145,5.75c0,3.427,2.042,5.728,5.081,5.728c1.463,0,2.659-0.398,3.764-1.252l0.252-0.194l-0.386-2.546
			L45.786,15.218z"/>
		<path d="M35.556,15.194c-0.866,0.736-1.678,1.052-2.715,1.052c-1.379,0-2.29-0.787-2.607-2.23h5.798l0.392-2.395h-6.195
			c0.306-1.438,1.182-2.25,2.465-2.25c0.999,0,1.819,0.322,2.743,1.078l0.728,0.594l0.447-2.652l-0.279-0.198
			c-1.039-0.739-2.25-1.114-3.596-1.114c-3.077,0-5.145,2.309-5.145,5.75c0,3.426,2.042,5.73,5.081,5.73
			c1.463,0,2.659-0.4,3.762-1.251l0.253-0.199l-0.387-2.546L35.556,15.194z"/>
		<path d="M53.849,7.1c-1.181,0-2.177,0.476-2.991,1.044V2.041l-2.495,0.45v15.876h2.495v-7.516
			c1.022-0.955,1.911-1.419,2.713-1.419c0.618,0,1.329,0.172,1.329,1.521v7.413h2.496v-7.688C57.396,8.404,56.103,7.1,53.849,7.1z"
			/>
		<path d="M64.452,7.1c-1.286,0-2.362,0.566-3.23,1.211l-0.16-1h-2.096v11.057h2.496V10.85c1.022-0.953,1.911-1.417,2.714-1.417
			c0.619,0,1.329,0.172,1.329,1.521v7.413h2.497V10.7C68.001,8.413,66.708,7.1,64.452,7.1z"/>
		<rect x="69.571" y="7.311" width="2.475" height="11.057"/>
		<path d="M70.819,2.908c-0.849,0-1.568,0.712-1.568,1.557c0,0.843,0.719,1.555,1.568,1.555c0.852,0,1.545-0.696,1.545-1.555
			C72.365,3.605,71.671,2.908,70.819,2.908z"/>
		<path d="M81.583,15.218c-0.87,0.733-1.681,1.047-2.715,1.047c-1.737,0-2.734-1.252-2.734-3.437c0-2.12,0.991-3.437,2.585-3.437
			c0.999,0,1.818,0.323,2.743,1.077l0.727,0.595l0.445-2.654l-0.277-0.198C81.318,7.474,80.108,7.1,78.762,7.1
			c-3.078,0-5.145,2.31-5.145,5.75c0,3.427,2.041,5.728,5.08,5.728c1.462,0,2.657-0.398,3.762-1.252l0.253-0.194l-0.385-2.546
			L81.583,15.218z"/>
		<path d="M88.535,7.1c-1.639,0-2.923,0.46-3.965,0.91l-0.386,0.167l0.367,2.382l0.661-0.314c1.181-0.56,2.241-0.832,3.24-0.832
			c1.359,0,1.542,0.695,1.542,1.372v0.16c-3.424,0.379-6.475,1.231-6.475,4.372c0,1.981,1.394,3.262,3.549,3.262
			c1.113,0,2.18-0.358,3.181-1.074l0.152,0.863h2.066v-7.646C92.465,8.386,91.069,7.1,88.535,7.1z M86.014,15.23
			c0-0.481,0-1.586,3.978-2.087v1.97c-0.875,0.751-1.875,1.196-2.713,1.196C86.7,16.31,86.014,16.122,86.014,15.23z"/>
		<path d="M26.578,16.144c-0.354,0.065-0.639,0.099-0.845,0.099c-0.813,0-0.951-0.229-0.951-0.916V9.563h2.619l-0.369-2.276h-2.25
			V3.483L22.3,3.899v3.388h-1.562v2.276H22.3v5.996c0,1.369,0.551,3.002,3.178,3.002c0.554,0,1.136-0.073,1.559-0.19l0.479-0.136
			l-0.401-2.188L26.578,16.144z"/>
	</g>
</g>
<rect y="0.019" opacity="0" width="93.458" height="19.981"/>
</svg>
